<svg width="22" height="19" viewBox="0 0 22 19" fill="none" xmlns="http://www.w3.org/2000/svg">
<path d="M19.4359 10.8135C19.7282 10.52 19.7273 10.0451 19.4338 9.7528C19.1403 9.46048 18.6655 9.46141 18.3731 9.75487L19.4359 10.8135ZM11.0474 18.172L10.516 18.7013C10.6567 18.8426 10.8479 18.922 11.0474 18.922C11.2468 18.922 11.438 18.8426 11.5787 18.7013L11.0474 18.172ZM3.72158 9.75487C3.42926 9.46141 2.95439 9.46048 2.66093 9.7528C2.36746 10.0451 2.36654 10.52 2.65886 10.8135L3.72158 9.75487ZM2.66349 10.8182C2.95839 11.1091 3.43325 11.1058 3.72413 10.8109C4.01501 10.516 4.01175 10.0411 3.71685 9.75026L2.66349 10.8182ZM11.0473 3.31175L10.4425 3.75524C10.5833 3.94733 10.807 4.06109 11.0452 4.06175C11.2834 4.06241 11.5078 3.94989 11.6497 3.75858L11.0473 3.31175ZM18.3753 9.7591C18.0818 10.0513 18.0807 10.5262 18.373 10.8198C18.6652 11.1133 19.1401 11.1143 19.4336 10.8221L18.3753 9.7591ZM18.3731 9.75487L10.516 17.6427L11.5787 18.7013L19.4359 10.8135L18.3731 9.75487ZM11.5787 17.6427L3.72158 9.75487L2.65886 10.8135L10.516 18.7013L11.5787 17.6427ZM3.71685 9.75026C2.5043 8.55425 2.05436 6.76553 2.55837 5.12247L1.12432 4.68257C0.457612 6.85602 1.05019 9.22687 2.66349 10.8182L3.71685 9.75026ZM2.55837 5.12247C3.06209 3.48035 4.43005 2.27097 6.09068 1.98401L5.83526 0.50592C3.609 0.890612 1.79131 2.50819 1.12432 4.68257L2.55837 5.12247ZM6.09068 1.98401C7.75064 1.69718 9.43296 2.37843 10.4425 3.75524L11.6521 2.86827C10.3096 1.0373 8.0622 0.121112 5.83526 0.50592L6.09068 1.98401ZM11.6497 3.75858C12.6634 2.39202 14.3421 1.71982 15.996 2.00934L16.2547 0.53181C14.0358 0.143407 11.7931 1.04744 10.445 2.86492L11.6497 3.75858ZM15.996 2.00934C17.6506 2.29898 19.013 3.50456 19.5171 5.14068L20.9506 4.69901C20.2831 2.53255 18.4728 0.920097 16.2547 0.53181L15.996 2.00934ZM19.5171 5.14068C20.0215 6.77773 19.5784 8.56124 18.3753 9.7591L19.4336 10.8221C21.0343 9.22842 21.6178 6.86455 20.9506 4.69901L19.5171 5.14068Z" fill="#696C87"/>
</svg>
