<svg width="76" height="34" viewBox="0 0 76 34" fill="none" xmlns="http://www.w3.org/2000/svg">
<path d="M0.5 7.84804C0.5 3.51369 4.05075 0 8.43083 0H26.9278C31.3079 0 34.8587 3.51369 34.8587 7.84804V26.152C34.8587 30.4863 31.3079 34 26.9278 34H8.43083C4.05075 34 0.5 30.4863 0.5 26.152V7.84804Z" fill="#0F0F10"/>
<path d="M20.264 13.3229V10.1535C20.264 9.67588 19.8726 9.28564 19.387 9.28564H18.3394V11.4989C18.3394 12.2765 18.3394 15.7693 18.3394 16.5614C18.7308 15.9411 19.2575 14.5373 19.7696 14.2082C20.0757 14.0131 20.264 13.6811 20.264 13.3229Z" fill="#FD6721"/>
<path d="M27.8214 16.1002C27.586 14.7635 26.8885 13.7122 25.7437 12.9725C24.955 12.4628 24.0868 12.2037 23.1628 12.2037C22.8273 12.2037 22.483 12.2386 22.1328 12.3056C22.1357 12.3085 18.3717 13.121 18.3423 16.6593C18.3423 16.7146 18.3423 16.7729 18.3423 16.8282C18.3423 17.1806 18.3688 17.4893 18.4188 17.7718C18.6572 19.1026 19.3488 20.151 20.4759 20.8878C21.2675 21.4062 22.1416 21.6683 23.0686 21.6683C23.3629 21.6683 23.666 21.642 23.9691 21.5896C25.3111 21.3567 26.3705 20.6694 27.1151 19.5482C27.8037 18.5115 28.0421 17.3524 27.8214 16.1002ZM23.1245 19.7957H23.1098C21.5089 19.787 20.2581 18.5318 20.2611 16.936C20.264 15.3343 21.5177 14.0791 23.1157 14.0791H23.1216C23.8985 14.0791 24.6225 14.3761 25.1581 14.9091C25.6966 15.4449 25.9909 16.1701 25.9909 16.9505C25.985 18.5464 24.7255 19.7986 23.1245 19.7986V19.7957Z" fill="#FD6721"/>
<path d="M7.54095 15.9865C7.89999 13.6772 9.88351 11.9998 12.2555 11.9998C12.4762 11.9998 12.7028 12.0143 12.9235 12.0434C13.209 12.0813 13.4856 12.1425 13.7505 12.224C14.1831 12.358 14.4803 12.754 14.4803 13.2025V14.8071C13.9477 14.2421 13.1913 13.8927 12.335 13.8927C11.5374 13.8927 10.7929 14.1926 10.2425 14.7372C9.68927 15.2847 9.38616 16.0273 9.38616 16.8223C9.38616 18.4619 10.684 19.7491 12.335 19.752C13.1266 19.752 13.8653 19.4491 14.4126 18.9016C14.96 18.3541 15.2631 17.6174 15.2631 16.8252V12.1803H16.1607C16.7317 12.1803 17.1937 12.6375 17.1937 13.2025V24.7144H16.2932C15.7222 24.7144 15.2602 24.2571 15.2602 23.6922V20.6227C14.4156 21.2867 13.3591 21.6537 12.2467 21.6537C11.2961 21.6537 10.3867 21.3799 9.6157 20.8586C7.93236 19.7229 7.21136 18.0367 7.53213 15.9865H7.54095Z" fill="#FD6721"/>
<path d="M44.7966 20.2485C44.5819 20.4224 44.3183 20.5528 44.006 20.6397C43.7034 20.7267 43.3813 20.7701 43.0396 20.7701C42.1807 20.7701 41.5169 20.548 41.0484 20.1036C40.5798 19.6593 40.3456 19.0122 40.3456 18.1622V14.4386H39.0571V12.9897H40.3456V11.2221H42.1758V12.9897H44.2695V14.4386H42.1758V18.1187C42.1758 18.4954 42.2685 18.7852 42.454 18.988C42.6394 19.1812 42.9079 19.2778 43.2592 19.2778C43.6692 19.2778 44.0108 19.1715 44.2842 18.959L44.7966 20.2485Z" fill="black"/>
<path d="M49.5588 20.7701C48.7681 20.7701 48.0556 20.6011 47.4211 20.263C46.7866 19.9249 46.2888 19.4565 45.9277 18.8576C45.5763 18.2491 45.4006 17.5633 45.4006 16.8002C45.4006 16.0371 45.5763 15.3562 45.9277 14.7573C46.2888 14.1584 46.7866 13.69 47.4211 13.3519C48.0556 13.0138 48.7681 12.8448 49.5588 12.8448C50.3592 12.8448 51.0766 13.0138 51.7111 13.3519C52.3455 13.69 52.8385 14.1584 53.1899 14.7573C53.551 15.3562 53.7316 16.0371 53.7316 16.8002C53.7316 17.5633 53.551 18.2491 53.1899 18.8576C52.8385 19.4565 52.3455 19.9249 51.7111 20.263C51.0766 20.6011 50.3592 20.7701 49.5588 20.7701ZM49.5588 19.2198C50.2323 19.2198 50.7887 18.9977 51.2279 18.5533C51.6671 18.109 51.8868 17.5247 51.8868 16.8002C51.8868 16.0758 51.6671 15.4914 51.2279 15.0471C50.7887 14.6028 50.2323 14.3806 49.5588 14.3806C48.8853 14.3806 48.3289 14.6028 47.8896 15.0471C47.4601 15.4914 47.2454 16.0758 47.2454 16.8002C47.2454 17.5247 47.4601 18.109 47.8896 18.5533C48.3289 18.9977 48.8853 19.2198 49.5588 19.2198Z" fill="black"/>
<path d="M58.9957 20.7701C58.205 20.7701 57.4925 20.6011 56.858 20.263C56.2236 19.9249 55.7257 19.4565 55.3646 18.8576C55.0132 18.2491 54.8375 17.5633 54.8375 16.8002C54.8375 16.0371 55.0132 15.3562 55.3646 14.7573C55.7257 14.1584 56.2236 13.69 56.858 13.3519C57.4925 13.0138 58.205 12.8448 58.9957 12.8448C59.7961 12.8448 60.5135 13.0138 61.148 13.3519C61.7825 13.69 62.2754 14.1584 62.6268 14.7573C62.9879 15.3562 63.1685 16.0371 63.1685 16.8002C63.1685 17.5633 62.9879 18.2491 62.6268 18.8576C62.2754 19.4565 61.7825 19.9249 61.148 20.263C60.5135 20.6011 59.7961 20.7701 58.9957 20.7701ZM58.9957 19.2198C59.6692 19.2198 60.2256 18.9977 60.6648 18.5533C61.1041 18.109 61.3237 17.5247 61.3237 16.8002C61.3237 16.0758 61.1041 15.4914 60.6648 15.0471C60.2256 14.6028 59.6692 14.3806 58.9957 14.3806C58.3222 14.3806 57.7658 14.6028 57.3265 15.0471C56.8971 15.4914 56.6823 16.0758 56.6823 16.8002C56.6823 17.5247 56.8971 18.109 57.3265 18.5533C57.7658 18.9977 58.3222 19.2198 58.9957 19.2198Z" fill="black"/>
<path d="M64.9186 9.91809H66.7488V20.6687H64.9186V9.91809Z" fill="black"/>
<path d="M71.5668 20.7701C70.9323 20.7701 70.3125 20.688 69.7073 20.5238C69.1021 20.3596 68.619 20.1519 68.2578 19.9008L68.9606 18.5244C69.312 18.7562 69.7317 18.9445 70.2198 19.0894C70.7176 19.2247 71.2056 19.2923 71.6839 19.2923C72.7772 19.2923 73.3238 19.0073 73.3238 18.4374C73.3238 18.167 73.1823 17.9786 72.8992 17.8724C72.6259 17.7661 72.1818 17.6647 71.5668 17.5681C70.9226 17.4715 70.3955 17.3604 69.9855 17.2349C69.5853 17.1093 69.2339 16.892 68.9313 16.5829C68.6385 16.2641 68.4921 15.8246 68.4921 15.2644C68.4921 14.5303 68.7996 13.9459 69.4145 13.5113C70.0392 13.067 70.8787 12.8448 71.9328 12.8448C72.4697 12.8448 73.0066 12.9076 73.5434 13.0332C74.0803 13.1491 74.5195 13.3084 74.8612 13.5113L74.1584 14.8877C73.4946 14.5013 72.7479 14.3082 71.9182 14.3082C71.3813 14.3082 70.9714 14.3903 70.6883 14.5545C70.415 14.709 70.2784 14.9167 70.2784 15.1775C70.2784 15.4673 70.4248 15.6749 70.7176 15.8005C71.0202 15.9164 71.4838 16.0275 72.1085 16.1337C72.7332 16.2303 73.2457 16.3414 73.6459 16.467C74.0461 16.5925 74.3877 16.805 74.6708 17.1045C74.9636 17.4039 75.1101 17.8289 75.1101 18.3795C75.1101 19.1039 74.7928 19.6835 74.1584 20.1181C73.5239 20.5528 72.66 20.7701 71.5668 20.7701Z" fill="black"/>
</svg>
