<svg width="233" height="211" viewBox="0 0 233 211" fill="none" xmlns="http://www.w3.org/2000/svg">
<path opacity="0.1" fill-rule="evenodd" clip-rule="evenodd" d="M66.6046 -109.847C64.1468 -105.99 61.6653 -101.356 61.0886 -99.5475C60.512 -97.739 58.7174 -94.5621 57.1007 -92.487C55.484 -90.4119 51.8925 -84.9641 49.1197 -80.3801C43.5333 -71.1474 36.2239 -62.9872 25.1694 -53.6427C18.8925 -48.3361 17.4083 -46.6016 14.0922 -40.6939C11.9863 -36.9426 9.38062 -32.9912 8.30281 -31.9134C5.00599 -28.6166 0.297603 -12.6626 0.0451644 -3.93069C-0.0828365 0.470822 0.40772 4.66723 1.13404 5.39354C2.36518 6.62469 2.46303 6.54934 2.57703 4.28101C2.64471 2.94352 3.42231 0.39404 4.30498 -1.38299C5.18766 -3.16001 6.1758 -7.07169 6.50132 -10.0747C7.03985 -15.0442 7.41461 -15.7719 10.6694 -18.1787C12.636 -19.6335 17.9578 -22.043 22.4952 -23.5331C28.103 -25.3751 31.6726 -27.1686 33.6409 -29.1327C37.2179 -32.7027 41.9402 -45.0692 42.9855 -53.604C44.3928 -65.1009 45.0646 -67.2451 49.8561 -75.531C52.4938 -80.0938 54.8481 -83.8262 55.088 -83.8271C56.1419 -83.8277 53.3202 -71.8487 46.9839 -49.4281C32.3082 2.4985 31.8552 3.48023 16.804 15.8371C11.3649 20.3017 6.91519 24.3253 6.9149 24.7784C6.91181 29.6864 24.8234 22.1935 36.7605 12.2927C42.7156 7.35419 45.4895 2.12364 46.9354 -6.88486C47.4439 -10.0554 48.0905 -12.4176 48.3718 -12.1364C48.6537 -11.8544 49.9195 -7.44888 51.1848 -2.34821C52.4501 2.75387 54.8039 9.95958 56.4162 13.6642C58.0278 17.3695 59.4298 21.0398 59.5327 21.8213C59.7953 23.8228 53.2873 32.9632 48.8116 36.8792C43.0844 41.8893 39.5554 47.2969 34.4889 58.8264C30.8217 67.175 29.6617 71.4006 28.8807 79.2661C27.5234 92.9489 26.4665 97.6817 23.3147 104.201C21.8205 107.293 20.8695 110.366 21.2012 111.031C21.6523 111.934 22.2029 111.269 23.381 108.392C24.3295 106.076 25.999 103.829 27.5728 102.747C29.4725 101.442 30.0085 100.545 29.53 99.4682C29.1668 98.653 29.285 97.5702 29.7919 97.0633C31.4695 95.3857 35.955 81.342 37.7394 72.1778C38.7064 67.2171 39.7983 62.7377 40.1673 62.2238C40.5363 61.71 41.2611 59.1782 41.7778 56.5972C43.1766 49.61 46.1631 44.1261 51.3966 38.9348L56.0788 34.2905L53.4674 40.831C52.0313 44.4284 49.7317 52.762 48.3564 59.3503C45.5887 72.6098 42.7014 81.3919 40.4431 83.4224L38.9606 84.7559L40.0198 82.9992C42.6074 78.7073 43.2712 62.5202 40.8594 62.5217C40.412 62.522 40.4328 63.9621 40.9038 65.7228C42.142 70.343 40.0336 81.1966 37.3845 83.8458C36.1863 85.044 34.4345 88.3778 33.4913 91.2545C32.5481 94.1313 31.2905 96.9709 30.6963 97.5651C30.1029 98.1585 29.9546 98.9818 30.3673 99.3945C30.7857 99.8128 31.524 99.3628 32.0333 98.381C32.5362 97.4098 34.3398 94.6191 36.039 92.1788C45.504 78.5907 45.9874 77.4634 49.355 61.1557C51.6937 49.8256 56.8263 35.0393 59.8978 30.7795C61.9322 27.9576 62.0778 27.9259 63.1839 30.0541C63.8198 31.2786 66.8905 36.3753 70.0076 41.3792C73.1247 46.383 75.9451 51.0324 76.2754 51.7118C76.7096 52.6036 74.9445 53.4926 69.9012 54.9219C66.0655 56.0085 62.0457 57.7784 60.9693 58.8548C58.8115 61.0125 53.6379 75.006 53.9098 77.9488C54.0244 79.1912 52.6589 81.2344 49.7781 84.1293C38.8302 95.1292 33.9857 108.318 33.5651 128.27C33.3171 139.997 32.9287 142.267 30.5837 145.687C26.7867 151.227 25.8198 157.189 27.9323 162.04C30.0378 166.877 30.484 166.723 30.0216 161.319C29.4398 154.514 32.5137 147.816 39.4227 140.834C46.788 133.391 53.6171 123.72 55.6787 117.814C57.0567 113.867 57.3221 113.541 57.9523 115.024C59.502 118.669 67.553 129.444 72.3363 134.274C76.7989 138.78 77.638 140.225 79.5687 146.729C80.7692 150.775 82.0116 155.408 82.3293 157.024C83.0467 160.681 85.8737 164.951 87.8905 165.426C88.9485 165.676 88.8427 164.906 87.5424 162.896C86.5141 161.307 85.5994 159.318 85.5091 158.476C85.4175 157.634 84.73 156.8 83.9801 156.623C83.1479 156.427 83.0981 156.189 83.8517 156.01C84.5314 155.849 84.9659 155.2 84.8172 154.567C84.6677 153.934 84.8248 152.495 85.1668 151.368C85.7484 149.452 85.8827 149.52 87.2634 152.428C89.0459 156.182 99.6536 167.036 108.469 174.125C115.534 179.808 117.908 180.197 112.596 174.801C108.396 170.535 105.294 163.743 103.772 155.481C102.559 148.891 97.7677 138.635 94.2648 135.132C92.7587 133.626 92.4929 132.345 93.2183 130.073C95.8935 121.681 93.126 106.798 86.4385 93.6098C82.9961 86.8205 80.6212 75.2219 80.2669 63.4629C80.1422 59.3338 80.246 56.5821 80.4966 57.3481C81.5591 60.5888 96.7177 79.839 103.761 86.8905C111.247 94.3871 111.482 94.7471 115.802 105.392C118.225 111.363 121.895 122.964 123.957 131.174C129.774 154.333 136.556 167.809 148.567 180.081C154.516 186.16 166.379 194.393 168.474 193.897C168.942 193.785 167.056 191.079 164.28 187.883C157.843 180.47 156.042 176.654 152.679 163.304C147.888 144.294 141.792 132.453 126.395 112.255C123.384 108.305 120.892 104.658 120.858 104.152C120.758 102.713 132.346 115.407 135.085 119.737C136.433 121.869 141.303 130.901 145.908 139.808C165.418 177.554 180.807 195.559 198.438 201.267C200.757 202.019 202.886 202.402 203.168 202.119C203.451 201.836 200.123 198.046 195.773 193.695C189.744 187.665 187.194 184.446 185.051 180.159L182.239 174.533L186.955 178.958C194.869 186.382 206.072 194.697 219.145 202.849C225.996 207.122 231.843 210.616 232.14 210.616C232.435 210.616 229.635 207.165 225.915 202.946C222.194 198.729 216.113 191.037 212.401 185.855C201.404 170.501 191.08 158.343 181.006 148.879L171.538 139.984L176.583 142.095C179.357 143.258 185.122 145.065 189.395 146.114C193.668 147.161 198.68 148.793 200.534 149.74C205.709 152.382 214.55 155.081 213.939 153.831C213.639 153.219 211.239 151.55 208.603 150.123C205.623 148.508 201.086 144.802 196.601 140.317C190.153 133.869 187.883 132.272 175.156 125.227C167.328 120.893 157.066 115.771 152.351 113.844C147.636 111.916 140.717 109.095 136.975 107.574C126.498 103.315 120.79 98.8226 106.517 83.6088C99.5877 76.2237 93.4452 69.0774 92.8663 67.7283C91.9713 65.6422 92.4025 65.8508 95.7521 69.1245C101.021 74.2754 116.484 86.2676 123.458 90.6125C130.625 95.0791 147.998 103.291 157.187 106.558C163.887 108.939 164.626 109.452 170.21 115.597C176.663 122.699 177.863 122.939 174.01 116.355C172.645 114.025 169.413 107.222 166.826 101.236C164.239 95.2508 160.906 88.4593 159.419 86.1442C157.931 83.829 147.053 71.9796 135.245 59.812C123.437 47.6438 112.846 36.4048 111.71 34.8352L109.644 31.9808L112.764 32.9539C119.587 35.0814 149.712 49.7055 153.61 52.7825C158.494 56.6377 162.654 62.5098 173.694 81.1273C180.831 93.1641 183.046 96.1395 192.098 105.859C200.138 114.49 204.128 118.115 210.335 122.426C214.705 125.461 218.523 127.702 218.82 127.406C219.115 127.11 217.084 124.237 214.305 121.023C211.526 117.808 208.356 113.226 207.26 110.841C206.165 108.456 203.17 102.908 200.606 98.5114C198.042 94.115 196.576 91.1512 197.348 91.9253C199.203 93.7822 231.694 110.217 232.341 109.624C232.617 109.372 231.926 108.427 230.806 107.522C229.686 106.619 226.047 101.558 222.718 96.2749C214.083 82.5702 203.498 72.1312 192.596 66.5673C188.289 64.3693 182.166 62.0923 178.988 61.5068C172.425 60.2966 172.176 60.1856 164.111 54.8514C160.163 52.2395 158.885 51.0906 160.28 51.4071C172.715 54.2261 178.037 54.7322 190.312 54.2608C198.167 53.9604 207.773 52.9926 211.66 52.1107C215.548 51.2295 220.72 50.3742 223.154 50.2109C225.589 50.0475 227.581 49.6178 227.581 49.2562C227.582 48.8953 225.618 47.6329 223.22 46.4511C220.821 45.2699 218.431 43.8756 217.909 43.3538C217.388 42.8321 213.017 41.0943 208.197 39.4932C198.544 36.2848 195.989 34.2714 189.788 24.9898L186.252 19.6971L191.469 18.5259C198.117 17.0337 198.826 16.2797 194.293 15.5206C187.749 14.4237 179.101 10.1776 174.944 6.02008C166.314 -2.6092 148.238 -11.8158 136.377 -13.6221C130.597 -14.5021 118.117 -14.0201 102.038 -12.2954C96.9505 -11.7505 92.4011 -11.3944 91.927 -11.5067C91.4536 -11.6182 88.2765 -16.4032 84.8686 -22.14C81.4607 -27.8767 77.1893 -34.4487 75.3756 -36.7454C73.5626 -39.0414 72.3473 -40.9212 72.6745 -40.9207C73.0009 -40.9209 75.2403 -39.8219 77.6513 -38.4783C101.749 -25.045 110.749 -21.2627 125.906 -18.2013C131.13 -17.1457 138.908 -15.3579 143.192 -14.2279C147.869 -12.994 153.972 -12.3872 158.467 -12.708C162.584 -13.0026 165.526 -13.4132 165.004 -13.6204C164.483 -13.829 161.169 -14.9076 157.638 -16.0177C148.285 -18.9604 143.557 -21.5423 135.009 -28.3726C126.518 -35.1587 120.207 -38.5648 108.248 -42.8194C101.726 -45.1385 97.648 -45.6896 87.1066 -45.6738C70.8306 -45.6509 68.7696 -46.2659 62.0374 -53.1572C55.2757 -60.0781 54.2185 -62.7854 56.2171 -68.0591C57.1002 -70.3877 58.8429 -77.2477 60.0899 -83.3054C62.5726 -95.3588 65.9813 -103.146 72.0422 -110.609C74.2115 -113.281 75.7208 -115.731 75.3966 -116.055C74.432 -117.02 69.1655 -109.751 64.7483 -101.359C61.9687 -96.0768 60.0495 -90.514 58.8671 -84.3114C56.9175 -74.0847 54.6739 -66.4723 53.6088 -66.4716C53.2253 -66.4706 53.3902 -67.9729 53.976 -69.8088C54.5611 -71.6454 55.8092 -77.1529 56.7501 -82.0481C58.6834 -92.108 62.3854 -100.788 68.8092 -110.322C71.2246 -113.908 72.9236 -117.12 72.584 -117.46C71.8528 -118.191 72.2055 -118.639 66.6046 -109.847ZM36.4002 -61.4198C38.9927 -63.4737 40.444 -64.3864 39.6244 -63.4488C38.8042 -62.5118 36.6861 -58.6107 34.9171 -54.7801C31.9666 -48.39 30.7527 -46.8457 20.2173 -36.0669C13.9016 -29.605 7.9025 -23.0111 6.88767 -21.4127C5.77566 -19.6636 4.94148 -18.9293 4.79133 -19.5694C4.34435 -21.4638 7.56652 -27.992 13.2462 -36.7021C16.3032 -41.389 19.297 -45.9984 19.8991 -46.9451C20.9914 -48.6631 27.4831 -54.3575 36.4002 -61.4198ZM42.8619 -64.0017C42.5379 -62.3306 42.0317 -58.4016 41.7363 -55.2713C41.4416 -52.1417 39.8207 -45.5737 38.1355 -40.6766C34.4668 -30.0204 32.1718 -27.8028 21.1273 -24.2464C17.1725 -22.9733 12.1211 -20.896 9.90269 -19.6296C5.87129 -17.3293 5.86987 -17.3293 7.48687 -19.9335C8.37706 -21.3665 14.1945 -27.7042 20.4144 -34.0155C31.9094 -45.6792 33.4712 -47.9245 41.6788 -64.5891C42.8771 -67.0206 43.3962 -66.7635 42.8619 -64.0017ZM53.7184 -64.0036C53.5424 -62.735 54.1966 -60.4038 55.1715 -58.8221L56.9454 -55.9471L54.5632 -58.1843C52.4137 -60.2043 52.1175 -60.2118 51.526 -58.2619C51.1657 -57.0734 50.7086 -56.2633 50.511 -56.4609C50.0414 -56.9306 52.4411 -64.6726 53.343 -65.5969C53.7252 -65.989 53.8943 -65.2722 53.7184 -64.0036ZM5.14232 -9.3597C4.96007 -7.08219 4.01307 -3.71226 3.03889 -1.87044L1.26524 1.47818L1.18672 -2.30337C1.11774 -5.61636 2.80723 -10.4867 4.81167 -12.7527C5.17497 -13.1638 5.32316 -11.6372 5.14232 -9.3597ZM62.9073 -46.9397C74.795 -33.1118 85.2889 -15.8357 93.6503 3.67423C97.0146 11.5245 100.338 19.2748 101.035 20.8982C102.282 23.801 102.179 23.7792 94.6471 19.5521C84.0687 13.6158 69.648 3.5078 64.7051 -1.43507C62.4361 -3.70401 58.6751 -8.45764 56.3472 -11.9993C52.2044 -18.3033 52.0956 -18.7458 51.1766 -33.0098C50.3663 -45.5853 51.2823 -57.7932 53.0355 -57.7943C53.3324 -57.7945 57.7751 -52.9097 62.9073 -46.9397ZM49.5019 -45.9822C49.4796 -41.8679 49.7909 -32.2652 50.1927 -24.6432C50.8316 -12.515 51.5484 -8.93722 55.9354 4.00752C58.6924 12.1431 63.1831 23.5244 65.9163 29.2989C71.3819 40.8499 71.4655 42.1472 66.1051 32.2305C63.2836 27.0126 62.3718 25.9065 61.1186 26.188C59.921 26.4575 59.8345 26.2782 60.7258 25.37C61.9043 24.169 61.1294 21.3131 57.1319 12.1258C54.8747 6.93847 52.7181 -0.634604 50.1077 -12.5476C48.1174 -21.63 47.552 -51.0142 49.3249 -53.1992C49.4439 -53.3449 49.5235 -50.0973 49.5019 -45.9822ZM45.9475 -39.2006C45.7532 -37.8461 44.947 -33.5835 44.1566 -29.7275C43.3655 -25.8722 42.254 -19.3805 41.6865 -15.3017C40.0165 -3.31279 39.3714 -1.26012 35.2932 5.04277C32.4079 9.50159 29.6551 12.5173 24.5369 16.8284L17.6581 22.6216L22.3446 16.8129C31.0304 6.04872 37.6289 -9.3147 43.2588 -31.8826C45.5138 -40.9212 46.6329 -43.9669 45.9475 -39.2006ZM70.3479 -45.4438C72.1275 -44.9032 79.5581 -44.4238 86.861 -44.3777C97.4114 -44.3126 101.777 -43.7131 108.113 -41.4594C118.661 -37.7077 127.07 -33.0857 135.197 -26.5752C138.862 -23.6387 143.743 -20.3189 146.046 -19.1975C148.348 -18.0761 150.232 -16.9614 150.232 -16.7201C150.231 -16.1144 138.383 -20.7412 127.045 -25.7764C121.853 -28.0815 114.632 -30.6696 111 -31.527C94.3848 -35.4487 79.5735 -39.838 75.0188 -42.1907C72.2821 -43.6038 69.4819 -44.5103 68.7957 -44.2038C68.035 -43.8649 66.4399 -44.8123 64.7068 -46.6327C62.0414 -49.4333 62.0288 -49.5191 64.4896 -48.0228C65.9327 -47.1457 68.5689 -45.9851 70.3479 -45.4438ZM46.1478 -22.1451C47.3866 -11.7769 44.7832 0.997688 40.1477 7.29952C38.2831 9.8349 25.6588 19.3795 24.1687 19.3805C23.9513 19.3813 26.8273 16.3028 30.5599 12.5421C38.1448 4.89816 40.8767 0.304336 41.6807 -6.15549C41.9806 -8.56606 42.5446 -11.5769 42.9331 -12.8471C43.3208 -14.1165 43.887 -18.2657 44.1898 -22.0658C44.4919 -25.8666 44.8591 -29.0954 45.0048 -29.2412C45.1498 -29.3862 45.6649 -26.1931 46.1478 -22.1451ZM24.9814 11.3862C24.9808 12.3134 14.6266 22.4765 12.2413 23.8928C7.14078 26.9192 9.22011 24.1705 16.945 17.6733C21.3656 13.9557 24.9823 11.1265 24.9814 11.3862ZM78.5965 -42.4553C79.6167 -41.4351 89.9008 -39.4991 92.9248 -39.7585L95.8285 -40.0073L92.6142 -40.2986C90.8456 -40.4579 86.8364 -41.1414 83.7053 -41.8155C80.5728 -42.4897 78.2738 -42.7781 78.5965 -42.4553ZM54.0808 -12.6536C55.0521 -11.112 58.451 -6.75844 61.6329 -2.97955L67.4188 3.89055L60.2706 -3.72656C53.7052 -10.7228 51.1261 -14.2692 51.9815 -15.1245C52.1645 -15.3076 53.1094 -14.1951 54.0808 -12.6536ZM74.0722 19.7367C77.5265 30.0564 80.6694 48.8942 78.9373 48.8952C77.9319 48.8966 70.2448 35.5353 66.2021 26.7603C64.2081 22.4347 60.4129 12.7865 57.7673 5.3199L52.9565 -8.25565L70.1931 8.14739L74.0722 19.7367ZM79.5586 -28.3751C79.8944 -27.5901 79.5609 -27.5899 78.708 -28.3752C77.9366 -29.086 77.6879 -29.667 78.1551 -29.6673C78.6222 -29.6676 79.2544 -29.0861 79.5586 -28.3751ZM128.899 -23.3637C135.566 -20.4868 143.883 -17.1924 147.382 -16.0436C155.991 -13.2158 153.266 -12.8722 143.38 -15.5402C138.994 -16.7229 131.214 -18.562 126.091 -19.6261C113.11 -22.3217 107.611 -24.2741 96.4963 -30.1312C91.1863 -32.9294 86.2103 -35.5372 85.438 -35.925C84.6664 -36.3136 91.402 -34.8228 100.406 -32.6123C110.377 -30.1653 121.517 -26.549 128.899 -23.3637ZM81.667 -24.8586C82.0028 -24.0737 81.6694 -24.0734 80.8164 -24.8588C80.0451 -25.5696 79.7964 -26.1505 80.2635 -26.1508C80.7307 -26.1511 81.3629 -25.5697 81.667 -24.8586ZM86.7447 -16.1004C89.1887 -11.443 90.2222 -10.1829 91.7277 -10.0249C93.1537 -9.87452 93.2936 -9.74163 92.2888 -9.48913C91.5401 -9.30151 91.1468 -8.25296 91.3959 -7.10845C91.6863 -5.77328 91.5749 -5.52975 91.076 -6.40746C85.1944 -16.7537 82.0822 -22.7651 82.789 -22.4116C83.268 -22.172 85.0484 -19.3315 86.7447 -16.1004ZM73.7667 7.7378C74.7995 8.83118 75.0869 9.4902 74.4053 9.20007C73.723 8.91063 73.0545 9.14182 72.9191 9.7146C72.5586 11.2338 71.4641 9.83653 71.4653 7.85955C71.4668 5.49982 71.6448 5.49057 73.7667 7.7378ZM90.6592 20.8808L105.213 29.6829L109.889 36.8063C112.461 40.7242 115.877 47.5549 117.481 51.9856C122.422 65.6378 126.72 72.1535 140.506 86.8941L152.738 99.9739L142.375 92.0563C136.675 87.7021 128.521 81.3014 124.255 77.8334C119.989 74.3648 113.983 69.6132 110.909 67.2737C107.833 64.935 104.818 62.542 104.208 61.957C103.597 61.372 99.3193 59.9549 94.7005 58.8083C88.7726 57.3366 85.5237 55.9519 83.6548 54.0986C82.1009 52.5587 81.3455 51.1345 81.8277 50.6523C82.279 50.201 82.2617 49.8317 81.7882 49.8313C81.3147 49.8323 80.4599 45.2449 79.8887 39.6387C79.3167 34.0317 77.5273 25.5149 75.9114 20.7128C73.7626 14.3259 73.3947 11.9924 74.54 12.0283C75.4012 12.0559 82.6551 16.0391 90.6592 20.8808ZM101.824 -9.06948C110.781 -9.14054 119.553 -7.11556 127.894 -3.04793C130.879 -1.59275 133.56 -0.16414 133.849 0.125544C135.269 1.54512 129.708 3.08515 123.296 3.04768C119.346 3.02484 114.71 3.28457 112.995 3.62477C107.572 4.7004 90.3276 -5.65912 93.0338 -8.36528C93.3851 -8.71658 97.34 -9.03358 101.824 -9.06948ZM78.8586 11.7864C79.1473 12.4651 78.5917 12.2291 77.6249 11.2623C76.6581 10.2955 76.4228 9.74055 77.1008 10.0286C77.7803 10.3166 78.5713 11.1076 78.8586 11.7864ZM46.4532 42.5464C42.3481 48.0606 40.0954 54.5122 36.9304 69.8242C34.4816 81.6694 29.6302 96.7679 28.2724 96.7687C27.8481 96.7697 27.8284 95.6884 28.2296 94.3675C28.6307 93.0453 29.3179 87.8175 29.7559 82.7488C30.6609 72.2871 31.4189 69.5576 36.8321 57.2708C41.5907 46.4683 41.9752 45.8306 46.354 41.4616L49.8782 37.9458L46.4532 42.5464ZM76.8805 20.3302C78.2541 24.2678 79.9143 32.4005 80.5691 38.4028C81.2231 44.4044 82.0511 49.0227 82.4087 48.6651C83.3113 47.7626 81.4509 32.3967 79.4474 24.2051C78.0109 18.3334 75.3357 12.0721 74.6162 12.8999C74.4873 13.0484 75.5061 16.3918 76.8805 20.3302ZM93.3531 -3.76285C93.9332 -3.18278 94.1009 -2.40125 93.7256 -2.02602C93.3511 -1.6515 92.7519 -2.00148 92.3943 -2.80401C92.0374 -3.60725 91.8697 -4.38877 92.0218 -4.54084C92.1738 -4.69289 92.7731 -4.34291 93.3531 -3.76285ZM102.257 3.81583C115.644 12.8241 120.075 15.44 128.843 19.5123C140.449 24.902 149.4 26.8993 158.661 26.1667C165.027 25.6625 166.285 25.9417 170.7 28.8425C173.639 30.7726 178.232 32.6053 182.07 33.3775L188.508 34.6736L177.257 34.5329C168.074 34.4191 163.877 35.043 154.432 37.9279C148.066 39.8723 141.522 41.3046 139.889 41.11C138.256 40.9162 129.965 37.3846 121.464 33.2622L106.008 25.7686L101.496 14.8121C99.0152 8.78567 96.6027 3.13765 96.1347 2.25991C94.7075 -0.419023 96.7236 0.0932992 102.257 3.81583ZM123.747 -12.5349C139.153 -12.7789 147.325 -10.4377 153.457 -4.02231L157.276 -0.0278193L150.362 -0.223974C145.413 -0.36439 141.23 -1.40232 135.65 -3.8732C131.362 -5.77292 125.091 -7.86134 121.714 -8.51422C118.338 -9.1671 115.103 -10.1726 114.527 -10.7491C113.951 -11.3249 112.602 -11.564 111.531 -11.2812C110.459 -10.9984 109.915 -11.1184 110.323 -11.5499C110.731 -11.9807 116.771 -12.4243 123.747 -12.5349ZM128.518 12.3236C141.127 15.2551 156.234 16.8588 168.043 16.5193C173.206 16.3711 180.733 16.3854 184.771 16.551C190.646 16.7915 191.349 16.9887 188.29 17.5387C186.189 17.9171 180.761 19.4585 176.228 20.9648C158.554 26.838 145.657 25.9666 128.41 17.734C120.225 13.8259 107.407 6.26451 105.829 4.41163C105.585 4.12545 108.394 5.2789 112.071 6.97356C115.75 8.66822 123.151 11.0761 128.518 12.3236ZM72.4788 41.9847C72.8146 42.7697 72.4811 42.7699 71.6282 41.9846C70.8568 41.2738 70.6081 40.6928 71.0753 40.6925C71.5424 40.6922 72.1746 41.2736 72.4788 41.9847ZM75.2903 46.2043C75.6261 46.9893 75.2927 46.9895 74.4397 46.2042C73.6684 45.4933 73.4197 44.9124 73.8868 44.9121C74.354 44.9118 74.9861 45.4932 75.2903 46.2043ZM124.348 4.38024C128.135 4.73315 131.103 4.30072 132.93 3.13166C136.98 0.538634 153.193 0.488333 161.076 3.0443C167.689 5.1881 183.983 13.2701 183.983 14.4049C183.982 15.3723 159.904 15.4058 150.372 14.4514C137.255 13.1377 115.152 8.17963 113.052 6.08014C111.973 5.00157 119.25 3.90644 124.348 4.38024ZM135.243 -2.72124C139.175 -1.01406 139.968 -0.421456 138.503 -0.285453C137.438 -0.185574 134.424 -1.22918 131.804 -2.60579C129.184 -3.981 126.412 -5.42789 125.643 -5.81928C122.696 -7.32092 130.301 -4.86607 135.243 -2.72124ZM62.0702 61.2258C60.2069 65.1493 60.2097 65.131 60.9823 70.633C61.2575 72.5894 61.0514 73.7447 60.524 73.2005C58.1237 70.7213 59.2753 61.91 62.3925 58.9081C63.2225 58.109 63.0861 59.0863 62.0702 61.2258ZM103.416 26.2514C104.075 26.8849 103.713 26.9745 102.48 26.4842C101.374 26.0438 99.8457 25.0407 99.0835 24.2561C97.9698 23.1086 98.1528 23.0634 100.019 24.0233C101.296 24.6803 102.825 25.6826 103.416 26.2514ZM38.4377 84.937C38.9918 85.4911 36.6107 90.4315 35.7889 90.432C35.3978 90.4323 35.5321 89.3712 36.0894 88.0728C37.2802 85.2973 37.9301 84.4294 38.4377 84.937ZM67.8497 58.2095C69.4788 57.69 71.6473 57.3425 72.6695 57.4368C74.1814 57.5759 74.3106 57.9881 73.3633 59.6413C71.3489 63.1547 63.6309 72.1144 63.0867 71.5702C62.8005 71.284 62.3092 69.5128 61.9938 67.6331C61.4989 64.6743 61.9071 63.3576 64.4224 59.8116C64.6787 59.4498 66.2214 58.7283 67.8497 58.2095ZM77.3988 49.7208C77.7346 50.5057 77.4011 50.5059 76.5482 49.7206C75.7768 49.0098 75.5281 48.4288 75.9953 48.4285C76.4625 48.4282 77.0946 49.0097 77.3988 49.7208ZM58.4792 72.5946C58.838 73.7827 58.7773 75.109 58.3437 75.5426C57.91 75.9763 57.4961 75.1245 57.4232 73.6506C57.3503 72.1767 57.4116 70.8498 57.5587 70.7027C57.7059 70.5555 58.1204 71.4066 58.4792 72.5946ZM78.4328 54.5324C78.5664 54.666 78.5655 56.09 78.4308 57.6984L78.1862 60.6218L77.9453 57.6987C77.7191 54.9522 77.8703 53.9699 78.4328 54.5324ZM87.1997 62.5319C90.1365 66.7345 95.7413 73.9333 99.6537 78.5285L106.767 86.8837L98.884 78.5952C91.5487 70.8811 78.2409 53.0832 80.7434 54.334C81.3567 54.6403 84.2615 58.3293 87.1997 62.5319ZM58.1237 78.5751C58.271 79.2011 57.1843 80.9206 55.7095 82.3955C50.3675 87.7374 42.818 99.6336 40.1603 106.897C37.6612 113.727 34.6381 132.646 36.0459 132.646C36.3899 132.645 37.1305 128.583 37.6922 123.618C38.6707 114.962 42.4346 102.777 45.8335 97.2636C48.0237 93.7092 47.8211 94.968 45.1491 101.504C42.7674 107.328 41.1918 113.395 40.2129 120.504C39.885 122.886 38.9645 127.768 38.1679 131.352C36.2721 139.875 34.9315 138.124 34.8597 127.03C34.7701 112.942 37.9869 101.536 44.7033 92.1304C49.0945 85.98 57.7974 77.19 58.1237 78.5751ZM75.2496 62.8089C75.0952 64.4835 75.25 65.5943 75.5921 65.2789C75.9342 64.9621 76.3708 72.264 76.564 81.505C76.7559 90.7461 77.4646 102.765 78.1387 108.214C79.8663 122.167 82.329 148.587 81.9382 148.977C81.2342 149.681 79.5235 142.51 79.2816 137.839C79.1412 135.126 77.8565 128.38 76.4276 122.848C72.2909 106.829 71.9205 101.777 73.9338 88.7533C75.7946 76.7157 76.3299 64.5875 74.9395 65.9779C74.546 66.3714 74.2779 68.6082 74.344 70.9482C74.41 73.2882 73.8389 79.6472 73.0757 85.0792C72.3124 90.5111 71.615 97.6237 71.5264 100.886L71.3643 106.818L68.9958 100.749C67.6935 97.4109 65.9189 92.1375 65.0527 89.0297C64.1865 85.922 63.1433 83.3272 62.7339 83.2627C62.3245 83.1983 62.3653 83.0927 62.8241 83.0277C63.2828 82.9627 63.7002 81.5736 63.7526 79.9392C63.8294 77.5154 69.8063 67.1582 74.9999 60.4472C75.29 60.0714 75.4026 61.1344 75.2496 62.8089ZM112.267 30.7599C112.675 31.1247 112.227 31.2566 111.272 31.0518C110.317 30.8469 109.077 30.1878 108.519 29.5859C107.446 28.4313 110.862 29.5014 112.267 30.7599ZM137.769 5.66422C139.856 6.01398 142.152 6.16029 142.872 5.99027C143.593 5.81956 142.474 5.39393 140.388 5.04486C138.301 4.69511 136.004 4.54881 135.285 4.71882C134.564 4.88955 135.682 5.31517 137.769 5.66422ZM58.7751 83.1154C58.2708 83.9754 58.3245 84.7894 58.8964 84.9234C59.4676 85.0582 59.252 85.4734 58.4167 85.8461C56.8206 86.5577 55.06 92.5313 56.4467 92.5297C56.8886 92.5294 57.1511 93.5297 57.0293 94.7512C56.8962 96.0922 57.017 96.344 57.3342 95.3856C57.6225 94.5123 57.7407 96.848 57.5955 100.575C57.1285 112.577 52.2594 124.657 44.4305 133.233C40.4386 137.606 37.6205 138.181 38.8027 134.38C39.2356 132.989 40.2944 127.485 41.1561 122.151C43.2185 109.376 47.1445 97.8959 52.2779 89.6252C53.6738 87.3758 59.9851 81.0518 58.7751 83.1154ZM58.533 88.7574C58.3486 90.0766 57.8531 91.4819 57.4307 91.879C57.0083 92.2775 56.8139 91.5227 56.997 90.2034C57.1814 88.8841 57.6769 87.4788 58.0993 87.0818C58.5217 86.6833 58.7161 87.4381 58.533 88.7574ZM65.5726 95.8546C67.6699 101.425 69.9096 106.518 70.5494 107.17C71.5492 108.19 76.1299 125.192 76.2665 128.389C76.2921 129.002 75.6845 128.661 74.9154 127.631C67.7241 118.001 64.8334 113.381 62.0161 107.02C59.0766 100.385 58.844 98.8749 59.7998 92.6655C60.3876 88.849 61.0684 85.7255 61.3133 85.7254C61.5581 85.7252 63.4738 90.2837 65.5726 95.8546ZM96.9287 60.8633C100.133 61.9131 104.702 64.3044 107.083 66.1779C109.464 68.0507 114.949 72.3741 119.272 75.785C133.762 87.2185 152.468 101.624 154.227 102.704C155.806 103.674 155.782 103.732 153.966 103.316C150.354 102.491 118.181 81.5668 105.611 71.8685C98.8444 66.6467 92.2046 61.5994 90.8565 60.6512C87.6314 58.3821 89.5598 58.4491 96.9287 60.8633ZM167.285 1.75646L171.489 5.28703L166.929 3.45434C162.396 1.63147 159.4 -0.513912 156.317 -4.14935C153.863 -7.04082 162.071 -2.62129 167.285 1.75646ZM79.2242 74.7907C79.2773 76.5278 79.545 78.1725 79.8185 78.446C80.092 78.7195 80.714 80.9044 81.2007 83.3004C81.6875 85.6978 83.7602 91.2285 85.8069 95.5914C93.9537 112.961 94.7869 121.615 89.6793 135.78C87.8758 140.779 85.7569 146.045 84.9687 147.482C83.5741 150.026 83.5319 150.026 83.4075 147.493C83.3367 146.062 83.8025 144.766 84.4414 144.615C85.081 144.463 85.051 144.21 84.3757 144.051C83.6996 143.892 82.9542 141.071 82.7199 137.783C82.4849 134.494 81.6602 126.887 80.8865 120.877C78.2891 100.686 76.9242 73.8368 78.4202 72.3408C78.8095 71.9515 79.1718 73.0544 79.2242 74.7907ZM124.21 87.0183C130.054 90.8427 136.225 94.7611 137.924 95.7253C139.624 96.6888 141.013 97.7095 141.013 97.9923C141.013 98.6973 126.827 91.0825 121.154 87.3334C115.182 83.3853 96.8323 68.7263 93.7535 65.4447C92.4437 64.0476 96.3699 66.7658 102.479 71.4842C108.588 76.2033 118.367 83.1933 124.21 87.0183ZM59.5181 104.25C59.9184 107.714 65.7936 117.984 71.5307 125.247C75.973 130.871 77.6126 133.667 77.6535 135.684C77.7088 138.415 77.6793 138.404 74.5593 134.56C72.8271 132.425 69.3774 128.281 66.8936 125.351C60.1023 117.34 58.2768 113.586 58.5187 108.133C58.7392 103.176 59.1906 101.421 59.5181 104.25ZM150.351 77.0945C157.615 85.8892 162.313 93.1498 164.521 98.9949L165.8 102.38L163.669 99.5892C162.498 98.0541 155.194 90.1705 147.439 82.0704C134.303 68.3516 119.795 50.1387 118.134 45.2832C117.257 42.7192 142.741 67.8841 150.351 77.0945ZM122.491 55.788C125.017 59.7981 132.315 68.2164 144.646 81.3475C161.059 98.8233 169.852 109.709 169.85 112.55C169.85 113.798 145.437 90.959 138.54 83.258C134.88 79.1712 130.096 73.0505 127.91 69.6572C124.24 63.9601 117.407 49.8096 118.325 49.8083C118.545 49.8082 120.419 52.4995 122.491 55.788ZM41.3095 131.003C39.0388 135.929 39.7019 136.571 42.0766 131.746C43.2678 129.328 44.1127 127.22 43.9559 127.063C43.5284 126.636 42.8728 127.612 41.3095 131.003ZM32.234 147.269C31.1224 149.391 29.7292 153.067 29.1395 155.438L28.066 159.749L27.891 156.131C27.7111 152.415 29.4416 148.316 32.5125 145.187C33.7522 143.925 33.6717 144.527 32.234 147.269ZM151.534 42.8194C151.95 42.404 151.004 41.9867 149.435 41.8927C147.329 41.7653 148.96 40.9643 155.654 38.8375C162.521 36.655 167.635 35.9468 176.679 35.9263C183.252 35.9103 188.81 35.5563 189.032 35.1397C189.254 34.7224 189.56 34.9164 189.714 35.572C189.868 36.2269 193.406 37.3314 197.574 38.0252C203.717 39.0486 216.518 43.3702 218.105 44.9578C218.568 45.4205 213.994 45.2418 210.728 44.6698C203.713 43.4402 187.732 43.3229 177.148 44.4235C170.599 45.1052 161.898 45.4716 157.811 45.2399C153.725 45.0075 150.704 45.1402 151.098 45.534C152.51 46.9465 162.789 47.0568 176.48 45.8043C194.932 44.1176 216.138 45.3221 217.479 48.1327C218.572 50.427 204.626 52.5689 187.631 52.7189C172.457 52.853 169.087 52.4829 160.446 49.7389C155.021 48.0164 150.464 46.1043 150.32 45.4908C150.175 44.8774 148.656 44.0187 146.944 43.5821L143.831 42.7884L147.306 43.1809C149.217 43.3964 151.12 43.234 151.534 42.8194ZM174.685 27.4892C180.2 31.1449 181.245 32.5387 177.066 30.6635C172.017 28.3991 167.546 25.2184 168.641 24.6703C169.203 24.3899 171.923 25.6582 174.685 27.4892ZM181.556 27.2436L186.691 32.2045L182.327 30.274C179.926 29.2124 176.612 27.3557 174.961 26.1487C172.11 24.0645 172.071 23.9111 174.191 23.1176C176.163 22.3804 177.021 22.8619 181.556 27.2436ZM154.409 50.4919C155.522 51.6394 155.339 51.6846 153.473 50.7247C150.298 49.0917 148.449 47.2432 151.012 48.2638C152.118 48.7043 153.646 49.7073 154.409 50.4919ZM187.064 23.132C188.393 25.0012 190.211 28.0458 191.106 29.897L192.731 33.2624L188.202 30.3406C185.709 28.7338 182.413 26.1609 180.875 24.6232L178.079 21.8277L181.364 20.7801C184.461 19.7925 184.787 19.9266 187.064 23.132ZM113.252 94.0221C113.588 94.807 113.254 94.8072 112.402 94.0219C111.63 93.3111 111.381 92.7301 111.849 92.7298C112.316 92.7295 112.948 93.3109 113.252 94.0221ZM118.204 97.5951C118.492 98.2739 117.937 98.0378 116.97 97.0711C116.003 96.1043 115.768 95.5493 116.446 95.8374C117.125 96.1254 117.916 96.9164 118.204 97.5951ZM176.845 69.3169L180.951 74.5734L175.561 70.1197C172.597 67.6704 168.271 63.7698 165.948 61.4524L161.724 57.2386L167.232 60.6488C171.253 63.139 173.849 65.4802 176.845 69.3169ZM94.151 137.116C98.9967 144.382 101.255 149.622 102.75 157.078L104.381 165.206L100.965 160.887C99.0877 158.511 95.4055 153.74 92.7841 150.285L88.0158 144.004L89.6015 139.788C91.7319 134.12 92.0346 133.942 94.151 137.116ZM183.99 79.9719C192.746 88.5054 197.954 95.7945 204.793 109.089L209.332 117.91L201.023 108.817C193.327 100.394 182.324 86.4597 170.854 70.6123L166.132 64.0885L171.145 68.2123C173.901 70.4803 179.682 75.7723 183.99 79.9719ZM96.2861 157.481C104.542 168.536 104.687 168.812 100.282 165.086C95.8573 161.342 88.673 152.993 86.8544 149.481C86.3653 148.536 86.3597 147.368 86.8419 146.886C87.515 146.213 89.7113 148.677 96.2861 157.481ZM183.707 69.708C194.247 77.2167 199.449 81.6163 214.564 95.8031C220.886 101.736 222.504 103.584 220.475 102.549C218.938 101.765 214.167 99.5751 209.872 97.6824C202.672 94.509 201.377 93.56 193.238 85.489C185.102 77.4208 170.456 60.7213 172.541 61.89C173.037 62.1676 178.062 65.6858 183.707 69.708ZM125.513 123.904C127.585 129.058 130.911 137.576 132.904 142.834C138.034 156.364 145.349 169.099 154.237 179.977C162.672 190.3 161.18 190.329 150.61 180.047C137.751 167.539 129.992 152.121 124.592 128.342C123.327 122.77 121.863 117.383 121.339 116.372C120.816 115.362 120.694 114.534 121.067 114.534C121.441 114.534 123.442 118.75 125.513 123.904ZM130.305 119.802C139.185 132.242 144.23 141.17 147.493 150.218C151.136 160.321 154.619 175.019 153.371 175.019C149.436 175.021 138.099 154.169 130.432 132.827C128.899 128.559 126.73 122.818 125.613 120.068C124.14 116.44 124.072 115.737 125.363 117.505C126.343 118.846 127.515 120.783 127.969 121.81C128.523 123.061 128.892 123.263 129.091 122.422C129.254 121.731 128.041 119.041 126.394 116.442C121.633 108.933 123.992 110.959 130.305 119.802ZM129.087 109.236C129.08 110.62 128.919 110.62 128.299 109.236C127.87 108.278 127.873 107.494 128.307 107.494C128.739 107.493 129.091 108.277 129.087 109.236ZM136.077 115.604C136.076 117.404 134.203 116.199 132.252 113.144L130.171 109.885L133.124 112.346C134.749 113.7 136.078 115.165 136.077 115.604ZM192.75 68.312C199.043 71.8195 202.611 74.5189 207.755 79.6629C214.074 85.9824 223.49 98.5209 224.435 101.876C224.666 102.696 218.543 97.4363 210.828 90.1868C201.422 81.3505 193.787 74.9473 187.66 70.7573C176.374 63.0408 176.231 62.8861 180.79 63.3412C182.829 63.544 188.21 65.7814 192.75 68.312ZM152.652 120.962C167.214 130.446 174.598 134.715 187.485 141.097C199.178 146.889 200.93 147.915 197.282 146.834C196.089 146.48 191.839 145.352 187.838 144.326C175.966 141.282 168.324 137.273 155.163 127.187C148.562 122.127 141.273 116.396 138.965 114.45L134.768 110.913L138.543 112.572C140.619 113.484 146.969 117.259 152.652 120.962ZM139.438 109.906C139.82 110.288 143.581 111.848 147.796 113.372C160.391 117.927 184.893 131.514 192.658 138.25C196.341 141.444 199.162 144.251 198.927 144.486C197.994 145.42 169.258 129.882 157.311 121.985C150.338 117.376 142.811 112.734 140.584 111.67C138.358 110.605 137.033 109.617 137.64 109.474C138.248 109.329 139.056 109.524 139.438 109.906ZM174.471 77.8018C174.807 78.5867 174.474 78.587 173.621 77.8016C172.85 77.0908 172.601 76.5099 173.068 76.5096C173.535 76.5093 174.167 77.0907 174.471 77.8018ZM185.488 92.6047C190.863 99.5236 198.396 108.393 202.23 112.316C207.825 118.04 208.531 119.008 205.805 117.218C201.084 114.117 193.511 106.49 186.952 98.2315C181.532 91.4062 174.189 80.0266 175.205 80.026C175.486 80.0258 180.113 85.6865 185.488 92.6047ZM165.357 138.682C177.477 145.317 192.338 160.483 207.124 181.307C210.17 185.598 214.521 191.364 216.792 194.12C221.938 200.368 162.77 142.628 148.824 127.793L138.604 116.921L148.572 125.936C155.389 132.099 160.697 136.131 165.357 138.682ZM152.682 134.779C154.977 137.348 153.056 135.655 148.414 131.016C143.772 126.377 141.895 124.274 144.243 126.344C146.591 128.413 150.388 132.209 152.682 134.779ZM157.86 131.414L159.938 133.555L157.291 131.983C155.835 131.118 153.223 128.985 151.485 127.242L148.326 124.073L152.054 126.673C154.104 128.104 156.717 130.237 157.86 131.414ZM155.838 142.225C168.652 156.036 176.801 167.054 182.749 178.611C185.183 183.34 187.822 187.857 188.614 188.649C189.405 189.441 189.628 190.189 189.11 190.311C187.541 190.682 174.607 176.218 167.133 165.734C154.345 147.794 148.281 138.09 150.401 138.957C151.966 139.597 151.921 139.357 150.165 137.702C146.224 133.988 144.269 131.645 144.728 131.187C144.976 130.939 149.975 135.905 155.838 142.225ZM151.841 146.08C152.938 147.961 157.714 155.114 162.455 161.975C169.603 172.317 173.147 176.537 183.211 186.675C194.659 198.209 195.119 198.787 191.312 196.856C185.439 193.875 170.833 179.07 164.896 170.08C158.847 160.92 148.413 142.659 149.228 142.659C149.568 142.658 150.745 144.198 151.841 146.08ZM162.475 134.797C162.811 135.582 162.478 135.582 161.625 134.797C160.853 134.086 160.605 133.505 161.072 133.505C161.539 133.505 162.171 134.086 162.475 134.797ZM220.332 201.577C220.65 202.483 206.809 193.212 199.43 187.576C187.179 178.22 181.582 172.268 170.805 157.14L161.153 143.589L190.684 172.416C206.927 188.271 220.268 201.393 220.332 201.577ZM156.144 179.183C156.433 179.862 155.877 179.626 154.91 178.659C153.944 177.693 153.708 177.138 154.386 177.426C155.066 177.714 155.857 178.505 156.144 179.183ZM207.753 184.878C209.493 186.618 210.343 187.193 209.641 186.154C208.938 185.116 207.515 183.693 206.477 182.99C205.438 182.288 206.013 183.138 207.753 184.878Z" fill="black"/>
</svg>
