<svg width="233" height="238" viewBox="0 0 233 238" fill="none" xmlns="http://www.w3.org/2000/svg">
<path opacity="0.1" fill-rule="evenodd" clip-rule="evenodd" d="M66.6046 -124.021C64.1468 -119.667 61.6653 -114.434 61.0886 -112.392C60.512 -110.35 58.7174 -106.764 57.1007 -104.421C55.484 -102.078 51.8924 -95.9271 49.1197 -90.7517C43.5333 -80.3276 36.2239 -71.1145 25.1694 -60.5643C18.8925 -54.5729 17.4083 -52.6146 14.0922 -45.9446C11.9862 -41.7093 9.38061 -37.2481 8.3028 -36.0312C5.00598 -32.309 0.297598 -14.2965 0.0451572 -4.43781C-0.0828458 0.531637 0.407713 5.26952 1.13403 6.08955C2.36517 7.47955 2.46303 7.39449 2.57702 4.83347C2.6447 3.32339 3.42231 0.444949 4.30498 -1.56137C5.18765 -3.56769 6.17579 -7.9841 6.50131 -11.3746C7.03985 -16.9853 7.4146 -17.8069 10.6693 -20.5243C12.636 -22.1668 17.9578 -24.8872 22.4952 -26.5696C28.103 -28.6492 31.6726 -30.6741 33.6409 -32.8917C37.2179 -36.9223 41.9402 -50.8845 42.9855 -60.5205C44.3928 -73.501 45.0646 -75.9218 49.8561 -85.2769C52.4938 -90.4284 54.8481 -94.6424 55.088 -94.6434C56.1419 -94.6442 53.3202 -81.1194 46.9839 -55.8058C32.3082 2.82096 31.8552 3.92936 16.804 17.8806C11.3649 22.9214 6.91517 27.4641 6.91489 27.9757C6.9118 33.517 24.8234 25.0573 36.7604 13.8789C42.7156 8.30318 45.4895 2.39773 46.9353 -7.77316C47.4439 -11.3528 48.0905 -14.0198 48.3718 -13.7023C48.6537 -13.384 49.9195 -8.40994 51.1848 -2.65113C52.4501 3.10929 54.8038 11.2448 56.4162 15.4274C58.0278 19.6108 59.4298 23.7546 59.5327 24.6371C59.7953 26.8968 53.2873 37.2166 48.8116 41.6379C43.0843 47.2944 39.5554 53.3998 34.4889 66.417C30.8217 75.8428 29.6617 80.6136 28.8807 89.494C27.5234 104.942 26.4665 110.286 23.3147 117.647C21.8205 121.137 20.8695 124.607 21.2012 125.358C21.6523 126.378 22.2029 125.626 23.381 122.378C24.3295 119.764 25.999 117.226 27.5728 116.005C29.4725 114.532 30.0085 113.519 29.53 112.303C29.1668 111.382 29.285 110.16 29.7919 109.588C31.4695 107.694 35.955 91.8378 37.7394 81.4911C38.7064 75.8904 39.7983 70.8329 40.1673 70.2528C40.5363 69.6727 41.2611 66.8141 41.7777 63.9001C43.1766 56.0114 46.1631 49.8198 51.3966 43.9587L56.0788 38.7151L53.4674 46.0995C52.0313 50.1612 49.7317 59.5701 48.3564 67.0084C45.5887 81.9789 42.7014 91.8942 40.4431 94.1867L38.9606 95.6922L40.0198 93.7088C42.6074 88.8631 43.2712 70.5874 40.8594 70.5891C40.4119 70.5894 40.4328 72.2154 40.9038 74.2033C42.142 79.4196 40.0336 91.6737 37.3845 94.6646C36.1863 96.0175 34.4345 99.7815 33.4913 103.029C32.5481 106.277 31.2905 109.483 30.6963 110.154C30.1028 110.824 29.9546 111.754 30.3673 112.22C30.7857 112.692 31.524 112.184 32.0333 111.075C32.5362 109.979 34.3398 106.828 36.039 104.073C45.504 88.7315 45.9874 87.4587 49.355 69.0468C51.6937 56.2548 56.8262 39.5606 59.8978 34.7511C61.9322 31.5652 62.0778 31.5293 63.1839 33.9322C63.8198 35.3146 66.8904 41.069 70.0076 46.7185C73.1247 52.368 75.9451 57.6173 76.2753 58.3844C76.7096 59.3913 74.9445 60.395 69.9012 62.0087C66.0655 63.2355 62.0457 65.2337 60.9693 66.449C58.8115 68.8852 53.6379 84.6842 53.9098 88.0067C54.0244 89.4094 52.6589 91.7164 49.7781 94.9847C38.8302 107.404 33.9857 122.295 33.5651 144.821C33.3171 158.061 32.9287 160.624 30.5837 164.486C26.7867 170.74 25.8198 177.471 27.9323 182.948C30.0378 188.409 30.4839 188.236 30.0216 182.134C29.4398 174.451 32.5136 166.889 39.4227 159.006C46.788 150.603 53.6171 139.684 55.6787 133.016C57.0567 128.559 57.3221 128.191 57.9523 129.866C59.502 133.981 67.553 146.147 72.3363 151.6C76.7989 156.688 77.638 158.319 79.5687 165.662C80.7692 170.23 82.0116 175.46 82.3293 177.285C83.0467 181.414 85.8737 186.235 87.8905 186.772C88.9485 187.054 88.8427 186.184 87.5424 183.915C86.5141 182.121 85.5994 179.875 85.5091 178.924C85.4175 177.974 84.73 177.032 83.9801 176.832C83.1479 176.611 83.0981 176.342 83.8517 176.141C84.5314 175.959 84.9659 175.226 84.8172 174.511C84.6677 173.797 84.8248 172.172 85.1667 170.9C85.7484 168.736 85.8827 168.813 87.2634 172.097C89.0459 176.335 99.6536 188.589 108.469 196.593C115.534 203.009 117.908 203.448 112.596 197.356C108.396 192.54 105.294 184.871 103.772 175.544C102.559 168.102 97.7677 156.523 94.2648 152.569C92.7587 150.868 92.4929 149.422 93.2183 146.856C95.8935 137.382 93.126 120.578 86.4385 105.689C82.9961 98.0233 80.6212 84.928 80.2669 71.6517C80.1422 66.9898 80.2459 63.8831 80.4966 64.748C81.5591 68.4067 96.7177 90.1409 103.761 98.1023C111.247 106.566 111.482 106.973 115.802 118.991C118.225 125.732 121.895 138.831 123.957 148.099C129.774 174.247 136.556 189.462 148.567 203.317C154.516 210.18 166.379 219.476 168.474 218.916C168.942 218.79 167.056 215.735 164.28 212.126C157.843 203.756 156.042 199.448 152.679 184.375C147.888 162.912 141.791 149.543 126.395 126.739C123.384 122.28 120.892 118.163 120.857 117.591C120.758 115.966 132.346 130.298 135.085 135.187C136.433 137.594 141.303 147.791 145.908 157.848C165.418 200.464 180.807 220.792 198.438 227.237C200.757 228.086 202.886 228.518 203.168 228.199C203.451 227.88 200.123 223.601 195.773 218.688C189.744 211.88 187.194 208.246 185.051 203.405L182.239 197.054L186.955 202.049C194.869 210.431 206.072 219.819 219.145 229.024C225.996 233.847 231.843 237.793 232.14 237.792C232.435 237.792 229.635 233.896 225.915 229.133C222.194 224.371 216.113 215.687 212.401 209.836C201.404 192.502 191.08 178.775 181.006 168.089L171.538 158.046L176.582 160.43C179.357 161.743 185.122 163.784 189.395 164.967C193.668 166.149 198.68 167.992 200.534 169.061C205.709 172.044 214.55 175.091 213.939 173.68C213.639 172.989 211.239 171.105 208.603 169.493C205.623 167.671 201.086 163.486 196.601 158.422C190.153 151.142 187.883 149.339 175.156 141.385C167.328 136.492 157.066 130.709 152.351 128.534C147.636 126.357 140.717 123.172 136.975 121.454C126.498 116.646 120.79 111.574 106.517 94.3971C99.5877 86.0591 93.4452 77.9907 92.8663 76.4676C91.9713 74.1122 92.4025 74.3478 95.7521 78.0438C101.021 83.8594 116.484 97.3989 123.458 102.305C130.625 107.347 147.998 116.619 157.187 120.307C163.887 122.995 164.626 123.575 170.21 130.513C176.663 138.531 177.863 138.802 174.01 131.369C172.645 128.738 169.413 121.057 166.826 114.299C164.239 107.541 160.906 99.8735 159.419 97.2596C157.931 94.6457 147.053 81.2673 135.245 67.5298C123.437 53.7914 112.846 41.1023 111.71 39.3302L109.644 36.1074L112.764 37.2061C119.587 39.6081 149.712 56.1192 153.61 59.5933C158.494 63.9459 162.654 70.5756 173.694 91.5954C180.831 105.185 183.046 108.545 192.098 119.518C200.138 129.263 204.128 133.356 210.335 138.223C214.705 141.65 218.523 144.18 218.82 143.846C219.115 143.512 217.084 140.268 214.305 136.639C211.526 133.009 208.356 127.835 207.26 125.143C206.165 122.451 203.17 116.187 200.606 111.223C198.041 106.259 196.576 102.913 197.348 103.787C199.203 105.883 231.694 124.439 232.341 123.77C232.616 123.485 231.925 122.417 230.806 121.396C229.686 120.376 226.047 114.662 222.718 108.698C214.083 93.2245 203.498 81.4385 192.596 75.1567C188.289 72.6751 182.166 70.1043 178.988 69.4433C172.425 68.0769 172.176 67.9515 164.111 61.9291C160.163 58.9801 158.885 57.683 160.28 58.0403C172.715 61.2231 178.037 61.7945 190.312 61.2623C198.167 60.9231 207.773 59.8304 211.66 58.8347C215.548 57.8398 220.72 56.8742 223.154 56.6898C225.589 56.5053 227.581 56.0202 227.581 55.6119C227.582 55.2044 225.618 53.7792 223.22 52.4448C220.821 51.1112 218.431 49.537 217.909 48.948C217.388 48.3589 213.017 46.3969 208.197 44.5892C198.544 40.9667 195.989 38.6936 189.788 28.2143L186.252 22.2387L191.469 20.9164C198.117 19.2316 198.826 18.3804 194.293 17.5234C187.749 16.2849 179.101 11.4909 174.944 6.79694C166.314 -2.94579 148.237 -13.3403 136.377 -15.3797C130.597 -16.3733 118.117 -15.829 102.038 -13.8818C96.9505 -13.2666 92.4011 -12.8646 91.927 -12.9913C91.4535 -13.1173 88.2765 -18.5197 84.8686 -24.9967C81.4606 -31.4736 77.1893 -38.8937 75.3756 -41.4867C73.5626 -44.0789 72.3473 -46.2013 72.6745 -46.2007C73.0009 -46.201 75.2403 -44.9602 77.6513 -43.4431C101.749 -28.2766 110.749 -24.0062 125.906 -20.5497C131.13 -19.358 138.908 -17.3395 143.192 -16.0637C147.869 -14.6706 153.972 -13.9854 158.467 -14.3477C162.584 -14.6802 165.525 -15.1438 165.004 -15.3778C164.483 -15.6133 161.169 -16.8311 157.638 -18.0844C148.285 -21.4069 143.557 -24.3219 135.009 -32.0335C126.518 -39.6952 120.207 -43.5409 108.248 -48.3445C101.726 -50.9627 97.648 -51.585 87.1066 -51.5672C70.8306 -51.5413 68.7696 -52.2357 62.0374 -60.0162C55.2757 -67.83 54.2185 -70.8866 56.2171 -76.8408C57.1002 -79.4699 58.8429 -87.2151 60.0899 -94.0544C62.5726 -107.663 65.9813 -116.456 72.0422 -124.881C74.2115 -127.897 75.7208 -130.664 75.3966 -131.03C74.432 -132.119 69.1655 -123.912 64.7483 -114.438C61.9687 -108.474 60.0494 -102.193 58.8671 -95.1902C56.9174 -83.644 54.6739 -75.0492 53.6087 -75.0485C53.2253 -75.0474 53.3902 -76.7435 53.976 -78.8163C54.5611 -80.8899 55.8091 -87.108 56.7501 -92.6349C58.6834 -103.993 62.3854 -113.793 68.8092 -124.557C71.2246 -128.606 72.9236 -132.232 72.584 -132.615C71.8528 -133.441 72.2055 -133.947 66.6046 -124.021ZM36.4002 -69.3449C38.9926 -71.6638 40.444 -72.6943 39.6244 -71.6356C38.8042 -70.5778 36.6861 -66.1733 34.9171 -61.8485C31.9666 -54.6338 30.7527 -52.8902 20.2173 -40.7207C13.9016 -33.425 7.90249 -25.9802 6.88766 -24.1755C5.77565 -22.2008 4.94148 -21.3717 4.79132 -22.0945C4.34435 -24.2333 7.56652 -31.6038 13.2461 -41.4377C16.3032 -46.7294 19.2969 -51.9336 19.8991 -53.0024C20.9914 -54.9422 27.4831 -61.3714 36.4002 -69.3449ZM42.8618 -72.2599C42.5379 -70.3731 42.0316 -65.9372 41.7363 -62.403C41.4416 -58.8696 39.8207 -51.4541 38.1355 -45.9252C34.4667 -33.8939 32.1718 -31.3902 21.1273 -27.3749C17.1725 -25.9375 12.1211 -23.5922 9.90268 -22.1624C5.87127 -19.5653 5.86987 -19.5653 7.48687 -22.5055C8.37706 -24.1234 14.1945 -31.2789 20.4144 -38.4045C31.9093 -51.5732 33.4712 -54.1082 41.6788 -72.9231C42.8771 -75.6684 43.3962 -75.3781 42.8618 -72.2599ZM53.7184 -72.2621C53.5424 -70.8297 54.1966 -68.1978 55.1714 -66.412L56.9454 -63.166L54.5632 -65.6919C52.4137 -67.9725 52.1175 -67.981 51.526 -65.7795C51.1657 -64.4376 50.7086 -63.523 50.511 -63.7461C50.0414 -64.2764 52.4411 -73.0173 53.3429 -74.0609C53.7252 -74.5037 53.8943 -73.6944 53.7184 -72.2621ZM5.14231 -10.5673C4.96007 -7.99595 4.01306 -4.19119 3.03889 -2.11173L1.26524 1.66898L1.18671 -2.60051C1.11773 -6.34098 2.80722 -11.8398 4.81166 -14.3982C5.17495 -14.8623 5.32315 -13.1387 5.14231 -10.5673ZM62.9073 -52.9964C74.795 -37.3843 85.2888 -17.8789 93.6503 4.14839C97.0146 13.0116 100.338 21.762 101.035 23.5948C102.282 26.8721 102.179 26.8476 94.6471 22.075C84.0686 15.3728 69.6479 3.96049 64.7051 -1.62017C62.4361 -4.18187 58.6751 -9.54889 56.3472 -13.5475C52.2044 -20.665 52.0956 -21.1645 51.1766 -37.269C50.3663 -51.4672 51.2823 -65.2503 53.0355 -65.2515C53.3324 -65.2517 57.7751 -59.7367 62.9073 -52.9964ZM49.5019 -51.9154C49.4796 -47.2701 49.7908 -36.4284 50.1927 -27.8229C50.8316 -14.1298 51.5484 -10.0903 55.9354 4.52468C58.6924 13.71 63.1831 26.5599 65.9163 33.0795C71.3819 46.1209 71.4655 47.5856 66.1051 36.3893C63.2836 30.4982 62.3718 29.2493 61.1186 29.5672C59.921 29.8714 59.8345 29.669 60.7258 28.6437C61.9043 27.2877 61.1293 24.0632 57.1319 13.6905C54.8747 7.83383 52.7181 -0.71641 50.1077 -14.1666C48.1174 -24.4209 47.552 -57.5966 49.3249 -60.0635C49.4439 -60.228 49.5235 -56.5614 49.5019 -51.9154ZM45.9475 -44.2586C45.7532 -42.7294 44.947 -37.9167 44.1566 -33.5632C43.3655 -29.2105 42.254 -21.8812 41.6865 -17.276C40.0165 -3.74018 39.3714 -1.42265 35.2932 5.69351C32.4079 10.7277 29.6551 14.1326 24.5369 18.9999L17.6581 25.5406L22.3446 18.9824C31.0304 6.82927 37.6289 -10.5165 43.2588 -35.9964C45.5138 -46.2012 46.6329 -49.6399 45.9475 -44.2586ZM70.3478 -51.3074C72.1275 -50.6971 79.5581 -50.1558 86.861 -50.1038C97.4114 -50.0303 101.777 -49.3535 108.113 -46.809C118.661 -42.5731 127.07 -37.3547 135.197 -30.0042C138.862 -26.6888 143.743 -22.9406 146.046 -21.6745C148.348 -20.4084 150.232 -19.1499 150.232 -18.8775C150.231 -18.1936 138.383 -23.4174 127.045 -29.1024C121.852 -31.7049 114.632 -34.6269 111 -35.595C94.3848 -40.0227 79.5735 -44.9783 75.0188 -47.6345C72.2821 -49.23 69.4819 -50.2535 68.7957 -49.9075C68.035 -49.5249 66.4399 -50.5945 64.7068 -52.6498C62.0414 -55.8117 62.0287 -55.9086 64.4895 -54.2192C65.9327 -53.2289 68.5689 -51.9186 70.3478 -51.3074ZM46.1478 -25.0025C47.3866 -13.2965 44.7831 1.12649 40.1477 8.24147C38.2831 11.104 25.6588 21.8802 24.1687 21.8812C23.9513 21.8822 26.8273 18.4065 30.5599 14.1605C38.1448 5.53024 40.8767 0.343676 41.6807 -6.94968C41.9806 -9.67128 42.5446 -13.0706 42.9331 -14.5047C43.3208 -15.9379 43.887 -20.6225 44.1898 -24.9129C44.4919 -29.2042 44.8591 -32.8496 45.0048 -33.0141C45.1498 -33.1779 45.6649 -29.5728 46.1478 -25.0025ZM24.9814 12.8554C24.9808 13.9023 14.6266 25.3767 12.2413 26.9758C7.14078 30.3927 9.2201 27.2894 16.945 19.9537C21.3656 15.7565 24.9823 12.5623 24.9814 12.8554ZM78.5965 -47.9334C79.6167 -46.7815 89.9008 -44.5957 92.9248 -44.8885L95.8285 -45.1694L92.6142 -45.4984C90.8455 -45.6782 86.8364 -46.4499 83.7053 -47.211C80.5728 -47.9721 78.2738 -48.2977 78.5965 -47.9334ZM54.0807 -14.2862C55.0521 -12.5457 58.451 -7.63042 61.6329 -3.36393L67.4188 4.39262L60.2706 -4.20733C53.7052 -12.1063 51.1261 -16.1103 51.9815 -17.076C52.1645 -17.2827 53.1094 -16.0267 54.0807 -14.2862ZM74.0722 22.2835C77.5265 33.9347 80.6694 55.2031 78.9373 55.2044C77.9319 55.2059 70.2448 40.1206 66.2021 30.2133C64.2081 25.3296 60.4129 14.4364 57.7673 6.0064L52.9565 -9.32083L70.1931 9.19874L74.0722 22.2835ZM79.5586 -32.0363C79.8944 -31.15 79.5609 -31.1498 78.708 -32.0365C77.9366 -32.839 77.6879 -33.4949 78.1551 -33.4952C78.6222 -33.4956 79.2544 -32.8391 79.5586 -32.0363ZM128.899 -26.3783C135.566 -23.1302 143.883 -19.4107 147.382 -18.1137C155.991 -14.921 153.266 -14.533 143.38 -17.5453C138.994 -18.8806 131.214 -20.957 126.091 -22.1584C113.11 -25.2018 107.611 -27.4062 96.4963 -34.0191C91.1862 -37.1783 86.2102 -40.1225 85.438 -40.5605C84.6664 -40.9992 91.402 -39.316 100.406 -36.8203C110.377 -34.0575 121.517 -29.9746 128.899 -26.3783ZM81.667 -28.0661C82.0028 -27.1799 81.6693 -27.1796 80.8164 -28.0663C80.0451 -28.8688 79.7964 -29.5247 80.2635 -29.5251C80.7307 -29.5254 81.3628 -28.869 81.667 -28.0661ZM86.7447 -18.1778C89.1887 -12.9195 90.2221 -11.4968 91.7276 -11.3184C93.1537 -11.1486 93.2936 -10.9985 92.2887 -10.7135C91.54 -10.5016 91.1468 -9.31779 91.3958 -8.02558C91.6863 -6.51814 91.5749 -6.24319 91.076 -7.23417C85.1944 -18.9154 82.0822 -25.7024 82.789 -25.3034C83.268 -25.0329 85.0483 -21.8258 86.7447 -18.1778ZM73.7667 8.7363C74.7995 9.97075 75.0869 10.7148 74.4053 10.3872C73.723 10.0605 73.0545 10.3215 72.9191 10.9682C72.5586 12.6834 71.4641 11.1058 71.4653 8.87375C71.4668 6.20955 71.6448 6.19911 73.7667 8.7363ZM90.6592 23.5752L105.213 33.5131L109.889 41.5556C112.461 45.979 115.877 53.6911 117.481 58.6935C122.422 74.1072 126.72 81.4637 140.506 98.1063L152.738 112.874L142.375 103.935C136.675 99.0185 128.521 91.7919 124.255 87.8765C119.989 83.9603 113.983 78.5957 110.909 75.9543C107.833 73.3137 104.818 70.612 104.208 69.9515C103.597 69.2911 99.3193 67.6911 94.7005 66.3965C88.7726 64.735 85.5237 63.1716 83.6548 61.0791C82.1009 59.3406 81.3455 57.7326 81.8277 57.1881C82.279 56.6787 82.2617 56.2617 81.7882 56.2612C81.3147 56.2623 80.4599 51.0831 79.8886 44.7534C79.3167 38.423 77.5273 28.8072 75.9114 23.3855C73.7626 16.1744 73.3947 13.5399 74.54 13.5804C75.4012 13.6116 82.6551 18.1087 90.6592 23.5752ZM101.824 -10.2397C110.781 -10.3199 119.553 -8.03362 127.894 -3.44115C130.879 -1.79819 133.56 -0.185251 133.849 0.141811C135.269 1.74457 129.708 3.48332 123.296 3.441C119.346 3.41521 114.71 3.70847 112.995 4.09256C107.572 5.30697 90.3276 -6.38926 93.0338 -9.44461C93.3851 -9.84123 97.34 -10.1991 101.824 -10.2397ZM78.8586 13.3073C79.1473 14.0736 78.5916 13.8071 77.6249 12.7156C76.6581 11.624 76.4228 10.9975 77.1008 11.3227C77.7803 11.6479 78.5713 12.5409 78.8586 13.3073ZM46.4532 48.0363C42.348 54.2621 40.0954 61.5461 36.9304 78.8339C34.4816 92.2074 29.6302 109.254 28.2724 109.255C27.8481 109.256 27.8284 108.035 28.2296 106.544C28.6307 105.051 29.3179 99.1488 29.7559 93.4261C30.6609 81.6145 31.4189 78.5328 36.8321 64.6607C41.5907 52.4642 41.9752 51.7443 46.354 46.8116L49.8782 42.8421L46.4532 48.0363ZM76.8804 22.9535C78.2541 27.3992 79.9143 36.5813 80.5691 43.3581C81.2231 50.1341 82.0511 55.3483 82.4087 54.9445C83.3112 53.9256 81.4509 36.577 79.4474 27.3284C78.0109 20.6991 75.3357 13.6299 74.6162 14.5645C74.4873 14.7322 75.5061 18.507 76.8804 22.9535ZM93.3531 -4.2483C93.9332 -3.59338 94.1009 -2.71102 93.7256 -2.28737C93.3511 -1.86452 92.7519 -2.25967 92.3943 -3.16575C92.0374 -4.07262 91.8697 -4.955 92.0218 -5.12669C92.1738 -5.29837 92.7731 -4.90321 93.3531 -4.2483ZM102.257 4.30827C115.644 14.4789 120.075 17.4324 128.843 22.0301C140.449 28.1152 149.4 30.3703 158.661 29.5432C165.027 28.9739 166.285 29.2891 170.7 32.5642C173.639 34.7433 178.232 36.8125 182.07 37.6843L188.508 39.1477L177.257 38.9888C168.074 38.8603 163.877 39.5647 154.432 42.8219C148.066 45.0172 141.522 46.6343 139.889 46.4146C138.256 46.1957 129.965 42.2085 121.464 37.5542L106.008 29.0936L101.496 16.7235C99.0152 9.91937 96.6027 3.54257 96.1347 2.55158C94.7075 -0.47303 96.7236 0.105402 102.257 4.30827ZM123.747 -14.1522C139.153 -14.4277 147.325 -11.7844 153.457 -4.54124L157.276 -0.0313431L150.362 -0.252803C145.413 -0.411326 141.23 -1.58319 135.65 -4.37291C131.362 -6.51773 125.091 -8.87563 121.714 -9.61276C118.338 -10.3499 115.103 -11.4851 114.527 -12.136C113.951 -12.7862 112.602 -13.0561 111.531 -12.7368C110.459 -12.4175 109.915 -12.5529 110.323 -13.0401C110.731 -13.5266 116.771 -14.0273 123.747 -14.1522ZM128.518 13.9138C141.126 17.2236 156.234 19.0342 168.043 18.6509C173.206 18.4836 180.733 18.4997 184.771 18.6867C190.646 18.9582 191.349 19.1809 188.29 19.8018C186.189 20.2291 180.761 21.9693 176.228 23.6701C158.554 30.301 145.657 29.3173 128.41 20.0223C120.225 15.61 107.407 7.07291 105.829 4.98096C105.585 4.65783 108.394 5.96013 112.071 7.87345C115.75 9.78677 123.151 12.5053 128.518 13.9138ZM72.4788 47.4022C72.8146 48.2884 72.4811 48.2887 71.6282 47.402C70.8568 46.5995 70.6081 45.9436 71.0753 45.9432C71.5424 45.9429 72.1746 46.5993 72.4788 47.4022ZM75.2903 52.1662C75.6261 53.0525 75.2926 53.0527 74.4397 52.166C73.6684 51.3635 73.4197 50.7076 73.8868 50.7072C74.354 50.7069 74.9861 51.3634 75.2903 52.1662ZM124.348 4.94551C128.135 5.34396 131.103 4.85573 132.93 3.53583C136.98 0.608217 153.193 0.551412 161.076 3.43719C167.688 5.8576 183.983 14.9825 183.983 16.2637C183.982 17.3559 159.904 17.3937 150.372 16.3162C137.255 14.833 115.152 9.23513 113.052 6.86474C111.973 5.64699 119.25 4.41057 124.348 4.94551ZM135.243 -3.07229C139.175 -1.14484 139.968 -0.47576 138.503 -0.322218C137.438 -0.209455 134.424 -1.38771 131.804 -2.94196C129.184 -4.4946 126.412 -6.12819 125.643 -6.57008C122.696 -8.26549 130.301 -5.49388 135.243 -3.07229ZM62.0702 69.1259C60.2069 73.5557 60.2097 73.535 60.9822 79.747C61.2575 81.9558 61.0514 83.2603 60.524 82.6458C58.1237 79.8467 59.2753 69.8984 62.3925 66.5092C63.2225 65.607 63.0861 66.7104 62.0702 69.1259ZM103.416 29.6388C104.075 30.354 103.713 30.4552 102.48 29.9016C101.374 29.4043 99.8457 28.2719 99.0835 27.3859C97.9698 26.0904 98.1528 26.0394 100.019 27.1232C101.296 27.865 102.825 28.9966 103.416 29.6388ZM38.4377 95.8967C38.9918 96.5222 36.6107 102.1 35.7889 102.101C35.3977 102.101 35.5321 100.903 36.0894 99.4371C37.2802 96.3034 37.9301 95.3235 38.4377 95.8967ZM67.8497 65.7205C69.4788 65.1339 71.6473 64.7416 72.6695 64.8481C74.1814 65.0051 74.3106 65.4705 73.3633 67.337C71.3489 71.3038 63.6309 81.4195 63.0867 80.8051C62.8005 80.482 62.3092 78.4823 61.9937 76.36C61.4989 73.0194 61.9071 71.5329 64.4224 67.5293C64.6787 67.1208 66.2214 66.3063 67.8497 65.7205ZM77.3988 56.1364C77.7346 57.0226 77.4011 57.0229 76.5482 56.1362C75.7768 55.3337 75.5281 54.6777 75.9953 54.6774C76.4625 54.6771 77.0946 55.3335 77.3988 56.1364ZM58.4792 81.9618C58.838 83.3031 58.7773 84.8005 58.3436 85.2901C57.91 85.7797 57.4961 84.8181 57.4232 83.154C57.3502 81.4899 57.4116 79.9918 57.5587 79.8256C57.7059 79.6595 58.1204 80.6204 58.4792 81.9618ZM78.4328 61.5689C78.5664 61.7198 78.5655 63.3275 78.4308 65.1434L78.1862 68.4441L77.9453 65.1438C77.7191 62.0429 77.8703 60.9339 78.4328 61.5689ZM87.1996 70.6006C90.1365 75.3455 95.7413 83.4731 99.6537 88.6613L106.767 98.0945L98.884 88.7365C91.5487 80.0271 78.2409 59.9327 80.7434 61.3449C81.3567 61.6907 84.2614 65.8558 87.1996 70.6006ZM58.1236 88.7139C58.271 89.4207 57.1843 91.3621 55.7095 93.0272C50.3675 99.0584 42.818 112.49 40.1603 120.69C37.6612 128.401 34.6381 149.762 36.0459 149.761C36.3899 149.76 37.1305 145.174 37.6922 139.569C38.6707 129.796 42.4346 116.039 45.8335 109.814C48.0237 105.801 47.821 107.222 45.1491 114.602C42.7674 121.177 41.1918 128.027 40.2129 136.053C39.885 138.743 38.9645 144.255 38.1679 148.301C36.2721 157.924 34.9315 155.946 34.8597 143.421C34.7701 127.515 37.9869 114.637 44.7033 104.018C49.0945 97.0743 57.7974 87.15 58.1236 88.7139ZM75.2496 70.9134C75.0952 72.804 75.25 74.0581 75.5921 73.702C75.9342 73.3443 76.3707 81.5884 76.564 92.0219C76.7559 102.455 77.4646 116.025 78.1387 122.177C79.8663 137.93 82.3289 167.759 81.9382 168.2C81.2342 168.995 79.5235 160.899 79.2816 155.625C79.1412 152.562 77.8565 144.945 76.4276 138.699C72.2909 120.614 71.9205 114.91 73.9338 100.205C75.7945 86.6146 76.3299 72.9215 74.9395 74.4912C74.5459 74.9356 74.2779 77.4609 74.3439 80.1028C74.41 82.7447 73.8389 89.9244 73.0757 96.0572C72.3124 102.19 71.615 110.22 71.5264 113.904L71.3643 120.601L68.9958 113.749C67.6935 109.98 65.9189 104.026 65.0527 100.518C64.1865 97.0087 63.1433 94.0792 62.7339 94.0064C62.3245 93.9336 62.3653 93.8144 62.8241 93.741C63.2828 93.6676 63.7002 92.0993 63.7526 90.254C63.8294 87.5175 69.8063 75.8238 74.9999 68.2469C75.29 67.8226 75.4026 69.0227 75.2496 70.9134ZM112.267 34.7289C112.675 35.1409 112.227 35.2898 111.272 35.0585C110.317 34.8272 109.077 34.083 108.519 33.4035C107.446 32.1 110.862 33.3081 112.267 34.7289ZM137.769 6.39517C139.856 6.79004 142.152 6.95524 142.872 6.76329C143.593 6.57055 142.474 6.08998 140.388 5.69589C138.301 5.301 136.004 5.13583 135.285 5.32779C134.564 5.52052 135.682 6.00106 137.769 6.39517ZM58.7751 93.84C58.2708 94.811 58.3245 95.7301 58.8964 95.8814C59.4676 96.0335 59.252 96.5023 58.4167 96.9231C56.8206 97.7265 55.06 104.471 56.4467 104.469C56.8886 104.469 57.1511 105.598 57.0293 106.977C56.8962 108.491 57.017 108.776 57.3342 107.693C57.6225 106.707 57.7407 109.345 57.5955 113.552C57.1285 127.103 52.2594 140.742 44.4305 150.424C40.4386 155.362 37.6205 156.011 38.8027 151.72C39.2356 150.148 40.2944 143.934 41.1561 137.913C43.2185 123.489 47.1445 110.528 52.2779 101.19C53.6737 98.6502 59.9851 91.5102 58.7751 93.84ZM58.533 100.21C58.3486 101.699 57.8531 103.286 57.4307 103.734C57.0083 104.184 56.8139 103.332 56.997 101.843C57.1814 100.353 57.6769 98.7665 58.0993 98.3182C58.5217 97.8683 58.7161 98.7205 58.533 100.21ZM65.5725 108.223C67.6698 114.513 69.9096 120.262 70.5494 120.999C71.5492 122.15 76.1299 141.346 76.2665 144.956C76.2921 145.648 75.6845 145.262 74.9154 144.1C67.7241 133.227 64.8333 128.011 62.0161 120.829C59.0766 113.338 58.844 111.633 59.7998 104.622C60.3876 100.313 61.0684 96.7869 61.3133 96.7868C61.5581 96.7866 63.4738 101.933 65.5725 108.223ZM96.9287 68.7167C100.133 69.902 104.702 72.6019 107.083 74.7171C109.464 76.8315 114.949 81.7127 119.272 85.5638C133.762 98.4725 152.468 114.737 154.227 115.956C155.806 117.051 155.782 117.117 153.966 116.648C150.354 115.715 118.181 92.0916 105.611 81.1419C98.8444 75.2464 92.2046 69.5478 90.8565 68.4772C87.6314 65.9154 89.5598 65.991 96.9287 68.7167ZM167.285 1.98316L171.489 5.96929L166.929 3.90014C162.396 1.84206 159.4 -0.580162 156.316 -4.68467C153.863 -7.94924 162.071 -2.95946 167.285 1.98316ZM79.2242 84.4412C79.2773 86.4024 79.545 88.2594 79.8185 88.5682C80.092 88.877 80.714 91.3437 81.2007 94.0489C81.6875 96.7556 83.7602 103 85.8069 107.926C93.9537 127.536 94.7869 137.307 89.6793 153.3C87.8757 158.944 85.7569 164.889 84.9687 166.513C83.5741 169.384 83.5319 169.384 83.4075 166.524C83.3367 164.908 83.8025 163.446 84.4414 163.275C85.081 163.104 85.051 162.817 84.3756 162.638C83.6996 162.458 82.9542 159.274 82.7199 155.561C82.4849 151.848 81.6602 143.259 80.8865 136.474C78.2891 113.678 76.9242 83.3642 78.4201 81.6751C78.8095 81.2356 79.1718 82.4808 79.2242 84.4412ZM124.21 98.2466C130.054 102.564 136.225 106.988 137.924 108.077C139.624 109.165 141.013 110.317 141.013 110.637C141.013 111.433 126.827 102.835 121.154 98.6022C115.182 94.1447 96.8323 77.5943 93.7535 73.8893C92.4437 72.3119 96.3699 75.3808 102.479 80.708C108.588 86.036 118.367 93.928 124.21 98.2466ZM59.5181 117.702C59.9184 121.613 65.7936 133.208 71.5307 141.408C75.9729 147.758 77.6126 150.914 77.6535 153.192C77.7088 156.275 77.6793 156.262 74.5593 151.922C72.8271 149.512 69.3773 144.834 66.8935 141.525C60.1023 132.481 58.2768 128.242 58.5187 122.085C58.7392 116.489 59.1906 114.508 59.5181 117.702ZM150.351 87.0422C157.615 96.9718 162.313 105.169 164.521 111.769L165.8 115.591L163.669 112.44C162.498 110.706 155.194 101.805 147.439 92.6602C134.303 77.1713 119.795 56.6083 118.134 51.1262C117.257 48.2315 142.741 76.6434 150.351 87.0422ZM122.491 62.9865C125.017 67.514 132.315 77.0186 144.646 91.844C161.059 111.575 169.852 123.865 169.85 127.072C169.85 128.481 145.437 102.696 138.54 94.001C134.88 89.3869 130.096 82.4764 127.91 78.6453C124.24 72.213 117.407 56.2367 118.325 56.2352C118.545 56.2351 120.419 59.2737 122.491 62.9865ZM41.3095 147.907C39.0388 153.468 39.7019 154.193 42.0766 148.746C43.2678 146.015 44.1127 143.635 43.9559 143.458C43.5284 142.976 42.8728 144.078 41.3095 147.907ZM32.234 166.271C31.1224 168.668 29.7292 172.818 29.1395 175.495L28.066 180.362L27.891 176.277C27.7111 172.081 29.4416 167.454 32.5125 163.921C33.7522 162.496 33.6717 163.176 32.234 166.271ZM151.534 48.3445C151.95 47.8756 151.004 47.4044 149.435 47.2983C147.329 47.1544 148.96 46.2501 155.654 43.8489C162.521 41.3847 167.635 40.5852 176.679 40.5621C183.252 40.5439 188.81 40.1443 189.032 39.6739C189.254 39.2027 189.56 39.4218 189.714 40.162C189.868 40.9014 193.406 42.1484 197.574 42.9318C203.717 44.0872 216.518 48.9664 218.105 50.7589C218.568 51.2812 213.994 51.0795 210.728 50.4337C203.713 49.0454 187.732 48.913 177.148 50.1557C170.599 50.9253 161.898 51.339 157.811 51.0774C153.725 50.815 150.704 50.9649 151.098 51.4094C152.51 53.0042 162.789 53.1287 176.48 51.7146C194.932 49.8102 216.138 51.1702 217.479 54.3434C218.572 56.9337 204.626 59.3521 187.631 59.5214C172.457 59.6728 169.087 59.255 160.446 56.1568C155.021 54.2122 150.464 52.0533 150.32 51.3607C150.175 50.6681 148.656 49.6985 146.944 49.2057L143.831 48.3095L147.306 48.7526C149.217 48.9959 151.12 48.8127 151.534 48.3445ZM174.685 31.0363C180.2 35.1637 181.245 36.7373 177.066 34.6202C172.017 32.0636 167.546 28.4724 168.641 27.8536C169.203 27.5371 171.923 28.969 174.685 31.0363ZM181.556 30.7589L186.691 36.3601L182.327 34.1803C179.926 32.9818 176.612 30.8855 174.961 29.5228C172.11 27.1697 172.071 26.9965 174.191 26.1006C176.163 25.2683 177.021 25.8119 181.556 30.7589ZM154.409 57.0071C155.522 58.3027 155.339 58.3537 153.473 57.2699C150.298 55.4261 148.449 53.3391 151.012 54.4915C152.118 54.9887 153.646 56.1212 154.409 57.0071ZM187.064 26.1169C188.393 28.2273 190.211 31.6646 191.106 33.7547L192.731 37.5544L188.202 34.2556C185.709 32.4415 182.413 29.5366 180.875 27.8005L178.079 24.6442L181.364 23.4615C184.461 22.3464 184.787 22.4979 187.064 26.1169ZM113.252 106.154C113.588 107.04 113.254 107.041 112.402 106.154C111.63 105.351 111.381 104.695 111.849 104.695C112.316 104.695 112.948 105.351 113.252 106.154ZM118.204 110.188C118.492 110.954 117.937 110.688 116.97 109.596C116.003 108.505 115.768 107.878 116.446 108.204C117.125 108.529 117.916 109.422 118.204 110.188ZM176.845 78.2611L180.951 84.1958L175.561 79.1675C172.597 76.4022 168.271 71.9983 165.948 69.3818L161.724 64.6243L167.232 68.4745C171.253 71.286 173.849 73.9293 176.845 78.2611ZM94.151 154.809C98.9967 163.012 101.255 168.928 102.75 177.346L104.381 186.523L100.965 181.647C99.0877 178.964 95.4055 173.578 92.7841 169.677L88.0158 162.585L89.6015 157.826C91.7319 151.426 92.0346 151.225 94.151 154.809ZM183.99 90.2909C192.746 99.9255 197.954 108.155 204.793 123.166L209.332 133.124L201.023 122.858C193.327 113.349 182.324 97.6159 170.854 79.7237L166.132 72.3581L171.145 77.014C173.901 79.5746 179.682 85.5494 183.99 90.2909ZM96.2861 177.801C104.542 190.283 104.687 190.594 100.282 186.387C95.8573 182.16 88.673 172.734 86.8544 168.769C86.3653 167.701 86.3597 166.384 86.8419 165.839C87.5149 165.079 89.7113 167.861 96.2861 177.801ZM183.707 78.7026C194.247 87.1802 199.449 92.1475 214.564 108.165C220.886 114.864 222.504 116.949 220.475 115.781C218.938 114.896 214.167 112.424 209.872 110.287C202.672 106.704 201.377 105.632 193.238 96.5199C185.102 87.4107 170.456 68.5564 172.541 69.8759C173.037 70.1893 178.062 74.1614 183.707 78.7026ZM125.513 139.892C127.585 145.711 130.911 155.328 132.904 161.264C138.034 176.54 145.349 190.919 154.237 203.2C162.672 214.855 161.18 214.887 150.61 203.279C137.751 189.156 129.992 171.749 124.592 144.902C123.327 138.611 121.863 132.529 121.339 131.388C120.816 130.247 120.694 129.313 121.067 129.313C121.441 129.313 123.442 134.073 125.513 139.892ZM130.305 135.26C139.185 149.306 144.23 159.385 147.493 169.601C151.136 181.007 154.619 197.602 153.371 197.603C149.436 197.605 138.099 174.061 130.432 149.966C128.898 145.148 126.73 138.665 125.613 135.56C124.14 131.465 124.072 130.671 125.363 132.667C126.343 134.181 127.515 136.368 127.969 137.527C128.523 138.94 128.892 139.168 129.091 138.218C129.254 137.439 128.041 134.401 126.394 131.467C121.633 122.989 123.992 125.276 130.305 135.26ZM129.087 123.331C129.08 124.894 128.919 124.893 128.299 123.331C127.87 122.25 127.873 121.365 128.307 121.364C128.739 121.363 129.091 122.248 129.087 123.331ZM136.077 130.521C136.076 132.553 134.203 131.192 132.252 127.743L130.171 124.064L133.124 126.842C134.749 128.371 136.078 130.025 136.077 130.521ZM192.75 77.1266C199.043 81.0866 202.611 84.1343 207.755 89.942C214.074 97.077 223.49 111.233 224.435 115.021C224.666 115.948 218.543 110.009 210.828 101.824C201.422 91.8474 193.787 84.618 187.66 79.8873C176.374 71.1751 176.231 71.0005 180.79 71.5143C182.829 71.7432 188.21 74.2694 192.75 77.1266ZM152.652 136.57C167.214 147.278 174.597 152.098 187.485 159.303C199.178 165.843 200.93 167.001 197.282 165.781C196.089 165.381 191.839 164.107 187.838 162.948C175.966 159.512 168.324 154.986 155.163 143.598C148.562 137.886 141.273 131.415 138.965 129.218L134.768 125.224L138.543 127.097C140.619 128.127 146.969 132.389 152.652 136.57ZM139.438 124.087C139.82 124.518 143.581 126.28 147.796 128.001C160.391 133.144 184.892 148.484 192.658 156.088C196.342 159.695 199.162 162.864 198.927 163.13C197.994 164.183 169.258 146.641 157.311 137.725C150.338 132.521 142.811 127.281 140.584 126.079C138.358 124.877 137.033 123.761 137.64 123.599C138.247 123.436 139.056 123.656 139.438 124.087ZM174.471 87.8408C174.807 88.727 174.474 88.7273 173.621 87.8406C172.85 87.0381 172.601 86.3822 173.068 86.3818C173.535 86.3815 174.167 87.0379 174.471 87.8408ZM185.488 104.554C190.863 112.365 198.396 122.38 202.23 126.809C207.825 133.271 208.531 134.364 205.805 132.343C201.084 128.841 193.511 120.231 186.952 110.907C181.532 103.201 174.189 90.3527 175.205 90.352C175.486 90.3518 180.113 96.7429 185.488 104.554ZM165.357 156.576C177.477 164.068 192.338 181.191 207.124 204.702C210.17 209.546 214.521 216.056 216.792 219.168C221.938 226.222 162.77 161.031 148.824 144.283L138.604 132.007L148.572 142.186C155.389 149.144 160.697 153.696 165.357 156.576ZM152.682 152.17C154.977 155.07 153.056 153.159 148.414 147.921C143.772 142.684 141.895 140.31 144.243 142.646C146.591 144.982 150.388 149.268 152.682 152.17ZM157.86 148.371L159.938 150.788L157.291 149.013C155.835 148.037 153.223 145.628 151.485 143.661L148.326 140.083L152.054 143.019C154.104 144.634 156.717 147.042 157.86 148.371ZM155.838 160.576C168.652 176.169 176.801 188.609 182.749 201.658C185.183 206.997 187.822 212.097 188.614 212.991C189.405 213.885 189.628 214.73 189.11 214.868C187.541 215.287 174.607 198.955 167.133 187.119C154.345 166.864 148.281 155.908 150.401 156.887C151.966 157.61 151.921 157.338 150.165 155.47C146.224 151.277 144.269 148.632 144.728 148.115C144.976 147.834 149.975 153.442 155.838 160.576ZM151.841 164.929C152.938 167.053 157.714 175.129 162.455 182.875C169.603 194.552 173.147 199.316 183.211 210.763C194.659 223.785 195.119 224.437 191.312 222.256C185.439 218.891 170.833 202.176 164.896 192.025C158.847 181.684 148.413 161.067 149.228 161.066C149.568 161.066 150.745 162.804 151.841 164.929ZM162.475 152.19C162.811 153.077 162.478 153.077 161.625 152.19C160.853 151.388 160.605 150.732 161.072 150.731C161.539 150.731 162.171 151.388 162.475 152.19ZM220.332 227.587C220.65 228.61 206.809 218.143 199.43 211.78C187.179 201.217 181.582 194.497 170.805 177.416L161.153 162.117L190.684 194.663C206.927 212.564 220.268 227.379 220.332 227.587ZM156.144 202.304C156.433 203.07 155.877 202.804 154.91 201.712C153.944 200.621 153.708 199.994 154.386 200.319C155.066 200.645 155.857 201.538 156.144 202.304ZM207.753 208.733C209.493 210.698 210.343 211.347 209.641 210.174C208.938 209.002 207.515 207.396 206.477 206.602C205.438 205.809 206.013 206.768 207.753 208.733Z" fill="black"/>
</svg>
