<svg width="255" height="224" viewBox="0 0 255 224" fill="none" xmlns="http://www.w3.org/2000/svg">
<path opacity="0.1" fill-rule="evenodd" clip-rule="evenodd" d="M199.115 340.504C201.151 335.881 203.129 330.381 203.511 328.282C203.893 326.183 205.342 322.402 206.73 319.879C208.119 317.357 211.114 310.812 213.387 305.334C217.966 294.302 224.372 284.268 234.376 272.457C240.057 265.75 241.35 263.626 244.023 256.598C245.72 252.135 247.894 247.387 248.851 246.049C251.781 241.954 254.777 223.48 254.105 213.647C253.767 208.69 252.835 204.037 252.036 203.308C250.682 202.073 250.592 202.169 250.719 204.73C250.793 206.239 250.289 209.195 249.599 211.295C248.909 213.395 248.34 217.905 248.334 221.315C248.324 226.959 248.028 227.821 245.046 230.911C243.244 232.779 238.207 236.12 233.853 238.334C228.471 241.071 225.111 243.511 223.361 245.951C220.182 250.386 216.793 264.834 216.656 274.54C216.472 287.616 216.031 290.103 212.142 299.978C210.001 305.416 208.055 309.887 207.816 309.917C206.768 310.043 208.308 296.257 212.239 270.329C221.343 210.279 221.689 209.123 235.35 193.454C240.287 187.792 244.286 182.744 244.238 182.235C243.723 176.724 226.704 187.274 215.88 199.815C210.48 206.07 208.275 212.274 207.789 222.56C207.619 226.18 207.226 228.91 206.916 228.627C206.606 228.344 204.882 223.549 203.084 217.974C201.287 212.397 198.184 204.588 196.189 200.621C194.195 196.653 192.413 192.7 192.228 191.835C191.755 189.619 197.261 178.58 201.297 173.65C206.463 167.341 209.4 160.849 213.22 147.3C215.984 137.489 216.691 132.607 216.636 123.683C216.539 108.159 217.09 102.719 219.535 95.0236C220.694 91.3742 221.314 87.8106 220.914 87.1032C220.37 86.1432 219.893 86.9565 219.026 90.327C218.327 93.0396 216.905 95.7621 215.454 97.1643C213.703 98.8561 213.265 99.9275 213.854 101.079C214.302 101.951 214.299 103.181 213.848 103.811C212.357 105.894 209.382 122.197 208.576 132.698C208.139 138.383 207.527 143.543 207.214 144.163C206.901 144.784 206.448 147.713 206.207 150.673C205.555 158.684 203.165 165.198 198.51 171.65L194.344 177.423L196.25 169.769C197.298 165.558 198.703 155.928 199.375 148.367C200.725 133.15 202.668 122.946 204.699 120.397L206.032 118.723L205.164 120.821C203.045 125.949 204.096 144.201 206.494 143.912C206.939 143.858 206.766 142.244 206.112 140.323C204.392 135.284 205.341 122.847 207.695 119.556C208.76 118.068 210.15 114.116 210.784 110.774C211.417 107.431 212.368 104.093 212.896 103.355C213.423 102.618 213.484 101.676 213.03 101.262C212.569 100.842 211.883 101.436 211.48 102.599C211.083 103.749 209.584 107.098 208.153 110.04C200.177 126.425 199.816 127.749 198.191 146.459C197.063 159.459 193.522 176.672 190.918 181.821C189.193 185.232 189.052 185.285 187.727 183.028C186.965 181.729 183.373 176.373 179.744 171.127C176.116 165.882 172.82 160.998 172.419 160.275C171.893 159.325 173.555 158.117 178.419 155.91C182.118 154.232 185.928 151.766 186.885 150.429C188.802 147.749 192.468 131.421 191.886 128.149C191.641 126.768 192.783 124.311 195.341 120.717C205.065 107.061 208.488 91.6752 206.797 69.2252C205.804 56.0296 205.95 53.4348 207.921 49.3145C211.111 42.6422 211.442 35.8335 208.829 30.6393C206.224 25.46 205.796 25.6858 206.827 31.6981C208.125 39.2688 205.777 47.1552 199.644 55.8188C193.107 65.0537 187.339 76.7266 185.913 83.6036C184.96 88.1995 184.73 88.5971 183.947 87.0069C182.021 83.0997 172.876 71.963 167.609 67.1115C162.695 62.5849 161.708 61.0632 159.1 53.9918C157.479 49.5925 155.753 44.5395 155.267 42.7633C154.167 38.7428 150.904 34.286 148.848 33.9934C147.77 33.8392 147.957 34.6915 149.462 36.7928C150.653 38.4537 151.772 40.5777 151.951 41.5123C152.131 42.4468 152.903 43.3011 153.668 43.4101C154.516 43.5306 154.59 43.7924 153.86 44.0827C153.201 44.3444 152.838 45.1256 153.052 45.8187C153.268 46.5108 153.264 48.1458 153.043 49.4514C152.667 51.6721 152.526 51.6117 150.846 48.5112C148.677 44.5096 136.981 33.5897 127.466 26.6829C119.84 21.1465 117.438 20.9931 123.291 26.4169C127.918 30.7049 131.72 37.9604 134.107 47.0541C136.01 54.3088 141.859 65.2509 145.712 68.7655C147.369 70.2767 147.769 71.6831 147.288 74.3208C145.515 84.0613 149.84 100.441 157.884 114.449C162.025 121.66 165.613 134.399 167.208 147.558C167.769 152.179 167.956 155.281 167.626 154.451C166.227 150.939 149.118 131.136 141.369 124.06C133.132 116.537 132.861 116.161 127.439 104.726C124.399 98.3111 119.523 85.7241 116.605 76.7537C108.372 51.4468 100.204 37.126 86.9627 24.7822C80.4045 18.6679 67.7376 10.8403 65.707 11.6471C65.2527 11.8281 67.4149 14.6411 70.5128 17.8986C77.6975 25.4528 79.8923 29.5224 84.6477 44.109C91.4209 64.8797 98.7351 77.4462 116.181 98.2848C119.592 102.36 122.455 106.157 122.544 106.721C122.794 108.325 109.93 95.4566 106.749 90.9221C105.183 88.6891 99.3851 79.1301 93.8645 69.679C70.4733 29.6307 53.2674 11.2533 35.1318 6.94911C32.7462 6.38158 30.5889 6.20586 30.338 6.5565C30.0865 6.90801 33.7968 10.7659 38.5826 15.1322C45.2147 21.1825 48.0904 24.4917 50.6748 29.0495L54.0658 35.0294L48.9085 30.6248C40.2543 23.2346 28.2349 15.2361 14.3731 7.64376C7.10923 3.66454 0.925451 0.439257 0.630235 0.474902C0.336418 0.510379 3.48634 4.05086 7.63127 8.34277C11.7768 12.6338 18.6368 20.5435 22.876 25.9184C35.4349 41.8436 46.9856 54.2613 58.0035 63.6845L68.3592 72.5413L63.1197 70.7726C60.2376 69.7985 54.3136 68.4575 49.954 67.7904C45.5945 67.1248 40.4376 65.891 38.4939 65.0488C33.0685 62.7001 23.9922 60.7252 24.7315 62.0555C25.0946 62.7075 27.6584 64.2944 30.4299 65.5823C33.5638 67.0389 38.4671 70.6584 43.4013 75.1586C50.495 81.6284 52.9212 83.1506 66.3211 89.5412C74.5639 93.4726 85.3101 97.9979 90.2021 99.5985C95.0942 101.201 102.273 103.541 106.154 104.803C117.023 108.334 123.174 112.696 138.976 128.073C146.647 135.538 153.51 142.828 154.228 144.273C155.339 146.509 154.888 146.326 151.211 143.05C145.427 137.896 128.783 126.278 121.389 122.232C113.79 118.073 95.6465 110.927 86.1628 108.356C79.2495 106.483 78.4603 105.994 72.2575 99.7617C65.0902 92.5585 63.8714 92.4325 68.3992 99.364C70.002 101.817 73.9359 109.07 77.1409 115.481C80.3458 121.892 84.3785 129.119 86.1022 131.541C87.8258 133.963 99.8954 145.968 112.924 158.219C125.952 170.471 137.672 181.825 138.968 183.452L141.324 186.41L138.118 185.69C131.108 184.115 99.6063 171.292 95.405 168.303C90.1404 164.558 85.383 158.462 72.437 138.877C64.0676 126.215 61.5505 123.139 51.5216 113.307C42.6145 104.577 38.264 100.983 31.6355 96.884C26.9691 93.9979 22.9354 91.9374 22.672 92.3055C22.4092 92.6728 24.7331 95.6563 27.8364 98.9332C30.9391 102.211 34.5759 106.977 35.9179 109.523C37.2592 112.07 40.824 117.941 43.8382 122.572C46.8531 127.202 48.6239 130.354 47.7737 129.577C45.7337 127.714 11.6866 113.14 11.1067 113.883C10.8589 114.199 11.646 115.178 12.8548 116.06C14.0642 116.94 18.218 122.188 22.0865 127.722C32.1214 142.078 43.751 152.534 55.1797 157.48C59.6951 159.433 66.0252 161.259 69.2469 161.537C75.9015 162.112 76.1608 162.207 84.7438 167.234C88.9459 169.695 90.3385 170.832 88.9179 170.643C76.2539 168.962 70.9089 169.029 58.7523 171.024C50.9734 172.298 41.5233 174.532 37.7514 175.986C33.9786 177.439 28.9256 179.016 26.5221 179.49C24.1186 179.964 22.1832 180.685 22.2212 181.091C22.2585 181.496 24.3444 182.679 26.8543 183.719C29.3648 184.759 31.8886 186.039 32.4626 186.563C33.0365 187.086 37.5665 188.516 42.5285 189.738C52.4664 192.188 55.2204 194.144 62.3677 203.824L66.443 209.344L61.3791 211.282C54.9267 213.75 54.3014 214.681 58.8888 214.993C65.5126 215.443 74.5605 219.178 79.1342 223.35C88.6273 232.008 107.576 240.187 119.561 240.799C125.402 241.097 137.761 239.066 153.568 235.211C158.569 233.992 163.055 233.049 163.539 233.119C164.021 233.188 167.686 238.18 171.681 244.214C175.677 250.248 180.619 257.117 182.665 259.479C184.711 261.84 186.118 263.806 185.793 263.844C185.468 263.883 183.125 262.917 180.585 261.696C155.203 249.491 145.853 246.318 130.457 244.69C125.152 244.129 117.227 243.05 112.848 242.293C108.067 241.465 101.934 241.513 97.4983 242.409C93.4359 243.231 90.5539 244.043 91.0941 244.214C91.6345 244.386 95.0444 245.201 98.6724 246.026C108.284 248.214 113.258 250.548 122.481 257.196C131.642 263.802 138.277 266.872 150.619 270.222C157.35 272.047 161.463 272.179 171.944 270.903C188.126 268.935 190.241 269.379 197.664 276.313C205.119 283.276 206.456 286.189 205.027 292.348C204.395 295.068 203.387 302.978 202.787 309.928C201.593 323.757 199.026 332.907 193.788 342.009C191.913 345.267 190.672 348.197 191.028 348.523C192.089 349.491 196.558 340.701 200.063 330.753C202.269 324.491 203.589 318.016 204.11 310.911C204.967 299.197 206.393 290.383 207.452 290.255C207.834 290.208 207.829 291.914 207.44 294.045C207.052 296.177 206.394 302.509 205.975 308.118C205.116 319.643 202.353 329.83 196.973 341.301C194.95 345.614 193.6 349.423 193.974 349.764C194.778 350.498 194.475 351.043 199.115 340.504ZM224.031 282.529C221.67 285.145 220.323 286.343 221.039 285.192C221.755 284.042 223.449 279.41 224.803 274.898C227.062 267.372 228.106 265.493 237.443 252.134C243.04 244.125 248.308 236.006 249.149 234.091C250.069 231.994 250.821 231.07 251.038 231.771C251.683 233.845 249.169 241.558 244.442 252.015C241.897 257.642 239.408 263.174 238.909 264.309C238.005 266.368 232.151 273.536 224.031 282.529ZM217.878 286.199C218.024 284.284 218.112 279.813 218.074 276.263C218.037 272.714 218.954 265.147 220.112 259.448C222.634 247.046 224.682 244.283 235.288 238.972C239.086 237.07 243.89 234.135 245.962 232.449C249.728 229.385 249.729 229.385 248.396 232.501C247.663 234.217 242.548 242.026 237.03 249.854C226.832 264.321 225.517 267.028 219.117 286.717C218.182 289.59 217.639 289.364 217.878 286.199ZM207.083 287.497C207.123 286.052 206.226 283.513 205.09 281.853L203.022 278.837L205.627 281.065C207.978 283.076 208.274 283.049 208.656 280.789C208.888 279.412 209.257 278.448 209.475 278.646C209.991 279.117 208.423 288.096 207.624 289.241C207.286 289.727 207.042 288.942 207.083 287.497ZM249.61 220.35C249.55 217.772 250.136 213.875 250.91 211.691L252.32 207.72L252.797 211.956C253.216 215.667 252.051 221.337 250.297 224.12C249.98 224.625 249.671 222.929 249.61 220.35ZM196.141 269.436C182.858 255.33 170.597 237.187 160.22 216.281C156.045 207.869 151.92 199.564 151.056 197.825C149.509 194.715 149.614 194.727 157.55 198.574C168.697 203.976 184.105 213.603 189.543 218.562C192.039 220.839 196.282 225.727 198.971 229.425C203.757 236.008 203.912 236.492 206.334 252.397C208.469 266.419 208.849 280.234 207.105 280.444C206.81 280.48 201.876 275.526 196.141 269.436ZM209.37 266.761C208.958 262.139 207.633 251.395 206.428 242.886C204.51 229.346 203.419 225.415 197.688 211.405C194.087 202.6 188.418 190.358 185.09 184.202C178.434 171.886 178.213 170.439 184.592 180.933C187.949 186.454 188.973 187.587 190.19 187.122C191.352 186.676 191.457 186.867 190.667 187.993C189.622 189.482 190.694 192.596 195.64 202.434C198.433 207.988 201.378 216.233 205.234 229.296C208.173 239.255 211.841 272.178 210.309 274.843C210.206 275.02 209.784 271.384 209.37 266.761ZM212.188 258.723C212.238 257.179 212.589 252.297 212.967 247.874C213.347 243.451 213.766 236.03 213.899 231.383C214.292 217.724 214.716 215.342 218.105 207.779C220.503 202.429 222.922 198.715 227.556 193.264L233.783 185.939L229.737 193.019C222.238 206.141 217.301 224.177 214.088 250.186C212.801 260.603 212.01 264.156 212.188 258.723ZM188.584 268.645C186.757 268.25 179.318 268.599 172.051 269.419C161.553 270.605 157.148 270.453 150.61 268.679C139.724 265.726 130.873 261.54 122.104 255.201C118.149 252.341 112.945 249.197 110.536 248.212C108.128 247.228 106.137 246.202 106.111 245.931C106.048 245.251 118.319 249.031 130.125 253.331C135.533 255.299 142.986 257.343 146.689 257.872C163.625 260.292 178.818 263.452 183.596 265.55C186.466 266.81 189.347 267.493 189.997 267.067C190.717 266.596 192.404 267.469 194.319 269.306C197.266 272.132 197.288 272.227 194.682 270.841C193.155 270.028 190.41 269.04 188.584 268.645ZM210.186 239.599C207.858 228.106 209.096 213.453 213.04 205.825C214.626 202.756 226.17 190.533 227.652 190.354C227.868 190.328 225.334 194.127 222.02 198.795C215.285 208.282 213.054 213.766 212.938 221.114C212.894 223.856 212.652 227.304 212.4 228.776C212.148 230.248 212.024 234.974 212.124 239.276C212.226 243.579 212.202 247.248 212.073 247.429C211.944 247.609 211.094 244.086 210.186 239.599ZM227.689 199.427C227.591 198.386 236.813 185.74 239.035 183.865C243.788 179.858 242.01 183.193 235.016 191.409C231.013 196.11 227.716 199.718 227.689 199.427ZM180.066 266.274C178.944 265.25 168.513 264.304 165.533 264.956L162.672 265.582L165.899 265.526C167.674 265.493 171.733 265.782 174.918 266.165C178.104 266.548 180.421 266.598 180.066 266.274ZM201.294 229.889C200.165 228.275 196.325 223.792 192.761 219.93L186.282 212.907L194.195 220.606C201.463 227.677 204.403 231.351 203.643 232.413C203.48 232.64 202.423 231.504 201.294 229.889ZM177.99 195.911C173.465 184.737 168.348 163.963 170.07 163.755C171.07 163.633 180.126 177.717 185.074 187.086C187.514 191.704 192.308 202.083 195.728 210.15L201.947 224.818L183.073 208.459L177.99 195.911ZM177.621 250.581C177.204 249.74 177.535 249.7 178.467 250.479C179.309 251.185 179.618 251.808 179.153 251.864C178.689 251.92 177.998 251.343 177.621 250.581ZM128.027 250.843C121.093 248.409 112.475 245.703 108.874 244.831C100.014 242.684 102.687 241.973 112.8 243.788C117.287 244.593 125.217 245.729 130.424 246.312C143.617 247.789 149.292 249.325 160.964 254.574C166.54 257.082 171.764 259.416 172.572 259.759C173.381 260.103 166.525 259.233 157.338 257.826C147.164 256.269 135.705 253.538 128.027 250.843ZM175.152 246.885C174.736 246.043 175.067 246.003 175.998 246.783C176.84 247.489 177.149 248.112 176.685 248.168C176.22 248.224 175.53 247.647 175.152 246.885ZM169.177 237.658C166.255 232.721 165.094 231.429 163.58 231.431C162.146 231.433 161.993 231.3 162.965 230.897C163.69 230.597 163.97 229.373 163.602 228.117C163.172 226.653 163.257 226.366 163.846 227.292C170.788 238.206 174.518 244.584 173.778 244.271C173.276 244.059 171.206 241.083 169.177 237.658ZM179.563 209.345C178.42 208.241 178.065 207.536 178.773 207.78C179.482 208.023 180.122 207.684 180.197 207.025C180.394 205.276 181.631 206.714 181.838 208.934C182.086 211.583 181.91 211.615 179.563 209.345ZM161.375 196.606L145.973 188.461L140.57 181.021C137.598 176.93 133.479 169.668 131.416 164.886C125.059 150.148 120.097 143.346 104.83 128.442L91.2832 115.217L102.425 122.869C108.554 127.077 117.339 133.29 121.948 136.674C126.556 140.06 133.031 144.677 136.335 146.937C139.64 149.196 142.892 151.522 143.561 152.106C144.229 152.69 148.633 153.771 153.347 154.507C159.398 155.451 162.775 156.618 164.829 158.476C166.537 160.019 167.439 161.528 167.01 162.127C166.609 162.688 166.665 163.1 167.136 163.044C167.607 162.987 168.942 168.035 170.103 174.261C171.264 180.487 173.944 189.836 176.058 195.034C178.87 201.948 179.483 204.524 178.34 204.621C177.481 204.693 169.846 201.086 161.375 196.606ZM153.44 231.564C144.54 232.713 135.603 231.486 126.879 227.915C123.756 226.637 120.94 225.353 120.621 225.063C119.06 223.638 124.426 221.246 130.807 220.522C134.737 220.077 139.32 219.232 140.989 218.645C146.268 216.79 164.511 226.363 162.106 229.724C161.794 230.16 157.894 230.988 153.44 231.564ZM174.071 205.408C173.712 204.68 174.29 204.879 175.354 205.849C176.417 206.819 176.71 207.414 176.005 207.171C175.299 206.929 174.429 206.136 174.071 205.408ZM203.043 167.006C206.543 160.325 208.101 152.813 209.629 135.244C210.812 121.653 214.04 104.123 215.39 103.96C215.812 103.908 215.946 105.12 215.687 106.651C215.428 108.183 215.297 114.134 215.397 119.877C215.603 131.731 215.138 134.886 211.054 149.326C207.464 162.022 207.149 162.784 203.257 168.212L200.124 172.58L203.043 167.006ZM175.135 195.58C173.353 191.323 170.842 182.39 169.557 175.729C168.272 169.069 166.96 163.983 166.643 164.428C165.84 165.549 169.315 182.578 172.173 191.535C174.222 197.956 177.544 204.667 178.172 203.651C178.285 203.469 176.918 199.837 175.135 195.58ZM161.302 224.595C160.664 224.013 160.414 223.156 160.748 222.689C161.081 222.224 161.713 222.546 162.154 223.404C162.594 224.263 162.843 225.121 162.708 225.309C162.573 225.498 161.94 225.177 161.302 224.595ZM151.647 217.149C137.382 208.633 132.7 206.225 123.551 202.7C111.44 198.034 102.328 196.86 93.1955 198.788C86.9191 200.113 85.6389 199.95 80.9412 197.22C77.8154 195.404 73.0536 193.895 69.1561 193.486L62.6171 192.799L73.82 191.614C82.9633 190.646 87.0709 189.445 96.158 185.078C102.282 182.136 108.638 179.747 110.283 179.77C111.927 179.793 120.545 182.768 129.434 186.382L145.596 192.95L151.241 204.713C154.345 211.182 157.341 217.236 157.899 218.165C159.602 221.002 157.543 220.668 151.647 217.149ZM132.005 238.071C116.711 240.184 108.338 238.53 101.562 232.06L97.3426 228.031L104.238 227.426C109.174 226.993 113.444 227.659 119.253 229.767C123.718 231.388 130.175 232.984 133.602 233.314C137.029 233.644 140.351 234.387 140.985 234.966C141.619 235.543 142.985 235.651 144.021 235.205C145.057 234.76 145.61 234.83 145.25 235.363C144.89 235.895 138.93 237.114 132.005 238.071ZM124.634 210.732C111.786 208.945 96.5929 208.948 84.8863 210.738C79.7682 211.521 72.2815 212.403 68.2491 212.699C62.3813 213.131 61.6617 212.993 64.6451 212.011C66.6943 211.335 71.9292 208.957 76.2771 206.724C93.2313 198.021 106.148 197.46 124.168 204.645C132.721 208.055 146.266 215.015 148.032 216.906C148.304 217.199 145.389 216.239 141.553 214.775C137.716 213.312 130.103 211.492 124.634 210.732ZM177.223 170.742C176.806 169.901 177.138 169.861 178.069 170.641C178.911 171.347 179.22 171.97 178.755 172.026C178.291 172.082 177.601 171.504 177.223 170.742ZM173.981 166.341C173.564 165.499 173.896 165.459 174.827 166.239C175.669 166.945 175.978 167.568 175.513 167.624C175.049 167.68 174.359 167.103 173.981 166.341ZM129.62 219.152C125.817 219.208 122.911 220.047 121.218 221.578C117.465 224.973 101.347 226.964 93.239 225.035C86.4367 223.418 69.3788 216.289 69.2588 215.015C69.1579 213.929 93.0979 211.017 102.677 210.951C115.859 210.86 138.363 213.789 140.673 215.895C141.859 216.977 134.739 219.075 129.62 219.152ZM119.536 228.425C115.446 226.978 114.595 226.407 116.037 226.08C117.085 225.84 120.194 226.652 122.944 227.885C125.695 229.116 128.604 230.41 129.41 230.758C132.5 232.092 124.678 230.243 119.536 228.425ZM185.539 147.898C186.977 143.271 186.977 143.292 185.627 137.207C185.146 135.043 185.229 133.721 185.811 134.269C188.46 136.766 188.246 146.796 185.464 150.539C184.723 151.535 184.755 150.421 185.539 147.898ZM148.122 192.099C147.4 191.466 147.751 191.322 149.028 191.726C150.175 192.088 151.801 193.032 152.641 193.822C153.87 194.977 153.693 195.05 151.735 194.195C150.397 193.61 148.77 192.667 148.122 192.099ZM206.533 118.457C205.923 117.901 207.769 112.07 208.586 111.971C208.975 111.924 208.953 113.132 208.536 114.656C207.646 117.914 207.091 118.966 206.533 118.457ZM180.111 151.974C178.546 152.752 176.426 153.401 175.4 153.417C173.882 153.441 173.71 152.994 174.477 151.025C176.109 146.84 182.836 135.86 183.435 136.406C183.75 136.693 184.426 138.623 184.938 140.695C185.743 143.958 185.476 145.485 183.35 149.767C183.133 150.203 181.675 151.197 180.111 151.974ZM171.513 162.644C171.096 161.803 171.428 161.763 172.359 162.543C173.201 163.249 173.51 163.872 173.045 163.928C172.581 163.984 171.89 163.406 171.513 162.644ZM187.908 134.706C187.426 133.415 187.346 131.918 187.731 131.38C188.117 130.841 188.618 131.748 188.847 133.394C189.075 135.04 189.154 136.537 189.024 136.72C188.893 136.903 188.391 135.997 187.908 134.706ZM169.976 157.366C169.829 157.232 169.679 155.633 169.643 153.811L169.577 150.5L170.126 153.753C170.641 156.809 170.595 157.93 169.976 157.366ZM160.413 149.431C157.048 145.063 150.713 137.65 146.337 132.958L138.381 124.427L147.096 132.791C155.205 140.576 170.32 158.97 167.699 157.864C167.057 157.594 163.779 153.799 160.413 149.431ZM187.63 127.949C187.417 127.264 188.316 125.203 189.626 123.372C194.374 116.737 200.623 102.48 202.498 94.0082C204.262 86.0415 205.268 64.4401 203.868 64.6084C203.526 64.6505 203.219 69.2994 203.185 74.9402C203.127 84.7756 200.672 98.9044 197.875 105.5C196.073 109.752 196.142 108.315 198.108 100.658C199.86 93.8346 200.786 86.8351 201.008 78.7373C201.082 76.0234 201.481 70.4327 201.894 66.3142C202.879 56.5187 204.397 58.3253 205.641 70.7716C207.219 86.5775 205.226 99.7677 199.542 111.128C195.825 118.558 188.101 129.465 187.63 127.949ZM172.266 147.694C172.243 145.795 171.972 144.567 171.665 144.962C171.358 145.358 170.152 137.212 168.983 126.86C167.815 116.508 165.84 103.099 164.594 97.0623C161.401 81.6031 156.159 52.2355 156.506 51.7502C157.132 50.8758 159.591 58.7225 160.325 63.9383C160.752 66.9672 162.742 74.388 164.748 80.4281C170.555 97.9186 171.457 103.546 170.832 118.409C170.254 132.146 171.004 145.826 172.24 144.099C172.589 143.61 172.62 141.067 172.307 138.448C171.993 135.828 171.889 128.621 172.074 122.431C172.259 116.242 172.2 108.173 171.944 104.5L171.478 97.8208L174.474 104.352C176.122 107.944 178.444 113.653 179.634 117.038C180.824 120.424 182.136 123.213 182.55 123.236C182.964 123.26 182.934 123.383 182.485 123.511C182.036 123.639 181.767 125.248 181.888 127.089C182.068 129.82 177.219 142.161 172.764 150.315C172.516 150.772 172.291 149.592 172.266 147.694ZM138.845 188.093C138.4 187.733 138.832 187.531 139.803 187.647C140.775 187.763 142.077 188.355 142.695 188.964C143.884 190.132 140.375 189.339 138.845 188.093ZM116.138 219.312C114.026 219.169 111.727 219.278 111.029 219.555C110.331 219.833 111.488 220.177 113.599 220.32C115.712 220.464 118.011 220.354 118.709 220.077C119.407 219.799 118.25 219.455 116.138 219.312ZM186.502 122.929C186.912 121.903 186.773 120.996 186.19 120.914C185.608 120.831 185.778 120.339 186.57 119.821C188.082 118.831 189.201 111.915 187.822 112.082C187.383 112.135 187.016 111.043 187.008 109.657C186.999 108.136 186.852 107.868 186.638 108.981C186.443 109.996 186.079 107.388 185.829 103.187C185.025 89.656 188.59 75.5122 195.468 64.9499C198.975 59.5639 201.717 58.5818 200.943 62.9899C200.66 64.6043 200.189 70.9099 199.896 77.0007C199.195 91.5894 196.505 104.947 192.275 114.845C191.124 117.537 185.517 125.39 186.502 122.929ZM186.146 116.566C186.19 115.063 186.534 113.426 186.912 112.93C187.29 112.432 187.563 113.256 187.521 114.759C187.477 116.262 187.133 117.899 186.755 118.396C186.377 118.893 186.104 118.069 186.146 116.566ZM178.396 109.438C175.721 103.434 172.956 97.9842 172.251 97.328C171.149 96.3027 164.796 77.7612 164.323 74.1876C164.232 73.5027 164.873 73.8136 165.746 74.8777C173.915 84.831 177.278 89.6726 180.752 96.4781C184.377 103.577 184.767 105.244 184.473 112.33C184.292 116.685 183.946 120.273 183.702 120.302C183.459 120.331 181.072 115.442 178.396 109.438ZM150.914 152.466C147.617 151.669 142.821 149.53 140.256 147.711C137.69 145.892 131.779 141.693 127.119 138.38C111.501 127.273 91.3778 113.332 89.5146 112.329C87.8413 111.429 87.859 111.361 89.7091 111.611C93.3884 112.107 127.592 131.758 141.118 141.146C148.398 146.201 155.534 151.075 156.975 151.979C160.422 154.142 158.497 154.296 150.914 152.466ZM87.2003 227.222L82.647 223.76L87.3752 225.274C92.0757 226.779 95.2815 228.83 98.732 232.544C101.478 235.497 92.848 231.515 87.2003 227.222ZM167.047 134.716C166.811 132.772 166.371 130.958 166.07 130.683C165.769 130.409 164.92 128.03 164.182 125.398C163.445 122.765 160.799 116.803 158.303 112.149C148.365 93.6206 146.622 84.0035 150.204 67.4907C151.469 61.6636 153.019 55.4985 153.651 53.7902C154.769 50.7681 154.811 50.763 155.202 53.5925C155.424 55.1906 155.098 56.7007 154.478 56.9464C153.858 57.1931 153.915 57.4746 154.603 57.572C155.292 57.6702 156.332 60.7481 156.912 64.4119C157.494 68.0764 159.118 76.5184 160.523 83.1735C165.24 105.531 169.435 135.513 168.106 137.371C167.76 137.854 167.283 136.659 167.047 134.716ZM121.021 126.357C114.806 122.761 108.255 119.098 106.464 118.219C104.671 117.34 103.182 116.36 103.152 116.042C103.078 115.251 117.989 122.107 124.026 125.639C130.383 129.359 150.179 143.626 153.587 146.943C155.038 148.355 150.846 145.772 144.272 141.204C137.699 136.635 127.235 129.954 121.021 126.357ZM183.529 99.2896C182.765 95.4482 175.837 84.6197 169.364 77.1498C164.352 71.3664 162.426 68.4235 162.172 66.163C161.829 63.1041 161.859 63.1132 165.368 67.0561C167.316 69.2463 171.185 73.4869 173.964 76.4801C181.564 84.6631 183.776 88.6604 184.112 94.8118C184.417 100.403 184.154 102.427 183.529 99.2896ZM96.0761 140.619C87.9228 131.612 82.4836 124.021 79.6697 117.722L78.04 114.074L80.4538 116.953C81.7814 118.537 89.8774 126.516 98.4453 134.685C112.958 148.519 129.31 167.235 131.475 172.488C132.618 175.262 104.617 150.051 96.0761 140.619ZM126.032 161.215C123.096 157.014 114.949 148.434 101.299 135.163C83.1306 117.502 73.2359 106.33 72.9374 103.14C72.8062 101.739 99.4968 124.467 107.169 132.289C111.241 136.441 116.644 142.742 119.177 146.29C123.429 152.248 131.719 167.32 130.807 167.431C130.588 167.457 128.44 164.659 126.032 161.215ZM198.807 67.0808C200.545 61.2798 199.817 60.6382 197.966 66.3379C197.037 69.1958 196.42 71.6629 196.592 71.8203C197.063 72.2492 197.611 71.0749 198.807 67.0808ZM206.113 47.7362C206.993 45.2204 207.99 40.9276 208.326 38.1949L208.938 33.2272L209.494 37.2677C210.066 41.4191 208.779 46.2271 206.056 50.1061C204.956 51.6712 204.973 50.9854 206.113 47.7362ZM98.5221 179.241C98.153 179.757 99.1371 180.112 100.708 180.031C102.815 179.922 101.278 181.016 94.8465 184.203C88.249 187.473 83.2387 188.878 74.2473 189.981C67.7125 190.783 62.2228 191.844 62.0469 192.338C61.8703 192.833 61.545 192.652 61.3221 191.934C61.1001 191.218 57.4657 190.4 53.2469 190.118C47.0303 189.703 33.8447 186.378 32.0981 184.785C31.5891 184.321 36.1568 183.976 39.4645 184.228C46.5702 184.772 62.4742 182.996 72.8828 180.497C79.3224 178.95 87.9361 177.5 92.0245 177.273C96.1122 177.046 99.1024 176.536 98.6692 176.141C97.1153 174.724 86.8824 175.827 73.401 178.867C55.2309 182.963 34.0159 184.142 32.3857 181.146C31.056 178.701 44.6972 174.632 61.5813 172.435C76.6557 170.473 80.0464 170.487 88.9288 172.536C94.5059 173.822 99.2389 175.425 99.4475 176.097C99.6561 176.768 101.257 177.551 103.006 177.837L106.185 178.356L102.689 178.33C100.766 178.316 98.8906 178.726 98.5221 179.241ZM77.1222 199.215C71.251 195.769 70.0649 194.329 74.4184 195.936C79.6788 197.875 84.4605 200.913 83.4295 201.659C82.9007 202.041 80.062 200.941 77.1222 199.215ZM70.3149 200.311L64.685 195.354L69.2283 197.001C71.7276 197.906 75.2193 199.595 76.9895 200.753C80.0441 202.753 80.0994 202.92 78.0755 204.064C76.1927 205.127 75.2879 204.689 70.3149 200.311ZM94.853 170.97C93.6243 169.814 93.8014 169.742 95.7591 170.597C99.0887 172.051 101.122 173.906 98.4663 173.066C97.3195 172.704 95.6939 171.76 94.853 170.97ZM65.2725 205.585C63.7538 203.645 61.624 200.443 60.5382 198.472L58.5663 194.887L63.3795 197.627C66.0278 199.134 69.578 201.629 71.2696 203.172L74.345 205.977L71.1893 207.545C68.2141 209.023 67.8761 208.911 65.2725 205.585ZM131.177 117.186C130.76 116.345 131.092 116.305 132.023 117.085C132.865 117.791 133.174 118.413 132.709 118.47C132.245 118.526 131.555 117.948 131.177 117.186ZM125.876 113.766C125.517 113.038 126.094 113.237 127.158 114.207C128.222 115.177 128.514 115.772 127.81 115.529C127.103 115.287 126.233 114.493 125.876 113.766ZM70.5523 152.513L65.9135 147.101L71.744 151.458C74.951 153.854 79.6649 157.717 82.2199 160.042L86.8653 164.268L81.0276 161.097C76.7662 158.781 73.9372 156.463 70.5523 152.513ZM145.616 66.5244C140.029 58.9451 137.23 53.3316 134.955 45.1399L132.474 36.2086L136.327 40.65C138.445 43.0936 142.611 48.0101 145.583 51.5761L150.988 58.0596L149.857 62.9814C148.338 69.5997 148.056 69.8351 145.616 66.5244ZM62.321 141.403C52.712 132.868 46.7626 125.306 38.5562 111.196L33.1105 101.835L42.3341 111.052C50.8771 119.589 63.2918 133.92 76.3727 150.343L81.7575 157.104L76.3373 153.073C73.3565 150.855 67.0489 145.604 62.321 141.403ZM141.34 43.916C131.961 32.4895 131.788 32.1972 136.562 35.8548C141.358 39.5296 149.385 48.0454 151.564 51.7717C152.151 52.7746 152.28 54.0844 151.851 54.6833C151.253 55.5193 148.808 53.0152 141.34 43.916ZM63.6872 152.893C52.4123 145.721 46.7743 141.402 30.2446 127.279C23.3309 121.372 21.527 119.491 23.6541 120.411C25.2651 121.107 30.2407 122.996 34.7114 124.609C42.2068 127.312 43.5953 128.223 52.5414 136.313C61.4845 144.4 77.8143 161.401 75.6172 160.337C75.0948 160.085 69.7263 156.735 63.6872 152.893ZM115.826 85.1008C113.22 79.5613 109.013 70.3951 106.475 64.7308C99.9436 50.1526 91.3238 36.7275 81.3355 25.5759C71.8567 14.9931 73.3369 14.7824 84.9346 25.0639C99.0443 37.5728 108.389 53.9564 116.273 80.0085C118.12 86.1133 120.145 91.9864 120.772 93.0586C121.4 94.1308 121.609 95.0451 121.238 95.0899C120.866 95.1348 118.431 90.6396 115.826 85.1008ZM111.495 90.2788C101.349 77.3711 95.3887 67.9508 91.1874 58.1815C86.4968 47.2738 81.4794 31.1881 82.7205 31.0383C86.6332 30.5667 100.111 52.6248 109.992 75.6701C111.967 80.2783 114.731 86.4657 116.132 89.4201C117.98 93.3167 118.123 94.0983 116.652 92.2668C115.536 90.8789 114.165 88.8443 113.605 87.7456C112.922 86.4061 112.534 86.2237 112.425 87.1923C112.336 87.9867 113.827 90.8624 115.739 93.5833C121.267 101.446 118.707 99.4529 111.495 90.2788ZM113.823 101.996C113.683 100.441 113.844 100.422 114.607 101.901C115.134 102.926 115.214 103.806 114.783 103.858C114.353 103.911 113.921 103.073 113.823 101.996ZM106.198 95.6803C106.009 93.6597 108 94.7886 110.263 97.9856L112.676 101.396L109.479 98.9861C107.721 97.6598 106.245 96.1732 106.198 95.6803ZM54.8425 155.539C48.2145 152.352 44.381 149.748 38.7221 144.586C31.7699 138.246 21.0816 125.293 19.7867 121.639C19.4703 120.745 26.1153 125.92 34.5539 133.138C44.8405 141.936 53.1098 148.214 59.6458 152.186C71.6841 159.503 71.843 159.659 67.261 159.693C65.2122 159.708 59.6244 157.839 54.8425 155.539ZM89.1498 91.6435C73.6669 82.7331 65.8738 78.8217 52.3841 73.1944C40.1444 68.0873 38.2932 67.1444 42.035 67.9229C43.2587 68.1778 47.6044 68.9376 51.6916 69.6121C63.8188 71.6124 71.8414 75.2013 85.9952 84.9544C93.0942 89.8467 100.949 95.4107 103.449 97.32L107.996 100.791L104.067 99.3792C101.907 98.6023 95.1931 95.1222 89.1498 91.6435ZM103.459 102.479C103.039 102.096 99.1339 100.793 94.7817 99.5848C81.7757 95.9738 55.9748 83.6438 47.5406 77.0091C43.5403 73.862 40.4385 71.0475 40.6474 70.7555C41.477 69.596 71.6946 83.6103 84.4095 91.0511C91.8305 95.3932 99.8054 99.706 102.133 100.635C104.459 101.565 105.881 102.516 105.292 102.749C104.704 102.984 103.879 102.862 103.459 102.479ZM72.0155 142.704C71.5986 141.862 71.9302 141.822 72.8614 142.602C73.7036 143.308 74.0123 143.931 73.5478 143.987C73.0833 144.043 72.3932 143.466 72.0155 142.704ZM59.4956 127.399C53.42 120.273 44.9909 111.214 40.7637 107.267C34.5954 101.508 33.7913 100.506 36.6904 102.191C41.7135 105.109 50.0504 112.768 57.4457 121.256C63.5569 128.272 72.0616 140.172 71.0514 140.294C70.7716 140.328 65.5719 134.525 59.4956 127.399ZM74.6429 73.2654C61.8899 67.2623 45.5091 52.0087 28.6045 30.3946C25.1214 25.9405 20.1856 19.9866 17.6362 17.1629C11.8578 10.7627 76.7986 68.5266 92.2342 83.5165L103.547 94.5034L92.6813 85.5715C85.2516 79.4658 79.5466 75.5731 74.6429 73.2654ZM87.6593 76.1346C85.1058 73.5238 87.195 75.1952 92.3014 79.8496C97.4077 84.5039 99.4966 86.6403 96.9432 84.5976C94.3897 82.5548 90.2122 78.7462 87.6593 76.1346ZM82.8666 80.5302L80.5742 78.3745L83.3721 79.8237C84.9111 80.6205 87.7344 82.7042 89.6469 84.4528L93.1233 87.6335L89.1414 85.1593C86.9517 83.798 84.1278 81.7153 82.8666 80.5302ZM83.7342 68.1517C69.5317 54.1753 60.264 42.7777 53.128 30.5124C50.2076 25.4935 47.1058 20.7369 46.2348 19.9425C45.3639 19.1482 45.0627 18.3345 45.5655 18.1356C47.0867 17.5317 61.4775 32.2276 70.0174 43.1059C84.63 61.7206 91.686 71.8914 89.4863 71.1712C87.8624 70.6395 87.9324 70.9042 89.8532 72.552C94.1649 76.2518 96.3566 78.6481 95.9493 79.2174C95.7285 79.526 90.2323 74.5465 83.7342 68.1517ZM87.3015 63.3464C86.0117 61.3652 80.5061 53.9047 75.067 46.7677C66.8658 36.0091 62.895 31.6953 51.8153 21.5135C39.2121 9.93071 38.6938 9.33666 42.6838 11.051C48.8388 13.6966 64.9283 28.5747 71.782 37.9599C78.7654 47.5211 91.0715 66.7777 90.2614 66.8755C89.9229 66.9164 88.5906 65.3285 87.3015 63.3464ZM77.9195 77.2826C77.5026 76.4414 77.8342 76.4014 78.7653 77.1813C79.6075 77.8873 79.9162 78.5098 79.4517 78.5659C78.9872 78.622 78.2971 78.0447 77.9195 77.2826ZM13.3273 9.2144C12.9151 8.23443 27.6592 16.9912 35.5924 22.4378C48.7636 31.4796 54.9586 37.4939 67.2742 53.1928L78.3046 67.2543L45.8915 38.4146C28.0644 22.5527 13.4103 9.41288 13.3273 9.2144ZM79.5229 26.6943C79.164 25.9667 79.7415 26.1654 80.8051 27.1354C81.8687 28.1054 82.1614 28.7004 81.4567 28.4579C80.7506 28.2157 79.8804 27.422 79.5229 26.6943ZM27.601 26.4608C25.6866 24.7147 24.781 24.1706 25.5891 25.2529C26.3978 26.3344 27.9634 27.7623 29.0699 28.4276C30.177 29.0919 29.5154 28.2068 27.601 26.4608Z" fill="black"/>
</svg>
