<svg width="18" height="18" viewBox="0 0 18 18" fill="none" xmlns="http://www.w3.org/2000/svg">
<path d="M6.53033 6.21967C6.23744 5.92678 5.76256 5.92678 5.46967 6.21967C5.17678 6.51256 5.17678 6.98744 5.46967 7.28033L6.53033 6.21967ZM9.75 10.5H10.5C10.5 10.3011 10.421 10.1103 10.2803 9.96967L9.75 10.5ZM9.75 15.75V16.5C10.1642 16.5 10.5 16.1642 10.5 15.75H9.75ZM6 15.75H5.25C5.25 16.1642 5.58579 16.5 6 16.5V15.75ZM6.75 12.75C6.75 12.3358 6.41421 12 6 12C5.58579 12 5.25 12.3358 5.25 12.75H6.75ZM6 16.5C6.41421 16.5 6.75 16.1642 6.75 15.75C6.75 15.3358 6.41421 15 6 15V16.5ZM2.25 15.75H1.5C1.5 16.1642 1.83579 16.5 2.25 16.5V15.75ZM2.25 10.5L1.71967 9.96967C1.57902 10.1103 1.5 10.3011 1.5 10.5H2.25ZM6.53033 7.28033C6.82322 6.98744 6.82322 6.51256 6.53033 6.21967C6.23744 5.92678 5.76256 5.92678 5.46967 6.21967L6.53033 7.28033ZM6 7.5C6 7.91421 6.33579 8.25 6.75 8.25C7.16421 8.25 7.5 7.91421 7.5 7.5H6ZM15.75 15.75V16.5C16.1642 16.5 16.5 16.1642 16.5 15.75H15.75ZM9.75 15C9.33579 15 9 15.3358 9 15.75C9 16.1642 9.33579 16.5 9.75 16.5V15ZM5.46967 7.28033L9.21967 11.0303L10.2803 9.96967L6.53033 6.21967L5.46967 7.28033ZM9 10.5V15.75H10.5V10.5H9ZM9.75 15H6V16.5H9.75V15ZM6.75 15.75V12.75H5.25V15.75H6.75ZM6 15H2.25V16.5H6V15ZM3 15.75V10.5H1.5V15.75H3ZM2.78033 11.0303L6.53033 7.28033L5.46967 6.21967L1.71967 9.96967L2.78033 11.0303ZM7.5 7.5V3H6V7.5H7.5ZM7.5 3V1.5C6.67157 1.5 6 2.17157 6 3H7.5ZM7.5 3H15V1.5H7.5V3ZM15 3H16.5C16.5 2.17157 15.8284 1.5 15 1.5V3ZM15 3V15.75H16.5V3H15ZM15.75 15H9.75V16.5H15.75V15Z" fill="#494C69"/>
<path d="M9.75 5.25016V5.25766" stroke="#494C69" stroke-width="1.5" stroke-linecap="round" stroke-linejoin="round"/>
<path d="M12.75 5.25016V5.25766" stroke="#494C69" stroke-width="1.5" stroke-linecap="round" stroke-linejoin="round"/>
<path d="M12.75 8.25016V8.25766" stroke="#494C69" stroke-width="1.5" stroke-linecap="round" stroke-linejoin="round"/>
<path d="M12.75 11.2502V11.2577" stroke="#494C69" stroke-width="1.5" stroke-linecap="round" stroke-linejoin="round"/>
</svg>
