<svg width="57" height="31" viewBox="0 0 57 31" fill="none" xmlns="http://www.w3.org/2000/svg">
<path d="M41.1064 0.744568H14.8936C6.70213 0.744568 0 7.49457 0 15.7446C0 23.9946 6.70213 30.7446 14.8936 30.7446H41.1064C49.2979 30.7446 56 23.9946 56 15.7446C56 7.49457 49.2979 0.744568 41.1064 0.744568Z" fill="white"/>
<path fill-rule="evenodd" clip-rule="evenodd" d="M33.095 5.10645C32.7651 5.19443 32.9325 5.10262 28.953 7.37823L25.3993 9.41037H22.4425C19.2205 9.41037 19.2067 9.41133 18.7108 9.67347C18.3993 9.8381 17.9429 10.2909 17.7929 10.5842C17.5241 11.1095 17.5343 10.8688 17.5343 16.7009C17.5343 22.5985 17.5208 22.3075 17.8192 22.8619C17.9866 23.1731 18.4084 23.5792 18.7335 23.7425C19.2584 24.0059 18.6879 23.9915 28.5751 23.9915C38.5743 23.9915 37.9055 24.0102 38.4663 23.7142C38.7831 23.5469 39.0954 23.2395 39.3115 22.8823C39.627 22.3606 39.6162 22.5819 39.6133 16.6692C39.6109 11.7901 39.6041 11.322 39.5316 11.0471C39.3184 10.2381 38.6226 9.60772 37.7716 9.45257L37.4684 9.3973L36.4605 7.66315C35.3783 5.80105 35.1995 5.55946 34.7119 5.29955C34.2361 5.04593 33.6046 4.97052 33.095 5.10645ZM33.998 6.5877C34.0905 6.63919 34.2099 6.74682 34.2634 6.82692C34.4689 7.13468 35.7576 9.37406 35.7395 9.39201C35.729 9.4024 34.0702 9.40568 32.0533 9.39926L28.386 9.38759L30.8105 7.99783C32.1439 7.23346 33.2888 6.58337 33.3547 6.55316C33.5379 6.46923 33.8116 6.4839 33.998 6.5877ZM37.8041 10.9852C38.0796 11.1889 38.1196 11.2904 38.1364 11.8286L38.152 12.3266H32.5337C26.9936 12.3266 26.9128 12.3279 26.7338 12.4183C26.253 12.6613 26.2533 13.4467 26.7342 13.7002C26.8878 13.7811 27.1304 13.7847 32.5199 13.7847H38.1453L38.1331 17.9279C38.121 22.0319 38.12 22.0722 38.026 22.1969C37.9738 22.2661 37.874 22.3649 37.8041 22.4166L37.677 22.5106H28.5751H19.4732L19.3461 22.4166C19.2762 22.3649 19.1764 22.2661 19.1242 22.1969C19.0303 22.0722 19.0292 22.0319 19.0171 17.9279L19.005 13.7847H20.214C21.303 13.7847 21.4389 13.7763 21.5833 13.7002C22.0642 13.4467 22.0646 12.6613 21.5838 12.4183C21.4156 12.3333 21.3141 12.3266 20.2043 12.3266H19.0064V11.8967C19.0064 11.4349 19.047 11.2722 19.205 11.1019C19.4308 10.8584 18.8935 10.8709 28.6293 10.8815L37.677 10.8913L37.8041 10.9852ZM23.8575 12.3907C23.3933 12.5909 23.2837 13.2021 23.6473 13.5623C23.9293 13.8415 24.3427 13.8564 24.64 13.5979C25.2592 13.0594 24.6141 12.0642 23.8575 12.3907ZM20.9155 16.7726C20.7024 16.8824 20.5735 17.0218 20.521 17.1994C20.4904 17.3028 20.4782 17.9509 20.4873 18.9873C20.5009 20.5466 20.5054 20.6182 20.5964 20.7388C20.6485 20.808 20.7484 20.9068 20.8182 20.9585C20.9413 21.0496 20.9996 21.0525 22.6867 21.0525C24.3737 21.0525 24.432 21.0496 24.5551 20.9585C24.625 20.9068 24.7248 20.808 24.777 20.7387C24.8688 20.6169 24.8718 20.559 24.8718 18.8926V17.1723L24.7479 17.0114C24.5109 16.7036 24.4929 16.7009 22.6797 16.7012C21.2963 16.7014 21.0329 16.7121 20.9155 16.7726ZM28.2063 16.7853C27.9565 16.9168 27.8391 17.123 27.8391 17.43C27.8391 17.74 27.9624 17.957 28.208 18.0792C28.3517 18.1507 28.5403 18.1589 30.0472 18.1589C31.8958 18.1589 31.927 18.1546 32.1371 17.8709C32.2766 17.6825 32.2725 17.1896 32.1298 16.9913C31.9242 16.7058 31.8889 16.7009 30.0395 16.7009C28.4997 16.7009 28.3539 16.7076 28.2063 16.7853ZM23.4227 18.8881V19.6171H22.6867H21.9506V18.8881V18.159H22.6867H23.4227V18.8881ZM28.2071 19.7009C27.9565 19.8332 27.8391 20.039 27.8391 20.3462C27.8391 20.656 27.9622 20.8729 28.208 20.9958C28.3576 21.0706 28.6259 21.0752 32.2865 21.0642C36.1889 21.0525 36.2055 21.0521 36.3348 20.9566C36.7436 20.6547 36.7436 20.0377 36.3348 19.7358C36.2055 19.6403 36.1887 19.6399 32.2865 19.6279C28.5384 19.6165 28.3611 19.6196 28.2071 19.7009Z" fill="#696C87"/>
<path d="M41.8404 1.95957C43.7126 1.95957 45.5318 2.32707 47.2448 3.04707C48.9048 3.74457 50.3904 4.74207 51.679 6.00957C52.96 7.27707 53.9681 8.75457 54.673 10.3971C55.4007 12.0921 55.7721 13.8921 55.7721 15.7446C55.7721 17.5971 55.4007 19.3971 54.673 21.0921C53.9681 22.7346 52.96 24.2046 51.679 25.4796C50.398 26.7471 48.9048 27.7446 47.2448 28.4421C45.5318 29.1621 43.7126 29.5296 41.8404 29.5296H15.1596C13.2874 29.5296 11.4682 29.1621 9.75519 28.4421C8.09521 27.7446 6.60957 26.7471 5.32101 25.4796C4.04003 24.2121 3.03191 22.7346 2.32699 21.0921C1.59934 19.3971 1.22793 17.5971 1.22793 15.7446C1.22793 13.8921 1.59934 12.0921 2.32699 10.3971C3.03191 8.75457 4.04003 7.28457 5.32101 6.00957C6.60199 4.74207 8.09521 3.74457 9.75519 3.04707C11.4682 2.32707 13.2874 1.95957 15.1596 1.95957H41.8404ZM41.8404 0.744568H15.1596C6.82181 0.744568 0 7.49457 0 15.7446C0 23.9946 6.82181 30.7446 15.1596 30.7446H41.8404C50.1782 30.7446 57 23.9946 57 15.7446C57 7.49457 50.1782 0.744568 41.8404 0.744568Z" fill="#3D405B"/>
</svg>
