<svg width="25" height="24" viewBox="0 0 25 24" fill="none" xmlns="http://www.w3.org/2000/svg">
<path fill-rule="evenodd" clip-rule="evenodd" d="M15.0635 4.03671C14.4445 4.1393 13.8486 4.71957 13.7704 5.29576C13.7573 5.39236 13.7384 5.50086 13.7285 5.53688C13.7114 5.59874 13.468 5.60233 9.29034 5.60255C6.20641 5.60267 4.82503 5.61512 4.72064 5.64366C4.49302 5.70593 4.23492 5.99047 4.18193 6.23765C4.10555 6.59378 4.25018 6.91856 4.56569 7.09951L4.75804 7.20984L9.23603 7.21021L13.714 7.21055L13.731 7.2947C13.7404 7.341 13.7567 7.4437 13.7674 7.52295C13.7781 7.6022 13.8377 7.77578 13.8999 7.90874C14.1013 8.33907 14.5338 8.6753 15.0169 8.77703C15.3341 8.84382 17.0522 8.83197 17.3261 8.76109C17.9365 8.60312 18.4049 8.08849 18.5131 7.4569L18.5553 7.21055L19.0432 7.21021C19.5149 7.20987 19.5376 7.20613 19.7236 7.09951C20.0391 6.91856 20.1837 6.59378 20.1073 6.23765C20.0748 6.08618 20.0266 6.00251 19.8919 5.86357C19.6747 5.63977 19.5465 5.60281 18.986 5.60255L18.553 5.60233L18.507 5.35242C18.378 4.65258 17.8413 4.12984 17.149 4.02972C16.8509 3.98659 15.335 3.99168 15.0635 4.03671ZM16.9319 6.42514V7.21055H16.1465H15.3611V6.42514V5.63973H16.1465H16.9319V6.42514ZM8.5647 9.64045C7.975 9.78059 7.44152 10.3713 7.37222 10.9609L7.34757 11.1706L6.05281 11.1822C4.81029 11.1932 4.75202 11.1969 4.60844 11.2742C4.31904 11.43 4.16625 11.68 4.16625 11.9978C4.16625 12.3156 4.31904 12.5657 4.60844 12.7214C4.75202 12.7987 4.81029 12.8024 6.05277 12.8134L7.34746 12.825L7.36829 13.0008C7.44003 13.6065 7.88378 14.1357 8.4722 14.3175C8.6864 14.3836 8.82126 14.3914 9.751 14.3914C10.6807 14.3914 10.8156 14.3836 11.0298 14.3175C11.6188 14.1355 12.062 13.6065 12.1339 12.9995L12.1548 12.8224L15.843 12.8121L19.5312 12.8019L19.6808 12.7214C19.9702 12.5657 20.123 12.3156 20.123 11.9978C20.123 11.68 19.9702 11.43 19.6808 11.2742L19.5312 11.1937L15.843 11.1835L12.1548 11.1732L12.1339 10.9961C12.062 10.3891 11.6188 9.86007 11.0298 9.67812C10.8138 9.61143 10.6873 9.60455 9.73772 9.60799C9.15876 9.61012 8.63093 9.62471 8.5647 9.64045ZM10.5364 11.9978V12.7832H9.751H8.96559V11.9978V11.2124H9.751H10.5364V11.9978ZM13.3508 15.2346C13.2429 15.2637 13.0848 15.3231 12.9996 15.3665C12.8095 15.4635 12.5013 15.7463 12.384 15.9312C12.2691 16.1126 12.1446 16.4878 12.1446 16.653V16.7851H8.45949C4.40008 16.7851 4.64393 16.7708 4.39099 17.0237C4.20332 17.2114 4.12511 17.4825 4.18103 17.7517C4.23335 18.0039 4.48943 18.2887 4.72064 18.352C4.82417 18.3803 5.98897 18.3929 8.5022 18.3931L12.1342 18.3933L12.1562 18.6066C12.2055 19.0845 12.5931 19.6103 13.0582 19.8303C13.3413 19.9642 13.6537 20 14.5383 20C15.4295 20 15.726 19.9654 16.0173 19.8275C16.4881 19.6046 16.8707 19.0873 16.9203 18.6066L16.9424 18.3933L18.1807 18.3931C18.9606 18.3929 19.4744 18.3777 19.5686 18.352C19.7998 18.2887 20.0559 18.0039 20.1082 17.7517C20.1641 17.4825 20.0859 17.2114 19.8983 17.0237C19.6609 16.7863 19.6519 16.7851 18.2234 16.7851H16.9319V16.661C16.9319 16.4921 16.8308 16.1635 16.7212 15.9762C16.6061 15.7794 16.2798 15.47 16.0794 15.3678C15.7516 15.2006 15.5543 15.1767 14.5211 15.1793C13.806 15.1811 13.495 15.1958 13.3508 15.2346ZM15.3237 17.5705V18.3559H14.5383H13.7528V17.5705V16.7851H14.5383H15.3237V17.5705Z" fill="#3D405B"/>
</svg>
