<svg width="24" height="25" viewBox="0 0 24 25" fill="none" xmlns="http://www.w3.org/2000/svg">
<path d="M15 11.8809H13V7.88086C13 7.61564 12.8946 7.36129 12.7071 7.17375C12.5196 6.98622 12.2652 6.88086 12 6.88086C11.7348 6.88086 11.4804 6.98622 11.2929 7.17375C11.1054 7.36129 11 7.61564 11 7.88086V12.8809C11 13.1461 11.1054 13.4004 11.2929 13.588C11.4804 13.7755 11.7348 13.8809 12 13.8809H15C15.2652 13.8809 15.5196 13.7755 15.7071 13.588C15.8946 13.4004 16 13.1461 16 12.8809C16 12.6156 15.8946 12.3613 15.7071 12.1738C15.5196 11.9862 15.2652 11.8809 15 11.8809ZM12 2.88086C10.0222 2.88086 8.08879 3.46735 6.4443 4.56616C4.79981 5.66498 3.51809 7.22676 2.76121 9.05402C2.00433 10.8813 1.8063 12.892 2.19215 14.8318C2.578 16.7716 3.53041 18.5534 4.92894 19.9519C6.32746 21.3505 8.10929 22.3029 10.0491 22.6887C11.9889 23.0746 13.9996 22.8765 15.8268 22.1197C17.6541 21.3628 19.2159 20.0811 20.3147 18.4366C21.4135 16.7921 22 14.8587 22 12.8809C22 11.5676 21.7413 10.2673 21.2388 9.05402C20.7363 7.84077 19.9997 6.73838 19.0711 5.80979C18.1425 4.88121 17.0401 4.14461 15.8268 3.64206C14.6136 3.13952 13.3132 2.88086 12 2.88086ZM12 20.8809C10.4178 20.8809 8.87104 20.4117 7.55544 19.5326C6.23985 18.6536 5.21447 17.4041 4.60897 15.9423C4.00347 14.4805 3.84504 12.872 4.15372 11.3201C4.4624 9.76829 5.22433 8.34283 6.34315 7.22401C7.46197 6.10519 8.88743 5.34326 10.4393 5.03458C11.9911 4.7259 13.5997 4.88432 15.0615 5.48982C16.5233 6.09532 17.7727 7.1207 18.6518 8.4363C19.5308 9.75189 20 11.2986 20 12.8809C20 15.0026 19.1572 17.0374 17.6569 18.5377C16.1566 20.038 14.1217 20.8809 12 20.8809Z" fill="#3D405B"/>
</svg>
