<svg width="41" height="16" viewBox="0 0 41 16" fill="none" xmlns="http://www.w3.org/2000/svg">
<path d="M19.1809 7.80956V12.3471H17.7256V1.14206H21.5837C22.5615 1.14206 23.3953 1.46456 24.0774 2.10956C24.7748 2.75456 25.1235 3.54206 25.1235 4.47206C25.1235 5.42456 24.7748 6.21206 24.0774 6.84956C23.4028 7.48706 22.5691 7.80206 21.5837 7.80206H19.1809V7.80956ZM19.1809 2.52206V6.42956H21.614C22.1901 6.42956 22.6752 6.23456 23.0542 5.85206C23.4407 5.46956 23.6378 5.00456 23.6378 4.47956C23.6378 3.96206 23.4407 3.50456 23.0542 3.12206C22.6752 2.72456 22.1977 2.52956 21.614 2.52956H19.1809V2.52206Z" fill="#3D405B"/>
<path d="M28.9284 4.42707C30.0048 4.42707 30.8537 4.71207 31.4752 5.28207C32.0968 5.85207 32.4075 6.63207 32.4075 7.62208V12.3471H31.0204V11.2821H30.9598C30.361 12.1596 29.5576 12.5946 28.557 12.5946C27.7005 12.5946 26.988 12.3471 26.4119 11.8446C25.8359 11.3421 25.5479 10.7196 25.5479 9.96958C25.5479 9.17458 25.851 8.54458 26.4574 8.07958C27.0638 7.60708 27.8748 7.37458 28.883 7.37458C29.747 7.37458 30.4595 7.53208 31.0129 7.84708V7.51708C31.0129 7.01458 30.8158 6.59458 30.4141 6.24208C30.0123 5.88958 29.5424 5.71707 29.0042 5.71707C28.1932 5.71707 27.5489 6.05457 27.079 6.73707L25.798 5.94208C26.5029 4.92957 27.5489 4.42707 28.9284 4.42707ZM27.0486 9.99208C27.0486 10.3671 27.2078 10.6821 27.5338 10.9296C27.8521 11.1771 28.2311 11.3046 28.6631 11.3046C29.2771 11.3046 29.8228 11.0796 30.3004 10.6296C30.7779 10.1796 31.0204 9.65458 31.0204 9.04708C30.5657 8.69458 29.9365 8.51458 29.1255 8.51458C28.5343 8.51458 28.0416 8.65708 27.6474 8.93458C27.2457 9.22708 27.0486 9.57958 27.0486 9.99208Z" fill="#3D405B"/>
<path d="M40.3208 4.67456L35.4697 15.7146H33.9689L35.7729 11.8521L32.5742 4.67456H34.1584L36.4626 10.1796H36.493L38.7366 4.67456H40.3208Z" fill="#3D405B"/>
<path d="M13.3924 6.89457C13.3924 6.42507 13.3499 5.97582 13.2711 5.54382H7.1709V8.01882L10.6841 8.01957C10.5416 8.84307 10.0831 9.54507 9.38041 10.0131V11.6188H11.4717C12.6928 10.5006 13.3924 8.84757 13.3924 6.89457Z" fill="#4285F4"/>
<path d="M9.38097 10.0131C8.79885 10.4016 8.0492 10.6288 7.17222 10.6288C5.47814 10.6288 4.04102 9.49932 3.52635 7.97682H1.36914V9.63282C2.43789 11.7313 4.63451 13.1713 7.17222 13.1713C8.92619 13.1713 10.3997 12.6006 11.4722 11.6181L9.38097 10.0131Z" fill="#34A853"/>
<path d="M3.3233 6.74832C3.3233 6.32082 3.39531 5.90757 3.52644 5.51907V3.86307H1.36923C0.927328 4.73082 0.678711 5.71032 0.678711 6.74832C0.678711 7.78632 0.928086 8.76582 1.36923 9.63357L3.52644 7.97757C3.39531 7.58907 3.3233 7.17582 3.3233 6.74832Z" fill="#FABB05"/>
<path d="M7.17223 2.86707C8.12955 2.86707 8.98683 3.19332 9.6637 3.83082L11.517 1.99857C10.3914 0.96132 8.92392 0.32457 7.17223 0.32457C4.63527 0.32457 2.43789 1.76457 1.36914 3.86307L3.52635 5.51907C4.04102 3.99657 5.47814 2.86707 7.17223 2.86707Z" fill="#E94235"/>
</svg>
