<svg width="21" height="19" viewBox="0 0 21 19" fill="none" xmlns="http://www.w3.org/2000/svg">
<path d="M18.5958 10.6547C18.9882 10.2661 18.9912 9.63293 18.6026 9.24053C18.214 8.84812 17.5808 8.84507 17.1884 9.2337L18.5958 10.6547ZM10.3921 17.3722L9.6884 18.0827C10.0781 18.4687 10.706 18.4687 11.0958 18.0827L10.3921 17.3722ZM3.59578 9.2337C3.20337 8.84507 2.57022 8.84812 2.18158 9.24053C1.79294 9.63293 1.796 10.2661 2.1884 10.6547L3.59578 9.2337ZM2.19464 10.6609C2.59046 11.0461 3.22356 11.0375 3.60873 10.6417C3.99389 10.2459 3.98526 9.61275 3.58944 9.22758L2.19464 10.6609ZM10.392 3.37826L9.58944 3.97478C9.77753 4.22785 10.074 4.37738 10.3893 4.37826C10.7046 4.37914 11.0018 4.23125 11.1913 3.97924L10.392 3.37826ZM17.1913 9.23684C16.7973 9.62385 16.7916 10.257 17.1786 10.651C17.5656 11.045 18.1988 11.0507 18.5928 10.6637L17.1913 9.23684ZM17.1884 9.2337L9.6884 16.6617L11.0958 18.0827L18.5958 10.6547L17.1884 9.2337ZM11.0958 16.6617L3.59578 9.2337L2.1884 10.6547L9.6884 18.0827L11.0958 16.6617ZM3.58944 9.22758C2.51048 8.17765 2.11243 6.61081 2.55943 5.17321L0.649619 4.57938C-0.0208814 6.73579 0.576201 9.08604 2.19464 10.6609L3.58944 9.22758ZM2.55943 5.17321C3.00643 3.7356 4.22277 2.67074 5.70685 2.41774L5.37076 0.446184C3.14463 0.825679 1.32012 2.42297 0.649619 4.57938L2.55943 5.17321ZM5.70685 2.41774C7.19094 2.16475 8.69139 2.76647 9.58944 3.97478L11.1946 2.78174C9.84756 0.969279 7.59689 0.06669 5.37076 0.446184L5.70685 2.41774ZM11.1913 3.97924C12.0931 2.77987 13.5904 2.18613 15.0691 2.44149L15.4094 0.470666C13.1914 0.0876224 10.9455 0.97823 9.59278 2.77729L11.1913 3.97924ZM15.0691 2.44149C16.5478 2.69686 17.7592 3.75836 18.2065 5.19072L20.1156 4.5945C19.4446 2.44596 17.6275 0.85371 15.4094 0.470666L15.0691 2.44149ZM18.2065 5.19072C18.6538 6.62308 18.2619 8.18533 17.1913 9.23684L18.5928 10.6637C20.1986 9.08641 20.7866 6.74305 20.1156 4.5945L18.2065 5.19072Z" fill="#343844"/>
</svg>
