<svg width="171" height="46" viewBox="0 0 171 46" fill="none" xmlns="http://www.w3.org/2000/svg">
<path d="M13.0612 34.4944C12.6799 34.4944 12.4892 34.289 12.4892 33.8784C12.4892 33.5264 12.7092 32.9104 13.1492 32.0304C13.5599 31.2384 14.2492 30.2117 15.2172 28.9504C16.1852 27.6597 17.4025 26.149 18.8692 24.4184C19.4559 23.1277 19.9985 21.8077 20.4972 20.4584C20.9959 19.109 21.4505 17.7157 21.8612 16.2784C22.4185 14.313 22.8292 12.729 23.0932 11.5264C23.3865 10.2944 23.5332 9.25303 23.5332 8.40236C23.5332 6.70103 22.8879 5.85036 21.5972 5.85036C19.3972 5.85036 17.1239 6.64236 14.7772 8.22636C13.2519 9.28236 11.8145 10.5144 10.4652 11.9224C9.11586 13.3304 7.92786 14.797 6.9012 16.3224C5.90386 17.8184 5.1412 19.2557 4.6132 20.6344C4.31986 21.309 4.1732 21.9104 4.1732 22.4384C4.1732 23.377 4.68653 23.8464 5.7132 23.8464C6.2412 23.8464 7.00386 23.6704 8.0012 23.3184C8.9692 22.9664 9.99586 22.4677 11.0812 21.8224C12.1665 21.177 13.2372 20.4437 14.2932 19.6224C15.3492 18.801 16.2879 17.965 17.1092 17.1144C17.5199 16.7037 17.8572 16.4984 18.1212 16.4984C18.2679 16.4984 18.3412 16.5717 18.3412 16.7184C18.3412 16.8944 18.2092 17.1144 17.9452 17.3784C17.0065 18.317 15.8919 19.285 14.6012 20.2824C13.3105 21.2504 12.0052 22.1304 10.6852 22.9224C9.3652 23.7144 8.1332 24.3304 6.9892 24.7704C6.05053 25.1517 5.17053 25.3424 4.3492 25.3424C2.99986 25.3424 2.3252 24.697 2.3252 23.4064C2.3252 22.585 2.55986 21.6024 3.0292 20.4584C3.87986 18.3757 5.37586 16.0584 7.5172 13.5064C8.98386 11.805 10.5532 10.265 12.2252 8.88636C13.9265 7.47836 15.6425 6.36369 17.3732 5.54236C19.1039 4.72103 20.7319 4.31036 22.2572 4.31036C24.3985 4.31036 25.4692 5.60103 25.4692 8.18236C25.4692 9.15036 25.3372 10.2357 25.0732 11.4384C24.8092 12.641 24.4425 14.0197 23.9732 15.5744C23.9145 15.7504 23.8559 15.941 23.7972 16.1464C23.7385 16.3224 23.6799 16.513 23.6212 16.7184C23.4745 17.2757 23.2985 17.877 23.0932 18.5224C22.8879 19.1384 22.6385 19.813 22.3452 20.5464C22.9905 19.8717 23.6359 19.241 24.2812 18.6544C24.9559 18.0384 25.6305 17.4517 26.3052 16.8944C26.7745 16.513 27.3172 16.0877 27.9332 15.6184C28.5492 15.1197 29.2532 14.577 30.0452 13.9904C31.1599 13.1397 32.1132 12.7144 32.9052 12.7144C33.2572 12.7144 33.5212 12.817 33.6972 13.0224C33.9025 13.1984 33.9319 13.389 33.7852 13.5944L32.6412 15.4864C32.0839 16.425 31.6292 17.1877 31.2772 17.7744C30.9252 18.361 30.6905 18.7717 30.5732 19.0064C30.1039 19.8277 29.6052 20.7664 29.0772 21.8224C28.5492 22.849 28.0945 23.8317 27.7132 24.7704C27.3612 25.709 27.1852 26.4717 27.1852 27.0584C27.1852 27.7037 27.4492 28.0264 27.9772 28.0264C28.4465 28.0264 29.1065 27.7477 29.9572 27.1904C30.8079 26.6037 31.6292 25.9437 32.4212 25.2104C34.5625 23.245 36.4105 21.309 37.9652 19.4024C39.5492 17.4664 40.9279 15.2517 42.1012 12.7584C42.6585 11.6144 42.9372 10.6024 42.9372 9.72236C42.9372 8.37303 42.1745 7.68369 40.6492 7.65436C40.2679 7.65436 40.0772 7.56636 40.0772 7.39036C40.0772 7.27303 40.1505 7.14103 40.2972 6.99436C40.7079 6.58369 41.2359 6.37836 41.8812 6.37836C42.6145 6.37836 43.2305 6.62769 43.7292 7.12636C44.2279 7.59569 44.4772 8.28503 44.4772 9.19436C44.4772 10.1624 44.1399 11.3944 43.4652 12.8904C42.9959 13.8584 42.5119 14.7677 42.0132 15.6184C41.5439 16.469 41.0452 17.261 40.5172 17.9944C39.8132 18.9624 39.1239 19.8424 38.4492 20.6344C37.8039 21.397 37.0705 22.189 36.2492 23.0104C35.4279 23.8317 34.4012 24.829 33.1692 26.0024C32.6119 26.5304 31.9665 27.0437 31.2332 27.5424C30.5292 28.041 29.8252 28.4517 29.1212 28.7744C28.4172 29.0677 27.8012 29.2144 27.2732 29.2144C26.2759 29.2144 25.7772 28.6277 25.7772 27.4544C25.7772 26.809 25.9532 25.9584 26.3052 24.9024C26.4519 24.4037 26.6572 23.8464 26.9212 23.2304C27.1852 22.6144 27.4785 21.9397 27.8012 21.2064C28.0065 20.7957 28.2559 20.297 28.5492 19.7104C28.8425 19.0944 29.1799 18.4197 29.5612 17.6864C29.5612 17.6864 29.7519 17.3344 30.1332 16.6304C30.4852 15.9557 30.6612 15.4717 30.6612 15.1784C30.6612 15.0317 30.6172 14.9584 30.5292 14.9584C30.4412 14.9584 30.2652 15.0464 30.0012 15.2224C28.3879 16.3664 27.0239 17.393 25.9092 18.3024C24.7945 19.2117 23.7385 20.1944 22.7412 21.2504C22.3305 21.7197 21.9052 22.233 21.4652 22.7904C21.0252 23.3477 20.5705 23.949 20.1012 24.5944C19.1332 26.8237 18.1799 28.7597 17.2412 30.4024C16.3025 32.0744 15.4959 33.1744 14.8212 33.7024C14.1172 34.2304 13.5305 34.4944 13.0612 34.4944Z" fill="#3C3F59"/>
<path d="M43.9148 19.4904C43.5335 19.4904 43.3428 19.4024 43.3428 19.2264C43.3428 19.0797 43.4455 18.8744 43.6508 18.6104C43.8855 18.317 44.1495 18.0677 44.4428 17.8624C45.0882 17.4517 45.5868 17.0997 45.9388 16.8064C46.3202 16.513 46.7748 16.0144 47.3028 15.3104C47.3322 15.369 47.3468 15.4864 47.3468 15.6624C47.3468 16.0437 47.1855 16.513 46.8628 17.0704C46.5695 17.5984 46.2322 18.0824 45.8508 18.5224C45.4695 18.9624 45.1322 19.241 44.8388 19.3584C44.5748 19.4464 44.2668 19.4904 43.9148 19.4904ZM39.9988 30.2704C39.7642 30.2704 39.5442 30.1824 39.3388 30.0064C39.1335 29.8304 39.0308 29.5957 39.0308 29.3024C39.0308 28.6864 39.4562 27.557 40.3068 25.9144L40.7908 24.9464C40.8495 24.8877 40.9228 24.741 41.0108 24.5064C41.1282 24.2717 41.2895 23.9637 41.4948 23.5824C41.7002 23.1717 41.8615 22.805 41.9788 22.4824C42.0962 22.1597 42.1842 21.8517 42.2428 21.5584C42.2428 21.529 42.3015 21.4704 42.4188 21.3824C42.5362 21.2944 42.6535 21.221 42.7708 21.1624L43.0348 21.1184C43.2695 21.1184 43.4602 21.1624 43.6068 21.2504C43.7828 21.3384 43.8415 21.4557 43.7828 21.6024C43.5775 22.0424 43.4015 22.4237 43.2548 22.7464C43.1082 23.069 42.9908 23.3477 42.9028 23.5824H42.8588C42.5362 24.3157 42.2575 25.0197 42.0228 25.6944C41.8175 26.3397 41.7295 26.9557 41.7588 27.5424L41.8028 28.7304C41.7735 29.0237 41.6708 29.273 41.4948 29.4784C41.3775 29.5664 41.2162 29.669 41.0108 29.7864C40.8055 29.933 40.5415 30.0797 40.2188 30.2264C40.1895 30.2557 40.1162 30.2704 39.9988 30.2704Z" fill="#3C3F59"/>
<path d="M44.3273 32.0304C44.0047 32.0304 43.726 31.9277 43.4913 31.7224C43.286 31.517 43.198 31.2677 43.2273 30.9744C43.286 29.7717 43.506 28.613 43.8873 27.4984C44.298 26.3837 44.8847 25.049 45.6473 23.4944C45.7353 23.289 45.8087 23.113 45.8673 22.9664C45.9553 22.7904 46.0287 22.6437 46.0873 22.5264C46.7327 21.1477 47.3927 19.8277 48.0673 18.5664C48.742 17.305 49.4167 16.073 50.0913 14.8704L50.7073 13.7704C51.4113 12.509 52.0273 11.497 52.5553 10.7344C53.0833 9.94236 53.6113 9.37036 54.1393 9.01836C54.814 8.60769 55.2247 8.40236 55.3713 8.40236C55.606 8.40236 55.8407 8.60769 56.0753 9.01836C56.222 9.31169 55.9287 10.0304 55.1953 11.1744C54.814 11.761 54.33 12.4944 53.7433 13.3744C53.186 14.2544 52.5113 15.2517 51.7193 16.3664C51.5727 16.5717 51.3233 16.9384 50.9713 17.4664C50.6487 17.965 50.2087 18.625 49.6513 19.4464C49.094 20.2677 48.61 21.0157 48.1993 21.6904C47.7887 22.3357 47.4513 22.9077 47.1873 23.4064C46.6593 24.3744 46.1607 25.4157 45.6913 26.5304C45.222 27.6157 44.9873 28.4664 44.9873 29.0824C44.9873 29.6397 45.2073 29.9184 45.6473 29.9184C46.3513 29.9184 47.4807 29.317 49.0353 28.1144C49.2113 28.1437 49.2993 28.2317 49.2993 28.3784C49.2993 28.4957 49.1527 28.701 48.8593 28.9944C48.5953 29.2584 48.258 29.537 47.8473 29.8304C47.466 30.153 47.0113 30.5197 46.4833 30.9304L45.7793 31.4584C45.31 31.8397 44.826 32.0304 44.3273 32.0304Z" fill="#3C3F59"/>
<path d="M51.1164 32.0304C50.7937 32.0304 50.515 31.9277 50.2804 31.7224C50.0751 31.517 49.987 31.2677 50.0164 30.9744C50.0751 29.7717 50.2951 28.613 50.6764 27.4984C51.0871 26.3837 51.6737 25.049 52.4364 23.4944C52.5244 23.289 52.5977 23.113 52.6564 22.9664C52.7444 22.7904 52.8177 22.6437 52.8764 22.5264C53.5217 21.1477 54.1817 19.8277 54.8564 18.5664C55.5311 17.305 56.2057 16.073 56.8804 14.8704L57.4964 13.7704C58.2004 12.509 58.8164 11.497 59.3444 10.7344C59.8724 9.94236 60.4004 9.37036 60.9284 9.01836C61.6031 8.60769 62.0137 8.40236 62.1604 8.40236C62.3951 8.40236 62.6297 8.60769 62.8644 9.01836C63.0111 9.31169 62.7177 10.0304 61.9844 11.1744C61.6031 11.761 61.119 12.4944 60.5324 13.3744C59.975 14.2544 59.3004 15.2517 58.5084 16.3664C58.3617 16.5717 58.1124 16.9384 57.7604 17.4664C57.4377 17.965 56.9977 18.625 56.4404 19.4464C55.883 20.2677 55.3991 21.0157 54.9884 21.6904C54.5777 22.3357 54.2404 22.9077 53.9764 23.4064C53.4484 24.3744 52.9497 25.4157 52.4804 26.5304C52.011 27.6157 51.7764 28.4664 51.7764 29.0824C51.7764 29.6397 51.9964 29.9184 52.4364 29.9184C53.1404 29.9184 54.2697 29.317 55.8244 28.1144C56.0004 28.1437 56.0884 28.2317 56.0884 28.3784C56.0884 28.4957 55.9417 28.701 55.6484 28.9944C55.3844 29.2584 55.0471 29.537 54.6364 29.8304C54.2551 30.153 53.8004 30.5197 53.2724 30.9304L52.5684 31.4584C52.099 31.8397 51.615 32.0304 51.1164 32.0304Z" fill="#3C3F59"/>
<path d="M59.2254 29.8744C58.0814 29.8744 57.5094 29.361 57.5094 28.3344C57.5094 28.2757 57.5094 28.173 57.5094 28.0264C57.5388 27.8797 57.5681 27.7037 57.5974 27.4984C57.8908 26.2957 58.4774 25.137 59.3574 24.0224C60.2668 22.8784 61.3081 21.881 62.4814 21.0304C62.9214 20.6784 63.6254 20.5024 64.5934 20.5024C65.1508 20.5024 65.6348 20.5904 66.0454 20.7664C66.4854 20.913 66.7934 21.1477 66.9694 21.4704C67.1454 21.7637 67.2334 22.101 67.2334 22.4824C67.2334 22.541 67.2188 22.629 67.1894 22.7464C67.1894 22.8637 67.1748 22.9957 67.1454 23.1424C67.2041 23.113 67.2921 23.0984 67.4094 23.0984C67.5561 23.0984 67.7321 23.0837 67.9374 23.0544C68.1428 23.025 68.3334 22.9957 68.5094 22.9664C68.7148 22.937 68.9201 22.9224 69.1254 22.9224H69.3014C69.6241 22.9224 69.6534 23.0544 69.3894 23.3184C69.1548 23.553 68.8321 23.6997 68.4214 23.7584L66.9254 23.9344C66.6321 24.7557 66.1188 25.577 65.3854 26.3984C64.6814 27.2197 63.8894 27.9384 63.0094 28.5544C62.1588 29.141 61.3521 29.5224 60.5894 29.6984C60.1494 29.8157 59.6948 29.8744 59.2254 29.8744ZM64.8574 23.3184C65.0334 23.3184 65.2388 23.3184 65.4734 23.3184C65.7374 23.289 66.0308 23.2597 66.3534 23.2304C66.3828 23.1717 66.3974 23.0397 66.3974 22.8344C66.3974 22.3064 66.1774 21.9397 65.7374 21.7344C65.5028 21.5877 65.2094 21.5144 64.8574 21.5144C64.4174 21.5144 63.9628 21.661 63.4934 21.9544C63.0534 22.2184 62.5841 22.5704 62.0854 23.0104C62.7014 23.2157 63.6254 23.3184 64.8574 23.3184ZM60.5454 28.3344C60.8388 28.3344 61.2494 28.2024 61.7774 27.9384C62.3348 27.645 62.9068 27.2637 63.4934 26.7944C64.0801 26.325 64.6081 25.8264 65.0774 25.2984C65.2241 25.1517 65.3708 24.9757 65.5174 24.7704C65.6641 24.5357 65.8254 24.301 66.0014 24.0664L64.9454 24.1984C63.3028 24.433 61.8361 24.565 60.5454 24.5944C59.9001 25.6504 59.5041 26.5304 59.3574 27.2344C59.3281 27.6157 59.4308 27.8944 59.6654 28.0704C59.9001 28.2464 60.1934 28.3344 60.5454 28.3344Z" fill="#3C3F59"/>
<path d="M77.3239 30.2704C76.7079 30.1824 76.2825 29.9624 76.0479 29.6104C75.8426 29.2877 75.7399 28.833 75.7399 28.2464C75.7399 28.0997 75.7545 27.865 75.7839 27.5424C75.8426 27.2197 75.9012 26.8237 75.9599 26.3544V26.0024C75.9599 25.5917 75.8866 25.357 75.7399 25.2984C75.7105 25.269 75.6372 25.2544 75.5199 25.2544C75.3146 25.2544 74.9332 25.445 74.3759 25.8264C74.3465 25.8557 74.1852 26.0024 73.8919 26.2664C73.5985 26.501 73.1732 26.853 72.6159 27.3224C71.0025 28.7597 69.9025 29.405 69.3159 29.2584C68.6999 29.1117 68.3919 28.701 68.3919 28.0264C68.3919 27.381 68.6266 26.6037 69.0959 25.6944C69.4772 24.873 69.9465 24.081 70.5039 23.3184C71.0612 22.5264 71.5012 22.013 71.8239 21.7784C72.0585 21.6317 72.2492 21.5584 72.3959 21.5584C72.5425 21.5584 72.6746 21.617 72.7919 21.7344C72.8506 21.793 72.8799 21.881 72.8799 21.9984C72.8799 22.1157 72.8065 22.2477 72.6599 22.3944C72.3665 22.6877 72.0879 23.1424 71.8239 23.7584C71.5599 24.345 71.4279 24.873 71.4279 25.3424C71.4279 25.401 71.4279 25.4744 71.4279 25.5624C71.4572 25.6504 71.4865 25.753 71.5159 25.8704C71.6626 25.9584 71.8239 26.0024 71.9999 26.0024C72.3519 26.0024 72.8359 25.8264 73.4519 25.4744C73.6865 25.3277 74.0092 25.1224 74.4199 24.8584C74.8306 24.565 75.3292 24.1984 75.9159 23.7584C76.1506 23.5824 76.4146 23.4944 76.7079 23.4944C77.0306 23.4944 77.2946 23.6117 77.4999 23.8464C77.7346 24.0517 77.8519 24.345 77.8519 24.7264C77.8519 24.785 77.8372 24.873 77.8079 24.9904C77.8079 25.0784 77.7932 25.1957 77.7639 25.3424C77.7052 25.577 77.6466 25.797 77.5879 26.0024C77.5292 26.2077 77.4852 26.413 77.4559 26.6184C77.4266 26.7357 77.4119 26.897 77.4119 27.1024C77.4119 27.2784 77.4119 27.4837 77.4119 27.7184C77.4119 28.3637 77.7492 28.6864 78.4239 28.6864C78.7172 28.6864 79.0106 28.6424 79.3039 28.5544C79.6265 28.437 79.8612 28.305 80.0079 28.1584C81.4159 26.9264 82.7945 25.3277 84.1439 23.3624L84.0999 22.8344C84.0705 22.541 84.1292 22.2624 84.2759 21.9984C84.4226 21.705 84.6132 21.4117 84.8479 21.1184C84.9359 21.001 85.0532 20.9424 85.1999 20.9424C85.3465 20.9424 85.4786 21.0157 85.5959 21.1624C85.7426 21.2797 85.8159 21.441 85.8159 21.6464C85.8159 21.793 85.7719 21.9544 85.6839 22.1304C85.5079 22.453 85.2292 22.9224 84.8479 23.5384C84.4666 24.125 84.0266 24.7704 83.5279 25.4744C83.0292 26.1784 82.5305 26.8384 82.0319 27.4544C81.5332 28.0704 81.0786 28.5544 80.6679 28.9064V28.9504C80.1692 29.3904 79.5972 29.7277 78.9519 29.9624C78.3065 30.2264 77.7639 30.329 77.3239 30.2704Z" fill="#3C3F59"/>
<path d="M98.3349 16.7184C98.0416 16.7184 97.7189 16.645 97.3669 16.4984C96.5456 16.2637 95.7096 15.765 94.8589 15.0024C93.9496 14.2104 93.1722 13.2717 92.5269 12.1864C91.8816 11.0717 91.5002 9.98636 91.3829 8.93036C91.3536 8.81302 91.3389 8.66636 91.3389 8.49036C91.3389 8.31436 91.3389 8.10903 91.3389 7.87436C91.3389 4.06103 93.6856 2.15436 98.3789 2.15436C100.755 2.15436 103.366 2.53569 106.211 3.29836C109.086 4.06102 112.386 5.07302 116.111 6.33436C116.786 6.56902 117.402 6.78902 117.959 6.99436C118.546 7.17036 119.074 7.33169 119.543 7.47836C120.687 7.80102 121.684 7.96236 122.535 7.96236C123.503 7.96236 124.192 7.77169 124.603 7.39036C125.043 7.00903 125.263 6.58369 125.263 6.11436V5.93836C125.263 5.58636 125.366 5.41036 125.571 5.41036C125.806 5.41036 126.055 5.58636 126.319 5.93836C126.378 5.99703 126.407 6.11436 126.407 6.29036C126.407 6.96502 126.011 7.59569 125.219 8.18236C124.427 8.76902 123.444 9.06236 122.271 9.06236C122.095 9.06236 121.934 9.06236 121.787 9.06236C121.67 9.06236 121.552 9.04769 121.435 9.01836C120.291 8.87169 119.03 8.60769 117.651 8.22636C116.302 7.81569 114.63 7.27303 112.635 6.59836C109.848 5.65969 107.531 4.94102 105.683 4.44236C103.835 3.94369 102.119 3.69436 100.535 3.69436C98.8042 3.69436 97.3376 4.07569 96.1349 4.83836C94.9616 5.60102 94.0963 6.84769 93.5389 8.57836C93.4509 8.84236 93.4069 9.13569 93.4069 9.45836C93.4069 10.0157 93.5389 10.6464 93.8029 11.3504C94.0669 12.025 94.4189 12.685 94.8589 13.3304C95.2989 13.9757 95.7682 14.533 96.2669 15.0024C96.7656 15.4424 97.2349 15.7064 97.6749 15.7944C98.3789 15.941 98.7309 16.1757 98.7309 16.4984C98.7309 16.645 98.5989 16.7184 98.3349 16.7184ZM99.1709 32.1624C98.4962 32.1624 98.1882 31.7224 98.2469 30.8424C98.4816 28.9944 99.0682 27.0144 100.007 24.9024C100.476 23.817 101.151 22.4237 102.031 20.7224C102.94 18.9917 104.055 16.9677 105.375 14.6504C106.284 13.0077 107.018 11.7317 107.575 10.8224C108.162 9.91303 108.778 9.23836 109.423 8.79836C109.98 8.41703 110.508 8.22636 111.007 8.22636C111.476 8.22636 111.594 8.41703 111.359 8.79836C110.89 9.44369 110.318 10.265 109.643 11.2624C108.998 12.2304 108.25 13.3744 107.399 14.6944C106.284 16.4544 105.199 18.2437 104.143 20.0624C103.087 21.881 102.192 23.553 101.459 25.0784C100.726 26.5744 100.242 27.777 100.007 28.6864C99.9189 29.0384 99.8749 29.3317 99.8749 29.5664C99.8749 30.065 100.08 30.3144 100.491 30.3144C101.136 30.3144 102.31 29.6544 104.011 28.3344C104.07 28.2757 104.143 28.2464 104.231 28.2464C104.348 28.2464 104.407 28.3197 104.407 28.4664C104.407 28.6424 104.348 28.789 104.231 28.9064C104.114 29.0237 103.967 29.141 103.791 29.2584C103.615 29.405 103.41 29.5664 103.175 29.7424C102.94 29.889 102.735 30.021 102.559 30.1384C102.383 30.2557 102.266 30.3437 102.207 30.4024C101.826 30.6664 101.503 30.8864 101.239 31.0624C100.975 31.2677 100.77 31.429 100.623 31.5464C100.036 31.957 99.5522 32.1624 99.1709 32.1624Z" fill="#3C3F59"/>
<path d="M108.906 30.0504C108.525 30.0504 108.334 29.713 108.334 29.0384C108.334 28.481 108.466 27.9384 108.73 27.4104C109.405 26.1197 110.021 24.8437 110.578 23.5824C110.96 22.8197 111.312 22.0864 111.634 21.3824C111.986 20.6784 112.309 20.033 112.602 19.4464C112.778 19.2704 112.954 19.1824 113.13 19.1824C113.512 19.1824 113.629 19.3584 113.482 19.7104C113.424 19.9157 113.336 20.165 113.218 20.4584C113.13 20.7224 113.013 21.045 112.866 21.4264C112.397 22.6584 112.118 23.5237 112.03 24.0224C112.852 23.289 113.688 22.6144 114.538 21.9984C115.418 21.353 116.24 20.825 117.002 20.4144C117.765 20.0037 118.41 19.7984 118.938 19.7984C119.408 19.7984 119.642 19.989 119.642 20.3704C119.642 20.693 119.496 21.045 119.202 21.4264C118.909 21.7784 118.616 21.9544 118.322 21.9544C118.176 21.9544 118.058 21.9104 117.97 21.8224C117.882 21.793 117.706 21.7784 117.442 21.7784C116.504 21.7784 115.521 22.233 114.494 23.1424C113.409 24.0517 112.426 25.1517 111.546 26.4424C110.666 27.7037 110.021 28.8037 109.61 29.7424C109.405 29.9477 109.17 30.0504 108.906 30.0504Z" fill="#3C3F59"/>
<path d="M120.094 29.6104C119.478 29.6104 118.935 29.449 118.466 29.1264C117.703 28.5397 117.322 27.6597 117.322 26.4864C117.322 25.313 117.733 24.0664 118.554 22.7464C119.375 21.4264 120.622 20.209 122.294 19.0944C122.587 18.889 122.983 18.7864 123.482 18.7864C124.127 18.7864 124.699 18.9624 125.198 19.3144C125.726 19.6664 125.931 20.121 125.814 20.6784C125.609 21.5877 125.154 22.3944 124.45 23.0984C123.775 23.8024 122.969 24.433 122.03 24.9904C121.121 25.5184 120.182 26.0317 119.214 26.5304C119.185 26.6184 119.155 26.7064 119.126 26.7944C119.126 26.8824 119.126 26.9704 119.126 27.0584C119.126 27.469 119.258 27.8357 119.522 28.1584C119.815 28.4517 120.211 28.5984 120.71 28.5984C121.091 28.5984 121.414 28.5397 121.678 28.4224C122.147 28.2464 122.529 28.085 122.822 27.9384C123.145 27.7917 123.511 27.5717 123.922 27.2784C124.333 26.985 124.89 26.545 125.594 25.9584C125.917 25.7237 126.107 25.6064 126.166 25.6064C126.342 25.6064 126.401 25.7384 126.342 26.0024C126.049 26.4717 125.535 26.985 124.802 27.5424C124.098 28.0997 123.306 28.5837 122.426 28.9944C121.575 29.405 120.798 29.6104 120.094 29.6104ZM119.478 25.3424C119.713 25.3424 120.197 25.1077 120.93 24.6384C121.663 24.169 122.353 23.6557 122.998 23.0984C124.113 22.0717 124.67 21.2797 124.67 20.7224C124.67 20.5757 124.626 20.4437 124.538 20.3264C124.45 20.1797 124.318 20.1064 124.142 20.1064C123.585 20.1064 122.646 20.7664 121.326 22.0864C120.417 22.9664 119.801 24.0517 119.478 25.3424Z" fill="#3C3F59"/>
<path d="M128.817 29.6104C128.201 29.6104 127.658 29.449 127.189 29.1264C126.426 28.5397 126.045 27.6597 126.045 26.4864C126.045 25.313 126.455 24.0664 127.277 22.7464C128.098 21.4264 129.345 20.209 131.017 19.0944C131.31 18.889 131.706 18.7864 132.205 18.7864C132.85 18.7864 133.422 18.9624 133.921 19.3144C134.449 19.6664 134.654 20.121 134.537 20.6784C134.331 21.5877 133.877 22.3944 133.173 23.0984C132.498 23.8024 131.691 24.433 130.753 24.9904C129.843 25.5184 128.905 26.0317 127.937 26.5304C127.907 26.6184 127.878 26.7064 127.849 26.7944C127.849 26.8824 127.849 26.9704 127.849 27.0584C127.849 27.469 127.981 27.8357 128.245 28.1584C128.538 28.4517 128.934 28.5984 129.433 28.5984C129.814 28.5984 130.137 28.5397 130.401 28.4224C130.87 28.2464 131.251 28.085 131.545 27.9384C131.867 27.7917 132.234 27.5717 132.645 27.2784C133.055 26.985 133.613 26.545 134.317 25.9584C134.639 25.7237 134.83 25.6064 134.889 25.6064C135.065 25.6064 135.123 25.7384 135.065 26.0024C134.771 26.4717 134.258 26.985 133.525 27.5424C132.821 28.0997 132.029 28.5837 131.149 28.9944C130.298 29.405 129.521 29.6104 128.817 29.6104ZM128.201 25.3424C128.435 25.3424 128.919 25.1077 129.653 24.6384C130.386 24.169 131.075 23.6557 131.721 23.0984C132.835 22.0717 133.393 21.2797 133.393 20.7224C133.393 20.5757 133.349 20.4437 133.261 20.3264C133.173 20.1797 133.041 20.1064 132.865 20.1064C132.307 20.1064 131.369 20.7664 130.049 22.0864C129.139 22.9664 128.523 24.0517 128.201 25.3424Z" fill="#3C3F59"/>
<path fill-rule="evenodd" clip-rule="evenodd" d="M134.743 25.2297C134.893 24.8274 135.101 24.3794 135.204 24.2339C135.307 24.0885 135.443 23.7743 135.508 23.5358C135.572 23.2973 135.777 22.7201 135.965 22.253C136.341 21.3123 136.54 20.303 136.616 18.9459C136.659 18.1752 136.705 17.9659 136.961 17.3833C137.123 17.0134 137.272 16.5947 137.292 16.4529C137.353 16.0194 138.284 14.7646 138.924 14.2522C139.247 13.9938 139.589 13.7934 139.685 13.8069C139.847 13.8296 139.847 13.8412 139.683 13.9779C139.586 14.0586 139.439 14.261 139.356 14.4276C139.273 14.5943 139.035 14.8894 138.828 15.0836C138.486 15.4048 138.453 15.474 138.456 15.8542C138.458 16.0839 138.578 16.6191 138.723 17.0436C138.902 17.5683 138.969 17.9373 138.933 18.1959C138.867 18.6659 138.207 19.719 137.626 20.2797C136.843 21.035 136.72 21.2066 136.37 22.0342C136.177 22.4899 136.03 22.8774 136.043 22.8954C136.103 22.9745 136.842 22.0859 138.165 20.3436C141.23 16.3083 141.278 16.2188 141.354 14.3917C141.381 13.7315 141.431 13.1704 141.465 13.1448C141.833 12.8672 142.284 14.6339 142.216 16.0886C142.182 16.8143 141.946 17.318 141.353 17.9355C141.144 18.1528 141.003 18.3348 141.04 18.34C141.077 18.3453 141.479 18.1912 141.933 17.9978C142.387 17.8043 143.061 17.5736 143.429 17.4851C143.798 17.3966 144.153 17.2943 144.217 17.2578C144.382 17.1644 144.7 16.1598 144.741 15.6028C144.793 14.8902 144.999 14.3199 145.577 13.2883C145.996 12.5415 146.247 12.2157 146.793 11.7126C147.742 10.8375 148.037 10.4908 148.348 9.88592C148.496 9.59914 148.672 9.35414 148.741 9.34141C148.834 9.3242 148.815 9.40313 148.666 9.65407C148.546 9.85605 148.472 10.1083 148.48 10.2874C148.489 10.5036 148.452 10.5945 148.345 10.6195C148.263 10.6384 148.188 10.7084 148.179 10.7751C148.148 10.9957 147.348 12.1258 146.762 12.7775C146.445 13.1304 146.17 13.4655 146.153 13.5222C146.135 13.5789 145.986 13.7763 145.822 13.9609C145.377 14.4607 145.134 14.9946 145.041 15.6805L144.957 16.2941L145.3 15.7286C145.489 15.4176 145.984 14.7742 146.4 14.2987C147.238 13.3417 147.733 12.6289 147.758 12.3448L147.774 12.1582L147.702 12.337C147.527 12.7736 146.35 13.7382 146.214 13.5572C146.189 13.5237 146.298 13.4438 146.457 13.3797C146.873 13.2114 147.568 12.4399 147.617 12.0915C147.639 11.9339 147.79 11.6141 147.952 11.3808C148.115 11.1475 148.257 10.8927 148.268 10.8145C148.279 10.7365 148.332 10.6789 148.386 10.6865C148.441 10.6942 148.449 10.775 148.404 10.8687C148.36 10.9613 148.253 11.2543 148.166 11.5196C147.682 12.9974 147.624 13.0973 146.592 14.2715C145.874 15.0873 145.056 16.3078 144.91 16.7789C144.813 17.091 144.819 17.1037 145.041 17.0664C145.169 17.0448 145.725 16.9871 146.276 16.938C146.827 16.889 147.335 16.8377 147.405 16.8241C147.497 16.8063 147.463 16.6236 147.286 16.1647C147.15 15.8156 147.056 15.4141 147.076 15.2726C147.116 14.9888 147.873 13.81 148.109 13.664C148.208 13.6024 148.284 13.3845 148.339 13.0049C148.545 11.5622 149.26 10.4535 150.732 9.29435C151.598 8.61298 151.746 8.45556 151.87 8.08638C152.071 7.48856 152.463 7.07911 152.947 6.96337C153.428 6.84789 153.442 6.89003 153.011 7.1608C152.467 7.50177 152.139 8.11081 152.006 9.02355C151.864 9.99652 151.525 11.0552 151.198 11.5436C150.98 11.87 150.971 11.9084 151.117 11.8718C151.478 11.782 152.741 11.7768 153.374 11.8625C153.964 11.9425 154.12 11.9238 154.717 11.701C155.088 11.5624 155.506 11.3937 155.645 11.3262C155.96 11.1733 156.44 11.144 156.589 11.2684C156.668 11.3336 156.604 11.3692 156.38 11.3853C156.203 11.3979 156.002 11.4418 155.933 11.4826C155.865 11.5233 155.764 11.5189 155.708 11.4726C155.646 11.4213 155.626 11.431 155.655 11.4976C155.681 11.5577 155.657 11.627 155.601 11.6516C155.545 11.6762 155.446 11.7693 155.381 11.8586C155.27 12.0105 155.283 12.0168 155.579 11.9559C155.961 11.8775 157.375 12.0595 158.405 12.3199C159.23 12.5286 159.393 12.6847 158.689 12.5912C158.131 12.5174 157.447 12.6686 156.741 13.0214C156.178 13.3029 155.138 13.5232 154.678 13.4585C154.48 13.4307 154.369 13.4831 154.239 13.666C153.761 14.3409 152.488 14.9745 151.122 15.2183C150.418 15.3439 149.414 15.8213 148.512 16.4593C148.195 16.6833 147.995 16.8466 148.066 16.8221C148.369 16.7186 150.67 16.7674 151.597 16.8971C152.582 17.0349 152.622 17.0321 153.665 16.7545C154.249 16.5987 155.327 16.2183 156.059 15.9089C158.124 15.0363 159.518 14.7832 161.117 14.9904C161.91 15.093 163.197 15.5173 163.279 15.7024C163.297 15.7438 162.987 15.7553 162.591 15.7278C161.671 15.664 161.283 15.7446 160.092 16.2469C158.395 16.962 157.163 17.1741 154.778 17.161C154.312 17.1584 153.897 17.1776 153.857 17.2036C153.744 17.2776 155.351 17.4291 155.83 17.3898C156.066 17.3704 157.019 17.2251 157.947 17.067C161.88 16.3969 164.1 16.5334 165.525 17.5329C165.712 17.6643 165.861 17.8023 165.856 17.8395C165.851 17.8767 165.378 17.8413 164.806 17.761C164.013 17.6497 163.628 17.6404 163.185 17.722L162.604 17.829L163.203 17.9326C164.207 18.1065 165.464 18.4767 166.814 18.9964C167.521 19.2687 168.114 19.5096 168.131 19.5319C168.147 19.5541 167.73 19.5391 167.204 19.4986C166.677 19.4579 165.757 19.4366 165.158 19.4511C163.385 19.4941 161.89 19.4071 160.611 19.1865L159.409 18.9792L159.852 19.2381C160.096 19.3805 160.558 19.7107 160.878 19.9719C161.198 20.2331 161.603 20.5168 161.779 20.6023C162.27 20.8411 162.972 21.3515 162.844 21.3763C162.781 21.3885 162.52 21.3027 162.264 21.1858C161.974 21.0535 161.44 20.9228 160.85 20.8399C160.002 20.7208 159.754 20.6408 158.507 20.0846C157.739 19.7424 156.775 19.2623 156.364 19.0176C155.953 18.7731 155.35 18.4136 155.025 18.219C154.113 17.674 153.454 17.4998 151.506 17.2892C150.561 17.187 149.678 17.1302 149.544 17.1631C149.337 17.2139 149.377 17.2344 149.812 17.3006C150.496 17.4046 152.269 17.8865 152.989 18.1639C153.729 18.4489 155.327 19.2876 156.091 19.7921C156.648 20.16 156.728 20.1864 157.505 20.2579C158.402 20.3404 158.488 20.4168 157.776 20.4999C157.525 20.5293 156.832 20.6714 156.237 20.8157C155.642 20.96 154.944 21.0939 154.686 21.1132C154.429 21.1325 152.925 20.9864 151.345 20.7885C149.765 20.5908 148.324 20.4317 148.142 20.4352L147.811 20.4416L148.061 20.6206C148.606 21.0121 151.405 22.4447 151.856 22.5631C152.421 22.7115 153.097 22.6916 155.117 22.4673C156.423 22.3222 156.771 22.3201 158.012 22.4497C159.113 22.5648 159.611 22.6591 160.285 22.881C160.759 23.0371 161.143 23.1968 161.138 23.2358C161.132 23.2747 160.802 23.2847 160.404 23.258C160.006 23.2313 159.483 23.2526 159.242 23.3051C159.001 23.3578 158.416 23.4467 157.941 23.5029C157.467 23.5591 157.162 23.6167 157.263 23.6309C157.508 23.665 160.576 25.1727 160.568 25.2547C160.565 25.2896 160.455 25.2913 160.324 25.2584C160.193 25.2255 159.608 25.2386 159.023 25.2876C157.508 25.4146 156.127 25.2107 155.093 24.7077C154.685 24.5089 154.168 24.1783 153.945 23.9731C153.483 23.5493 153.461 23.5369 152.605 23.2337C152.186 23.0852 152.027 23.0543 152.13 23.141C153.044 23.9142 153.383 24.2847 154.041 25.2319C154.463 25.8379 154.933 26.613 155.087 26.9543C155.24 27.2957 155.468 27.7319 155.594 27.9237C155.719 28.1155 155.799 28.2891 155.772 28.3096C155.745 28.3301 155.54 28.2542 155.315 28.1411C155.091 28.0279 154.852 27.9275 154.783 27.9179C154.714 27.9083 154.337 27.6787 153.945 27.4077C153.158 26.8652 152.863 26.7873 151.817 26.8469L151.22 26.8809L151.427 27.3383C151.691 27.9211 151.674 28.0169 151.361 27.7199C150.909 27.2911 150.102 26.8826 149.555 26.8058C148.42 26.6464 146.708 25.8111 145.902 25.0237C145.51 24.64 144.84 23.6768 144.061 22.3735C143.814 21.9613 143.584 21.6 143.549 21.5707C143.514 21.5415 142.975 21.5737 142.352 21.6424C141.73 21.711 140.995 21.7622 140.721 21.7559C140.446 21.7497 140.236 21.7648 140.255 21.7894C140.273 21.8138 140.482 21.9197 140.719 22.0245C143.089 23.0724 143.881 23.5336 144.967 24.4973C145.342 24.8293 145.915 25.3117 146.242 25.569C146.599 25.85 146.989 26.2734 147.219 26.6286C147.43 26.954 147.565 27.1978 147.52 27.1704C147.475 27.1431 147.207 26.9555 146.924 26.7535C146.175 26.2184 145.714 26.0098 144.719 25.7548C143.73 25.5015 143.118 25.2208 142.123 24.5644C141.58 24.2064 141.309 23.9317 140.714 23.1403C139.796 21.9184 139.633 21.7986 138.736 21.6832C137.835 21.5673 137.572 21.641 137.29 22.089C137.165 22.2868 136.749 22.8052 136.365 23.2411C135.602 24.1085 135.21 24.8042 134.993 25.6805C134.915 25.9942 134.817 26.2458 134.774 26.2398C134.647 26.222 134.895 25.4163 135.275 24.6107C135.514 24.1037 135.822 23.6454 136.221 23.2062C136.877 22.482 137.321 21.8835 137.261 21.8036C137.24 21.7748 137.136 21.8721 137.032 22.0198C136.927 22.1675 136.585 22.5723 136.271 22.9195C135.626 23.6331 135.184 24.4013 134.832 25.4218C134.699 25.8056 134.555 26.1146 134.51 26.1083C134.414 26.0948 134.4 26.1466 134.743 25.2297ZM136.668 20.2276C136.66 20.5381 136.674 20.6985 136.698 20.5841C136.721 20.4696 136.894 20.0903 137.082 19.7411C137.394 19.1587 137.441 18.9804 137.654 17.5812C137.782 16.7423 137.937 15.9198 138 15.7533C138.068 15.5711 138.076 15.467 138.02 15.4919C137.852 15.5655 137.545 16.1761 137.213 17.0943C137.034 17.5884 136.857 18.0734 136.82 18.1721C136.753 18.3511 136.693 19.1598 136.668 20.2276ZM136.839 20.8581C136.946 20.7394 137.212 20.4793 137.43 20.2803C137.648 20.0813 138.049 19.5886 138.321 19.1854C138.913 18.308 138.95 18.0106 138.592 16.9813C138.464 16.6128 138.334 16.1166 138.304 15.8787C138.249 15.4463 138.248 15.4462 138.145 15.7147C138.087 15.8624 137.941 16.6569 137.819 17.48C137.594 19.0012 137.514 19.2453 136.728 20.8026C136.614 21.0299 136.662 21.0543 136.839 20.8581ZM137.453 21.6724C137.538 21.5875 137.749 21.5048 137.923 21.4885L138.239 21.459L137.937 21.4068C137.664 21.3598 137.646 21.338 137.759 21.1835C137.828 21.0893 137.863 21.0092 137.837 21.0056C137.775 20.9969 137.33 21.6144 137.312 21.7343C137.304 21.7851 137.367 21.7573 137.453 21.6724ZM138.805 14.9412C138.965 14.7989 139.165 14.5374 139.248 14.3602L139.399 14.038L139.111 14.2458C138.858 14.4279 138.589 14.8298 138.532 15.1082C138.522 15.1587 138.644 15.0835 138.805 14.9412ZM139.251 21.3971C140.96 21.507 142.849 21.3176 144.785 20.842C145.563 20.6506 146.333 20.4619 146.494 20.4224C146.782 20.3518 146.774 20.3453 146.032 20.0194C144.989 19.5616 143.416 19.0514 142.766 18.9601C142.467 18.9182 141.898 18.9048 141.501 18.9304C140.794 18.976 140.755 18.9928 139.633 19.7301C138.644 20.38 137.781 21.1387 137.88 21.2702C137.896 21.2925 138.514 21.3496 139.251 21.3971ZM138.566 20.3377C138.873 20.1034 139.611 19.5841 140.205 19.1834C141.151 18.5459 141.459 18.3975 142.678 17.9949C143.444 17.7418 144.551 17.4353 145.139 17.314C146.314 17.071 146.416 17.004 145.369 17.1624C144.819 17.2457 144.684 17.2399 144.634 17.13C144.587 17.0249 144.569 17.0286 144.551 17.1468C144.527 17.303 144.269 17.4063 143.355 17.6258C142.838 17.7497 142.148 18.0159 141.107 18.4935C140.314 18.8575 138.078 20.4758 138.014 20.7323C138.01 20.7494 138.258 20.5718 138.566 20.3377ZM138.873 19.6878C138.964 19.5967 139.238 19.2953 139.483 19.0181C139.727 18.7409 140.151 18.2907 140.425 18.0176C141.229 17.2148 141.347 17.0504 141.589 16.3883C141.76 15.92 141.831 15.5431 141.865 14.9156L141.911 14.0724L141.74 14.7521C141.424 16.0118 140.644 17.3749 139.27 19.0726C138.72 19.7525 138.555 20.0086 138.873 19.6878ZM139.784 21.8705C139.925 21.9734 140.381 22.5035 140.797 23.0486C141.399 23.8361 141.69 24.1297 142.217 24.4774C143.095 25.0564 143.917 25.4258 144.864 25.6673C145.292 25.7761 145.816 25.9546 146.031 26.0639C146.245 26.1732 146.435 26.2514 146.453 26.2378C146.498 26.2035 145.482 25.5765 144.463 25.0108C143.997 24.7517 143.395 24.3565 143.125 24.1325C141.892 23.1082 140.726 22.2455 140.292 22.0369C140.032 21.9116 139.805 21.7528 139.789 21.684C139.772 21.6078 139.611 21.5417 139.376 21.5147C139.016 21.4731 139.008 21.477 139.26 21.5769C139.407 21.6356 139.643 21.7677 139.784 21.8705ZM140.164 18.7389C141.011 18.2458 141.822 17.3286 142.033 16.6248C142.117 16.3417 142.12 14.8556 142.036 14.7438C142.023 14.7274 141.955 15.1171 141.884 15.6095C141.739 16.6104 141.549 17.0749 141.11 17.5002C140.947 17.659 140.753 17.8714 140.679 17.9723C140.606 18.0732 140.327 18.3501 140.059 18.5876C139.791 18.8251 139.57 19.0351 139.567 19.0543C139.564 19.0733 139.833 18.9315 140.164 18.7389ZM141.482 15.2565C141.552 15.2041 141.728 13.8532 141.7 13.5943C141.639 13.0407 141.55 13.352 141.499 14.2985C141.47 14.8402 141.463 15.2713 141.482 15.2565ZM140.475 22.3202C140.609 22.339 141.335 23.0008 141.487 23.2423L141.632 23.4741L141.428 23.2495C141.317 23.1259 141.039 22.8639 140.811 22.6671C140.584 22.4703 140.432 22.3142 140.475 22.3202ZM141.324 18.7974C141.494 18.7831 142.013 18.792 142.476 18.817L143.318 18.8626L142.343 18.7571C141.447 18.6601 141.036 18.6671 141.02 18.7796C141.017 18.8037 141.153 18.8117 141.324 18.7974ZM144.883 18.466C145.852 18.1418 147.442 17.3129 147.344 17.1829C147.288 17.1074 145.851 17.2861 144.965 17.4789C144.528 17.5738 143.59 17.8345 142.88 18.0581L141.59 18.4645L143.794 18.8301L144.883 18.466ZM141.585 21.5966C141.663 21.5774 141.644 21.5524 141.537 21.5328C141.44 21.5151 141.382 21.5293 141.409 21.5643C141.435 21.5994 141.514 21.6139 141.585 21.5966ZM144.749 25.0135C145.342 25.3509 146.059 25.7884 146.343 25.9858C147.041 26.4716 146.913 26.2479 146.154 25.6573C145.818 25.3952 145.24 24.9157 144.871 24.5917C143.935 23.7705 143.478 23.4685 142.41 22.966C141.9 22.7259 141.424 22.5002 141.351 22.4642C141.278 22.4283 141.771 22.8491 142.445 23.3994C143.192 24.0089 144.093 24.6399 144.749 25.0135ZM141.968 21.5559C142.046 21.5368 142.027 21.5117 141.92 21.4922C141.823 21.4745 141.765 21.4887 141.791 21.5237C141.818 21.5588 141.897 21.5733 141.968 21.5559ZM142.911 21.4417C143.399 21.3618 143.552 21.3681 143.649 21.4721C143.741 21.5705 143.758 21.5735 143.721 21.4839C143.692 21.4171 143.749 21.3284 143.849 21.2823C143.965 21.2287 143.977 21.2066 143.883 21.2187C142.775 21.3624 142.148 21.4688 142.215 21.5018C142.26 21.5242 142.573 21.4971 142.911 21.4417ZM143.966 19.1212C144.106 19.1369 144.172 19.1212 144.111 19.0865C144.051 19.0517 144.031 18.9885 144.066 18.9459C144.16 18.8331 143.993 18.8299 143.845 18.9418C143.668 19.0752 143.677 19.0891 143.966 19.1212ZM145.906 19.6452L147.389 20.2392L148.187 20.1873C148.626 20.1587 149.332 20.0289 149.754 19.8987C151.057 19.4977 151.789 19.4517 153.674 19.6525L155.346 19.8306L154.166 19.5009C153.518 19.3195 152.577 19.0698 152.076 18.9458C151.574 18.822 150.879 18.6401 150.529 18.5418C150.18 18.4434 149.83 18.3525 149.752 18.3398C149.674 18.3271 149.326 18.0863 148.979 17.8048C148.533 17.4434 148.246 17.278 148.001 17.2426C147.798 17.2131 147.648 17.2369 147.639 17.3004C147.631 17.3597 147.602 17.3793 147.576 17.3438C147.549 17.3082 147.157 17.5034 146.704 17.7774C146.251 18.0514 145.511 18.3985 145.06 18.5488C144.459 18.7486 144.264 18.8529 144.331 18.9367C144.382 18.9998 145.09 19.3186 145.906 19.6452ZM144.291 22.1752C144.792 22.8509 145.439 23.3943 146.216 23.7899C146.494 23.9316 146.752 24.0518 146.79 24.0572C146.977 24.0834 146.778 23.5794 146.413 23.1006C146.188 22.8057 145.946 22.4433 145.874 22.2955C145.648 21.828 143.897 21.1203 143.847 21.4762C143.84 21.5224 144.04 21.8369 144.291 22.1752ZM144.557 19.2743C144.624 19.2576 144.575 19.2292 144.448 19.2114C144.321 19.1935 144.266 19.2072 144.326 19.2418C144.386 19.2765 144.49 19.2911 144.557 19.2743ZM145.032 15.1057C145.214 14.4862 145.57 13.9526 146.54 12.8499C147.29 11.9968 148.148 10.7797 148.071 10.6778C148.047 10.6459 147.965 10.7055 147.889 10.8103C147.812 10.9151 147.459 11.2621 147.104 11.5814C146.37 12.2405 146.208 12.4516 145.593 13.552C145.052 14.5194 145.026 14.5842 144.945 15.1595L144.881 15.6225L145.032 15.1057ZM145.086 18.6431C145.459 18.5235 146.163 18.1884 146.65 17.8983C147.137 17.6081 147.53 17.4092 147.523 17.4562C147.507 17.5749 146.249 18.3038 145.522 18.6166C145 18.8407 144.379 18.9939 144.401 18.8932C144.405 18.8751 144.713 18.7626 145.086 18.6431ZM144.21 21.24C144.286 21.2508 144.354 21.2192 144.361 21.1698C144.368 21.1206 144.308 21.0954 144.228 21.1139C144.147 21.1326 144.079 21.1642 144.077 21.1842C144.074 21.2042 144.134 21.2293 144.21 21.24ZM145.282 21.4794C146.714 21.9742 147.16 22.1587 147.961 22.586C149.021 23.1518 149.677 23.7102 150.146 24.4461C150.468 24.952 150.56 25.0305 151.027 25.1977C151.337 25.309 151.735 25.5499 152.009 25.794L152.47 26.2036L151.824 25.3678C151.296 24.6856 151.106 24.3356 150.789 23.4642C150.575 22.877 150.312 22.3053 150.205 22.1938C150.098 22.0823 149.365 21.6602 148.575 21.2556L147.14 20.5201L146.063 20.8009C145.471 20.9555 144.911 21.0937 144.819 21.1083C144.537 21.1526 144.69 21.2749 145.282 21.4794ZM145.27 24.0151C146.122 25.1842 146.76 25.6647 147.588 25.762L148.103 25.8226L147.697 25.3152C147.407 24.9521 147.093 24.697 146.592 24.4182C146.208 24.204 145.696 23.8518 145.457 23.6354C145.217 23.4191 144.959 23.2334 144.883 23.2227C144.807 23.2121 144.713 23.1245 144.674 23.0281C144.634 22.9318 144.595 22.8978 144.585 22.9527C144.576 23.0077 144.884 23.4857 145.27 24.0151ZM147.404 22.968C148.336 23.7478 149.31 24.7902 149.952 25.6949C150.233 26.0904 150.66 26.6541 150.9 26.9476C151.25 27.3746 151.305 27.4161 151.173 27.1557C151.083 26.9767 150.892 26.4825 150.748 26.0575C150.19 24.4001 149.396 23.4822 147.804 22.6541C147.048 22.2611 145.756 21.7273 145.528 21.7136C145.493 21.7115 145.738 21.857 146.073 22.037C146.408 22.2171 147.007 22.636 147.404 22.968ZM146.461 17.0891C146.539 17.0699 146.52 17.0449 146.413 17.0253C146.316 17.0077 146.258 17.0219 146.285 17.0569C146.311 17.092 146.391 17.1065 146.461 17.0891ZM146.936 17.0615C147.014 17.0423 146.995 17.0173 146.888 16.9977C146.791 16.98 146.734 16.9942 146.76 17.0293C146.787 17.0643 146.866 17.0789 146.936 17.0615ZM146.573 23.1042C146.813 23.3682 146.948 23.6152 146.964 23.8183C146.998 24.2686 147.911 25.4873 148.548 25.934C149.083 26.3087 150.61 27.0739 150.695 27.0098C150.767 26.955 149.409 25.1474 148.799 24.4866C147.959 23.5772 146.338 22.1998 146.062 22.161C145.92 22.1411 146.249 22.7487 146.573 23.1042ZM146.656 24.3226C147.006 24.521 147.095 24.5469 147.023 24.4294C146.97 24.3439 146.721 24.1768 146.47 24.0581C146.219 23.9394 145.954 23.8133 145.881 23.7778C145.602 23.6416 146.216 24.0732 146.656 24.3226ZM147.316 15.2211C147.505 14.8596 147.503 14.8609 147.96 14.6079C148.122 14.5179 148.197 14.4372 148.126 14.4284C147.805 14.3885 147.209 14.9729 147.16 15.3763C147.147 15.4837 147.213 15.4182 147.316 15.2211ZM147.03 20.2984C147.114 20.312 147.101 20.2797 146.994 20.215C146.899 20.157 146.737 20.099 146.635 20.0862C146.486 20.0676 146.493 20.0838 146.671 20.1696C146.792 20.2282 146.954 20.2862 147.03 20.2984ZM147.758 12.1088C147.831 12.119 148.067 11.6612 148.021 11.5996C147.999 11.5702 147.927 11.6403 147.861 11.7555C147.72 12.0016 147.692 12.0994 147.758 12.1088ZM147.416 15.825C147.469 15.9765 147.566 16.1588 147.631 16.2301C147.727 16.3356 147.765 16.322 147.835 16.1576C147.985 15.8079 148.221 14.7228 148.149 14.7127C148.111 14.7074 147.951 14.7707 147.792 14.8533C147.542 14.9834 147.466 15.0884 147.343 15.4774C147.33 15.5171 147.363 15.6736 147.416 15.825ZM147.319 17.0209C147.397 17.0017 147.378 16.9767 147.271 16.9571C147.174 16.9394 147.117 16.9536 147.143 16.9887C147.169 17.0237 147.249 17.0382 147.319 17.0209ZM147.965 14.3093C148.075 14.269 148.171 14.1895 148.179 14.1325C148.187 14.0755 148.1 14.0926 147.985 14.1704C147.87 14.2482 147.774 14.3278 147.771 14.3472C147.769 14.3665 147.856 14.3495 147.965 14.3093ZM147.739 16.8265C147.756 16.8289 147.863 16.7484 147.976 16.6474L148.181 16.4638L147.948 16.611C147.73 16.7492 147.665 16.8161 147.739 16.8265ZM148.834 17.0318C149.315 17.0145 150.172 17.028 150.737 17.0617L151.766 17.1229L150.699 17.0002C149.706 16.8861 147.619 16.894 147.854 17.011C147.912 17.0396 148.353 17.049 148.834 17.0318ZM148.394 13.9446C148.449 13.9203 148.517 13.7416 148.544 13.5477C148.643 12.8452 149.108 11.6067 149.502 10.9969C149.873 10.4234 151.121 9.12748 151.201 9.23307C151.22 9.25892 150.957 9.54403 150.617 9.86675C150.023 10.4294 149.322 11.4002 149.101 11.9668C148.958 12.3319 149.041 12.2455 149.38 11.6758C149.682 11.168 150.048 10.7069 150.526 10.2318C150.686 10.0725 151 9.7276 151.224 9.46532C151.756 8.84144 151.549 8.83991 150.713 9.4615C149.651 10.251 148.978 11.1369 148.652 12.1721C148.439 12.849 148.271 13.9984 148.394 13.9446ZM148.179 16.12C148.296 16.0138 148.388 15.9626 148.384 16.0061C148.379 16.0496 148.952 15.6697 149.656 15.1619C150.36 14.654 151.301 14.0279 151.748 13.7705C152.892 13.1115 155.012 11.803 155.019 11.7516C155.032 11.659 154.398 11.936 154.034 12.1819C153.822 12.3247 153.244 12.6096 152.748 12.8151C151.313 13.4102 150.913 13.668 150.051 14.555C149.253 15.3749 148.374 16.1005 148.399 15.9176C148.407 15.8659 148.559 15.7194 148.739 15.5921C148.918 15.4648 149.362 15.0626 149.727 14.6983C150.091 14.3341 150.585 13.8798 150.824 13.6888L151.26 13.3414L150.671 13.5067C150.347 13.5978 149.851 13.7627 149.569 13.8734C149.287 13.9841 149.034 14.0525 149.006 14.0254C148.978 13.9984 148.972 14.0074 148.993 14.0455C149.014 14.0836 148.934 14.1934 148.814 14.2897C148.637 14.4324 148.198 15.466 147.988 16.2347C147.976 16.2777 148.062 16.2261 148.179 16.12ZM147.868 20.7073C147.918 20.7173 147.903 20.6763 147.834 20.6162C147.764 20.5561 147.645 20.5004 147.568 20.4926C147.421 20.4774 147.694 20.6731 147.868 20.7073ZM147.427 24.0381C147.572 24.1748 147.712 24.3388 147.74 24.4024C147.768 24.4661 147.673 24.4062 147.529 24.2695C147.385 24.1327 147.244 23.9688 147.216 23.9052C147.188 23.8415 147.283 23.9013 147.427 24.0381ZM148.771 13.7369C148.807 13.6505 148.871 13.6085 148.913 13.6438C148.956 13.679 148.975 13.6394 148.956 13.5557C148.919 13.3958 149.267 12.9261 149.345 13.0302C149.37 13.0634 149.46 13.0265 149.545 12.9483C149.638 12.8626 149.664 12.8574 149.61 12.9354C149.561 13.0063 149.742 12.8832 150.014 12.6617C150.887 11.9483 151.518 10.9004 151.719 9.82866C151.821 9.28216 151.705 9.03832 151.487 9.34178C151.407 9.4529 151.054 9.84336 150.703 10.2094C149.861 11.0861 149.222 12.0293 148.892 12.8817C148.802 13.1135 148.685 13.9443 148.771 13.7369ZM149.18 13.3999C149.269 13.3115 149.346 13.1949 149.352 13.1408C149.358 13.0866 149.291 13.1147 149.202 13.2029C149.114 13.2913 149.036 13.4079 149.03 13.462C149.024 13.5162 149.092 13.4882 149.18 13.3999ZM150.111 13.5267C150.647 13.3691 151.155 13.2493 151.24 13.2604C151.373 13.2777 152.907 12.6603 153.155 12.4899C153.202 12.4572 153.142 12.4309 153.022 12.4314C151.893 12.4364 151.383 12.4807 150.747 12.6289C150.083 12.7835 149.957 12.8514 149.545 13.274C149.292 13.5338 149.096 13.7613 149.11 13.7797C149.124 13.7981 149.574 13.6841 150.111 13.5267ZM149.259 17.8557C149.518 18.0367 149.956 18.2442 150.231 18.3168C150.506 18.3895 151.14 18.5565 151.64 18.688C153.317 19.1284 155.454 19.717 155.635 19.7879C155.797 19.8515 155.8 19.8465 155.666 19.7337C155.4 19.5095 152.012 18.2794 150.575 17.8848C149.801 17.6725 149.047 17.4598 148.9 17.4123C148.547 17.2987 148.661 17.4396 149.259 17.8557ZM148.802 26.4724L149.305 26.5881L148.91 26.3498C148.517 26.1128 148.187 26.0094 147.74 25.9836C147.384 25.9631 148.179 26.3288 148.802 26.4724ZM149.302 15.7409C149.436 15.6467 149.574 15.5738 149.61 15.5789C149.646 15.5839 149.845 15.5071 150.052 15.4082C150.26 15.3092 150.792 15.152 151.234 15.0589C152.997 14.6882 153.693 14.2616 154.467 13.078C154.74 12.6603 155.015 12.2037 155.078 12.0634C155.19 11.815 155.188 11.8119 154.991 11.9457C154.88 12.0213 154.809 12.1294 154.834 12.1859C154.858 12.2424 154.838 12.2545 154.788 12.2128C154.737 12.1711 154.484 12.2747 154.224 12.4429C153.964 12.6112 153.347 12.9793 152.853 13.2609C151.192 14.2072 149.101 15.6223 149.073 15.8191C149.066 15.8702 149.169 15.8351 149.302 15.7409ZM152.762 18.4234C153.379 18.6455 154.022 18.8868 154.19 18.9597C154.358 19.0328 154.513 19.0793 154.535 19.0633C154.587 19.0234 153.215 18.39 152.613 18.1765C151.979 17.9517 149.843 17.4041 149.423 17.3587C149.244 17.3394 149.67 17.4802 150.369 17.6717C151.068 17.8631 152.145 18.2014 152.762 18.4234ZM150.398 12.5981C150.68 12.4324 151.783 12.2926 152.652 12.3123C153.324 12.3276 153.627 12.2926 153.78 12.1816C153.988 12.0314 153.986 12.0298 153.521 12.0131C153.263 12.0039 152.757 11.9793 152.397 11.9587C151.413 11.9021 151.028 11.9774 150.633 12.3038C150.273 12.6004 150.167 12.7335 150.398 12.5981ZM153.495 20.9446C154.565 20.9923 155.375 20.9343 155.938 20.7695L156.264 20.6741L155.935 20.6721C155.753 20.671 154.749 20.5688 153.704 20.445C151.932 20.2353 149.747 20.1766 149.289 20.3265C149.047 20.4056 152.374 20.8945 153.495 20.9446ZM150.323 20.0596C150.766 20.0223 151.81 20.0938 153.492 20.2765C155.73 20.5196 157.043 20.5638 157.256 20.4031C157.35 20.3325 154.257 19.7925 153.29 19.7105C152.776 19.667 152.047 19.6543 151.669 19.6821C151.034 19.7288 149.587 20.0161 149.639 20.0851C149.651 20.1015 149.959 20.09 150.323 20.0596ZM151.375 9.72063C151.616 9.27197 151.702 9.28542 151.474 9.73616C151.36 9.9622 151.25 10.1447 151.229 10.1418C151.173 10.1339 151.209 10.0295 151.375 9.72063ZM152.082 8.12077C152.178 7.91744 152.375 7.60523 152.52 7.42699L152.782 7.10286L152.501 7.29419C152.212 7.49076 152.003 7.85217 151.942 8.25928C151.917 8.42359 151.958 8.38351 152.082 8.12077ZM150.992 22.9705C150.984 23.0251 150.899 22.9778 150.803 22.8654C150.675 22.7147 150.707 22.8823 150.926 23.5045C151.15 24.1428 151.386 24.5663 151.896 25.2457C152.266 25.7396 152.554 26.1764 152.535 26.2165C152.516 26.2567 152.548 26.2688 152.606 26.2433C152.664 26.2178 152.947 26.4207 153.234 26.6941C153.658 27.0969 154.706 27.8126 154.914 27.8419C154.975 27.8505 154.703 27.5175 154.476 27.305C153.987 26.8484 153.075 25.6566 152.56 24.8006C152.241 24.271 151.776 23.5978 151.528 23.3044C151.28 23.0111 151.119 22.7771 151.171 22.7843C151.356 22.8104 151.945 23.575 152.625 24.6725C153.542 26.1516 154.831 27.6738 155.117 27.6155C155.351 27.5678 154.723 26.4009 153.774 25.118C152.927 23.9725 152.708 23.7406 152.014 23.2477C151.578 22.9382 151.178 22.7046 151.123 22.7284C151.069 22.7523 150.919 22.6869 150.789 22.5831L150.554 22.3946L150.78 22.633C150.904 22.7641 150.999 22.916 150.992 22.9705ZM151.15 25.573C151.736 25.78 151.9 25.7796 151.523 25.5722C151.068 25.3215 150.577 25.166 150.597 25.2791C150.608 25.3371 150.857 25.4694 151.15 25.573ZM151.52 26.1022L152.183 26.2069L151.791 25.9887C151.576 25.8687 151.249 25.7251 151.065 25.6694C150.748 25.5735 150.734 25.5792 150.795 25.783C150.851 25.9726 150.935 26.0097 151.52 26.1022ZM151.729 22.7524C151.878 22.7711 151.871 22.7548 151.694 22.6691C151.392 22.5233 151.149 22.4891 151.37 22.6236C151.466 22.6817 151.628 22.7396 151.729 22.7524ZM151.523 26.7476C151.739 26.7416 152.07 26.7059 152.259 26.6684L152.603 26.6001L152.128 26.4255C151.867 26.3294 151.488 26.2276 151.285 26.1992L150.918 26.1475L151.025 26.4531C151.126 26.7411 151.154 26.758 151.523 26.7476ZM152.668 17.2058C152.746 17.1866 152.727 17.1616 152.62 17.142C152.523 17.1244 152.465 17.1385 152.492 17.1736C152.518 17.2086 152.597 17.2232 152.668 17.2058ZM153.216 17.3752C153.283 17.3585 153.234 17.3302 153.107 17.3123C152.979 17.2944 152.925 17.3082 152.984 17.3427C153.044 17.3774 153.148 17.392 153.216 17.3752ZM154.409 23.371L155.035 23.3819L154.397 23.2294C154.046 23.1455 153.509 23.0415 153.204 22.9983L152.649 22.9197L153.216 23.14C153.63 23.3008 153.952 23.3632 154.409 23.371ZM154.82 13.3378C155.639 13.2906 156.159 13.1637 156.803 12.8545L157.505 12.5174L156.988 12.5054C156.703 12.4989 156.138 12.4924 155.73 12.491L154.99 12.4885L154.763 12.8456C154.459 13.3258 154.462 13.3585 154.82 13.3378ZM155.612 23.3047C156.747 23.479 157.588 23.4576 158.971 23.2191L159.889 23.061L158.738 22.9518C157.671 22.8507 156.004 22.8131 154.168 22.8486L153.412 22.8632L154.004 23.006C154.33 23.0845 155.054 23.2189 155.612 23.3047ZM156.468 12.347C157.764 12.3414 157.792 12.3366 157.264 12.2169C156.733 12.0966 155.701 12.0297 155.335 12.0918C155.236 12.1086 155.149 12.1741 155.14 12.2376C155.127 12.3261 155.436 12.3515 156.468 12.347ZM154.826 23.8635C155.985 24.2296 156.609 24.3711 158.527 24.7028C159.329 24.8415 159.559 24.8584 159.367 24.7648C159.222 24.6938 158.788 24.4598 158.403 24.2447C157.758 23.8841 157.614 23.8406 156.548 23.6864C155.484 23.5323 153.404 23.3777 153.609 23.468C153.658 23.4895 154.206 23.6675 154.826 23.8635ZM155.602 16.4365C156.105 16.3006 156.932 16.0685 157.439 15.9209C158.744 15.5409 160.112 15.3697 161.43 15.4215C162.681 15.4706 162.599 15.3571 161.23 15.1455C159.566 14.8881 157.971 15.1777 155.882 16.1166C155.393 16.3366 154.906 16.5313 154.801 16.5491C154.696 16.567 154.627 16.6046 154.648 16.6326C154.669 16.6607 155.098 16.5724 155.602 16.4365ZM155.565 17.0277C157 16.9905 157.954 16.8643 158.817 16.5976C159.781 16.2998 161.08 15.7304 161.009 15.6367C160.787 15.3415 158.583 15.6698 156.549 16.301C156.142 16.4272 155.589 16.5891 155.32 16.6608C154.964 16.7553 154.908 16.79 155.113 16.7868C155.269 16.7846 155.481 16.763 155.583 16.739C155.709 16.7098 155.745 16.7261 155.693 16.7885C155.65 16.8398 155.38 16.9008 155.092 16.9242C154.26 16.9916 154.545 17.054 155.565 17.0277ZM154.704 17.5335C154.807 17.4547 154.798 17.4427 154.659 17.4743C154.563 17.4963 154.505 17.5409 154.529 17.5734C154.553 17.6059 154.632 17.588 154.704 17.5335ZM155.576 17.6978C155.711 17.596 155.515 17.5236 155.176 17.5499L154.814 17.5781L155.165 17.6605C155.358 17.7058 155.543 17.7226 155.576 17.6978ZM155.233 24.6206C155.851 24.8942 156.256 25.0093 156.932 25.1043C157.763 25.2211 159.236 25.2185 159.541 25.0998C159.615 25.0708 158.875 24.9088 157.895 24.74C156.701 24.534 155.789 24.3234 155.128 24.1007C153.912 23.6904 153.892 23.6884 154.184 24.0046C154.314 24.146 154.786 24.4232 155.233 24.6206ZM156.915 18.638C158.449 19.194 159.187 19.5064 160.393 20.1121C161.489 20.6617 161.665 20.7351 161.377 20.5226C161.283 20.4532 160.959 20.1982 160.656 19.9562C159.756 19.2379 159.024 18.8914 157.524 18.4745C156.771 18.2654 155.929 18.0426 155.653 17.9795L155.151 17.8647L155.488 18.0541C155.674 18.1582 156.316 18.421 156.915 18.638ZM155.339 18.2719C155.389 18.2789 155.719 18.4728 156.071 18.7027C157.125 19.3898 159.528 20.4593 160.472 20.6611C160.92 20.7567 161.29 20.8096 161.294 20.7787C161.312 20.6559 158.522 19.3791 157.255 18.9295C156.515 18.6671 155.742 18.365 155.536 18.2581C155.33 18.1513 155.181 18.1078 155.205 18.1615C155.228 18.2152 155.289 18.2648 155.339 18.2719ZM154.911 22.7135C154.989 22.6943 154.97 22.6693 154.863 22.6497C154.766 22.632 154.709 22.6462 154.735 22.6813C154.762 22.7163 154.841 22.7309 154.911 22.7135ZM156.644 22.7031C157.467 22.7151 158.558 22.7787 159.069 22.8445C159.814 22.9406 159.926 22.9388 159.638 22.8356C159.139 22.6568 158.139 22.5199 157.149 22.4948C156.331 22.4741 155.062 22.5665 155.12 22.6428C155.135 22.6639 155.822 22.691 156.644 22.7031ZM158.962 18.5893C160.144 19.1231 162.122 19.3804 164.519 19.3124C165.013 19.2983 165.691 19.2987 166.026 19.3132C166.786 19.3461 159.111 18.1722 157.211 17.9648L155.818 17.8128L157.057 18.0509C157.905 18.2137 158.507 18.384 158.962 18.5893ZM157.953 17.8593C158.275 17.8862 158.04 17.8378 157.429 17.7519C156.819 17.666 156.555 17.644 156.843 17.7032C157.131 17.7623 157.63 17.8326 157.953 17.8593ZM157.993 18.4378L158.271 18.4726L158.004 18.363C157.856 18.3027 157.549 18.2273 157.32 18.1955L156.904 18.1377L157.309 18.2703C157.533 18.3432 157.84 18.4186 157.993 18.4378ZM158.689 17.6752C160.449 17.8556 161.736 17.844 162.939 17.6368C163.431 17.5521 163.919 17.4947 164.023 17.5093C164.127 17.5239 164.196 17.4984 164.176 17.4526C164.115 17.3139 162.299 17.1615 161.091 17.1935C159.023 17.2484 157.952 17.3421 158.137 17.4521C158.274 17.5333 158.253 17.5435 158.03 17.5054C157.528 17.4197 157.242 17.4055 157.234 17.4658C157.229 17.4984 157.884 17.5926 158.689 17.6752ZM158.753 17.1575C158.956 17.1335 159.762 17.0874 160.545 17.0551C161.724 17.0066 162.241 17.034 163.57 17.2157C165.082 17.4224 165.151 17.4242 164.791 17.2479C164.236 16.9759 162.3 16.7173 161.29 16.7802C160.262 16.8442 158.302 17.0938 158.348 17.1549C158.368 17.1805 158.55 17.1817 158.753 17.1575ZM158.508 18.5927C158.585 18.5735 158.567 18.5485 158.46 18.5289C158.363 18.5112 158.305 18.5254 158.331 18.5605C158.358 18.5955 158.437 18.6101 158.508 18.5927ZM166.785 19.1573C166.871 19.1299 165.394 18.6159 164.554 18.3811C163.16 17.9911 162.397 17.9078 160.654 17.9546L159.092 17.9967L162.923 18.582C165.03 18.904 166.768 19.1629 166.785 19.1573ZM161.478 15.6093C161.546 15.5926 161.497 15.5643 161.369 15.5464C161.242 15.5286 161.187 15.5423 161.247 15.5768C161.307 15.6115 161.411 15.6261 161.478 15.6093ZM164.822 19.1578C165.051 19.1899 165.142 19.2211 165.025 19.2272C164.907 19.2331 164.72 19.2068 164.609 19.1687C164.497 19.1305 164.593 19.1256 164.822 19.1578Z" fill="#3C3F59"/>
<path d="M47.2827 39.7311V39.8521C47.2827 40.1209 47.3237 40.3762 47.4056 40.6182C47.4876 40.8601 47.6068 41.0715 47.7632 41.2523C47.9147 41.4356 48.1021 41.581 48.3256 41.6885C48.5491 41.7936 48.8024 41.8461 49.0854 41.8461C49.366 41.8461 49.6168 41.7924 49.8378 41.6848C50.0588 41.5773 50.2463 41.4331 50.4002 41.2523C50.5542 41.069 50.6709 40.8576 50.7503 40.6182C50.8323 40.3762 50.8745 40.1209 50.877 39.8521V39.7311C50.8745 39.4623 50.8323 39.2069 50.7503 38.965C50.6684 38.7231 50.5517 38.5105 50.4002 38.3272C50.2438 38.1464 50.0538 38.0022 49.8304 37.8947C49.6094 37.7871 49.3586 37.7334 49.078 37.7334C48.7949 37.7334 48.5429 37.7871 48.3219 37.8947C48.1009 38.0022 47.9134 38.1476 47.7595 38.3309C47.6055 38.5117 47.4876 38.7231 47.4056 38.965C47.3237 39.2069 47.2827 39.4623 47.2827 39.7311ZM47.7259 39.8521V39.7311C47.7259 39.5234 47.7557 39.3218 47.8153 39.1263C47.8749 38.9308 47.9618 38.7585 48.0761 38.6094C48.1903 38.4579 48.3306 38.337 48.4969 38.2465C48.6633 38.1561 48.857 38.1109 49.078 38.1109C49.2965 38.1109 49.4889 38.1561 49.6553 38.2465C49.8242 38.337 49.9669 38.4579 50.0836 38.6094C50.1954 38.7585 50.281 38.9308 50.3406 39.1263C50.4002 39.3218 50.4313 39.5234 50.4338 39.7311V39.8521C50.4313 40.0622 50.4002 40.265 50.3406 40.4605C50.2835 40.6536 50.1991 40.8259 50.0874 40.9774C49.9707 41.1289 49.8291 41.2499 49.6628 41.3403C49.4964 41.4283 49.3039 41.4722 49.0854 41.4722C48.8644 41.4722 48.6695 41.4283 48.5007 41.3403C48.3318 41.2499 48.1903 41.1289 48.0761 40.9774C47.9618 40.8283 47.8749 40.656 47.8153 40.4605C47.7557 40.265 47.7259 40.0622 47.7259 39.8521Z" fill="#3D405B"/>
<path d="M52.0912 41.7728H52.5382V39.064C52.5804 38.9369 52.64 38.8172 52.717 38.7047C52.7939 38.5899 52.8846 38.4909 52.9889 38.4078C53.1006 38.3199 53.2247 38.2502 53.3613 38.1989C53.4979 38.1451 53.6431 38.1183 53.7971 38.1183C53.9734 38.1158 54.1249 38.139 54.2515 38.1879C54.3806 38.2368 54.4886 38.3089 54.5755 38.4042C54.66 38.4995 54.722 38.6168 54.7618 38.7561C54.804 38.8954 54.8263 39.0554 54.8288 39.2362V41.7728H55.2721V39.2289C55.2721 38.9919 55.2423 38.7805 55.1827 38.5948C55.1231 38.4091 55.0349 38.2514 54.9182 38.1219C54.804 37.9948 54.6612 37.8983 54.4899 37.8323C54.321 37.7664 54.1261 37.7334 53.9051 37.7334C53.7387 37.7334 53.5811 37.7578 53.4321 37.8067C53.2856 37.8556 53.1515 37.9215 53.0298 38.0046C52.9255 38.0755 52.8312 38.1598 52.7467 38.2575C52.6623 38.3553 52.5891 38.4616 52.527 38.5764L52.5009 37.8067H52.0912V41.7728Z" fill="#3D405B"/>
<path d="M56.7768 36.1425V36.5347H58.2108V41.3806H56.7768V41.7728H60.0172V41.3806H58.654V36.1425H56.7768Z" fill="#3D405B"/>
<path d="M61.3581 37.8067V38.1989H62.7846V41.3806H61.3581V41.7728H64.5985V41.3806H63.2279V37.8067H61.3581ZM62.6543 36.7217C62.6543 36.8096 62.6803 36.8854 62.7325 36.9489C62.7846 37.0125 62.8703 37.0442 62.9895 37.0442C63.1062 37.0442 63.1919 37.0125 63.2465 36.9489C63.3011 36.8854 63.3284 36.8096 63.3284 36.7217C63.3284 36.6728 63.321 36.6276 63.3061 36.586C63.2912 36.5445 63.2688 36.5091 63.239 36.4797C63.2142 36.4504 63.1807 36.4284 63.1385 36.4138C63.0963 36.3967 63.0466 36.3881 62.9895 36.3881C62.9324 36.3881 62.8827 36.3967 62.8405 36.4138C62.7983 36.4284 62.7635 36.4504 62.7362 36.4797C62.7064 36.5115 62.6853 36.5482 62.6729 36.5897C62.6605 36.6313 62.6543 36.6752 62.6543 36.7217Z" fill="#3D405B"/>
<path d="M65.8351 41.7728H66.2821V39.064C66.3243 38.9369 66.3839 38.8172 66.4608 38.7047C66.5378 38.5899 66.6285 38.4909 66.7327 38.4078C66.8445 38.3199 66.9686 38.2502 67.1052 38.1989C67.2418 38.1451 67.387 38.1183 67.541 38.1183C67.7173 38.1158 67.8688 38.139 67.9954 38.1879C68.1245 38.2368 68.2325 38.3089 68.3194 38.4042C68.4039 38.4995 68.4659 38.6168 68.5057 38.7561C68.5479 38.8954 68.5702 39.0554 68.5727 39.2362V41.7728H69.0159V39.2289C69.0159 38.9919 68.9862 38.7805 68.9266 38.5948C68.867 38.4091 68.7788 38.2514 68.6621 38.1219C68.5479 37.9948 68.4051 37.8983 68.2338 37.8323C68.0649 37.7664 67.87 37.7334 67.649 37.7334C67.4826 37.7334 67.325 37.7578 67.176 37.8067C67.0295 37.8556 66.8954 37.9215 66.7737 38.0046C66.6694 38.0755 66.5751 38.1598 66.4906 38.2575C66.4062 38.3553 66.333 38.4616 66.2709 38.5764L66.2448 37.8067H65.8351V41.7728Z" fill="#3D405B"/>
<path d="M72.1372 41.8461C72.4724 41.8461 72.7667 41.7814 73.0199 41.6519C73.2732 41.5223 73.4756 41.3525 73.627 41.1423L73.3477 40.9334C73.2037 41.1093 73.0311 41.2438 72.83 41.3366C72.6288 41.4295 72.4041 41.4747 72.1558 41.4722C71.9398 41.4722 71.7424 41.4307 71.5636 41.3476C71.3873 41.2621 71.2371 41.1484 71.1129 41.0067C70.9863 40.8674 70.8882 40.7074 70.8187 40.5265C70.7491 40.3457 70.7094 40.1502 70.6995 39.94V39.8191H73.7164V39.5515C73.714 39.2998 73.6767 39.064 73.6047 38.844C73.5327 38.6217 73.4259 38.4274 73.2844 38.2612C73.1428 38.0975 72.969 37.9692 72.7629 37.8763C72.5568 37.781 72.3209 37.7334 72.0553 37.7334C71.802 37.7334 71.5661 37.7859 71.3476 37.891C71.1291 37.9936 70.9403 38.1341 70.7814 38.3125C70.6175 38.4934 70.4884 38.7072 70.3941 38.954C70.3022 39.1984 70.2563 39.4611 70.2563 39.7421V39.8997C70.2563 40.1661 70.3022 40.4178 70.3941 40.6548C70.4859 40.8894 70.6151 41.0959 70.7814 41.2743C70.9453 41.4502 71.1427 41.5895 71.3736 41.6922C71.6046 41.7948 71.8591 41.8461 72.1372 41.8461ZM72.0553 38.1109C72.2465 38.1109 72.4165 38.1476 72.5655 38.2209C72.7145 38.2918 72.8411 38.3871 72.9454 38.5068C73.0472 38.6265 73.1267 38.7658 73.1838 38.9247C73.2434 39.0835 73.2732 39.2436 73.2732 39.4049V39.4452H70.7181C70.7454 39.2546 70.7963 39.0774 70.8708 38.9137C70.9453 38.75 71.0397 38.6082 71.1539 38.4885C71.2681 38.3712 71.401 38.2795 71.5524 38.2136C71.7039 38.1451 71.8715 38.1109 72.0553 38.1109Z" fill="#3D405B"/>
<path d="M82.2458 37.7334C81.8808 37.7309 81.563 37.8067 81.2923 37.9606C81.0217 38.1121 80.8081 38.3235 80.6517 38.5948V38.4188L80.6256 37.8067H80.201V41.7728H80.6591L80.6554 39.2362C80.7051 39.053 80.7759 38.8953 80.8677 38.7634C80.9621 38.629 81.0726 38.5178 81.1992 38.4298C81.3308 38.3394 81.4786 38.2734 81.6425 38.2319C81.8088 38.1879 81.9864 38.1659 82.1751 38.1659C82.2843 38.1659 82.3911 38.172 82.4954 38.1842C82.5997 38.1965 82.7027 38.2136 82.8045 38.2356L82.8641 37.8103C82.7872 37.7859 82.6916 37.7676 82.5773 37.7554C82.4656 37.7407 82.3551 37.7334 82.2458 37.7334Z" fill="#3D405B"/>
<path d="M85.8811 41.8461C86.2163 41.8461 86.5106 41.7814 86.7638 41.6519C87.0171 41.5223 87.2195 41.3525 87.3709 41.1423L87.0916 40.9334C86.9476 41.1093 86.775 41.2438 86.5739 41.3366C86.3727 41.4295 86.148 41.4747 85.8997 41.4722C85.6837 41.4722 85.4863 41.4307 85.3075 41.3476C85.1312 41.2621 84.981 41.1484 84.8568 41.0067C84.7302 40.8674 84.6321 40.7074 84.5626 40.5265C84.493 40.3457 84.4533 40.1502 84.4434 39.94V39.8191H87.4603V39.5515C87.4579 39.2998 87.4206 39.064 87.3486 38.844C87.2766 38.6217 87.1698 38.4274 87.0283 38.2612C86.8867 38.0975 86.7129 37.9692 86.5068 37.8763C86.3007 37.781 86.0648 37.7334 85.7991 37.7334C85.5459 37.7334 85.31 37.7859 85.0915 37.891C84.873 37.9936 84.6842 38.1341 84.5253 38.3125C84.3614 38.4934 84.2323 38.7072 84.138 38.954C84.0461 39.1984 84.0001 39.4611 84.0001 39.7421V39.8997C84.0001 40.1661 84.0461 40.4178 84.138 40.6548C84.2298 40.8894 84.359 41.0959 84.5253 41.2743C84.6892 41.4502 84.8866 41.5895 85.1175 41.6922C85.3485 41.7948 85.603 41.8461 85.8811 41.8461ZM85.7991 38.1109C85.9903 38.1109 86.1604 38.1476 86.3094 38.2209C86.4584 38.2918 86.585 38.3871 86.6893 38.5068C86.7911 38.6265 86.8706 38.7658 86.9277 38.9247C86.9873 39.0835 87.0171 39.2436 87.0171 39.4049V39.4452H84.462C84.4893 39.2546 84.5402 39.0774 84.6147 38.9137C84.6892 38.75 84.7836 38.6082 84.8978 38.4885C85.012 38.3712 85.1448 38.2795 85.2963 38.2136C85.4478 38.1451 85.6154 38.1109 85.7991 38.1109Z" fill="#3D405B"/>
<path d="M91.5537 40.7611C91.5537 40.8564 91.5326 40.942 91.4904 41.0177C91.4507 41.091 91.3935 41.157 91.3191 41.2157C91.2048 41.3012 91.0695 41.3659 90.9131 41.4099C90.7566 41.4515 90.5903 41.4722 90.414 41.4722C90.2774 41.4722 90.1383 41.46 89.9968 41.4356C89.8578 41.4087 89.7311 41.3635 89.6169 41.3C89.4977 41.2389 89.3971 41.1558 89.3152 41.0507C89.2357 40.9456 89.1886 40.8149 89.1737 40.6585H88.7304C88.7379 40.8418 88.7851 41.0067 88.872 41.1533C88.9614 41.3 89.083 41.4234 89.237 41.5236C89.386 41.6262 89.5623 41.7056 89.7659 41.7618C89.9695 41.818 90.1855 41.8461 90.414 41.8461C90.6225 41.8461 90.8286 41.8205 91.0323 41.7692C91.2359 41.7178 91.4146 41.6384 91.5686 41.5309C91.6952 41.4429 91.7983 41.3317 91.8777 41.1973C91.9572 41.0629 91.9969 40.9102 91.9969 40.7391C91.9969 40.5583 91.956 40.4043 91.874 40.2773C91.7921 40.1478 91.6803 40.0378 91.5388 39.9474C91.3973 39.8594 91.2334 39.7861 91.0472 39.7274C90.8634 39.6663 90.6697 39.615 90.4661 39.5735C90.3072 39.5417 90.1545 39.5063 90.008 39.4672C89.8615 39.4256 89.7361 39.3743 89.6318 39.3132C89.5275 39.2546 89.448 39.1837 89.3934 39.1006C89.3413 39.0151 89.3152 38.9149 89.3152 38.8001C89.3152 38.6852 89.345 38.585 89.4046 38.4995C89.4667 38.4115 89.5486 38.3394 89.6504 38.2832C89.7497 38.2246 89.8627 38.1818 89.9894 38.1549C90.1185 38.1256 90.2513 38.1109 90.3879 38.1109C90.5319 38.1109 90.671 38.1292 90.8051 38.1659C90.9416 38.2026 91.0633 38.2551 91.1701 38.3235C91.2744 38.392 91.3588 38.4763 91.4233 38.5764C91.4904 38.6766 91.5252 38.7903 91.5276 38.9173H91.9746C91.9671 38.7292 91.9212 38.5618 91.8368 38.4152C91.7523 38.2685 91.6394 38.1439 91.4978 38.0413C91.3538 37.9411 91.1862 37.8653 90.995 37.814C90.8063 37.7602 90.6039 37.7334 90.3879 37.7334C90.1942 37.7334 90.0055 37.7578 89.8217 37.8067C89.6405 37.8556 89.4816 37.924 89.345 38.0119C89.201 38.1073 89.0855 38.2221 88.9986 38.3565C88.9142 38.4909 88.872 38.6437 88.872 38.8147C88.872 38.9955 88.9142 39.1495 88.9986 39.2766C89.0855 39.4012 89.1985 39.5038 89.3375 39.5845C89.4865 39.67 89.6467 39.7397 89.818 39.7934C89.9894 39.8472 90.1781 39.8948 90.3842 39.9364C90.5456 39.9706 90.702 40.0121 90.8535 40.061C91.0074 40.1099 91.1378 40.1685 91.2446 40.237C91.3414 40.298 91.4171 40.3726 91.4718 40.4605C91.5264 40.5461 91.5537 40.6463 91.5537 40.7611Z" fill="#3D405B"/>
<path d="M94.809 36.7913H94.3583V37.8067H93.2372V38.1696H94.3583V40.6548C94.3608 40.8723 94.3931 41.0568 94.4552 41.2083C94.5198 41.3598 94.6079 41.482 94.7196 41.5749C94.8314 41.6702 94.963 41.7386 95.1145 41.7802C95.2684 41.8241 95.4348 41.8461 95.6135 41.8461C95.7005 41.8461 95.7874 41.8437 95.8743 41.8388C95.9637 41.8339 96.0493 41.8241 96.1313 41.8095C96.1958 41.7997 96.2567 41.7875 96.3138 41.7728C96.3734 41.7582 96.4255 41.7398 96.4702 41.7178L96.4032 41.3843C96.3659 41.3916 96.3212 41.4001 96.2691 41.4099C96.2194 41.4173 96.1685 41.4246 96.1164 41.4319C96.0469 41.4393 95.9761 41.4466 95.9041 41.4539C95.8321 41.4588 95.7601 41.4613 95.688 41.4613C95.5664 41.4613 95.4522 41.4478 95.3454 41.4209C95.2386 41.394 95.1455 41.3488 95.066 41.2853C94.9866 41.2242 94.9245 41.1423 94.8798 41.0397C94.8351 40.9371 94.8115 40.8088 94.809 40.6548V38.1696H96.3026V37.8067H94.809V36.7913Z" fill="#3D405B"/>
<path d="M100.675 41.7728H101.152L101.148 41.7288C101.114 41.6067 101.084 41.4783 101.059 41.3439C101.037 41.2095 101.025 41.0751 101.025 40.9407V39.0237C101.023 38.8086 100.981 38.6204 100.899 38.4592C100.819 38.2979 100.711 38.1622 100.575 38.0523C100.436 37.9472 100.273 37.8678 100.087 37.814C99.9006 37.7602 99.7007 37.7334 99.4872 37.7334C99.2736 37.7334 99.0725 37.7627 98.8838 37.8213C98.6975 37.88 98.5337 37.9606 98.3921 38.0633C98.2506 38.1684 98.1376 38.2918 98.0532 38.4335C97.9688 38.5752 97.9228 38.7304 97.9154 38.899L98.3623 38.9027C98.3648 38.7781 98.3971 38.6669 98.4592 38.5691C98.5237 38.4689 98.6057 38.3846 98.705 38.3162C98.8068 38.2478 98.9235 38.1952 99.0551 38.1586C99.1867 38.1219 99.3245 38.1036 99.4685 38.1036C99.625 38.1036 99.7702 38.1244 99.9043 38.1659C100.041 38.205 100.159 38.2624 100.258 38.3382C100.357 38.4139 100.436 38.5092 100.493 38.6241C100.55 38.7365 100.58 38.8673 100.582 39.0163V39.4635H99.7069C99.4561 39.466 99.2165 39.4904 98.9881 39.5368C98.7596 39.5808 98.5597 39.6517 98.3884 39.7494C98.2146 39.8521 98.0755 39.9828 97.9712 40.1416C97.8694 40.3005 97.8185 40.4935 97.8185 40.7208C97.8185 40.8919 97.8533 41.047 97.9228 41.1863C97.9924 41.3232 98.0867 41.4405 98.2059 41.5382C98.3251 41.636 98.4666 41.7117 98.6305 41.7655C98.7944 41.8192 98.9694 41.8461 99.1557 41.8461C99.3047 41.8461 99.4474 41.8302 99.584 41.7985C99.7231 41.7692 99.8547 41.7252 99.9788 41.6665C100.1 41.6103 100.212 41.5419 100.314 41.4613C100.418 41.3782 100.509 41.2865 100.586 41.1863C100.591 41.289 100.6 41.3904 100.612 41.4906C100.627 41.5908 100.648 41.6848 100.675 41.7728ZM99.2041 41.4539C99.075 41.4539 98.9521 41.4368 98.8354 41.4026C98.7211 41.3659 98.6218 41.3134 98.5374 41.245C98.453 41.179 98.3859 41.0984 98.3363 41.003C98.2866 40.9077 98.2618 40.8002 98.2618 40.6805C98.2618 40.5339 98.294 40.4092 98.3586 40.3066C98.4257 40.2015 98.5163 40.1135 98.6305 40.0427C98.772 39.9547 98.9421 39.8936 99.1408 39.8594C99.3394 39.8252 99.5492 39.8069 99.7702 39.8044H100.582V40.6768C100.525 40.7941 100.451 40.9004 100.359 40.9957C100.267 41.091 100.161 41.1729 100.042 41.2413C99.923 41.3097 99.7926 41.3635 99.6511 41.4026C99.5095 41.4393 99.3605 41.4564 99.2041 41.4539Z" fill="#3D405B"/>
<path d="M105.216 41.7728H105.629V37.8067H105.182V40.5998C105.147 40.7294 105.095 40.8467 105.026 40.9517C104.959 41.0544 104.875 41.1423 104.776 41.2157C104.669 41.2938 104.545 41.3549 104.404 41.3989C104.262 41.4405 104.104 41.4613 103.931 41.4613C103.764 41.4613 103.619 41.4356 103.495 41.3843C103.373 41.333 103.273 41.256 103.193 41.1533C103.111 41.0531 103.05 40.9285 103.011 40.7795C102.971 40.6279 102.95 40.452 102.947 40.2516V37.8067H102.504V40.2443C102.507 40.5009 102.538 40.7281 102.597 40.9261C102.657 41.124 102.745 41.2902 102.862 41.4246C102.978 41.5614 103.121 41.6665 103.29 41.7398C103.461 41.8107 103.659 41.8461 103.882 41.8461C104.185 41.8461 104.447 41.785 104.668 41.6629C104.889 41.5382 105.065 41.3659 105.197 41.146L105.216 41.7728Z" fill="#3D405B"/>
<path d="M109.734 37.7334C109.369 37.7309 109.051 37.8067 108.78 37.9606C108.509 38.1121 108.296 38.3235 108.139 38.5948V38.4188L108.113 37.8067H107.689V41.7728H108.147L108.143 39.2362C108.193 39.053 108.264 38.8953 108.356 38.7634C108.45 38.629 108.56 38.5178 108.687 38.4298C108.819 38.3394 108.966 38.2734 109.13 38.2319C109.297 38.1879 109.474 38.1659 109.663 38.1659C109.772 38.1659 109.879 38.172 109.983 38.1842C110.087 38.1965 110.191 38.2136 110.292 38.2356L110.352 37.8103C110.275 37.7859 110.179 37.7676 110.065 37.7554C109.953 37.7407 109.843 37.7334 109.734 37.7334Z" fill="#3D405B"/>
<path d="M114.419 41.7728H114.896L114.892 41.7288C114.857 41.6067 114.828 41.4783 114.803 41.3439C114.781 41.2095 114.769 41.0751 114.769 40.9407V39.0237C114.767 38.8086 114.725 38.6204 114.643 38.4592C114.563 38.2979 114.455 38.1622 114.319 38.0523C114.18 37.9472 114.017 37.8678 113.831 37.814C113.645 37.7602 113.445 37.7334 113.231 37.7334C113.018 37.7334 112.816 37.7627 112.628 37.8213C112.441 37.88 112.278 37.9606 112.136 38.0633C111.994 38.1684 111.882 38.2918 111.797 38.4335C111.713 38.5752 111.667 38.7304 111.659 38.899L112.106 38.9027C112.109 38.7781 112.141 38.6669 112.203 38.5691C112.268 38.4689 112.35 38.3846 112.449 38.3162C112.551 38.2478 112.667 38.1952 112.799 38.1586C112.931 38.1219 113.068 38.1036 113.212 38.1036C113.369 38.1036 113.514 38.1244 113.648 38.1659C113.785 38.205 113.903 38.2624 114.002 38.3382C114.101 38.4139 114.18 38.5092 114.237 38.6241C114.294 38.7365 114.324 38.8673 114.326 39.0163V39.4635H113.451C113.2 39.466 112.96 39.4904 112.732 39.5368C112.504 39.5808 112.304 39.6517 112.132 39.7494C111.958 39.8521 111.819 39.9828 111.715 40.1416C111.613 40.3005 111.562 40.4935 111.562 40.7208C111.562 40.8919 111.597 41.047 111.667 41.1863C111.736 41.3232 111.831 41.4405 111.95 41.5382C112.069 41.636 112.211 41.7117 112.374 41.7655C112.538 41.8192 112.713 41.8461 112.9 41.8461C113.049 41.8461 113.191 41.8302 113.328 41.7985C113.467 41.7692 113.599 41.7252 113.723 41.6665C113.844 41.6103 113.956 41.5419 114.058 41.4613C114.162 41.3782 114.253 41.2865 114.33 41.1863C114.335 41.289 114.343 41.3904 114.356 41.4906C114.371 41.5908 114.392 41.6848 114.419 41.7728ZM112.948 41.4539C112.819 41.4539 112.696 41.4368 112.579 41.4026C112.465 41.3659 112.366 41.3134 112.281 41.245C112.197 41.179 112.13 41.0984 112.08 41.003C112.03 40.9077 112.006 40.8002 112.006 40.6805C112.006 40.5339 112.038 40.4092 112.103 40.3066C112.17 40.2015 112.26 40.1135 112.374 40.0427C112.516 39.9547 112.686 39.8936 112.885 39.8594C113.083 39.8252 113.293 39.8069 113.514 39.8044H114.326V40.6768C114.269 40.7941 114.195 40.9004 114.103 40.9957C114.011 41.091 113.905 41.1729 113.786 41.2413C113.667 41.3097 113.536 41.3635 113.395 41.4026C113.253 41.4393 113.104 41.4564 112.948 41.4539Z" fill="#3D405B"/>
<path d="M116.229 41.7728H116.676V39.064C116.719 38.9369 116.778 38.8172 116.855 38.7047C116.932 38.5899 117.023 38.4909 117.127 38.4078C117.239 38.3199 117.363 38.2502 117.499 38.1989C117.636 38.1451 117.781 38.1183 117.935 38.1183C118.112 38.1158 118.263 38.139 118.39 38.1879C118.519 38.2368 118.627 38.3089 118.714 38.4042C118.798 38.4995 118.86 38.6168 118.9 38.7561C118.942 38.8954 118.965 39.0554 118.967 39.2362V41.7728H119.41V39.2289C119.41 38.9919 119.38 38.7805 119.321 38.5948C119.261 38.4091 119.173 38.2514 119.056 38.1219C118.942 37.9948 118.799 37.8983 118.628 37.8323C118.459 37.7664 118.264 37.7334 118.043 37.7334C117.877 37.7334 117.719 37.7578 117.57 37.8067C117.424 37.8556 117.29 37.9215 117.168 38.0046C117.064 38.0755 116.969 38.1598 116.885 38.2575C116.801 38.3553 116.727 38.4616 116.665 38.5764L116.639 37.8067H116.229V41.7728Z" fill="#3D405B"/>
<path d="M122.297 36.7913H121.846V37.8067H120.725V38.1696H121.846V40.6548C121.849 40.8723 121.881 41.0568 121.943 41.2083C122.008 41.3598 122.096 41.482 122.207 41.5749C122.319 41.6702 122.451 41.7386 122.602 41.7802C122.756 41.8241 122.923 41.8461 123.101 41.8461C123.188 41.8461 123.275 41.8437 123.362 41.8388C123.451 41.8339 123.537 41.8241 123.619 41.8095C123.684 41.7997 123.744 41.7875 123.802 41.7728C123.861 41.7582 123.913 41.7398 123.958 41.7178L123.891 41.3843C123.854 41.3916 123.809 41.4001 123.757 41.4099C123.707 41.4173 123.656 41.4246 123.604 41.4319C123.535 41.4393 123.464 41.4466 123.392 41.4539C123.32 41.4588 123.248 41.4613 123.176 41.4613C123.054 41.4613 122.94 41.4478 122.833 41.4209C122.726 41.394 122.633 41.3488 122.554 41.2853C122.474 41.2242 122.412 41.1423 122.368 41.0397C122.323 40.9371 122.299 40.8088 122.297 40.6548V38.1696H123.79V37.8067H122.297V36.7913Z" fill="#3D405B"/>
</svg>
