<svg width="171" height="212" viewBox="0 0 171 212" fill="none" xmlns="http://www.w3.org/2000/svg">
<path d="M14.2473 196.026C13.759 196.026 13.5149 195.763 13.5149 195.237C13.5149 194.786 13.7966 193.998 14.36 192.871C14.8859 191.857 15.7686 190.542 17.0081 188.927C18.2476 187.274 19.8064 185.34 21.6844 183.124C22.4357 181.471 23.1305 179.781 23.7691 178.053C24.4076 176.325 24.9898 174.541 25.5157 172.7C26.2293 170.184 26.7552 168.156 27.0932 166.616C27.4689 165.038 27.6567 163.705 27.6567 162.615C27.6567 160.437 26.8303 159.347 25.1776 159.347C22.3605 159.347 19.4495 160.362 16.4447 162.39C14.4915 163.742 12.651 165.32 10.9232 167.123C9.19535 168.926 7.67412 170.804 6.35948 172.757C5.0824 174.672 4.10581 176.513 3.42971 178.278C3.0541 179.142 2.86629 179.912 2.86629 180.588C2.86629 181.79 3.52361 182.391 4.83825 182.391C5.51436 182.391 6.49095 182.166 7.76803 181.715C9.00754 181.264 10.3222 180.626 11.7119 179.799C13.1017 178.973 14.4727 178.034 15.8249 176.982C17.1771 175.931 18.3791 174.86 19.4308 173.771C19.9566 173.245 20.3886 172.982 20.7266 172.982C20.9144 172.982 21.0083 173.076 21.0083 173.264C21.0083 173.489 20.8393 173.771 20.5013 174.109C19.2993 175.311 17.872 176.55 16.2193 177.828C14.5666 179.067 12.8951 180.194 11.2049 181.208C9.51462 182.222 7.93705 183.011 6.47217 183.574C5.27021 184.063 4.14337 184.307 3.09166 184.307C1.36385 184.307 0.499939 183.481 0.499939 181.828C0.499939 180.776 0.800428 179.518 1.40141 178.053C2.49068 175.386 4.4063 172.419 7.14827 169.151C9.02633 166.972 11.0358 165 13.1768 163.235C15.3554 161.432 17.5527 160.005 19.7688 158.953C21.9849 157.901 24.0696 157.375 26.0228 157.375C28.7647 157.375 30.1357 159.028 30.1357 162.334C30.1357 163.573 29.9667 164.963 29.6286 166.503C29.2906 168.043 28.8211 169.808 28.2201 171.799C28.145 172.024 28.0698 172.268 27.9947 172.531C27.9196 172.757 27.8445 173.001 27.7694 173.264C27.5815 173.978 27.3562 174.748 27.0932 175.574C26.8303 176.363 26.511 177.227 26.1354 178.166C26.9618 177.302 27.7881 176.494 28.6145 175.743C29.4784 174.954 30.3423 174.203 31.2062 173.489C31.8072 173.001 32.5021 172.456 33.2908 171.855C34.0796 171.217 34.9811 170.522 35.9952 169.771C37.4226 168.681 38.6433 168.137 39.6575 168.137C40.1082 168.137 40.4462 168.268 40.6716 168.531C40.9345 168.757 40.9721 169.001 40.7843 169.264L39.3194 171.686C38.6057 172.888 38.0236 173.865 37.5728 174.616C37.1221 175.367 36.8216 175.893 36.6713 176.194C36.0704 177.245 35.4318 178.447 34.7557 179.799C34.0796 181.114 33.4974 182.372 33.0091 183.574C32.5584 184.776 32.333 185.753 32.333 186.504C32.333 187.331 32.6711 187.744 33.3472 187.744C33.9482 187.744 34.7933 187.387 35.8826 186.673C36.9718 185.922 38.0235 185.077 39.0377 184.138C41.7797 181.621 44.146 179.142 46.1368 176.701C48.1651 174.222 49.9304 171.386 51.4329 168.193C52.1465 166.728 52.5034 165.432 52.5034 164.305C52.5034 162.578 51.5268 161.695 49.5736 161.657C49.0853 161.657 48.8412 161.545 48.8412 161.319C48.8412 161.169 48.9351 161 49.1229 160.812C49.6487 160.286 50.3248 160.024 51.1512 160.024C52.0902 160.024 52.879 160.343 53.5175 160.981C54.1561 161.582 54.4753 162.465 54.4753 163.629C54.4753 164.869 54.0434 166.446 53.1795 168.362C52.5785 169.602 51.9587 170.766 51.3202 171.855C50.7192 172.945 50.0807 173.959 49.4046 174.898C48.5031 176.137 47.6204 177.264 46.7565 178.278C45.9302 179.255 44.9911 180.269 43.9394 181.321C42.8877 182.372 41.5731 183.65 39.9955 185.152C39.2818 185.828 38.4555 186.485 37.5165 187.124C36.615 187.762 35.7135 188.288 34.8121 188.701C33.9106 189.077 33.1218 189.265 32.4457 189.265C31.1686 189.265 30.5301 188.514 30.5301 187.011C30.5301 186.185 30.7555 185.096 31.2062 183.743C31.394 183.105 31.6569 182.391 31.995 181.602C32.333 180.814 32.7086 179.95 33.1218 179.011C33.3847 178.485 33.704 177.846 34.0796 177.095C34.4552 176.306 34.8872 175.442 35.3755 174.503C35.3755 174.503 35.6196 174.053 36.1079 173.151C36.5587 172.287 36.784 171.668 36.784 171.292C36.784 171.104 36.7277 171.01 36.615 171.01C36.5023 171.01 36.277 171.123 35.9389 171.348C33.873 172.813 32.1264 174.128 30.6991 175.292C29.2718 176.457 27.9196 177.715 26.6425 179.067C26.1167 179.668 25.572 180.325 25.0086 181.039C24.4452 181.753 23.863 182.523 23.262 183.349C22.0225 186.204 20.8018 188.683 19.5998 190.786C18.3978 192.927 17.3649 194.336 16.501 195.012C15.5995 195.688 14.8483 196.026 14.2473 196.026Z" fill="#3D405B"/>
<path d="M53.7552 176.813C53.2669 176.813 53.0228 176.701 53.0228 176.475C53.0228 176.288 53.1542 176.025 53.4172 175.687C53.7177 175.311 54.0557 174.992 54.4313 174.729C55.2577 174.203 55.8962 173.752 56.3469 173.377C56.8352 173.001 57.4174 172.362 58.0935 171.461C58.1311 171.536 58.1499 171.686 58.1499 171.912C58.1499 172.4 57.9433 173.001 57.5301 173.715C57.1545 174.391 56.7226 175.01 56.2343 175.574C55.746 176.137 55.314 176.494 54.9384 176.644C54.6004 176.757 54.206 176.813 53.7552 176.813ZM48.7408 190.617C48.4403 190.617 48.1586 190.504 47.8957 190.279C47.6328 190.054 47.5013 189.753 47.5013 189.378C47.5013 188.589 48.0459 187.143 49.1352 185.039L49.755 183.8C49.8301 183.725 49.924 183.537 50.0367 183.236C50.1869 182.936 50.3935 182.541 50.6564 182.053C50.9194 181.527 51.1259 181.058 51.2762 180.645C51.4264 180.231 51.5391 179.837 51.6142 179.461C51.6142 179.424 51.6894 179.349 51.8396 179.236C51.9898 179.123 52.1401 179.03 52.2903 178.954L52.6284 178.898C52.9289 178.898 53.173 178.954 53.3608 179.067C53.5862 179.18 53.6613 179.33 53.5862 179.518C53.3233 180.081 53.0979 180.57 52.9101 180.983C52.7223 181.396 52.572 181.753 52.4594 182.053H52.403C51.9898 182.992 51.633 183.894 51.3325 184.758C51.0696 185.584 50.9569 186.373 50.9945 187.124L51.0508 188.645C51.0133 189.021 50.8818 189.34 50.6564 189.603C50.5062 189.716 50.2996 189.847 50.0367 189.997C49.7737 190.185 49.4357 190.373 49.0225 190.561C48.985 190.598 48.8911 190.617 48.7408 190.617Z" fill="#3D405B"/>
<path d="M54.2834 192.871C53.8703 192.871 53.5134 192.739 53.2129 192.476C52.95 192.213 52.8373 191.894 52.8749 191.519C52.95 189.979 53.2317 188.495 53.72 187.068C54.2459 185.64 54.9971 183.931 55.9737 181.94C56.0864 181.678 56.1803 181.452 56.2554 181.264C56.3681 181.039 56.462 180.851 56.5371 180.701C57.3634 178.936 58.2086 177.245 59.0725 175.63C59.9364 174.015 60.8003 172.438 61.6642 170.898L62.453 169.489C63.3545 167.874 64.1432 166.578 64.8193 165.601C65.4954 164.587 66.1715 163.855 66.8476 163.404C67.7115 162.878 68.2374 162.615 68.4252 162.615C68.7257 162.615 69.0262 162.878 69.3267 163.404C69.5145 163.78 69.1389 164.7 68.1998 166.165C67.7115 166.916 67.0918 167.855 66.3406 168.982C65.6269 170.109 64.763 171.386 63.7488 172.813C63.561 173.076 63.2418 173.546 62.791 174.222C62.3779 174.86 61.8144 175.705 61.1008 176.757C60.3871 177.809 59.7674 178.767 59.2415 179.63C58.7156 180.457 58.2837 181.189 57.9456 181.828C57.2695 183.067 56.631 184.401 56.03 185.828C55.429 187.218 55.1286 188.307 55.1286 189.096C55.1286 189.81 55.4103 190.166 55.9737 190.166C56.8751 190.166 58.3212 189.396 60.312 187.856C60.5374 187.894 60.65 188.007 60.65 188.194C60.65 188.345 60.4622 188.608 60.0866 188.983C59.7486 189.321 59.3166 189.678 58.7908 190.054C58.3025 190.467 57.7203 190.936 57.0442 191.462L56.1427 192.138C55.5417 192.627 54.922 192.871 54.2834 192.871Z" fill="#3D405B"/>
<path d="M62.9768 192.871C62.5636 192.871 62.2068 192.739 61.9063 192.476C61.6434 192.213 61.5307 191.894 61.5682 191.519C61.6434 189.979 61.9251 188.495 62.4134 187.068C62.9392 185.64 63.6904 183.931 64.667 181.94C64.7797 181.678 64.8736 181.452 64.9487 181.264C65.0614 181.039 65.1553 180.851 65.2305 180.701C66.0568 178.936 66.9019 177.245 67.7658 175.63C68.6297 174.015 69.4936 172.438 70.3576 170.898L71.1463 169.489C72.0478 167.874 72.8366 166.578 73.5127 165.601C74.1888 164.587 74.8649 163.855 75.541 163.404C76.4049 162.878 76.9308 162.615 77.1186 162.615C77.4191 162.615 77.7195 162.878 78.02 163.404C78.2078 163.78 77.8322 164.7 76.8932 166.165C76.4049 166.916 75.7851 167.855 75.0339 168.982C74.3203 170.109 73.4564 171.386 72.4422 172.813C72.2544 173.076 71.9351 173.546 71.4844 174.222C71.0712 174.86 70.5078 175.705 69.7941 176.757C69.0805 177.809 68.4607 178.767 67.9349 179.63C67.409 180.457 66.977 181.189 66.639 181.828C65.9629 183.067 65.3244 184.401 64.7234 185.828C64.1224 187.218 63.8219 188.307 63.8219 189.096C63.8219 189.81 64.1036 190.166 64.667 190.166C65.5685 190.166 67.0146 189.396 69.0054 187.856C69.2307 187.894 69.3434 188.007 69.3434 188.194C69.3434 188.345 69.1556 188.608 68.78 188.983C68.4419 189.321 68.01 189.678 67.4841 190.054C66.9958 190.467 66.4136 190.936 65.7375 191.462L64.8361 192.138C64.2351 192.627 63.6153 192.871 62.9768 192.871Z" fill="#3D405B"/>
<path d="M73.3604 190.11C71.8955 190.11 71.1631 189.453 71.1631 188.138C71.1631 188.063 71.1631 187.931 71.1631 187.744C71.2006 187.556 71.2382 187.331 71.2758 187.068C71.6514 185.528 72.4026 184.044 73.5294 182.617C74.6938 181.152 76.0272 179.875 77.5297 178.785C78.0931 178.335 78.9946 178.109 80.2341 178.109C80.9477 178.109 81.5675 178.222 82.0934 178.447C82.6568 178.635 83.0512 178.936 83.2765 179.349C83.5019 179.724 83.6146 180.156 83.6146 180.645C83.6146 180.72 83.5958 180.832 83.5582 180.983C83.5582 181.133 83.5395 181.302 83.5019 181.49C83.577 181.452 83.6897 181.433 83.84 181.433C84.0278 181.433 84.2531 181.415 84.5161 181.377C84.779 181.339 85.0231 181.302 85.2485 181.264C85.5114 181.227 85.7744 181.208 86.0373 181.208H86.2627C86.6758 181.208 86.7134 181.377 86.3753 181.715C86.0748 182.016 85.6617 182.203 85.1358 182.279L83.2202 182.504C82.8446 183.556 82.1873 184.607 81.2482 185.659C80.3468 186.711 79.3326 187.631 78.2058 188.42C77.1165 189.171 76.0836 189.659 75.107 189.885C74.5436 190.035 73.9614 190.11 73.3604 190.11ZM80.5721 181.715C80.7975 181.715 81.0604 181.715 81.3609 181.715C81.699 181.678 82.0746 181.64 82.4878 181.602C82.5253 181.527 82.5441 181.358 82.5441 181.095C82.5441 180.419 82.2624 179.95 81.699 179.687C81.3985 179.499 81.0229 179.405 80.5721 179.405C80.0087 179.405 79.4265 179.593 78.8255 179.969C78.2621 180.307 77.6611 180.757 77.0226 181.321C77.8114 181.584 78.9946 181.715 80.5721 181.715ZM75.0506 188.138C75.4263 188.138 75.9521 187.969 76.6282 187.631C77.3419 187.255 78.0743 186.767 78.8255 186.166C79.5768 185.565 80.2529 184.927 80.8538 184.25C81.0417 184.063 81.2295 183.837 81.4173 183.574C81.6051 183.274 81.8117 182.973 82.037 182.673L80.6848 182.842C78.5814 183.142 76.7033 183.311 75.0506 183.349C74.2243 184.701 73.7172 185.828 73.5294 186.73C73.4919 187.218 73.6233 187.575 73.9238 187.8C74.2243 188.025 74.5999 188.138 75.0506 188.138Z" fill="#3D405B"/>
<path d="M96.5353 190.617C95.7466 190.504 95.2019 190.223 94.9014 189.772C94.6385 189.359 94.507 188.777 94.507 188.025C94.507 187.838 94.5258 187.537 94.5634 187.124C94.6385 186.711 94.7136 186.204 94.7887 185.603V185.152C94.7887 184.626 94.6948 184.326 94.507 184.25C94.4695 184.213 94.3756 184.194 94.2253 184.194C93.9624 184.194 93.4741 184.438 92.7605 184.927C92.7229 184.964 92.5163 185.152 92.1407 185.49C91.7651 185.791 91.2204 186.241 90.5068 186.842C88.4409 188.683 87.0324 189.509 86.2811 189.321C85.4924 189.133 85.098 188.608 85.098 187.744C85.098 186.917 85.3985 185.922 85.9994 184.758C86.4877 183.706 87.0887 182.692 87.8024 181.715C88.516 180.701 89.0794 180.044 89.4926 179.743C89.7931 179.555 90.0373 179.461 90.2251 179.461C90.4129 179.461 90.5819 179.537 90.7321 179.687C90.8073 179.762 90.8448 179.875 90.8448 180.025C90.8448 180.175 90.7509 180.344 90.5631 180.532C90.1875 180.908 89.8307 181.49 89.4926 182.279C89.1546 183.03 88.9856 183.706 88.9856 184.307C88.9856 184.382 88.9856 184.476 88.9856 184.589C89.0231 184.701 89.0607 184.833 89.0982 184.983C89.286 185.096 89.4926 185.152 89.718 185.152C90.1687 185.152 90.7885 184.927 91.5773 184.476C91.8778 184.288 92.2909 184.025 92.8168 183.687C93.3426 183.311 93.9812 182.842 94.7324 182.279C95.0329 182.053 95.371 181.94 95.7466 181.94C96.1597 181.94 96.4978 182.091 96.7607 182.391C97.0612 182.654 97.2114 183.03 97.2114 183.518C97.2114 183.593 97.1927 183.706 97.1551 183.856C97.1551 183.969 97.1363 184.119 97.0988 184.307C97.0236 184.607 96.9485 184.889 96.8734 185.152C96.7983 185.415 96.7419 185.678 96.7044 185.941C96.6668 186.091 96.648 186.298 96.648 186.561C96.648 186.786 96.648 187.049 96.648 187.349C96.648 188.176 97.08 188.589 97.9439 188.589C98.3195 188.589 98.6951 188.532 99.0707 188.42C99.4839 188.27 99.7844 188.101 99.9722 187.913C101.775 186.335 103.54 184.288 105.268 181.771L105.212 181.095C105.174 180.72 105.25 180.363 105.437 180.025C105.625 179.649 105.869 179.274 106.17 178.898C106.282 178.748 106.433 178.673 106.621 178.673C106.808 178.673 106.977 178.767 107.128 178.954C107.315 179.105 107.409 179.311 107.409 179.574C107.409 179.762 107.353 179.969 107.24 180.194C107.015 180.607 106.658 181.208 106.17 181.997C105.681 182.748 105.118 183.574 104.48 184.476C103.841 185.377 103.202 186.222 102.564 187.011C101.925 187.8 101.343 188.42 100.817 188.871V188.927C100.179 189.49 99.4463 189.922 98.62 190.223C97.7936 190.561 97.0988 190.692 96.5353 190.617Z" fill="#3D405B"/>
<path d="M123.44 173.264C123.064 173.264 122.651 173.17 122.2 172.982C121.149 172.682 120.078 172.043 118.989 171.067C117.824 170.052 116.829 168.85 116.003 167.461C115.176 166.033 114.688 164.644 114.538 163.291C114.5 163.141 114.482 162.953 114.482 162.728C114.482 162.503 114.482 162.24 114.482 161.939C114.482 157.056 117.486 154.615 123.496 154.615C126.539 154.615 129.882 155.103 133.525 156.08C137.206 157.056 141.432 158.352 146.202 159.967C147.066 160.268 147.855 160.549 148.568 160.812C149.319 161.038 149.996 161.244 150.597 161.432C152.061 161.845 153.339 162.052 154.428 162.052C155.667 162.052 156.55 161.808 157.076 161.319C157.639 160.831 157.921 160.286 157.921 159.685V159.46C157.921 159.009 158.052 158.784 158.315 158.784C158.616 158.784 158.935 159.009 159.273 159.46C159.348 159.535 159.386 159.686 159.386 159.911C159.386 160.775 158.879 161.582 157.865 162.334C156.851 163.085 155.592 163.46 154.09 163.46C153.864 163.46 153.658 163.46 153.47 163.46C153.32 163.46 153.17 163.442 153.019 163.404C151.554 163.216 149.939 162.878 148.174 162.39C146.446 161.864 144.305 161.169 141.751 160.305C138.183 159.103 135.215 158.183 132.849 157.545C130.483 156.906 128.285 156.587 126.257 156.587C124.041 156.587 122.163 157.075 120.623 158.052C119.12 159.028 118.012 160.625 117.299 162.841C117.186 163.179 117.13 163.554 117.13 163.967C117.13 164.681 117.299 165.489 117.637 166.39C117.975 167.254 118.425 168.099 118.989 168.926C119.552 169.752 120.153 170.466 120.792 171.067C121.43 171.63 122.031 171.968 122.595 172.081C123.496 172.268 123.947 172.569 123.947 172.982C123.947 173.17 123.778 173.264 123.44 173.264ZM124.51 193.04C123.646 193.04 123.252 192.476 123.327 191.35C123.628 188.983 124.379 186.448 125.581 183.743C126.182 182.354 127.046 180.569 128.173 178.391C129.337 176.175 130.764 173.583 132.455 170.616C133.619 168.512 134.558 166.878 135.272 165.714C136.023 164.55 136.812 163.686 137.638 163.122C138.352 162.634 139.028 162.39 139.666 162.39C140.267 162.39 140.417 162.634 140.117 163.122C139.516 163.949 138.784 165 137.92 166.277C137.093 167.517 136.136 168.982 135.046 170.672C133.619 172.926 132.229 175.217 130.877 177.546C129.525 179.875 128.379 182.016 127.44 183.969C126.501 185.884 125.881 187.424 125.581 188.589C125.468 189.04 125.412 189.415 125.412 189.716C125.412 190.354 125.675 190.673 126.201 190.673C127.027 190.673 128.529 189.828 130.708 188.138C130.783 188.063 130.877 188.025 130.99 188.025C131.14 188.025 131.215 188.119 131.215 188.307C131.215 188.532 131.14 188.72 130.99 188.871C130.839 189.021 130.652 189.171 130.426 189.321C130.201 189.509 129.938 189.716 129.637 189.941C129.337 190.129 129.074 190.298 128.849 190.448C128.623 190.598 128.473 190.711 128.398 190.786C127.91 191.124 127.496 191.406 127.158 191.631C126.82 191.894 126.557 192.101 126.37 192.251C125.618 192.777 124.999 193.04 124.51 193.04Z" fill="#3D405B"/>
<path d="M136.976 190.335C136.488 190.335 136.244 189.903 136.244 189.04C136.244 188.326 136.413 187.631 136.751 186.955C137.615 185.302 138.404 183.668 139.117 182.053C139.606 181.077 140.056 180.138 140.47 179.236C140.92 178.335 141.333 177.508 141.709 176.757C141.934 176.532 142.16 176.419 142.385 176.419C142.873 176.419 143.024 176.644 142.836 177.095C142.761 177.358 142.648 177.677 142.498 178.053C142.385 178.391 142.235 178.804 142.047 179.292C141.446 180.87 141.089 181.978 140.977 182.617C142.028 181.678 143.099 180.814 144.188 180.025C145.315 179.199 146.367 178.522 147.343 177.997C148.32 177.471 149.146 177.208 149.822 177.208C150.423 177.208 150.724 177.452 150.724 177.94C150.724 178.353 150.536 178.804 150.16 179.292C149.785 179.743 149.409 179.969 149.034 179.969C148.846 179.969 148.695 179.912 148.583 179.799C148.47 179.762 148.245 179.743 147.907 179.743C146.705 179.743 145.446 180.325 144.132 181.49C142.742 182.654 141.484 184.063 140.357 185.715C139.23 187.33 138.404 188.739 137.878 189.941C137.615 190.204 137.314 190.335 136.976 190.335Z" fill="#3D405B"/>
<path d="M151.302 189.772C150.513 189.772 149.819 189.565 149.218 189.152C148.241 188.401 147.753 187.274 147.753 185.772C147.753 184.269 148.278 182.673 149.33 180.983C150.382 179.292 151.978 177.734 154.119 176.306C154.495 176.043 155.002 175.912 155.64 175.912C156.467 175.912 157.199 176.137 157.838 176.588C158.514 177.039 158.777 177.621 158.627 178.335C158.364 179.499 157.781 180.532 156.88 181.433C156.016 182.335 154.983 183.142 153.781 183.856C152.617 184.532 151.415 185.19 150.175 185.828C150.138 185.941 150.1 186.053 150.063 186.166C150.063 186.279 150.063 186.391 150.063 186.504C150.063 187.03 150.232 187.5 150.57 187.913C150.945 188.288 151.452 188.476 152.091 188.476C152.579 188.476 152.992 188.401 153.33 188.251C153.931 188.025 154.42 187.819 154.795 187.631C155.209 187.443 155.678 187.161 156.204 186.786C156.73 186.41 157.443 185.847 158.345 185.096C158.758 184.795 159.002 184.645 159.077 184.645C159.303 184.645 159.378 184.814 159.303 185.152C158.927 185.753 158.27 186.41 157.331 187.124C156.429 187.838 155.415 188.457 154.288 188.983C153.199 189.509 152.204 189.772 151.302 189.772ZM150.513 184.307C150.814 184.307 151.434 184.006 152.373 183.405C153.312 182.804 154.194 182.147 155.021 181.433C156.448 180.119 157.162 179.105 157.162 178.391C157.162 178.203 157.105 178.034 156.993 177.884C156.88 177.696 156.711 177.602 156.486 177.602C155.772 177.602 154.57 178.447 152.88 180.138C151.715 181.264 150.927 182.654 150.513 184.307Z" fill="#3D405B"/>
<path d="M162.471 189.772C161.683 189.772 160.988 189.565 160.387 189.152C159.41 188.401 158.922 187.274 158.922 185.772C158.922 184.269 159.448 182.673 160.5 180.983C161.551 179.292 163.148 177.734 165.289 176.306C165.664 176.043 166.171 175.912 166.81 175.912C167.636 175.912 168.369 176.137 169.007 176.588C169.683 177.039 169.946 177.621 169.796 178.335C169.533 179.499 168.951 180.532 168.049 181.433C167.185 182.335 166.152 183.142 164.951 183.856C163.786 184.532 162.584 185.19 161.345 185.828C161.307 185.941 161.27 186.053 161.232 186.166C161.232 186.279 161.232 186.391 161.232 186.504C161.232 187.03 161.401 187.5 161.739 187.913C162.115 188.288 162.622 188.476 163.26 188.476C163.749 188.476 164.162 188.401 164.5 188.251C165.101 188.025 165.589 187.819 165.965 187.631C166.378 187.443 166.847 187.161 167.373 186.786C167.899 186.41 168.613 185.847 169.514 185.096C169.927 184.795 170.172 184.645 170.247 184.645C170.472 184.645 170.547 184.814 170.472 185.152C170.096 185.753 169.439 186.41 168.5 187.124C167.599 187.838 166.584 188.457 165.458 188.983C164.368 189.509 163.373 189.772 162.471 189.772ZM161.683 184.307C161.983 184.307 162.603 184.006 163.542 183.405C164.481 182.804 165.364 182.147 166.19 181.433C167.617 180.119 168.331 179.105 168.331 178.391C168.331 178.203 168.275 178.034 168.162 177.884C168.049 177.696 167.88 177.602 167.655 177.602C166.941 177.602 165.739 178.447 164.049 180.138C162.885 181.264 162.096 182.654 161.683 184.307Z" fill="#3D405B"/>
<path fill-rule="evenodd" clip-rule="evenodd" d="M132.792 1.11856C130.762 1.56848 128.473 2.26076 127.706 2.65688C126.939 3.05299 125.341 3.49748 124.154 3.64489C122.967 3.79231 120.06 4.38918 117.694 4.97159C112.929 6.1441 107.955 6.41767 101.395 5.86782C97.6705 5.55581 96.6355 5.6363 93.6696 6.46967C91.7861 6.99872 89.6777 7.43146 88.9845 7.43146C86.8643 7.43146 80.2201 11.0475 77.3311 13.7742C75.8746 15.1484 74.683 16.6555 74.683 17.1226C74.683 17.9144 74.7387 17.9216 75.5048 17.2289C75.9566 16.8206 77.0264 16.2508 77.8817 15.9632C78.7369 15.6756 80.3125 14.7355 81.3828 13.8746C83.154 12.4498 83.5085 12.3363 85.329 12.6089C86.4292 12.7735 88.9152 13.71 90.8534 14.6899C93.249 15.9008 94.9735 16.4719 96.238 16.4733C98.5362 16.4755 104.031 14.0175 107.112 11.6092C111.261 8.36476 112.167 7.89133 116.372 6.76766C118.687 6.14862 120.644 5.70548 120.722 5.78235C121.061 6.12103 116.302 9.06564 107.055 14.2377C85.6382 26.216 85.1769 26.386 76.3636 25.5196C73.179 25.2062 70.4543 25.0692 70.3085 25.2148C68.7293 26.792 76.8983 30.1423 83.9205 30.797C87.4234 31.1239 89.9973 30.334 93.359 27.9021C94.542 27.0462 95.5095 26.4945 95.5095 26.6754C95.5095 26.8567 94.4999 28.6804 93.2666 30.7274C92.0329 32.7749 90.4727 35.8488 89.7999 37.5585C89.1267 39.2682 88.3973 40.8992 88.179 41.1836C87.6199 41.9116 82.588 42.7581 79.8896 42.5781C76.437 42.3475 73.5634 42.9516 68.2268 45.0299C64.363 46.5352 62.6312 47.5209 59.8509 49.799C55.0146 53.7624 53.1529 54.9444 50.043 56.0274C48.5684 56.541 47.2744 57.2234 47.1671 57.544C47.0218 57.9794 47.4129 57.9424 48.7169 57.3961C49.7663 56.9566 51.0259 56.7707 51.8798 56.929C52.9102 57.1203 53.3711 57.0041 53.5635 56.5039C53.7089 56.125 54.0951 55.8148 54.4211 55.8148C55.5 55.8148 61.4582 52.7414 64.9788 50.3683C66.8848 49.0841 68.6764 47.9948 68.9602 47.9482C69.2441 47.9017 70.2913 47.3206 71.2874 46.6568C73.984 44.8598 76.7077 44.0568 80.0599 44.0703L83.0589 44.0825L80.116 45.3459C78.4974 46.0409 75.0783 47.9813 72.5175 49.6575C67.3638 53.0312 63.6114 54.9267 62.2324 54.8535L61.3269 54.8056L62.2324 54.5813C64.4445 54.0332 69.863 49.0416 69.087 48.2666C68.943 48.1228 68.4867 48.5926 68.0719 49.3102C66.9844 51.194 62.8164 54.0061 61.1127 54.0061C60.3421 54.0061 58.7068 54.5148 57.4785 55.1366C56.2502 55.7583 54.9327 56.267 54.5505 56.267C54.1689 56.267 53.8565 56.4841 53.8565 56.7495C53.8565 57.0185 54.2386 57.1112 54.7181 56.9593C55.1921 56.8087 56.6694 56.4913 58.0005 56.253C65.4134 54.9272 65.9313 54.7201 72.2581 50.5591C76.6534 47.6679 83.0584 44.5637 85.4159 44.1816C86.9774 43.9284 87.0345 43.965 86.7058 45.005C86.5166 45.6032 85.865 48.2295 85.2584 50.8408C84.6517 53.4522 84.0636 55.8542 83.9513 56.1788C83.8041 56.6052 82.9507 56.3235 80.8694 55.1614C79.2866 54.2774 77.4249 53.5539 76.7326 53.5539C75.3449 53.5539 69.1816 56.39 68.3228 57.4237C67.9601 57.8601 66.864 58.078 65.0068 58.0825C57.9493 58.0993 52.1505 60.7825 45.5997 67.0628C41.749 70.754 40.8942 71.359 39.0402 71.7049C36.038 72.2652 33.81 73.8713 32.9294 76.1105C32.0511 78.343 32.244 78.437 33.8331 76.5505C35.8343 74.1752 38.9764 73.0099 43.4432 72.9864C48.2048 72.9615 53.5106 72.0477 56.0727 70.8114C57.785 69.9853 57.9752 69.9658 57.7008 70.6455C57.0271 72.3158 56.151 78.3696 56.1361 81.4607C56.122 84.3447 55.9274 85.0791 54.4568 87.7913C53.5418 89.4784 52.4516 91.3676 52.0342 91.9893C51.0888 93.3961 50.6247 95.6782 51.1205 96.4795C51.3804 96.9 51.5941 96.6183 51.8223 95.5539C52.0025 94.7123 52.3479 93.7786 52.5897 93.4788C52.831 93.1786 52.8781 92.6893 52.6938 92.3913C52.4892 92.0608 52.5498 91.9681 52.8496 92.153C53.1199 92.3199 53.4685 92.2507 53.6242 91.9993C53.7795 91.7479 54.2929 91.3355 54.7651 91.0832C55.5683 90.654 55.5896 90.7191 55.0984 92.0983C54.4645 93.8785 54.3853 100.78 54.9404 105.894C55.385 109.993 56.0234 110.881 56.0501 107.438C56.0713 104.716 57.258 101.534 59.4253 98.3886C61.1544 95.879 62.9115 91.0407 62.9115 88.7879C62.9115 87.8193 63.2379 87.3219 64.2018 86.8245C67.7605 84.9864 71.6564 79.3106 73.7467 72.9195C74.8229 69.6294 77.7889 65.1361 81.4562 61.241C82.7438 59.8732 83.662 59.0217 83.4963 59.3486C82.7959 60.7323 81.4802 71.7967 81.4774 76.3289C81.4743 81.1469 81.434 81.3382 79.4002 86.1503C78.2593 88.8494 75.7089 93.7601 73.7322 97.0628C68.1557 106.38 66.0029 112.895 65.9191 120.703C65.8775 124.57 67.0447 131.032 67.8777 131.547C68.0643 131.661 68.3277 130.185 68.4631 128.264C68.7769 123.811 69.4248 122.004 72.6361 116.63C77.2085 108.977 79.0557 103.209 80.5995 91.7632C80.9015 89.5249 81.2728 87.5512 81.4245 87.3771C81.8555 86.8824 81.4996 94.6902 80.988 96.9633C80.7358 98.0825 79.3975 102.553 78.0139 106.898C72.1503 125.309 71.3091 136.047 75.143 143.552C75.6469 144.539 76.2083 145.347 76.3899 145.347C76.5719 145.347 76.7204 143.058 76.7208 140.26C76.7213 136.382 76.9363 134.527 77.6259 132.46L78.5305 129.746L78.6242 132.686C78.7818 137.618 79.7104 143.894 81.2927 150.719C82.1217 154.296 82.8783 157.3 82.9738 157.395C83.0689 157.49 83.278 155.48 83.4383 152.927C83.5981 150.375 84.1161 145.946 84.5887 143.086C85.9895 134.612 86.5795 127.383 86.3834 121.101L86.1992 115.196L87.1423 117.497C87.6607 118.763 88.9333 121.198 89.9701 122.909C91.0074 124.62 92.0944 126.756 92.386 127.657C93.2005 130.171 95.1754 133.881 95.381 133.283C95.4815 132.99 95.246 131.681 94.8576 130.375C94.4184 128.897 94.1513 126.247 94.1513 123.362C94.1513 119.215 93.9349 117.972 92.108 111.614C90.9843 107.703 89.3313 102.756 88.4349 100.621C87.5389 98.4845 86.2209 95.3526 85.5069 93.6601C83.5076 88.9217 83.1164 85.6416 83.4188 76.1598C83.5655 71.5571 83.8883 67.284 84.136 66.664C84.519 65.7054 84.5906 65.9111 84.615 68.0409C84.653 71.3916 85.7691 80.2199 86.6143 83.8596C87.4827 87.6004 90.4283 95.8274 92.333 99.8329C93.7216 102.753 93.7941 103.155 93.6139 106.927C93.4051 111.286 93.7139 111.749 94.5918 108.393C94.9024 107.205 96.0506 103.978 97.1435 101.221C98.2365 98.4646 99.3484 95.2088 99.6146 93.9861C99.8808 92.7635 100.193 85.4553 100.309 77.7456C100.425 70.0359 100.633 63.0163 100.772 62.1463L101.026 60.5641L101.716 61.8804C103.226 64.7585 108.211 79.1478 108.474 81.3907C108.805 84.201 108.255 87.4268 105.818 96.9633C104.243 103.129 103.998 104.798 103.784 110.834C103.593 116.195 103.711 118.643 104.321 122.025C104.75 124.407 105.257 126.355 105.447 126.355C105.638 126.355 105.908 124.778 106.048 122.851C106.189 120.923 106.643 118.431 107.057 117.311C107.472 116.192 108.292 113.445 108.882 111.207C109.471 108.969 109.953 107.544 109.952 108.042C109.951 109.235 115.115 124.968 115.513 124.985C115.683 124.993 115.765 124.466 115.695 123.816C115.626 123.165 116.083 120.367 116.711 117.598C118.342 110.415 118.295 103.654 116.578 98.3597C115.9 96.2679 114.663 93.5665 113.83 92.3565C112.108 89.8568 112.064 89.7411 111.186 85.4327C110.756 83.3233 110.715 82.5428 111.062 83.0931C114.154 87.9984 115.702 89.8722 119.801 93.6678C122.423 96.0969 125.823 98.8747 127.357 99.841C128.89 100.808 130.829 102.196 131.664 102.926C132.499 103.657 133.278 104.159 133.394 104.043C133.511 103.927 133.285 102.89 132.894 101.738C132.502 100.587 132.182 99.3703 132.182 99.0348C132.182 98.6992 131.336 96.735 130.301 94.6703C128.228 90.5346 128.054 89.0655 129.045 84.087L129.61 81.2482L131.664 82.5491C134.281 84.2068 134.752 84.1924 133.538 82.4908C131.787 80.0336 130.371 75.8876 130.371 73.2139C130.371 67.6642 127.519 58.891 124.286 54.4963C122.71 52.3547 118.542 48.4967 112.817 43.8809C111.006 42.4203 109.429 41.0719 109.313 40.8834C109.196 40.6953 109.713 38.135 110.462 35.1945C111.211 32.2539 111.951 28.7672 112.106 27.4454C112.261 26.1242 112.475 25.1289 112.58 25.2343C112.685 25.3392 113.052 26.4127 113.395 27.62C116.824 39.6882 118.502 43.7986 122.392 49.657C123.732 51.676 125.658 54.7522 126.672 56.4931C127.779 58.3936 129.547 60.5514 131.095 61.8935C132.514 63.1225 133.592 63.9365 133.491 63.7022C133.39 63.4675 132.671 62.0549 131.893 60.5627C129.832 56.6089 129.142 54.2584 128.589 49.3134C128.041 44.4009 127.107 41.2763 124.63 36.0627C123.278 33.2198 122.144 31.7312 118.749 28.3466C113.508 23.1203 113.043 22.2598 113.094 17.8791C113.146 13.4794 113.676 12.2689 116.015 11.2158C117.047 10.7509 119.814 9.10543 122.163 7.55852C126.837 4.48098 130.437 3.07288 134.786 2.62206C136.342 2.46063 137.615 2.15812 137.615 1.94967C137.615 1.32927 133.584 1.97318 129.466 3.25105C126.873 4.05593 124.467 5.22753 122.093 6.84181C118.177 9.50335 115.008 11.2298 114.665 10.8875C114.542 10.7645 115.078 10.3345 115.857 9.93247C116.635 9.53003 118.808 8.16038 120.684 6.88884C124.541 4.27569 128.522 2.67496 133.654 1.67474C135.583 1.29852 137.163 0.811981 137.163 0.593578C137.163 0.123309 137.42 0.0925603 132.792 1.11856ZM107.507 6.97837C109.001 7.15156 109.762 7.32475 109.197 7.36273C108.632 7.40026 106.696 7.97362 104.896 8.63652C101.892 9.74255 101.005 9.84882 94.1513 9.92704C90.0426 9.97407 85.9932 10.1653 85.1529 10.353C84.2329 10.5578 83.7285 10.5257 83.8861 10.2716C84.3515 9.51873 87.4868 8.45565 92.1139 7.4812C94.604 6.95712 97.0489 6.43757 97.5469 6.32678C98.4506 6.12556 102.369 6.38195 107.507 6.97837ZM110.415 8.22594C109.774 8.65913 108.348 9.75974 107.246 10.6713C106.145 11.5829 103.512 13.1737 101.395 14.2065C96.789 16.4534 95.338 16.4285 90.6429 14.0206C88.9619 13.1583 86.6696 12.202 85.549 11.8958C83.513 11.3392 83.5126 11.3388 84.8699 11.0213C85.6169 10.8468 89.5255 10.6795 93.555 10.6501C101.002 10.5958 102.226 10.3761 110.224 7.65665C111.391 7.26008 111.475 7.50969 110.415 8.22594ZM113.907 11.7163C113.443 12.0677 112.903 13.0277 112.708 13.8497L112.354 15.3446L112.307 13.8592C112.266 12.5185 112.173 12.4208 111.356 12.8576C110.858 13.124 110.45 13.2375 110.45 13.1104C110.45 12.8083 113.711 11.0905 114.299 11.0833C114.548 11.0801 114.372 11.365 113.907 11.7163ZM80.7159 13.6675C79.925 14.3412 78.5368 15.1203 77.6313 15.3993L75.9842 15.9058L77.1749 14.6645C78.2181 13.5771 80.3275 12.5542 81.7006 12.4701C81.9497 12.4547 81.5064 12.9933 80.7159 13.6675ZM111.375 20.1581C110.751 28.4271 108.57 37.3568 104.985 46.319C103.543 49.9252 102.119 53.4861 101.821 54.2322C101.289 55.5666 101.263 55.5263 100.2 51.7452C98.7073 46.4348 97.3205 38.5474 97.3205 35.3686C97.3205 33.9094 97.6397 31.1714 98.03 29.284C98.725 25.9248 98.8323 25.7475 103.123 20.8653C106.907 16.561 111.127 12.93 111.691 13.4934C111.786 13.5888 111.644 16.5881 111.375 20.1581ZM106.756 16.1554C105.426 17.4712 102.438 20.6591 100.117 23.2393C96.4223 27.3446 95.5023 28.7256 92.7505 34.2987C91.021 37.8013 88.8052 42.9051 87.8273 45.6408C85.8705 51.1126 85.4802 51.5566 86.9453 46.6441C87.7159 44.059 87.7784 43.4101 87.2849 43.0977C86.8131 42.7992 86.843 42.7138 87.4216 42.7084C88.1867 42.7011 88.8559 41.5336 90.5247 37.2939C91.4669 34.9001 93.2087 31.7715 96.2 27.1013C98.4805 23.5409 107.747 13.9103 109.02 13.7778C109.105 13.7692 108.087 14.8391 106.756 16.1554ZM103.433 17.1931C102.935 17.5662 101.305 18.6777 99.8107 19.6634C98.3166 20.6487 95.8717 22.3788 94.3777 23.5079C89.9855 26.826 89.1181 27.2786 85.7799 27.9939C83.4184 28.4999 81.5635 28.5845 78.5314 28.3249L74.4566 27.9759L77.8314 27.615C84.0857 26.9467 91.1477 24.1282 100.215 18.6817C103.846 16.5004 105.186 15.8809 103.433 17.1931ZM113.286 23.0317C113.685 23.7778 115.92 26.3213 118.253 28.6844C121.625 32.0979 122.836 33.6946 124.149 36.4565C126.334 41.0547 127.552 45.2451 128.072 49.9519C128.306 52.0744 128.808 54.7115 129.188 55.8126C129.568 56.9136 129.815 57.8777 129.737 57.9555C129.542 58.1499 127.22 52.8521 125.194 47.5874C124.265 45.1764 122.776 42.0224 121.883 40.5786C117.802 33.9749 114.45 27.8009 113.742 25.5797C113.317 24.2454 112.708 23.0534 112.389 22.9313C112.035 22.7957 111.827 21.9781 111.855 20.8355C111.898 19.0778 111.922 19.0462 112.232 20.3186C112.414 21.0647 112.888 22.2856 113.286 23.0317ZM98.0128 22.7419C95.0772 26.4742 90.1322 29.7448 86.6153 30.2806C85.2004 30.4963 78.0718 29.506 77.5924 29.0272C77.5222 28.9575 79.4369 28.8924 81.8464 28.8834C86.7434 28.8644 89.099 28.2657 91.4348 26.447C92.3063 25.7683 93.4559 24.9815 93.9892 24.698C94.5221 24.4145 96.0384 23.2623 97.3577 22.1377C98.677 21.0127 99.8333 20.0925 99.927 20.0925C100.02 20.0925 99.1592 21.2849 98.0128 22.7419ZM80.4243 26.7179C80.126 27.0159 73.5285 26.9544 72.3061 26.6428C69.6928 25.9759 71.2453 25.7606 75.8185 26.1554C78.4354 26.3815 80.5081 26.6347 80.4243 26.7179ZM114.978 26.6451C114.978 27.3012 117.662 31.2307 118.718 32.1196L119.732 32.9734L118.792 31.8461C118.274 31.2261 117.205 29.7172 116.415 28.4936C115.624 27.2695 114.978 26.4375 114.978 26.6451ZM97.5116 28.3448C97.3282 29.1529 97.0213 31.6458 96.8293 33.884L96.4807 37.9537L96.6315 33.2058C96.77 28.8449 97.081 26.8752 97.6311 26.8752C97.7488 26.8752 97.695 27.5368 97.5116 28.3448ZM93.5247 45.1886C91.3171 49.6177 86.2703 56.6857 85.7129 56.1291C85.3892 55.8062 87.2138 49.038 88.7355 44.9164C89.4852 42.8843 91.3673 38.5614 92.9175 35.3098L95.7359 29.3975L96.0039 40.2146L93.5247 45.1886ZM110.76 31.4821C110.615 31.8425 110.508 31.7353 110.486 31.2085C110.467 30.7319 110.573 30.4651 110.724 30.6152C110.874 30.7654 110.89 31.1556 110.76 31.4821ZM125.014 48.9593C126.233 52.0283 127.848 55.7619 128.603 57.2564C130.462 60.934 129.476 60.1684 127.155 56.1314C126.125 54.3407 124.214 51.2478 122.909 49.2582C119.602 44.2173 118.461 41.8212 116.771 36.3638C115.963 33.7565 115.201 31.3179 115.078 30.9449C114.955 30.5718 116.641 33.2171 118.826 36.8232C121.245 40.8164 123.664 45.5612 125.014 48.9593ZM110.307 33.2908C110.162 33.6512 110.055 33.544 110.033 33.0172C110.014 32.5406 110.121 32.2738 110.271 32.424C110.421 32.5741 110.438 32.9643 110.307 33.2908ZM109.123 37.7398C108.412 40.0233 108.339 40.7608 108.772 41.2957C109.182 41.8026 109.184 41.8904 108.78 41.6485C108.479 41.468 108.015 41.6787 107.727 42.1269C107.392 42.6496 107.277 42.6921 107.399 42.2494C108.835 37.0312 109.767 34.0975 109.881 34.4384C109.958 34.6695 109.617 36.1554 109.123 37.7398ZM97.2848 41.232C97.2653 41.9157 97.1458 42.22 97.0199 41.9075C96.8936 41.5951 96.6043 41.4545 96.3766 41.5951C95.7721 41.9677 95.8695 41.1664 96.5056 40.5311C97.2649 39.7728 97.3251 39.8271 97.2848 41.232ZM98.4905 50.8901L100.34 58.4004L99.5531 62.1947C99.1202 64.2815 98.0223 67.5765 97.1132 69.5168C94.312 75.4956 93.5989 78.9728 93.292 88.1458L93.0194 96.2851L92.233 90.4067C91.8002 87.1736 91.2365 82.4935 90.9798 80.0065C90.7235 77.5195 90.3201 74.0603 90.0838 72.3194C89.847 70.5785 89.6469 68.8395 89.6387 68.4551C89.6306 68.0708 88.7106 66.2394 87.5941 64.3855C86.1611 62.0061 85.5617 60.5162 85.5567 59.3192C85.5522 58.3244 85.7672 57.6236 86.0774 57.6236C86.3676 57.6236 86.4808 57.4992 86.3287 57.3468C86.1761 57.1949 87.3763 55.4449 88.9954 53.4585C90.6144 51.4716 92.7776 48.1576 93.8022 46.0938C95.165 43.3491 95.797 42.4805 96.1538 42.8603C96.4218 43.1461 97.4736 46.7595 98.4905 50.8901ZM111.711 44.8494C114.614 47.7068 116.784 51.1786 118.158 55.1687C118.65 56.5967 119.053 57.9179 119.053 58.1042C119.053 59.0172 116.769 57.7244 114.719 55.6502C113.457 54.3728 111.882 52.9656 111.221 52.5234C109.132 51.1257 106.918 42.2494 108.658 42.2494C108.884 42.2494 110.258 43.4192 111.711 44.8494ZM97.6203 44.1712C97.4948 44.4823 97.3921 44.2277 97.3921 43.6059C97.3921 42.9842 97.4948 42.7301 97.6203 43.0407C97.7461 43.3518 97.7461 43.8605 97.6203 44.1712ZM77.309 43.6421C74.2158 44.0952 71.4169 45.4454 65.4754 49.3514C60.8791 52.3728 54.4641 55.6679 54.0272 55.2315C53.8904 55.0954 54.2318 54.7413 54.7855 54.4456C55.3397 54.1494 57.2417 52.6894 59.0124 51.2003C62.6675 48.1273 63.7889 47.4934 69.4805 45.2831C74.4843 43.3396 74.8129 43.2582 77.6259 43.2614L79.8896 43.2641L77.309 43.6421ZM94.2369 46.2824C93.4124 47.9903 91.3311 51.1393 89.6116 53.2799C87.892 55.4201 86.6732 57.1714 86.9032 57.1714C87.4836 57.1714 91.8264 51.6322 93.8163 48.3538C95.2424 46.0039 96.3956 43.1302 95.898 43.1651C95.8088 43.1714 95.0613 44.5741 94.2369 46.2824ZM107.281 43.832C107.281 44.2051 107.084 44.5103 106.842 44.5103C106.601 44.5103 106.521 44.2051 106.664 43.832C106.808 43.459 107.005 43.1538 107.103 43.1538C107.201 43.1538 107.281 43.459 107.281 43.832ZM107.707 49.132C109.115 56.3335 109.699 58.5994 111.209 62.7282C113.208 68.1933 115.444 71.714 118.657 74.4565C120.866 76.3412 121.181 76.8354 121.668 79.1881C121.992 80.7535 122.88 82.82 123.866 84.3022L125.519 86.7892L121.947 83.1261C119.03 80.1367 117.48 78.9878 113.515 76.8783C110.843 75.4567 108.278 73.813 107.816 73.2252C107.353 72.6378 105.823 68.8363 104.415 64.7771L101.854 57.3975L103.927 52.4235C105.067 49.6878 106.107 47.0959 106.239 46.6631C106.641 45.3428 107.125 46.1558 107.707 49.132ZM119.875 50.7848C124.908 55.6602 126.782 59.0407 126.691 63.0755L126.635 65.5878L124.475 63.3016C122.929 61.6652 121.917 59.9862 120.917 57.3975C120.15 55.4079 118.804 52.7197 117.928 51.4237C117.053 50.1282 116.336 48.7649 116.336 48.3941C116.336 48.0238 115.979 47.5132 115.544 47.2596C115.108 47.0059 114.972 46.7925 115.242 46.7848C115.512 46.7775 117.597 48.5772 119.875 50.7848ZM113.416 60.3122C116.528 65.3093 120.87 70.683 124.776 74.371C126.484 75.9835 128.9 78.4085 130.145 79.7601C131.957 81.7266 132.119 82.016 130.959 81.2093C130.162 80.6554 127.921 79.4056 125.979 78.4325C118.407 74.6378 114.54 70.2105 111.642 62.0174C110.266 58.1286 108.576 51.5756 108.664 50.4723C108.678 50.3018 109.21 51.5761 109.848 53.3034C110.486 55.0312 112.091 58.1852 113.416 60.3122ZM85.8583 51.8302C85.7138 52.1906 85.6065 52.0834 85.5848 51.5566C85.5653 51.08 85.6722 50.8133 85.8225 50.9634C85.9728 51.1135 85.9891 51.5037 85.8583 51.8302ZM85.4055 54.0911C85.2611 54.4515 85.1538 54.3443 85.132 53.8176C85.1126 53.341 85.2194 53.0742 85.3697 53.2243C85.5201 53.3744 85.5364 53.7646 85.4055 54.0911ZM114.629 56.4171C115.733 57.7484 116.827 58.5636 117.79 58.7753C119.926 59.2437 125.156 64.4411 126.869 67.7976C128.306 70.6134 130.947 78.4519 130.582 78.8168C130.27 79.1275 122.517 71.3956 119.759 68.0237C115.963 63.3834 110.45 54.6817 110.45 53.3315C110.45 52.6378 113.142 54.6256 114.629 56.4171ZM120.416 57.6371C121.132 59.4504 121.196 59.8958 120.681 59.4685C120.307 59.1583 119.673 57.8533 119.273 56.5682C118.873 55.2835 118.447 53.927 118.325 53.5539C117.86 52.1232 119.517 55.3581 120.416 57.6371ZM76.3242 54.6704C74.4634 55.3328 74.4702 55.3278 72.9494 57.3455C72.4088 58.0631 71.971 58.3683 71.9765 58.0237C72.0018 56.4547 75.2055 53.9916 77.1731 54.0287C77.697 54.0387 77.3388 54.3091 76.3242 54.6704ZM100.866 56.7192C100.874 57.1347 100.728 57.047 100.49 56.4931C100.276 55.9957 100.107 55.1818 100.114 54.6844C100.125 53.9573 100.198 54.0016 100.49 54.9105C100.689 55.5322 100.858 56.3461 100.866 56.7192ZM61.1005 54.6957C61.1005 55.052 58.7462 55.875 58.4818 55.6109C58.3559 55.4852 58.7403 55.1872 59.337 54.9489C60.6124 54.4393 61.1005 54.3692 61.1005 54.6957ZM79.1526 55.5589C79.8435 55.9157 80.6525 56.5012 80.9509 56.8603C81.3923 57.3911 81.3013 57.5652 80.4651 57.7922C78.6876 58.2742 73.3248 58.6735 73.3248 58.3235C73.3248 58.1395 73.7363 57.4119 74.2393 56.7061C75.0316 55.5955 75.5862 55.3034 77.5353 54.972C77.7341 54.9381 78.4621 55.2021 79.1526 55.5589ZM84.9528 55.8998C84.8083 56.2602 84.701 56.1531 84.6793 55.6263C84.6598 55.1497 84.7667 54.8829 84.917 55.033C85.0673 55.1831 85.0836 55.5734 84.9528 55.8998ZM71.5138 57.1714C71.2471 57.6688 70.8011 58.0757 70.5222 58.0757C70.2433 58.0757 70.3841 57.6688 70.8346 57.1714C71.2851 56.674 71.7315 56.267 71.8262 56.267C71.9208 56.267 71.7804 56.674 71.5138 57.1714ZM83.738 57.7796C83.738 57.8655 83.2798 58.3231 82.7193 58.797L81.7006 59.6584L82.5631 58.641C83.3735 57.6851 83.738 57.4178 83.738 57.7796ZM83.9848 63.1709C83.5778 65.4666 83.0652 69.5837 82.8456 72.3194L82.4463 77.2934L82.5767 72.0933C82.6985 67.2541 84.1423 57.2519 84.5448 58.4587C84.6435 58.7545 84.3913 60.8747 83.9848 63.1709ZM69.4764 58.9801C69.3224 59.2288 68.4201 59.4323 67.4716 59.4323C64.0361 59.4323 57.7832 60.83 54.5931 62.3109C51.5932 63.7036 44.5375 68.815 44.9903 69.2677C45.1012 69.378 46.6455 68.31 48.4226 66.8942C51.5207 64.4253 56.649 61.7176 59.515 61.0375C61.3622 60.5989 60.8922 60.9385 57.9312 62.1811C55.2926 63.288 52.8351 64.7323 50.2345 66.7034C49.3629 67.364 47.4971 68.6378 46.0886 69.534C42.7383 71.6651 42.8705 70.6708 46.4146 67.0805C50.9159 62.5216 55.6181 59.8881 60.8021 59.0235C64.1919 58.4578 69.8169 58.4298 69.4764 58.9801ZM80.0531 59.4174C79.465 59.9062 79.1575 60.3131 79.369 60.3217C79.5809 60.3299 77.3733 62.8182 74.4639 65.8519C71.5541 68.8851 67.9171 72.9778 66.3818 74.9466C62.4506 79.9889 54.747 89.2762 54.4958 89.2762C54.043 89.2762 55.7988 86.4203 57.2231 84.8403C58.0503 83.9229 59.8065 81.3405 61.1258 79.1022C64.9466 72.6211 66.452 70.8774 71.2874 67.3369C75.7565 64.0644 79.8285 60.3366 78.9343 60.3366C78.6813 60.3366 77.8758 60.9697 77.1446 61.7434C76.4134 62.5171 74.185 64.3782 72.1929 65.8795C70.2008 67.3807 67.6894 69.4436 66.6118 70.4641L64.6523 72.3194L65.8421 69.6064C66.4968 68.1142 67.6219 65.8478 68.3427 64.57C69.0635 63.2921 69.5624 62.1223 69.4515 61.9699C69.3406 61.8175 69.3876 61.7967 69.5561 61.9233C69.7245 62.05 70.3054 61.7375 70.8478 61.2288C71.6518 60.4741 76.9042 59.0656 80.7322 58.5777C80.9464 58.5501 80.6408 58.9281 80.0531 59.4174ZM102.262 61.0149C102.276 61.2636 102.089 61.1619 101.848 60.7888C101.607 60.4158 101.42 59.8053 101.434 59.4323C101.46 58.716 102.215 60.1585 102.262 61.0149ZM118.532 61.1456C119.091 61.9292 119.782 62.7147 120.068 62.8915C120.355 63.0683 120.132 62.5718 119.573 61.7886C119.015 61.005 118.323 60.2195 118.037 60.0427C117.75 59.8659 117.973 60.3624 118.532 61.1456ZM68.2259 60.6495C67.7872 60.764 67.5427 61.043 67.6835 61.27C67.8238 61.4969 67.621 61.5612 67.2325 61.4124C66.4905 61.128 64.0035 62.4827 64.4499 62.9281C64.5921 63.0701 64.3549 63.4761 63.9229 63.8297C63.4489 64.2182 63.4068 64.338 63.817 64.1318C64.1905 63.9437 63.4774 64.7328 62.2324 65.8845C58.2228 69.5937 52.7726 71.9125 47.4976 72.1526C44.8078 72.2751 43.7167 71.5539 45.319 70.7119C45.9057 70.4036 48.016 68.9742 50.0081 67.5363C54.7792 64.0916 59.7332 61.6624 64.0434 60.6536C65.2155 60.3791 69.2785 60.3751 68.2259 60.6495ZM66.3338 62.3859C65.8503 62.7508 65.2391 63.0434 64.9756 63.0353C64.7116 63.0276 64.8918 62.7223 65.3749 62.357C65.8585 61.9921 66.4697 61.6995 66.7332 61.7077C66.9971 61.7154 66.8169 62.0206 66.3338 62.3859ZM66.3153 66.9317C65.1983 69.3974 64.2811 71.7551 64.277 72.1707C64.2706 72.82 60.2765 79.7601 59.2922 80.8322C59.1034 81.0375 59.0178 80.7323 59.1016 80.1539C59.8858 74.7449 60.4417 72.3298 61.5813 69.3785C62.7698 66.2996 63.1804 65.7393 65.4845 64.05C66.9007 63.0117 68.124 62.2263 68.2028 62.305C68.2816 62.3837 67.4318 64.4655 66.3153 66.9317ZM87.6498 65.7628C88.3425 67.1307 89.0429 69.369 89.2059 70.7368C89.3693 72.1047 89.7429 75.2586 90.0362 77.7456C91.0192 86.0816 92.4019 96.7286 92.6201 97.6416C92.8161 98.4614 92.7899 98.4722 92.3394 97.7546C91.4434 96.3275 87.8264 79.2541 86.9027 72.0933C86.4061 68.2385 85.894 64.4804 85.7654 63.742C85.458 61.9753 86.0566 62.617 87.6498 65.7628ZM129.28 69.3803L129.496 71.8673L128.619 69.8117C127.748 67.7678 127.474 66.1146 127.652 63.9541C127.792 62.2353 129.011 66.2959 129.28 69.3803ZM77.4783 64.5483C76.9368 65.1239 76.494 65.7388 76.494 65.9147C76.494 66.0906 75.9915 66.9932 75.3775 67.9202C74.7631 68.8476 73.6512 71.2925 72.9064 73.3536C69.9409 81.5584 67.4259 84.6093 61.2286 87.5218C59.0414 88.5491 56.6667 89.5611 55.9509 89.77C54.6846 90.1395 54.671 90.1259 55.4456 89.2713C55.883 88.7883 56.4494 88.5215 56.7034 88.6785C56.9578 88.8354 57.0298 88.744 56.8637 88.4759C56.6975 88.2073 57.3648 87.0606 58.3469 85.9278C59.3289 84.7947 61.5098 82.0834 63.1936 79.9021C68.8507 72.5745 77.0455 63.5019 78.0076 63.5019C78.2579 63.5019 78.0198 63.9731 77.4783 64.5483ZM88.012 82.9457C88.6612 86.0544 89.3856 89.2988 89.622 90.1553C89.8588 91.0117 89.9774 91.7867 89.8864 91.8776C89.6595 92.1042 87.5466 85.094 86.9281 82.0644C86.277 78.8743 85.0904 68.2602 85.1556 66.215C85.1837 65.3445 85.5721 67.4811 86.0194 70.9629C86.4663 74.4447 87.3632 79.837 88.012 82.9457ZM61.6687 67.6846C60.6835 68.9272 59.2705 74.1187 58.7797 78.2991C58.3998 81.5358 58.0281 82.962 57.3925 83.624C56.5322 84.5197 56.5264 84.5066 56.7591 82.2674C56.8886 81.0239 57.1118 78.5822 57.2553 76.8413C57.6474 72.0816 58.2676 70.2873 60.099 68.6116C61.7638 67.0886 62.4732 66.6694 61.6687 67.6846ZM99.6087 88.1603C99.1166 93.3242 98.2926 97.1695 97.1231 99.7592L96.4458 101.259L96.6582 99.6764C96.775 98.8059 96.9615 93.9224 97.0724 88.8241C97.2599 80.1888 98.4511 69.667 99.4783 67.5715C100.021 66.4651 100.124 82.7517 99.6087 88.1603ZM97.5016 72.3506C97.0244 74.4524 96.664 79.506 96.4069 87.6936C96.0651 98.5907 95.3923 104.919 94.4782 105.831C94.0766 106.233 93.5704 91.0384 93.8289 86.3443C93.9661 83.8532 94.3962 80.347 94.7842 78.5528C95.4362 75.5408 97.7891 68.7933 98.0848 69.0882C98.1554 69.1587 97.8928 70.6269 97.5016 72.3506ZM47.211 70.432C44.897 71.2858 44.9038 71.7054 47.2187 70.9177C48.3796 70.5229 49.329 70.1169 49.329 70.016C49.329 69.7411 48.8042 69.8442 47.211 70.432ZM39.0624 72.744C38.0224 73.0692 36.3925 73.803 35.4404 74.376L33.7091 75.4169L34.8161 74.1974C35.9534 72.9444 37.8278 72.1829 39.8212 72.1643C40.6258 72.1571 40.4062 72.3249 39.0624 72.744ZM111.011 77.5195C111.278 77.5195 111.108 77.0814 110.634 76.5464C109.998 75.8284 110.779 76.0952 113.616 77.5638C116.526 79.0701 118.398 80.4867 121.313 83.3884C123.432 85.4969 125.333 87.1704 125.538 87.1076C125.743 87.0447 125.78 87.2057 125.618 87.4661C125.457 87.7261 126.24 89.2188 127.357 90.7825C129.003 93.0868 131.73 98.5925 131.73 99.6135C131.73 99.9111 130.316 98.3827 129.45 97.1487C127.59 94.4976 122.489 89.321 118.731 86.2715C116.406 84.385 113.491 81.7049 112.251 80.3163C111.012 78.9276 109.998 77.9988 109.998 78.2521C109.998 79.1605 113.267 82.5012 118.072 86.5007C124.548 91.8916 130.98 99.0981 130.507 100.433C130.121 101.522 124.948 97.7266 119.435 92.3099C114.512 87.4738 113.548 86.271 111.651 82.6102C110.461 80.3117 109.61 78.2317 109.761 77.988C109.912 77.7443 109.7 76.9796 109.289 76.2887L108.544 75.0325L109.535 76.276C110.08 76.9597 110.744 77.5195 111.011 77.5195ZM123.384 80.0341C123.983 82.9832 123.87 83.7673 123.13 81.8207C122.234 79.4689 121.819 77.0086 122.348 77.1845C122.618 77.2749 123.085 78.5573 123.384 80.0341ZM125.673 82.1648L125.729 85.411L124.946 83.387C124.516 82.2738 124.047 80.6111 123.904 79.6918C123.658 78.1051 123.695 78.0432 124.631 78.4696C125.502 78.8666 125.624 79.2975 125.673 82.1648ZM109.468 80.9109C109.457 81.638 109.384 81.5937 109.092 80.6848C108.596 79.1388 108.596 77.95 109.092 79.1022C109.306 79.5996 109.475 80.4135 109.468 80.9109ZM128.766 82.6138C128.592 83.6421 128.198 85.2057 127.891 86.0888L127.331 87.6936L126.814 85.2975C126.529 83.9794 126.297 82.092 126.297 81.1031V79.3052L127.69 80.0246C129.003 80.7029 129.065 80.8507 128.766 82.6138ZM82.2363 81.6742C82.0918 82.0345 81.9845 81.9274 81.9628 81.4006C81.9433 80.924 82.0502 80.6572 82.2005 80.8073C82.3508 80.9575 82.3671 81.3477 82.2363 81.6742ZM82.6795 84.4153C82.5541 84.7264 82.4513 84.4718 82.4513 83.8501C82.4513 83.2283 82.5541 82.9742 82.6795 83.2848C82.8054 83.5959 82.8054 84.1046 82.6795 84.4153ZM110.629 94.1788L110.259 97.1894L109.958 94.0241C109.792 92.2832 109.656 89.638 109.654 88.1458L109.651 85.4327L110.325 88.3004C110.817 90.394 110.899 91.9816 110.629 94.1788ZM62.2369 89.3893C61.4586 93.2839 60.4997 95.6949 58.5832 98.5731L56.4938 101.711L56.7844 99.2242C56.9447 97.8564 57.2947 95.1383 57.5627 93.1844L58.0494 89.6312L59.9147 88.7856C62.4225 87.6479 62.5769 87.6882 62.2369 89.3893ZM109.5 99.9025C109.572 105.462 108.903 109.481 106.827 115.955L105.45 120.251L105.702 114.655C105.936 109.472 106.879 101.453 108.286 92.6689L108.866 89.0529L109.151 91.9907C109.308 93.6063 109.466 97.1668 109.5 99.9025ZM56.3751 96.6242C55.4751 102.834 55.433 102.969 55.2147 100.355C54.9956 97.728 55.37 92.7332 55.9147 91.019C56.0614 90.5577 56.4349 90.1806 56.745 90.1806C57.1779 90.1806 57.0918 91.6791 56.3751 96.6242ZM112.71 96.5111C113.685 102.315 113.943 105.402 114.241 114.824C114.366 118.765 114.292 119.879 113.973 118.894C113.73 118.148 112.901 115.91 112.128 113.92C110.833 110.584 110.722 109.863 110.7 104.65C110.678 99.4399 111.339 89.3603 111.633 90.4067C111.704 90.6554 112.188 93.4024 112.71 96.5111ZM76.5701 95.2256C75.579 97.5493 73.9093 101.358 72.8598 103.689C70.1587 109.689 68.4156 116.137 67.7758 122.493C67.1687 128.524 66.6797 128.054 66.5869 121.349C66.4742 113.192 68.9371 105.739 74.8469 96.3565C76.2319 94.158 77.4932 91.955 77.6499 91.4616C77.8065 90.9683 78.0334 90.6631 78.1533 90.7829C78.2738 90.9032 77.5611 92.9023 76.5701 95.2256ZM79.4301 95.4472C78.2851 102.303 77.0369 106.796 75.1765 110.755C73.0993 115.175 69.4931 121.021 69.0915 120.62C67.8256 119.355 70.8853 109.004 75.2825 99.6764C76.1617 97.8111 77.3108 95.2676 77.836 94.0241C78.5287 92.3841 78.7329 92.1358 78.5794 93.1198C78.4635 93.8659 78.2176 94.8656 78.0334 95.3418C77.8088 95.9224 77.8627 96.106 78.1973 95.8993C78.4716 95.7298 78.9466 94.4745 79.2526 93.1094C80.1364 89.1636 80.2437 90.574 79.4301 95.4472ZM82.4359 91.6579C81.9886 92.101 81.937 92.049 82.1824 91.4046C82.3526 90.9588 82.6057 90.7078 82.7451 90.8471C82.8846 90.9859 82.7456 91.3508 82.4359 91.6579ZM82.636 95.9536C82.057 96.5319 81.8419 95.5421 82.1969 93.9323L82.5758 92.2154L82.7343 93.9563C82.8212 94.914 82.7773 95.8125 82.636 95.9536ZM116.067 98.9701C116.962 102.121 117.242 104.137 117.242 107.445C117.242 111.509 116.237 118.569 115.463 119.951C115.273 120.29 114.995 116.629 114.846 111.817C114.663 105.951 114.267 101.437 113.644 98.1195C112.496 92.0092 112.499 91.9134 113.819 93.5258C114.41 94.2466 115.421 96.6965 116.067 98.9701ZM86.2431 103.006C87.8757 110.739 88.8772 114.485 90.9689 120.682C92.8664 126.304 93.1 127.198 92.2746 125.677C92.0048 125.179 91.001 123.45 90.0444 121.833C87.2056 117.037 86.0375 113.291 85.0487 105.815C84.553 102.066 84.0518 97.879 83.9354 96.5111L83.7235 94.0241L84.404 95.7714C84.778 96.7322 85.6061 99.988 86.2431 103.006ZM85.549 95.2021C85.549 95.4476 86.2567 97.1587 87.1219 99.004C89.7071 104.519 93.2168 116.767 93.5482 121.429C93.7053 123.641 93.7099 125.451 93.5586 125.451C92.9583 125.451 88.7142 111.214 87.4121 104.833C86.6519 101.109 85.7242 97.1962 85.3503 96.1376C84.9768 95.0795 84.8685 94.3357 85.1099 94.4849C85.3516 94.6337 85.549 94.9565 85.549 95.2021ZM107.138 96.144C106.993 96.5043 106.886 96.3972 106.864 95.8704C106.845 95.3938 106.951 95.127 107.102 95.2771C107.252 95.4272 107.268 95.8175 107.138 96.144ZM105.92 104.446C105.423 108.399 104.994 113.674 104.965 116.168C104.924 119.808 104.839 120.346 104.539 118.894C104.018 116.379 104.035 111.491 104.581 106.726C105.033 102.789 106.331 96.7684 106.658 97.0949C106.749 97.1853 106.416 100.493 105.92 104.446ZM84.6304 112.79C86.3939 118.82 86.2956 128.476 84.3542 139.926C83.954 142.286 83.499 145.539 83.3428 147.155C82.9887 150.819 82.5296 113.226 82.8153 103.972L83.0249 97.1894L83.3314 103.294C83.5415 107.467 83.9522 110.471 84.6304 112.79ZM81.8098 107.459C81.7215 109.023 81.6481 107.861 81.6472 104.876C81.6463 101.892 81.7188 100.612 81.8084 102.033C81.898 103.453 81.8985 105.895 81.8098 107.459ZM84.5566 108.042L84.5362 109.398L84.1908 108.042C84.0006 107.296 83.8467 105.77 83.8481 104.65L83.8512 102.616L84.2139 104.65C84.4131 105.77 84.5675 107.296 84.5566 108.042ZM80.4302 110.868C80.1097 119.429 79.187 125.593 77.3832 131.221C76.6452 133.525 76.0413 135.826 76.0413 136.335C76.0413 136.844 75.8724 137.157 75.6664 137.029C75.0425 136.644 75.5346 127.834 76.5026 122.059C78.1592 112.179 79.3296 107.108 79.7325 108.069C80.03 108.778 80.0929 108.686 80.0603 107.59C79.9874 105.128 80.1119 103.746 80.4067 103.746C80.5665 103.746 80.5769 106.951 80.4302 110.868ZM77.9052 110.822C77.6531 111.78 76.8888 115.616 76.207 119.346C75.1797 124.971 74.9628 127.467 74.9388 133.963C74.9112 141.353 74.8732 141.687 74.2701 139.842C73.3402 136.995 73.404 127.538 74.386 122.738C75.3861 117.847 77.903 108.62 78.1651 108.882C78.2747 108.991 78.1579 109.864 77.9052 110.822ZM84.9528 110.614C84.8083 110.974 84.701 110.867 84.6793 110.34C84.6598 109.864 84.7667 109.597 84.917 109.747C85.0673 109.897 85.0836 110.287 84.9528 110.614ZM82.0837 150.691C81.8944 151.085 80.4248 143.653 79.8643 139.468C78.9334 132.521 79.0475 128.807 80.447 120.477L81.7006 113.016L81.927 131.781C82.0515 142.102 82.1222 150.612 82.0837 150.691ZM68.6442 122.851C68.5188 123.162 68.416 122.907 68.416 122.285C68.416 121.664 68.5188 121.41 68.6442 121.72C68.7701 122.031 68.7701 122.54 68.6442 122.851ZM83.4084 141.277C83.4084 142.396 83.4967 142.854 83.6049 142.294C83.7127 141.735 83.7127 140.819 83.6049 140.26C83.4967 139.7 83.4084 140.158 83.4084 141.277Z" fill="#3D405B"/>
<path d="M39.7413 208.601C39.3775 208.601 39.0673 208.528 38.8108 208.383C38.5581 208.237 38.3513 208.046 38.1905 207.808C38.0297 207.575 37.911 207.309 37.8344 207.01C37.7616 206.707 37.7253 206.399 37.7253 206.085V205.844C37.7253 205.534 37.7616 205.229 37.8344 204.931C37.911 204.632 38.0297 204.362 38.1905 204.121C38.3513 203.887 38.5581 203.698 38.8108 203.552C39.0673 203.407 39.3756 203.334 39.7355 203.334C39.9844 203.334 40.2141 203.374 40.4247 203.455C40.6392 203.535 40.8268 203.646 40.9876 203.788C41.1446 203.933 41.269 204.106 41.3609 204.305C41.4567 204.5 41.5122 204.714 41.5275 204.948H42.1823C42.1669 204.63 42.0961 204.335 41.9697 204.063C41.8434 203.792 41.673 203.558 41.4586 203.363C41.2442 203.167 40.9895 203.016 40.6947 202.909C40.4037 202.798 40.084 202.742 39.7355 202.742C39.2837 202.742 38.8893 202.829 38.5523 203.001C38.2154 203.173 37.9359 203.403 37.7138 203.69C37.4879 203.977 37.3194 204.309 37.2083 204.684C37.0973 205.059 37.0399 205.446 37.036 205.844V206.085C37.0399 206.487 37.0973 206.876 37.2083 207.251C37.3194 207.623 37.4879 207.95 37.7138 208.233C37.9397 208.524 38.2211 208.756 38.5581 208.928C38.895 209.101 39.2894 209.187 39.7413 209.187C40.0591 209.187 40.3616 209.137 40.6487 209.037C40.9359 208.934 41.1905 208.79 41.4126 208.607C41.6347 208.427 41.8128 208.212 41.9468 207.963C42.0846 207.714 42.1631 207.445 42.1823 207.154H41.5275C41.5084 207.376 41.449 207.577 41.3494 207.757C41.2499 207.933 41.1197 208.084 40.9589 208.21C40.7942 208.337 40.6066 208.434 40.396 208.503C40.1892 208.568 39.971 208.601 39.7413 208.601Z" fill="#3D405B"/>
<path d="M43.934 205.873V206.062C43.934 206.483 43.9972 206.884 44.1236 207.263C44.2499 207.642 44.4337 207.973 44.675 208.256C44.9085 208.543 45.1976 208.771 45.5422 208.94C45.8869 209.104 46.2774 209.187 46.7139 209.187C47.1466 209.187 47.5333 209.102 47.8741 208.934C48.2149 208.766 48.504 208.54 48.7414 208.256C48.9788 207.969 49.1588 207.638 49.2813 207.263C49.4077 206.884 49.4727 206.483 49.4766 206.062V205.873C49.4727 205.452 49.4077 205.051 49.2813 204.672C49.1549 204.293 48.975 203.96 48.7414 203.673C48.5002 203.39 48.2072 203.164 47.8626 202.995C47.5219 202.827 47.1351 202.742 46.7024 202.742C46.2659 202.742 45.8773 202.827 45.5365 202.995C45.1957 203.164 44.9066 203.391 44.6692 203.679C44.4318 203.962 44.2499 204.293 44.1236 204.672C43.9972 205.051 43.934 205.452 43.934 205.873ZM44.6175 206.062V205.873C44.6175 205.547 44.6635 205.231 44.7554 204.925C44.8473 204.619 44.9813 204.349 45.1574 204.115C45.3336 203.878 45.5499 203.688 45.8064 203.547C46.063 203.405 46.3617 203.334 46.7024 203.334C47.0394 203.334 47.3361 203.405 47.5927 203.547C47.8531 203.688 48.0732 203.878 48.2532 204.115C48.4255 204.349 48.5576 204.619 48.6495 204.925C48.7414 205.231 48.7893 205.547 48.7931 205.873V206.062C48.7893 206.392 48.7414 206.709 48.6495 207.016C48.5614 207.318 48.4312 207.588 48.2589 207.826C48.079 208.063 47.8607 208.252 47.6042 208.394C47.3476 208.532 47.0509 208.601 46.7139 208.601C46.3731 208.601 46.0726 208.532 45.8122 208.394C45.5518 208.252 45.3336 208.063 45.1574 207.826C44.9813 207.592 44.8473 207.322 44.7554 207.016C44.6635 206.709 44.6175 206.392 44.6175 206.062Z" fill="#3D405B"/>
<path d="M51.3719 202.857H50.7516V209.072H51.4007L51.4064 204.339C51.437 204.224 51.4753 204.109 51.5213 203.995C51.5672 203.876 51.6285 203.771 51.7051 203.679C51.7931 203.579 51.9023 203.501 52.0325 203.443C52.1665 203.382 52.3311 203.349 52.5264 203.346C52.7102 203.342 52.8595 203.369 52.9744 203.426C53.0931 203.483 53.1869 203.56 53.2558 203.656C53.3248 203.755 53.3726 203.87 53.3994 204C53.4262 204.127 53.4396 204.255 53.4396 204.385L53.4454 209.072H54.0886L54.0944 204.391C54.0944 204.372 54.0944 204.354 54.0944 204.339C54.0944 204.324 54.0944 204.307 54.0944 204.287C54.1212 204.173 54.1576 204.06 54.2035 203.949C54.2533 203.838 54.3222 203.738 54.4103 203.65C54.4945 203.562 54.6017 203.491 54.7319 203.437C54.8659 203.38 55.0287 203.349 55.2201 203.346C55.4078 203.342 55.5609 203.372 55.6796 203.437C55.7983 203.499 55.8921 203.581 55.961 203.684C56.03 203.792 56.0759 203.914 56.0989 204.052C56.1257 204.186 56.1391 204.318 56.1391 204.448L56.1448 209.072H56.7939L56.7996 204.454C56.7996 204.22 56.7747 203.998 56.7249 203.788C56.6752 203.577 56.5928 203.395 56.478 203.242C56.3746 203.089 56.231 202.968 56.0472 202.88C55.8634 202.788 55.6413 202.742 55.3809 202.742C55.201 202.742 55.0363 202.767 54.887 202.817C54.7377 202.863 54.6037 202.924 54.485 203.001C54.3777 203.074 54.282 203.158 54.1978 203.254C54.1135 203.349 54.0427 203.451 53.9853 203.558C53.947 203.447 53.8953 203.344 53.8302 203.248C53.7689 203.148 53.6943 203.064 53.6062 202.995C53.5028 202.915 53.3803 202.853 53.2386 202.811C53.0969 202.765 52.9323 202.742 52.7447 202.742C52.4039 202.75 52.1224 202.829 51.9003 202.978C51.6821 203.123 51.5117 203.317 51.3892 203.558L51.3719 202.857Z" fill="#3D405B"/>
<path d="M58.4365 211.461H59.12V208.319C59.2119 208.442 59.3172 208.553 59.4359 208.653C59.5584 208.752 59.6886 208.838 59.8265 208.911C59.9949 208.999 60.1787 209.066 60.3778 209.112C60.5769 209.162 60.7818 209.187 60.9924 209.187C61.4098 209.187 61.7716 209.099 62.0779 208.923C62.3881 208.746 62.6408 208.513 62.8361 208.222C63.0352 207.931 63.1845 207.594 63.2841 207.211C63.3875 206.828 63.4391 206.434 63.4391 206.028V205.907C63.4353 205.474 63.3798 205.059 63.2726 204.661C63.1692 204.259 63.0065 203.91 62.7844 203.615C62.5814 203.344 62.3306 203.131 62.032 202.978C61.7333 202.821 61.383 202.742 60.9809 202.742C60.7665 202.742 60.5616 202.769 60.3663 202.823C60.1711 202.873 59.9911 202.945 59.8265 203.041C59.681 203.122 59.5469 203.219 59.4244 203.334C59.3019 203.445 59.1927 203.571 59.097 203.713L59.074 202.857H58.4365V211.461ZM62.7499 205.907V206.028C62.7461 206.349 62.7078 206.667 62.635 206.981C62.5661 207.295 62.4532 207.573 62.2962 207.814C62.143 208.048 61.9458 208.237 61.7046 208.383C61.4672 208.528 61.1781 208.601 60.8373 208.601C60.6459 208.601 60.4602 208.576 60.2802 208.526C60.1002 208.473 59.9337 208.4 59.7805 208.308C59.6388 208.22 59.5106 208.111 59.3957 207.981C59.2808 207.85 59.1889 207.705 59.12 207.544V204.517C59.1927 204.337 59.2846 204.176 59.3957 204.035C59.5106 203.889 59.6427 203.765 59.792 203.661C59.9375 203.562 60.0964 203.485 60.2687 203.432C60.4448 203.374 60.6306 203.346 60.8258 203.346C61.159 203.346 61.4423 203.413 61.6759 203.547C61.9095 203.681 62.1047 203.855 62.2617 204.069C62.4302 204.322 62.5527 204.609 62.6293 204.931C62.7097 205.252 62.7499 205.578 62.7499 205.907Z" fill="#3D405B"/>
<path d="M69.7513 209.072H70.4865L70.4807 209.003C70.4271 208.811 70.3812 208.61 70.3429 208.4C70.3084 208.189 70.2912 207.979 70.2912 207.768V204.764C70.2874 204.427 70.2223 204.132 70.0959 203.88C69.9734 203.627 69.8068 203.414 69.5962 203.242C69.3818 203.077 69.131 202.953 68.8438 202.869C68.5567 202.785 68.2484 202.742 67.9191 202.742C67.5898 202.742 67.2797 202.788 66.9887 202.88C66.7015 202.972 66.4488 203.099 66.2305 203.259C66.0123 203.424 65.838 203.617 65.7079 203.839C65.5777 204.062 65.5068 204.305 65.4953 204.569L66.1846 204.575C66.1884 204.379 66.2382 204.205 66.3339 204.052C66.4335 203.895 66.5598 203.763 66.713 203.656C66.87 203.548 67.0499 203.466 67.2529 203.409C67.4558 203.351 67.6683 203.323 67.8904 203.323C68.1316 203.323 68.3556 203.355 68.5624 203.42C68.773 203.481 68.9549 203.571 69.108 203.69C69.2612 203.809 69.3818 203.958 69.4699 204.138C69.5579 204.314 69.6039 204.519 69.6077 204.753V205.453H68.258C67.8713 205.457 67.5018 205.496 67.1495 205.568C66.7972 205.637 66.489 205.748 66.2248 205.901C65.9567 206.062 65.7423 206.267 65.5815 206.516C65.4245 206.765 65.346 207.067 65.346 207.423C65.346 207.691 65.3996 207.935 65.5068 208.153C65.614 208.367 65.7595 208.551 65.9433 208.704C66.1271 208.857 66.3454 208.976 66.5981 209.06C66.8508 209.145 67.1208 209.187 67.4079 209.187C67.6377 209.187 67.8579 209.162 68.0684 209.112C68.2829 209.066 68.4858 208.997 68.6773 208.905C68.8649 208.817 69.0372 208.71 69.1942 208.584C69.355 208.453 69.4948 208.31 69.6135 208.153C69.6211 208.314 69.6345 208.473 69.6537 208.63C69.6766 208.787 69.7092 208.934 69.7513 209.072ZM67.4826 208.572C67.2835 208.572 67.094 208.545 66.914 208.492C66.7379 208.434 66.5847 208.352 66.4545 208.245C66.3243 208.141 66.2209 208.015 66.1444 207.866C66.0678 207.716 66.0295 207.548 66.0295 207.36C66.0295 207.131 66.0793 206.935 66.1788 206.774C66.2822 206.61 66.422 206.472 66.5981 206.361C66.8164 206.223 67.0786 206.127 67.385 206.074C67.6913 206.02 68.0148 205.991 68.3556 205.988H69.6077V207.355C69.5197 207.538 69.4048 207.705 69.2631 207.854C69.1214 208.004 68.9587 208.132 68.7749 208.239C68.5911 208.346 68.3901 208.43 68.1718 208.492C67.9536 208.549 67.7238 208.576 67.4826 208.572Z" fill="#3D405B"/>
<path d="M72.5427 209.072H73.2319V204.827C73.297 204.628 73.3889 204.441 73.5076 204.264C73.6263 204.085 73.7661 203.929 73.9269 203.799C74.0992 203.661 74.2906 203.552 74.5012 203.472C74.7118 203.388 74.9358 203.346 75.1732 203.346C75.4451 203.342 75.6787 203.378 75.8739 203.455C76.073 203.531 76.2396 203.644 76.3736 203.794C76.5038 203.943 76.5995 204.127 76.6608 204.345C76.7259 204.563 76.7604 204.814 76.7642 205.097V209.072H77.4477V205.086C77.4477 204.714 77.4017 204.383 77.3098 204.092C77.2179 203.801 77.082 203.554 76.902 203.351C76.7259 203.152 76.5057 203.001 76.2415 202.898C75.9812 202.794 75.6806 202.742 75.3398 202.742C75.0832 202.742 74.8401 202.781 74.6104 202.857C74.3844 202.934 74.1777 203.037 73.99 203.167C73.8292 203.279 73.6837 203.411 73.5535 203.564C73.4234 203.717 73.3104 203.884 73.2147 204.063L73.1745 202.857H72.5427V209.072Z" fill="#3D405B"/>
<path d="M79.9346 211.582C80.1988 211.582 80.4324 211.538 80.6353 211.45C80.8421 211.362 81.024 211.245 81.181 211.099C81.338 210.958 81.4739 210.797 81.5888 210.617C81.7036 210.441 81.8032 210.259 81.8874 210.071L85.0981 202.857H84.317L82.2895 207.59L82.0712 208.136L81.8472 207.579L79.7106 202.857H78.9352L81.7324 208.923L81.3073 209.83C81.2461 209.956 81.1733 210.087 81.0891 210.221C81.0048 210.358 80.9053 210.481 80.7904 210.588C80.6755 210.699 80.5454 210.789 80.3999 210.858C80.2544 210.931 80.0935 210.967 79.9174 210.967C79.8523 210.967 79.7757 210.961 79.6877 210.95C79.5996 210.942 79.5134 210.935 79.4292 210.927L79.3488 211.507C79.4292 211.522 79.523 211.538 79.6302 211.553C79.7413 211.572 79.8427 211.582 79.9346 211.582Z" fill="#3D405B"/>
<path d="M98.0728 207.487C98.0728 207.636 98.0402 207.77 97.9751 207.889C97.9139 208.004 97.8258 208.107 97.7109 208.199C97.5348 208.333 97.3261 208.434 97.0849 208.503C96.8436 208.568 96.5871 208.601 96.3152 208.601C96.1046 208.601 95.8902 208.582 95.672 208.543C95.4575 208.501 95.2623 208.43 95.0861 208.331C94.9023 208.235 94.7472 208.105 94.6209 207.94C94.4984 207.776 94.4256 207.571 94.4026 207.326H93.7192C93.7306 207.613 93.8034 207.871 93.9374 208.101C94.0753 208.331 94.2629 208.524 94.5003 208.681C94.73 208.842 95.0019 208.967 95.3159 209.055C95.6298 209.143 95.963 209.187 96.3152 209.187C96.6369 209.187 96.9547 209.147 97.2687 209.066C97.5826 208.986 97.8583 208.861 98.0957 208.693C98.291 208.555 98.4499 208.381 98.5725 208.17C98.695 207.96 98.7562 207.72 98.7562 207.452C98.7562 207.169 98.6931 206.928 98.5667 206.728C98.4404 206.526 98.268 206.353 98.0498 206.212C97.8315 206.074 97.5788 205.959 97.2916 205.867C97.0083 205.771 96.7096 205.691 96.3956 205.626C96.1506 205.576 95.9151 205.52 95.6892 205.459C95.4633 205.394 95.2699 205.314 95.1091 205.218C94.9483 205.126 94.8257 205.015 94.7415 204.885C94.6611 204.751 94.6209 204.594 94.6209 204.414C94.6209 204.234 94.6668 204.077 94.7587 203.943C94.8545 203.805 94.9808 203.692 95.1378 203.604C95.291 203.512 95.4652 203.445 95.6605 203.403C95.8596 203.357 96.0644 203.334 96.275 203.334C96.4971 203.334 96.7115 203.363 96.9183 203.42C97.1289 203.478 97.3165 203.56 97.4812 203.667C97.642 203.774 97.7722 203.906 97.8717 204.063C97.9751 204.22 98.0287 204.399 98.0326 204.598H98.7218C98.7103 204.303 98.6395 204.04 98.5093 203.811C98.3791 203.581 98.2049 203.386 97.9866 203.225C97.7645 203.068 97.5061 202.949 97.2112 202.869C96.9202 202.785 96.6082 202.742 96.275 202.742C95.9764 202.742 95.6854 202.781 95.402 202.857C95.1225 202.934 94.8774 203.041 94.6668 203.179C94.4448 203.328 94.2667 203.508 94.1327 203.719C94.0025 203.929 93.9374 204.169 93.9374 204.437C93.9374 204.72 94.0025 204.961 94.1327 205.16C94.2667 205.356 94.4409 205.517 94.6554 205.643C94.8851 205.777 95.1321 205.886 95.3963 205.97C95.6605 206.055 95.9515 206.129 96.2693 206.194C96.5182 206.248 96.7594 206.313 96.993 206.39C97.2304 206.466 97.4314 206.558 97.5961 206.665C97.7454 206.761 97.8622 206.878 97.9464 207.016C98.0306 207.15 98.0728 207.307 98.0728 207.487Z" fill="#3D405B"/>
<path d="M100.962 200.25V200.864H103.173V208.457H100.962V209.072H105.959V208.457H103.857V200.25H100.962Z" fill="#3D405B"/>
<path d="M107.515 205.873V206.062C107.515 206.483 107.578 206.884 107.705 207.263C107.831 207.642 108.015 207.973 108.256 208.256C108.49 208.543 108.779 208.771 109.123 208.94C109.468 209.104 109.859 209.187 110.295 209.187C110.728 209.187 111.114 209.102 111.455 208.934C111.796 208.766 112.085 208.54 112.323 208.256C112.56 207.969 112.74 207.638 112.862 207.263C112.989 206.884 113.054 206.483 113.058 206.062V205.873C113.054 205.452 112.989 205.051 112.862 204.672C112.736 204.293 112.556 203.96 112.323 203.673C112.081 203.39 111.788 203.164 111.444 202.995C111.103 202.827 110.716 202.742 110.284 202.742C109.847 202.742 109.458 202.827 109.118 202.995C108.777 203.164 108.488 203.391 108.25 203.679C108.013 203.962 107.831 204.293 107.705 204.672C107.578 205.051 107.515 205.452 107.515 205.873ZM108.199 206.062V205.873C108.199 205.547 108.245 205.231 108.336 204.925C108.428 204.619 108.562 204.349 108.739 204.115C108.915 203.878 109.131 203.688 109.388 203.547C109.644 203.405 109.943 203.334 110.284 203.334C110.621 203.334 110.917 203.405 111.174 203.547C111.434 203.688 111.654 203.878 111.834 204.115C112.007 204.349 112.139 204.619 112.231 204.925C112.323 205.231 112.37 205.547 112.374 205.873V206.062C112.37 206.392 112.323 206.709 112.231 207.016C112.143 207.318 112.012 207.588 111.84 207.826C111.66 208.063 111.442 208.252 111.185 208.394C110.929 208.532 110.632 208.601 110.295 208.601C109.954 208.601 109.654 208.532 109.393 208.394C109.133 208.252 108.915 208.063 108.739 207.826C108.562 207.592 108.428 207.322 108.336 207.016C108.245 206.709 108.199 206.392 108.199 206.062Z" fill="#3D405B"/>
<path d="M114.735 205.907V206.028C114.735 206.434 114.786 206.832 114.89 207.222C114.993 207.609 115.152 207.948 115.367 208.239C115.57 208.526 115.822 208.756 116.125 208.928C116.427 209.101 116.783 209.187 117.193 209.187C117.4 209.187 117.599 209.164 117.79 209.118C117.986 209.072 118.168 209.005 118.336 208.917C118.478 208.84 118.608 208.752 118.727 208.653C118.849 208.549 118.956 208.432 119.048 208.302V208.986C119.048 209.281 119.006 209.549 118.922 209.79C118.841 210.035 118.725 210.244 118.571 210.416C118.411 210.588 118.215 210.722 117.986 210.818C117.76 210.914 117.499 210.961 117.205 210.961C117.017 210.961 116.837 210.937 116.665 210.887C116.496 210.841 116.333 210.774 116.176 210.686C116.05 210.613 115.928 210.525 115.809 210.422C115.69 210.318 115.575 210.2 115.464 210.065L115.079 210.491C115.202 210.655 115.342 210.799 115.499 210.921C115.66 211.048 115.826 211.153 115.998 211.237C116.197 211.341 116.404 211.417 116.619 211.467C116.833 211.521 117.044 211.547 117.25 211.547C117.633 211.547 117.976 211.484 118.279 211.358C118.585 211.231 118.847 211.053 119.065 210.824C119.28 210.598 119.445 210.326 119.559 210.008C119.678 209.694 119.737 209.346 119.737 208.963V202.857H119.1L119.071 203.73C118.983 203.596 118.882 203.474 118.767 203.363C118.656 203.252 118.533 203.154 118.399 203.07C118.231 202.963 118.045 202.882 117.842 202.829C117.643 202.771 117.43 202.742 117.205 202.742C116.772 202.742 116.399 202.836 116.085 203.024C115.774 203.208 115.52 203.447 115.321 203.742C115.122 204.037 114.974 204.37 114.878 204.741C114.783 205.113 114.735 205.501 114.735 205.907ZM115.424 206.028V205.907C115.424 205.601 115.455 205.298 115.516 205C115.581 204.701 115.686 204.431 115.832 204.19C115.977 203.945 116.173 203.744 116.418 203.587C116.663 203.426 116.967 203.346 117.331 203.346C117.538 203.346 117.729 203.376 117.905 203.437C118.085 203.495 118.248 203.577 118.393 203.684C118.539 203.792 118.667 203.918 118.778 204.063C118.889 204.209 118.979 204.372 119.048 204.552V207.475C118.979 207.647 118.885 207.803 118.767 207.94C118.652 208.074 118.522 208.189 118.376 208.285C118.223 208.381 118.056 208.455 117.877 208.509C117.7 208.559 117.515 208.584 117.319 208.584C116.982 208.584 116.693 208.513 116.452 208.371C116.211 208.229 116.019 208.042 115.878 207.808C115.721 207.571 115.606 207.295 115.533 206.981C115.464 206.663 115.428 206.346 115.424 206.028Z" fill="#3D405B"/>
<path d="M126.268 209.072H127.003L126.997 209.003C126.944 208.811 126.898 208.61 126.859 208.4C126.825 208.189 126.808 207.979 126.808 207.768V204.764C126.804 204.427 126.739 204.132 126.612 203.88C126.49 203.627 126.323 203.414 126.113 203.242C125.898 203.077 125.648 202.953 125.36 202.869C125.073 202.785 124.765 202.742 124.436 202.742C124.106 202.742 123.796 202.788 123.505 202.88C123.218 202.972 122.965 203.099 122.747 203.259C122.529 203.424 122.355 203.617 122.224 203.839C122.094 204.062 122.023 204.305 122.012 204.569L122.701 204.575C122.705 204.379 122.755 204.205 122.85 204.052C122.95 203.895 123.076 203.763 123.23 203.656C123.387 203.548 123.566 203.466 123.769 203.409C123.972 203.351 124.185 203.323 124.407 203.323C124.648 203.323 124.872 203.355 125.079 203.42C125.29 203.481 125.471 203.571 125.625 203.69C125.778 203.809 125.898 203.958 125.986 204.138C126.074 204.314 126.12 204.519 126.124 204.753V205.453H124.775C124.388 205.457 124.018 205.496 123.666 205.568C123.314 205.637 123.006 205.748 122.741 205.901C122.473 206.062 122.259 206.267 122.098 206.516C121.941 206.765 121.863 207.067 121.863 207.423C121.863 207.691 121.916 207.935 122.023 208.153C122.131 208.367 122.276 208.551 122.46 208.704C122.644 208.857 122.862 208.976 123.115 209.06C123.367 209.145 123.637 209.187 123.924 209.187C124.154 209.187 124.374 209.162 124.585 209.112C124.799 209.066 125.002 208.997 125.194 208.905C125.381 208.817 125.554 208.71 125.711 208.584C125.872 208.453 126.011 208.31 126.13 208.153C126.138 208.314 126.151 208.473 126.17 208.63C126.193 208.787 126.226 208.934 126.268 209.072ZM123.999 208.572C123.8 208.572 123.611 208.545 123.431 208.492C123.254 208.434 123.101 208.352 122.971 208.245C122.841 208.141 122.737 208.015 122.661 207.866C122.584 207.716 122.546 207.548 122.546 207.36C122.546 207.131 122.596 206.935 122.695 206.774C122.799 206.61 122.939 206.472 123.115 206.361C123.333 206.223 123.595 206.127 123.902 206.074C124.208 206.02 124.531 205.991 124.872 205.988H126.124V207.355C126.036 207.538 125.921 207.705 125.78 207.854C125.638 208.004 125.475 208.132 125.291 208.239C125.108 208.346 124.907 208.43 124.688 208.492C124.47 208.549 124.24 208.576 123.999 208.572Z" fill="#3D405B"/>
<path d="M129.059 209.072H129.748V204.827C129.814 204.628 129.905 204.441 130.024 204.264C130.143 204.085 130.283 203.929 130.443 203.799C130.616 203.661 130.807 203.552 131.018 203.472C131.228 203.388 131.452 203.346 131.69 203.346C131.962 203.342 132.195 203.378 132.39 203.455C132.59 203.531 132.756 203.644 132.89 203.794C133.02 203.943 133.116 204.127 133.177 204.345C133.242 204.563 133.277 204.814 133.281 205.097V209.072H133.964V205.086C133.964 204.714 133.918 204.383 133.826 204.092C133.734 203.801 133.599 203.554 133.419 203.351C133.242 203.152 133.022 203.001 132.758 202.898C132.498 202.794 132.197 202.742 131.856 202.742C131.6 202.742 131.357 202.781 131.127 202.857C130.901 202.934 130.694 203.037 130.507 203.167C130.346 203.279 130.2 203.411 130.07 203.564C129.94 203.717 129.827 203.884 129.731 204.063L129.691 202.857H129.059V209.072Z" fill="#3D405B"/>
</svg>
