<svg width="449" height="346" viewBox="0 0 449 346" fill="none" xmlns="http://www.w3.org/2000/svg">
<g clip-path="url(#clip0_27_9959)">
<path d="M224.5 345.995C320.66 345.995 398.613 341.44 398.613 335.821C398.613 330.202 320.66 325.647 224.5 325.647C128.34 325.647 50.3867 330.202 50.3867 335.821C50.3867 341.44 128.34 345.995 224.5 345.995Z" fill="#F5F5F5"/>
<path d="M214.083 255.166H40.6884C37.8597 255.166 35.5698 252.865 35.5698 250.034V6.08213C35.5968 3.26899 37.8777 1.0041 40.6884 0.995117H214.083C216.912 0.995117 219.211 3.29596 219.211 6.12707V250.034C219.211 252.865 216.912 255.166 214.083 255.166ZM40.6884 1.17487C37.9854 1.17487 35.7943 3.37684 35.7943 6.08213V250.034C35.7943 252.739 37.9854 254.932 40.6884 254.941H214.083C216.786 254.941 218.977 252.739 218.986 250.034V6.08213C218.986 3.37684 216.786 1.18386 214.083 1.17487H40.6884Z" fill="#E6E6E6"/>
<path d="M408.321 255.166H234.917C232.088 255.166 229.798 252.865 229.789 250.034V6.08213C229.816 3.26899 232.106 1.0041 234.917 0.995117H408.321C411.131 1.0041 413.403 3.26899 413.43 6.08213V250.034C413.43 252.865 411.149 255.157 408.321 255.166ZM234.917 1.17487C232.214 1.17487 230.023 3.37684 230.014 6.08213V250.034C230.014 252.739 232.214 254.932 234.917 254.941H408.321C411.024 254.941 413.215 252.739 413.224 250.034V6.08213C413.224 3.37684 411.024 1.18386 408.321 1.17487H234.917Z" fill="#E6E6E6"/>
<path d="M77.1741 300.715H40.1675V300.94H77.1741V300.715Z" fill="#E0E0E0"/>
<path d="M152.606 298.918H115.492V299.142H152.606V298.918Z" fill="#E0E0E0"/>
<path d="M200.9 298.918H191.92V299.142H200.9V298.918Z" fill="#E0E0E0"/>
<path d="M111.145 306.593H69.6128V306.818H111.145V306.593Z" fill="#E0E0E0"/>
<path d="M254.798 300.598H235.402V300.823H254.798V300.598Z" fill="#E0E0E0"/>
<path d="M287.872 300.598H262.791V300.823H287.872V300.598Z" fill="#E0E0E0"/>
<path d="M408.832 304.4H352.761V304.625H408.832V304.4Z" fill="#E0E0E0"/>
<path d="M449 291.898H0V292.123H449V291.898Z" fill="#EBEBEB"/>
<path opacity="0.8" d="M300.677 19.6445L298.441 50.4452C298.369 51.5147 297.902 52.4944 297.193 53.2224C296.376 54.0942 295.208 54.6424 293.951 54.6424H269.265C268.349 54.6424 267.532 54.3548 266.877 53.8515C265.862 53.0965 265.26 51.8473 265.359 50.4452L267.595 19.6445C267.757 17.3257 269.768 15.4473 272.085 15.4473H296.771C299.088 15.4473 300.839 17.3257 300.677 19.6445Z" fill="#E0E0E0"/>
<path d="M289.973 33.5933C289.659 38.1411 286.372 41.817 282.646 41.817C278.919 41.817 276.144 38.1321 276.467 33.5933C276.782 29.0456 280.068 25.3696 283.795 25.3696C287.522 25.3696 290.296 29.0546 289.973 33.5933Z" fill="white"/>
<path d="M293.089 52.5304H270.495C269.068 52.5304 268.071 51.8473 268.035 50.8766C267.981 49.4835 275.309 43.4169 282.259 43.9382C282.286 43.9382 282.313 43.9382 282.331 43.9382C282.331 43.9382 282.385 43.9382 282.412 43.9382C286.668 43.9561 290.683 45.7627 294.05 48.423C297.4 51.0744 294.23 52.5304 293.08 52.5304H293.089Z" fill="white"/>
<path d="M173.332 53.528C168.528 53.5909 164.289 49.7172 163.894 44.9088C163.499 40.0914 167.082 36.1279 171.895 36.065C176.7 36.0021 180.938 39.8757 181.333 44.6841C181.728 49.4925 178.145 53.4651 173.332 53.528ZM172.272 40.7026C170.018 40.7296 168.339 42.59 168.528 44.8459C168.716 47.1018 170.701 48.9173 172.946 48.8903C175.2 48.8634 176.879 47.0029 176.691 44.747C176.502 42.4911 174.517 40.6756 172.272 40.7026Z" fill="#E0E0E0"/>
<path d="M173.763 40.0285L170.458 40.0734L168.698 18.7547L172.012 18.7188L173.763 40.0285Z" fill="#E0E0E0"/>
<path d="M175.146 19.6714L168.932 19.7523L168.662 16.4359L174.868 16.355L175.146 19.6714Z" fill="#E0E0E0"/>
<path d="M175.496 23.9317L169.659 24.0036L169.39 20.6871L175.227 20.6152L175.496 23.9317Z" fill="#E0E0E0"/>
<path d="M176.008 29.9354L170.907 29.9983L170.638 26.6908L175.73 26.6279L176.008 29.9354Z" fill="#E0E0E0"/>
<path d="M71.2204 234.71C71.2383 234.98 71.2743 235.249 71.3192 235.51C71.6155 237.245 72.5225 238.808 73.7707 239.977C75.2075 241.325 77.1292 242.161 79.1856 242.161H155.058C158.901 242.161 161.856 239.249 161.99 235.51C161.99 235.249 161.99 234.98 161.981 234.71C161.838 232.661 160.877 230.791 159.431 229.452C157.994 228.104 156.072 227.268 154.016 227.268H78.144C74.0311 227.268 70.933 230.603 71.2204 234.71Z" fill="#F0F0F0"/>
<path d="M161.99 235.51C161.99 235.753 161.963 235.995 161.927 236.229C161.73 234.288 160.778 232.526 159.404 231.25C157.967 229.902 156.045 229.066 153.989 229.066L73.3037 229.192C74.534 227.996 76.2402 227.268 78.1529 227.268H154.025C156.081 227.268 157.994 228.104 159.44 229.452C160.877 230.791 161.855 232.661 161.999 234.71C162.008 234.98 162.017 235.249 161.999 235.51H161.99Z" fill="#E0E0E0"/>
<path d="M149.005 230.854L149.256 234.485L152.66 233.227L153.432 235.025L149.957 236.175L152.381 239.222L150.81 240.372L148.448 237.209L146.562 240.372L144.883 239.222L146.85 236.175L143.249 235.025L143.77 233.245L147.38 234.458L147.128 230.863H149.005V230.854Z" fill="white"/>
<path d="M128.252 230.854L128.504 234.485L131.907 233.227L132.679 235.025L129.204 236.175L131.629 239.222L130.057 240.372L127.696 237.209L125.81 240.372L124.13 239.222L126.097 236.175L122.496 235.025L123.017 233.245L126.627 234.458L126.375 230.863H128.252V230.854Z" fill="white"/>
<path d="M107.508 230.854L107.76 234.485L111.163 233.227L111.936 235.025L108.46 236.175L110.885 239.222L109.313 240.372L106.952 237.209L105.066 240.372L103.387 239.222L105.353 236.175L101.752 235.025L102.273 233.245L105.883 234.458L105.632 230.863H107.508V230.854Z" fill="white"/>
<path d="M86.7557 230.854L87.0071 234.485L90.4106 233.227L91.1828 235.025L87.7076 236.175L90.1322 239.222L88.5607 240.372L86.1989 237.209L84.3131 240.372L82.6339 239.222L84.6005 236.175L80.9995 235.025L81.5204 233.245L85.1303 234.458L84.8789 230.863H86.7557V230.854Z" fill="white"/>
<path d="M137.151 224.644H133.622L133.631 223.745H137.169L137.151 224.644Z" fill="#E0E0E0"/>
<path d="M152.364 224.644H140.824L140.842 223.745H152.381L152.364 224.644Z" fill="#E0E0E0"/>
<g opacity="0.8">
<path d="M241.903 220.114L256.208 242.161L303.407 194.922C303.82 194.508 303.255 193.861 302.788 194.221L257.807 229.506L249.312 215.8L241.894 220.114H241.903Z" fill="#E0E0E0"/>
</g>
<path opacity="0.1" d="M233.354 63.2078L199.464 190.077H210.859L244.373 63.2078H233.354Z" fill="white"/>
<path opacity="0.1" d="M250.946 63.2078L217.056 190.077H239.667L273.181 63.2078H250.946Z" fill="white"/>
<path d="M372.948 177.675L380.097 75.8444C380.33 72.483 377.789 69.7508 374.403 69.7598L196.842 69.9126C193.465 69.9126 190.538 72.6448 190.295 76.0062L183.147 177.836C182.914 181.198 185.455 183.93 188.841 183.921L366.402 183.768C369.779 183.768 372.706 181.036 372.948 177.675Z" fill="#263238"/>
<path d="M370.667 175.455L377.816 73.6245C378.049 70.2631 375.508 67.5308 372.122 67.5398L194.561 67.6926C191.184 67.6926 188.257 70.4249 188.014 73.7862L180.866 175.616C180.633 178.978 183.174 181.71 186.56 181.701L364.121 181.548C367.498 181.548 370.425 178.816 370.667 175.455Z" fill="#5F87E1"/>
<path opacity="0.6" d="M365.962 176.965C365.711 177.198 365.271 177.486 364.624 177.486L187.062 177.639C185.868 177.639 184.889 176.596 184.979 175.41L192.127 73.5796C192.172 72.9415 192.486 72.5281 192.738 72.2854C192.989 72.0517 193.429 71.7641 194.076 71.7641L371.637 71.6113C372.832 71.6113 373.802 72.6539 373.721 73.8403L366.573 175.67C366.528 176.308 366.213 176.722 365.962 176.965Z" fill="white"/>
<path d="M306.9 120.98H244.57C243.457 120.98 242.46 121.879 242.343 122.985L241.391 132.107C241.275 133.213 242.083 134.111 243.196 134.111H305.527C306.64 134.111 307.637 133.213 307.754 132.107L308.705 122.985C308.822 121.879 308.014 120.98 306.9 120.98Z" fill="white"/>
<path d="M251.988 158.234H242.262C241.149 158.234 240.152 159.133 240.035 160.238L239.083 169.361C238.967 170.466 239.775 171.365 240.888 171.365H250.614C251.727 171.365 252.724 170.466 252.841 169.361L253.793 160.238C253.909 159.133 253.101 158.234 251.988 158.234Z" fill="white"/>
<path d="M268.78 158.234H259.055C257.942 158.234 256.945 159.133 256.828 160.238L255.876 169.361C255.759 170.466 256.568 171.365 257.681 171.365H267.407C268.52 171.365 269.517 170.466 269.634 169.361L270.585 160.238C270.702 159.133 269.894 158.234 268.78 158.234Z" fill="white"/>
<path d="M285.573 158.234H275.848C274.734 158.234 273.737 159.133 273.621 160.238L272.669 169.361C272.552 170.466 273.36 171.365 274.474 171.365H284.199C285.313 171.365 286.309 170.466 286.426 169.361L287.378 160.238C287.495 159.133 286.686 158.234 285.573 158.234Z" fill="white"/>
<path d="M302.365 158.234H292.64C291.527 158.234 290.53 159.133 290.413 160.238L289.461 169.361C289.344 170.466 290.153 171.365 291.266 171.365H300.991C302.105 171.365 303.102 170.466 303.219 169.361L304.17 160.238C304.287 159.133 303.479 158.234 302.365 158.234Z" fill="white"/>
<path d="M252.392 152.024H291.383C293.278 152.024 294.975 150.496 295.173 148.608L295.639 144.133C295.837 142.245 294.463 140.717 292.568 140.717H253.577C251.682 140.717 249.985 142.245 249.788 144.133L249.321 148.608C249.123 150.496 250.497 152.024 252.392 152.024Z" stroke="#5F87E1" stroke-linecap="round" stroke-linejoin="round"/>
<path d="M309.146 101.98H246.815C245.702 101.98 244.705 102.879 244.588 103.985L243.636 113.107C243.52 114.213 244.328 115.111 245.441 115.111H307.772C308.885 115.111 309.882 114.213 309.999 113.107L310.951 103.985C311.067 102.879 310.259 101.98 309.146 101.98Z" fill="white"/>
<path d="M252.149 127.55C252.275 126.319 251.386 125.33 250.147 125.33C248.908 125.33 247.812 126.328 247.686 127.55C247.561 128.782 248.45 129.77 249.689 129.77C250.928 129.77 252.024 128.773 252.149 127.55Z" fill="#263238"/>
<path d="M259.01 127.55C259.136 126.319 258.247 125.33 257.008 125.33C255.768 125.33 254.673 126.328 254.547 127.55C254.421 128.782 255.31 129.77 256.55 129.77C257.789 129.77 258.884 128.773 259.01 127.55Z" fill="#263238"/>
<path d="M265.862 127.55C265.988 126.319 265.099 125.33 263.859 125.33C262.62 125.33 261.525 126.328 261.399 127.55C261.273 128.782 262.162 129.77 263.401 129.77C264.641 129.77 265.736 128.773 265.862 127.55Z" fill="#263238"/>
<path d="M272.714 127.55C272.839 126.319 271.95 125.33 270.711 125.33C269.472 125.33 268.376 126.328 268.251 127.55C268.125 128.782 269.014 129.77 270.253 129.77C271.492 129.77 272.588 128.773 272.714 127.55Z" fill="#263238"/>
<path d="M279.709 127.55C279.835 126.319 278.946 125.33 277.706 125.33C276.467 125.33 275.372 126.328 275.246 127.55C275.12 128.782 276.009 129.77 277.248 129.77C278.488 129.77 279.583 128.773 279.709 127.55Z" fill="#263238"/>
<path d="M254.394 108.551C254.52 107.319 253.631 106.331 252.392 106.331C251.153 106.331 250.057 107.328 249.931 108.551C249.806 109.782 250.695 110.77 251.934 110.77C253.173 110.77 254.269 109.773 254.394 108.551Z" fill="#263238"/>
<path d="M261.255 108.551C261.381 107.319 260.492 106.331 259.253 106.331C258.013 106.331 256.918 107.328 256.792 108.551C256.666 109.782 257.555 110.77 258.795 110.77C260.034 110.77 261.129 109.773 261.255 108.551Z" fill="#263238"/>
<path d="M268.107 108.551C268.232 107.319 267.343 106.331 266.104 106.331C264.865 106.331 263.769 107.328 263.644 108.551C263.518 109.782 264.407 110.77 265.646 110.77C266.885 110.77 267.981 109.773 268.107 108.551Z" fill="#263238"/>
<path d="M274.959 108.551C275.084 107.319 274.195 106.331 272.956 106.331C271.717 106.331 270.621 107.328 270.495 108.551C270.37 109.782 271.259 110.77 272.498 110.77C273.737 110.77 274.833 109.773 274.959 108.551Z" fill="#263238"/>
<path d="M281.819 108.551C281.945 107.319 281.056 106.331 279.817 106.331C278.578 106.331 277.482 107.328 277.356 108.551C277.231 109.782 278.12 110.77 279.359 110.77C280.598 110.77 281.694 109.773 281.819 108.551Z" fill="#263238"/>
<path d="M288.671 108.551C288.797 107.319 287.908 106.331 286.668 106.331C285.429 106.331 284.334 107.328 284.208 108.551C284.082 109.782 284.971 110.77 286.21 110.77C287.45 110.77 288.545 109.773 288.671 108.551Z" fill="#263238"/>
<path d="M282.852 81.8661L282.367 86.4768C282.322 86.8902 281.954 87.2318 281.532 87.2318C281.11 87.2318 280.814 86.8992 280.859 86.4768L281.343 81.8661C281.496 80.3742 280.41 79.1698 278.919 79.1698H277.267C275.776 79.1698 274.429 80.3832 274.276 81.8661L273.854 86.1443H272.345L272.768 81.8661C273.01 79.5473 275.102 77.6599 277.428 77.6599H279.08C281.406 77.6599 283.104 79.5473 282.852 81.8661Z" fill="#5F87E1"/>
<path d="M282.879 86.3061L281.936 95.2848C281.873 95.851 281.37 96.3093 280.796 96.3093H271.78C271.214 96.3093 270.801 95.851 270.855 95.2848L271.798 86.3061C271.834 85.9376 272.067 85.614 272.372 85.4343C272.543 85.3354 272.732 85.2815 272.938 85.2815H281.945C282.143 85.2815 282.313 85.3354 282.466 85.4253C282.744 85.6051 282.915 85.9286 282.87 86.3061H282.879Z" fill="#5F87E1"/>
<path d="M353.192 66.9465L331.245 67.0724" stroke="#263238" stroke-linecap="round" stroke-linejoin="round"/>
<path d="M365.154 66.8838L357.395 66.9197" stroke="#263238" stroke-linecap="round" stroke-linejoin="round"/>
<g opacity="0.3">
<path d="M211.12 71.737H236.246L210.707 177.63H190.484C190.484 177.63 190.448 177.63 190.43 177.63C187.924 177.621 186.164 175.221 186.748 172.785L211.12 71.728V71.737Z" fill="white"/>
<path d="M247.399 71.7371H258.058L232.519 177.639H221.86L247.399 71.7371Z" fill="white"/>
</g>
<path d="M77.8118 38.6804H82.9124C77.7848 38.6804 73.9145 42.8417 74.2737 47.9737L85.0946 202.831C85.4538 207.963 89.8989 212.124 95.0354 212.124H89.9348C84.8072 212.124 80.3531 207.963 79.9939 202.831L69.173 47.9737C68.8138 42.8417 72.6842 38.6804 77.8118 38.6804Z" fill="#5F87E1"/>
<path d="M77.8117 38.6804H82.9124C77.7848 38.6804 73.9144 42.8417 74.2736 47.9737L85.0945 202.831C85.4537 207.963 89.8988 212.124 95.0354 212.124H89.9347C84.8072 212.124 79.6347 207.963 79.2755 202.831L68.4546 47.9737C68.0954 42.8417 72.6842 38.6804 77.8117 38.6804Z" fill="#263238"/>
<path d="M91.4524 212.133H153.863C158.991 212.133 162.861 207.972 162.502 202.84L151.681 47.9827C151.322 42.8507 146.877 38.6895 141.74 38.6895H79.3384C74.2108 38.6895 70.3404 42.8507 70.6996 47.9827L81.5205 202.84C81.8797 207.972 86.3248 212.133 91.4614 212.133H91.4524Z" fill="#5F87E1"/>
<g opacity="0.6">
<path d="M141.579 41.6643C145.144 41.6643 148.242 44.5673 148.493 48.1354L159.314 202.993C159.431 204.655 158.901 206.201 157.824 207.361C156.746 208.511 155.246 209.149 153.594 209.149H91.183C87.618 209.149 84.5199 206.246 84.2684 202.678L73.4475 47.8208C73.3308 46.1581 73.8606 44.6123 74.9382 43.4529C76.0158 42.3024 77.5155 41.6643 79.1678 41.6643H141.579Z" fill="white"/>
</g>
<g opacity="0.3">
<path d="M123.951 209.149H99.0586L119.587 41.6643H139.621C141.444 41.6643 143.079 42.4283 144.237 43.6506L123.951 209.14V209.149Z" fill="white"/>
<path d="M94.5955 209.149H88.9919L109.52 41.6643H115.124L94.5955 209.149Z" fill="white"/>
</g>
<path d="M92.6558 114.842H137.861" stroke="white" stroke-linecap="round" stroke-linejoin="round"/>
<path d="M98.4839 121.538H133.892" stroke="white" stroke-linecap="round" stroke-linejoin="round"/>
<path d="M94.0027 83.9961L94.0656 85.7756H92.9072L92.8443 83.9871L90.7969 80.7605H92.0271L93.446 82.9894L94.7032 80.7605H95.8436L94.0117 83.9961H94.0027Z" fill="#5F87E1"/>
<path d="M95.8795 83.2591C95.8257 81.7671 96.9482 80.6616 98.5286 80.6616C100.109 80.6616 101.303 81.7581 101.357 83.2591C101.411 84.76 100.28 85.8565 98.7082 85.8565C97.1367 85.8565 95.9334 84.751 95.8795 83.2591ZM100.181 83.2591C100.145 82.3064 99.4536 81.6503 98.5556 81.6503C97.6576 81.6503 97.011 82.3064 97.0469 83.2591C97.0829 84.2117 97.7743 84.8678 98.6723 84.8678C99.5703 84.8678 100.217 84.2117 100.181 83.2591Z" fill="#5F87E1"/>
<path d="M102.202 83.5646L102.103 80.7515H103.261L103.36 83.5197C103.396 84.4724 103.818 84.8678 104.527 84.8678C105.237 84.8678 105.632 84.4724 105.596 83.5197L105.497 80.7515H106.638L106.736 83.5646C106.79 85.0386 105.973 85.8565 104.554 85.8565C103.135 85.8565 102.255 85.0386 102.202 83.5646Z" fill="#5F87E1"/>
<path d="M111.155 85.7756L110.14 84.3735H109.071L109.116 85.7756H107.958L107.778 80.7605H109.942C111.28 80.7605 112.142 81.4525 112.178 82.585C112.205 83.34 111.846 83.8882 111.208 84.1668L112.385 85.7756H111.137H111.155ZM109.924 81.7042H108.981L109.044 83.4568H109.987C110.697 83.4568 111.038 83.1242 111.02 82.585C111.002 82.0367 110.634 81.7132 109.924 81.7132V81.7042Z" fill="#5F87E1"/>
<path d="M114.854 83.2591C114.801 81.7491 115.923 80.6616 117.477 80.6616C118.339 80.6616 119.075 80.9762 119.569 81.5514L118.851 82.2434C118.5 81.857 118.069 81.6593 117.575 81.6593C116.641 81.6593 115.995 82.3154 116.031 83.268C116.067 84.2117 116.749 84.8768 117.692 84.8768C118.195 84.8768 118.608 84.6791 118.931 84.2836L119.704 84.9757C119.255 85.5599 118.545 85.8745 117.665 85.8745C116.112 85.8745 114.917 84.7959 114.863 83.277L114.854 83.2591Z" fill="#5F87E1"/>
<path d="M119.991 83.2591C119.937 81.7671 121.06 80.6616 122.64 80.6616C124.22 80.6616 125.415 81.7581 125.469 83.2591C125.523 84.76 124.391 85.8565 122.82 85.8565C121.248 85.8565 120.045 84.751 119.991 83.2591ZM124.292 83.2591C124.256 82.3064 123.565 81.6503 122.667 81.6503C121.769 81.6503 121.122 82.3064 121.158 83.2591C121.194 84.2117 121.886 84.8678 122.784 84.8678C123.682 84.8678 124.328 84.2117 124.292 83.2591Z" fill="#5F87E1"/>
<path d="M126.259 80.7515H128.531C130.165 80.7515 131.324 81.7401 131.378 83.259C131.431 84.7779 130.345 85.7666 128.702 85.7666H126.43L126.25 80.7515H126.259ZM128.621 84.8139C129.617 84.8139 130.246 84.2207 130.21 83.259C130.174 82.2973 129.501 81.7042 128.513 81.7042H127.453L127.561 84.8139H128.621Z" fill="#5F87E1"/>
<path d="M136.191 84.8409L136.227 85.7756H132.347L132.168 80.7605H135.948L135.984 81.6952H133.353L133.389 82.7827H135.715L135.751 83.6905H133.425L133.461 84.8499H136.191V84.8409Z" fill="#5F87E1"/>
<path d="M102.713 104.425L102.749 106.438H93.2933L93.2664 104.847L98.2772 100.012C99.4985 98.8164 99.705 98.0704 99.6961 97.3514C99.6781 96.1741 98.8609 95.5 97.2804 95.5C96.0322 95.5 94.9995 95.9224 94.2991 96.8391L92.6108 95.5539C93.5807 94.2147 95.3408 93.4238 97.4511 93.4238C100.235 93.4238 102.058 94.8349 102.094 97.1088C102.112 98.3581 101.788 99.4905 100.037 101.162L96.6698 104.425H102.713Z" fill="#263238"/>
<path d="M113.157 102.592C113.193 104.758 111.595 106.627 108.155 106.627C106.341 106.627 104.518 106.079 103.315 105.144L104.312 103.293C105.237 104.065 106.638 104.56 108.092 104.56C109.799 104.56 110.786 103.805 110.768 102.618C110.75 101.459 109.888 100.713 107.949 100.713H106.772L106.745 99.0863L109.592 95.6171H103.764L103.728 93.6218H112.466L112.492 95.2126L109.439 98.9156C111.864 99.2301 113.112 100.677 113.148 102.6L113.157 102.592Z" fill="#263238"/>
<path d="M125.127 102.753C125.172 105.135 123.125 106.618 119.937 106.618C116.749 106.618 114.693 105.135 114.648 102.753C114.621 101.342 115.339 100.3 116.641 99.6884C115.609 99.1222 115.025 98.2055 114.998 96.9921C114.962 94.7901 116.857 93.415 119.694 93.415C122.532 93.415 124.517 94.7901 124.562 96.9921C124.58 98.2055 124.014 99.1222 122.981 99.6884C124.328 100.291 125.1 101.342 125.118 102.753H125.127ZM122.73 102.681C122.703 101.414 121.598 100.623 119.838 100.623C118.078 100.623 117.027 101.414 117.054 102.681C117.081 103.985 118.15 104.748 119.91 104.748C121.67 104.748 122.757 103.976 122.73 102.681ZM117.36 97.109C117.378 98.2055 118.303 98.9065 119.811 98.9065C121.32 98.9065 122.254 98.2055 122.236 97.109C122.218 95.9496 121.212 95.2935 119.748 95.2935C118.285 95.2935 117.342 95.9496 117.36 97.109Z" fill="#263238"/>
<path d="M137.071 102.753C137.116 105.135 135.068 106.618 131.88 106.618C128.692 106.618 126.636 105.135 126.591 102.753C126.564 101.342 127.283 100.3 128.585 99.6884C127.552 99.1222 126.968 98.2055 126.941 96.9921C126.905 94.7901 128.8 93.415 131.638 93.415C134.475 93.415 136.46 94.7901 136.496 96.9921C136.514 98.2055 135.948 99.1222 134.916 99.6884C136.263 100.291 137.035 101.342 137.053 102.753H137.071ZM134.673 102.681C134.646 101.414 133.542 100.623 131.782 100.623C130.021 100.623 128.971 101.414 128.998 102.681C129.025 103.985 130.093 104.748 131.853 104.748C133.613 104.748 134.7 103.976 134.673 102.681ZM129.303 97.109C129.321 98.2055 130.246 98.9065 131.755 98.9065C133.263 98.9065 134.197 98.2055 134.179 97.109C134.161 95.9496 133.155 95.2935 131.692 95.2935C130.228 95.2935 129.285 95.9496 129.303 97.109Z" fill="#263238"/>
<path d="M68.8945 61.1316L70.484 82.8547" stroke="#5F87E1" stroke-linecap="round" stroke-linejoin="round"/>
<path d="M68.1672 51.2273L68.5893 56.9614" stroke="#5F87E1" stroke-linecap="round" stroke-linejoin="round"/>
<path d="M110.786 29.6298V16.4089" stroke="#5F87E1" stroke-linecap="round" stroke-linejoin="round"/>
<path d="M100.325 32.4339L93.7244 20.9836" stroke="#5F87E1" stroke-linecap="round" stroke-linejoin="round"/>
<path d="M127.848 20.9836L121.248 32.4339" stroke="#5F87E1" stroke-linecap="round" stroke-linejoin="round"/>
<path d="M281.873 264.36C277.338 282.56 275.488 301.425 276.422 320.165" stroke="#5F87E1" stroke-miterlimit="10"/>
<path d="M277.679 263.587C277.724 265.268 279.224 271.2 280.903 271.155C282.583 271.11 283.795 265.115 283.75 263.435C283.705 261.754 282.313 260.433 280.643 260.469C278.964 260.514 277.644 261.907 277.679 263.578V263.587Z" fill="#5F87E1"/>
<path d="M284.208 282.453C284.163 280.772 282.663 274.84 280.984 274.885C279.305 274.93 278.093 280.925 278.128 282.605C278.164 284.286 279.565 285.607 281.236 285.571C282.915 285.526 284.235 284.133 284.199 282.462L284.208 282.453Z" fill="#5F87E1"/>
<path d="M271.519 276.287C273.198 276.251 279.125 274.741 279.08 273.06C279.035 271.38 273.046 270.166 271.366 270.211C269.687 270.256 268.367 271.649 268.403 273.321C268.448 275.002 269.84 276.323 271.51 276.287H271.519Z" fill="#5F87E1"/>
<path d="M290.368 269.753C288.689 269.798 282.762 271.299 282.807 272.979C282.852 274.66 288.841 275.874 290.521 275.838C292.2 275.802 293.52 274.4 293.484 272.728C293.448 271.047 292.047 269.726 290.377 269.762L290.368 269.753Z" fill="#5F87E1"/>
<path d="M271.968 268.656C273.18 269.816 278.434 272.944 279.592 271.73C280.751 270.517 277.374 265.412 276.153 264.252C274.941 263.093 273.019 263.138 271.86 264.36C270.702 265.574 270.747 267.497 271.968 268.656Z" fill="#5F87E1"/>
<path d="M289.919 277.375C288.707 276.215 283.454 273.087 282.295 274.301C281.137 275.514 284.513 280.619 285.735 281.779C286.947 282.938 288.869 282.893 290.027 281.671C291.185 280.457 291.141 278.534 289.919 277.375Z" fill="#5F87E1"/>
<path d="M276.593 281.994C277.751 280.781 280.876 275.523 279.664 274.364C278.452 273.204 273.351 276.583 272.193 277.806C271.034 279.019 271.079 280.942 272.3 282.102C273.513 283.261 275.434 283.216 276.593 281.994Z" fill="#5F87E1"/>
<path d="M285.303 264.037C284.145 265.25 281.02 270.508 282.232 271.667C283.444 272.827 288.545 269.447 289.704 268.225C290.862 267.012 290.817 265.088 289.596 263.929C288.383 262.77 286.462 262.815 285.303 264.037Z" fill="#5F87E1"/>
<path d="M277.347 273.105C277.392 275.092 279.044 276.664 281.029 276.619C283.014 276.575 284.585 274.921 284.54 272.935C284.495 270.948 282.843 269.375 280.858 269.42C278.874 269.465 277.302 271.119 277.347 273.105Z" fill="white"/>
<path d="M276.835 299.853C276.835 299.853 277.455 290.676 282.493 289.22C287.53 287.764 289.371 285.805 289.371 285.805C289.371 285.805 288.859 300.032 276.835 299.853Z" fill="#5F87E1"/>
<path opacity="0.5" d="M276.835 299.853C276.835 299.853 277.455 290.676 282.493 289.22C287.53 287.764 289.371 285.805 289.371 285.805C289.371 285.805 288.859 300.032 276.835 299.853Z" fill="white"/>
<path d="M276.171 306.881C276.171 306.881 275.551 297.705 270.513 296.249C265.476 294.793 263.635 292.824 263.635 292.824C263.635 292.824 264.147 307.052 276.171 306.872V306.881Z" fill="#5F87E1"/>
<path opacity="0.5" d="M276.171 306.881C276.171 306.881 275.551 297.705 270.513 296.249C265.476 294.793 263.635 292.824 263.635 292.824C263.635 292.824 264.147 307.052 276.171 306.872V306.881Z" fill="white"/>
<path d="M295.172 325.998C295.172 333.161 286.65 338.958 276.144 338.958C265.637 338.958 257.115 333.161 257.115 325.998C257.115 322.376 259.297 319.095 262.827 316.75C264.865 315.383 267.352 314.332 270.118 313.712H282.169C285.016 314.359 287.566 315.446 289.632 316.866C293.062 319.212 295.172 322.43 295.172 325.998Z" fill="#5F87E1"/>
<path opacity="0.8" d="M282.169 313.712C285.016 314.359 287.566 315.446 289.632 316.866C293.062 319.212 295.172 322.43 295.172 325.998C295.172 333.161 286.65 338.958 276.144 338.958C265.637 338.958 257.115 333.161 257.115 325.998C257.115 322.376 259.297 319.095 262.827 316.75C264.865 315.383 267.352 314.332 270.118 313.712H282.169Z" fill="white"/>
<path d="M276.198 314.88V321.288" stroke="#5F87E1" stroke-miterlimit="10"/>
<path d="M290.467 313.514L289.461 316.66L289.443 316.696H262.836L262.782 316.525L261.821 313.514H290.467Z" fill="#5F87E1"/>
<path d="M292.927 328.604C291.095 331.255 288.482 333.376 285.618 334.895C281.047 337.322 261.821 337.951 259.63 327.031C259.603 326.878 259.549 326.735 259.522 326.582C259.001 323.724 261.533 321.189 264.425 321.477C266.221 321.657 268.089 321.441 269.876 321.171C276.754 320.12 283.849 320.506 290.575 322.286C293.322 323.014 294.553 326.276 292.936 328.613L292.927 328.604Z" fill="#263238"/>
<path d="M154.914 324.973C155.246 324.856 155.471 324.586 155.579 324.182C155.659 323.876 155.543 323.679 155.435 323.562C154.743 322.843 151.933 323.355 151.618 323.409C151.547 323.427 151.484 323.481 151.475 323.553C151.457 323.625 151.484 323.697 151.547 323.742C152.014 324.074 152.696 324.506 153.369 324.784C153.935 325.009 154.492 325.126 154.923 324.973H154.914ZM155.165 323.813C155.21 323.858 155.255 323.939 155.219 324.092C155.148 324.371 155.004 324.55 154.788 324.622C154.276 324.802 153.307 324.461 152.139 323.697C153.271 323.526 154.806 323.427 155.165 323.813Z" fill="#5F87E1"/>
<path d="M151.672 323.778C152.534 323.67 154.51 322.654 154.68 321.773C154.716 321.603 154.707 321.288 154.294 321.063C154.034 320.92 153.756 320.893 153.468 320.991C152.382 321.36 151.511 323.427 151.475 323.517C151.448 323.58 151.457 323.643 151.502 323.697C151.52 323.724 151.546 323.742 151.582 323.751C151.609 323.76 151.645 323.769 151.681 323.76L151.672 323.778ZM154.115 321.387C154.321 321.504 154.33 321.621 154.312 321.71C154.205 322.25 152.893 323.077 151.969 323.346C152.292 322.672 152.947 321.576 153.594 321.351C153.747 321.297 153.899 321.297 154.043 321.351C154.07 321.36 154.097 321.378 154.124 321.387H154.115Z" fill="#5F87E1"/>
<path d="M143.15 320.156L150.46 323.112L156.845 306.207L149.526 303.25L143.15 320.156Z" fill="#FFB573"/>
<path d="M151.385 322.51L143.168 319.185C142.872 319.068 142.54 319.167 142.378 319.437L138.777 325.458C138.4 326.078 138.723 326.941 139.415 327.211C142.297 328.316 143.743 328.712 147.362 330.177C149.58 331.076 152.732 332.612 155.803 333.862C158.802 335.075 160.284 332.181 159.117 331.39C153.89 327.858 153.684 325.818 152.427 323.445C152.202 323.014 151.825 322.681 151.385 322.51Z" fill="#263238"/>
<path d="M156.746 314.502L144.048 309.361L145.215 304.706L158.838 309.694L156.746 314.502Z" fill="#5F87E1"/>
<path d="M169.462 118.823C166.884 126.283 159.26 143.863 153.387 136.547C152.337 135.244 151.448 133.824 150.819 132.269C148.323 126.112 147.712 116.136 147.398 113.952L145.395 107.112C145.359 106.995 145.341 106.87 145.341 106.753L145.305 102.852C145.305 101.27 146.581 100.327 148.305 100.47C148.305 100.47 151.089 100.147 151.089 101.81L151.627 107.67H151.609C151.888 109.71 151.08 112.55 151.556 114.428C153.343 121.466 155.821 121.78 157.375 129.042C159.539 123.802 163.409 114.734 163.409 114.734C166.022 115.057 170.306 116.37 169.453 118.832L169.462 118.823Z" fill="#FFB573"/>
<path d="M160.248 139.225C158.497 141.93 154.546 142.092 152.642 139.486C151.475 137.895 150.559 136.142 150.155 134.812C147.82 127.155 146.374 122.4 146.177 114.401C147.802 112.711 150.451 112.073 152.669 112.864L156.495 125.833C156.495 125.833 164.28 106.465 167.432 105.773C171.15 104.955 172.694 108.272 174.257 112.352C175.379 115.291 165.331 131.397 160.257 139.234L160.248 139.225Z" fill="#5F87E1"/>
<path d="M191.705 86.3867C190.825 90.8805 188.85 100.686 191.993 103.688C191.993 103.688 190.762 108.245 182.42 108.245C173.242 108.245 178.038 103.688 178.038 103.688C183.048 102.493 182.914 98.7717 182.043 95.2755L191.714 86.3777L191.705 86.3867Z" fill="#FFB573"/>
<path d="M177.669 75.7903C177.723 75.7903 177.777 75.7814 177.831 75.7544C178.011 75.6645 178.082 75.4488 177.993 75.2691C177.104 73.4985 175.46 73.2918 175.388 73.2828C175.191 73.2558 175.011 73.3996 174.993 73.5974C174.975 73.7951 175.11 73.9748 175.308 73.9928C175.361 73.9928 176.637 74.1726 177.346 75.5926C177.409 75.7184 177.535 75.7903 177.669 75.7903Z" fill="#263238"/>
<path d="M174.93 79.7178C174.93 79.7178 173.583 82.1984 172.29 83.3218C173 84.1667 174.401 83.9959 174.401 83.9959L174.93 79.7178Z" fill="#ED893E"/>
<path d="M175.649 78.4058C175.774 78.999 175.568 79.5562 175.173 79.6371C174.787 79.718 174.365 79.3046 174.23 78.7114C174.095 78.1182 174.311 77.561 174.706 77.4801C175.092 77.3992 175.514 77.8126 175.649 78.4058Z" fill="#263238"/>
<path d="M174.895 77.4709L173.368 77.3721C173.368 77.3721 174.347 78.3337 174.895 77.4709Z" fill="#263238"/>
<path d="M143.662 100.147V100.164C143.662 100.164 143.653 100.155 143.653 100.147H143.662Z" fill="#FFB573"/>
<path opacity="0.2" d="M169.138 114.995C170.728 113.539 171.805 113.97 172.533 115.129C173.26 118.491 168.968 125.537 167.244 128.206L169.129 114.995H169.138Z" fill="black"/>
<path d="M205.911 119.425C205.705 123.128 205.355 127.793 204.789 133.662C204.196 139.854 203.352 147.377 202.194 156.517C189.99 156.517 177.211 156.329 171.276 156.329C171.769 144.186 171.958 131.891 166.516 107.723C166.229 106.456 167.064 105.198 168.339 104.973C170.8 104.533 174.886 103.904 179.043 103.706C184.216 103.454 188.454 103.292 193.007 103.706C198.997 104.254 205.804 105.647 205.804 105.647C205.804 105.647 206.558 107.876 205.911 119.434V119.425Z" fill="#5F87E1"/>
<path opacity="0.2" d="M205.911 119.425C205.705 123.128 205.355 127.793 204.789 133.662C201.502 129.851 198.395 116.729 199.383 112.244C201.808 113.898 204.053 116.441 205.768 118.715C205.822 118.931 205.876 119.165 205.911 119.425Z" fill="black"/>
<path d="M237.602 135.873L243.852 132.35L245.019 138.758C245.019 138.758 239.721 140.789 236.91 139.369L237.593 135.873H237.602Z" fill="#FFB573"/>
<path d="M248.045 133.078L248.477 135.172C248.611 135.828 248.342 136.502 247.785 136.879L245.019 138.758L243.852 132.35L246.016 131.81C246.932 131.577 247.848 132.161 248.045 133.078Z" fill="#FFB573"/>
<path d="M199.895 113.062C201.897 117.143 209.252 132.556 212.485 136.115L213.113 136.781L213.428 137.113C213.535 137.221 213.625 137.32 213.796 137.473C214.406 138.048 215.044 138.524 215.7 138.911C217.011 139.702 218.34 140.16 219.615 140.492C222.174 141.131 224.599 141.238 226.96 141.193C231.684 141.005 236.102 140.214 240.52 138.893L239.721 135.145C237.656 135.325 235.474 135.45 233.372 135.486C231.262 135.54 229.161 135.486 227.131 135.289C225.111 135.118 223.144 134.758 221.474 134.183C220.648 133.887 219.929 133.518 219.39 133.132C219.121 132.934 218.896 132.736 218.726 132.538C218.69 132.511 218.6 132.395 218.519 132.305L218.286 132.026L217.819 131.469C215.34 128.359 208.794 113.368 206.827 109.62L199.895 113.071V113.062Z" fill="#FFB573"/>
<path d="M237.503 142.245C232.402 144.995 226.197 145.597 220.665 143.881C215.403 142.245 210.725 138.425 208.013 133.626C204.771 128.853 196.141 115.354 197.219 111.858C198.503 107.687 201.233 105.099 205.795 106.222C209 107.004 215.125 122.58 218.079 128.808C219.247 130.543 221.465 133.293 223.952 134.147C228.343 135.666 231.576 135.01 236.183 134.354C237.027 134.857 236.964 135.639 237.386 136.52C238.257 138.29 238.401 140.492 237.503 142.245Z" fill="#5F87E1"/>
<path d="M196.231 79.1787C194.857 86.5665 194.426 89.7302 190.196 93.0826C183.829 98.1336 175.065 94.8262 174.203 87.1687C173.431 80.2752 175.81 69.3462 183.461 67.288C190.996 65.2568 197.605 71.7818 196.222 79.1787H196.231Z" fill="#FFB573"/>
<path d="M222.435 120.09C221.025 121.699 220.576 122.634 218.618 123.506C216.66 124.378 212.386 123.623 211.03 121.96C211.47 123.254 214.038 125.582 215.385 125.762C212.404 127.505 208.21 126.768 205.992 124.108C206.208 125.681 207.689 127.092 209.189 127.622C191.983 128.071 199.23 119.965 188.454 108.433C176.52 95.662 179.115 85.1195 179.115 85.1195C179.106 83.295 178.702 80.2661 176.771 77.8035C175.047 75.5926 175.55 72.6087 176.098 70.937C176.897 68.4833 179.331 67.6205 181.665 67.4767C182.078 65.059 187.017 65.4994 187.655 65.9039C188.194 66.2544 188.337 66.2184 188.876 65.8769C190.089 65.095 193.142 64.2861 196.41 66.9285C198.404 68.5462 200.541 71.4403 200.613 77.6058C200.685 84.014 197.632 91.6265 208.219 101.36C214.46 107.103 211.479 119.425 222.426 120.099L222.435 120.09Z" fill="#263238"/>
<path d="M177.705 79.7449C176.798 81.0032 176.538 82.5671 176.735 83.8253C177.041 85.7217 178.882 85.8476 180.22 84.6342C181.423 83.5377 182.716 81.2369 181.728 79.664C180.759 78.1182 178.738 78.3069 177.696 79.7449H177.705Z" fill="#FFB573"/>
<path d="M194.372 156.508C194.372 156.508 190.708 208.106 186.568 242.134C185.329 252.335 182.222 262.212 177.4 271.317L157.114 309.568L146.733 305.479C146.733 305.479 153.881 269.124 167.908 249.297C167.908 249.297 157.437 190.041 171.141 156.32L194.372 156.499V156.508Z" fill="#263238"/>
<path opacity="0.2" d="M180.255 169.001C180.255 169.001 183.345 192.405 185.042 206.273C178.675 197.914 173.799 186.249 180.255 169.001Z" fill="black"/>
<path d="M220.585 329.817C220.827 329.557 220.899 329.215 220.8 328.811C220.728 328.505 220.531 328.379 220.378 328.334C219.426 328.011 217.181 329.763 216.93 329.961C216.876 330.006 216.849 330.087 216.867 330.15C216.885 330.222 216.948 330.276 217.02 330.285C217.585 330.357 218.393 330.429 219.121 330.366C219.723 330.312 220.27 330.15 220.576 329.817H220.585ZM220.252 328.685C220.315 328.703 220.396 328.748 220.432 328.901C220.504 329.179 220.459 329.404 220.306 329.575C219.947 329.97 218.914 330.114 217.522 329.979C218.438 329.305 219.749 328.514 220.252 328.685Z" fill="#5F87E1"/>
<path d="M217.154 330.258C217.864 329.763 219.13 327.957 218.86 327.103C218.807 326.941 218.654 326.663 218.187 326.654C217.891 326.654 217.63 326.752 217.424 326.977C216.642 327.804 216.858 330.033 216.867 330.132C216.867 330.195 216.912 330.258 216.975 330.285C217.002 330.303 217.037 330.303 217.073 330.303C217.109 330.303 217.136 330.285 217.163 330.267L217.154 330.258ZM218.178 327.022C218.42 327.022 218.483 327.13 218.51 327.211C218.672 327.732 217.9 329.071 217.217 329.736C217.19 328.99 217.235 327.723 217.702 327.229C217.819 327.112 217.944 327.04 218.097 327.031C218.124 327.031 218.151 327.031 218.178 327.031V327.022Z" fill="#5F87E1"/>
<path d="M207.905 330.986L215.762 330.231L213.365 312.345L205.498 313.109L207.905 330.986Z" fill="#FFB573"/>
<path d="M216.301 329.269L207.465 330.123C207.142 330.15 206.908 330.401 206.89 330.716L206.567 337.699C206.531 338.427 207.223 339.039 207.968 338.958C211.039 338.607 212.512 338.284 216.4 337.915C218.789 337.681 222.309 337.592 225.614 337.277C228.846 336.962 228.775 333.727 227.365 333.565C221.07 332.855 219.92 331.147 217.675 329.629C217.271 329.359 216.786 329.233 216.31 329.278L216.301 329.269Z" fill="#263238"/>
<path d="M202.149 156.499C202.149 156.499 212.206 218.074 214.146 254.546L214.505 319.877L206.36 321.468C206.36 321.468 194.561 279.783 193.205 255.696C189.604 191.767 168.797 191.659 181.315 156.383L202.14 156.499H202.149Z" fill="#263238"/>
<path d="M217.217 320.155L203.738 321.998L202.364 316.821L216.777 314.943L217.217 320.155Z" fill="#5F87E1"/>
<path d="M143.68 100.21H143.653V100.165C143.653 100.165 143.671 100.192 143.68 100.21Z" fill="#FFB573"/>
<path d="M144.542 90.4402H145.054C144.533 90.4402 144.138 90.8626 144.165 91.3839L144.982 107.031C145.009 107.553 145.449 107.975 145.97 107.975H145.458C144.937 107.975 144.497 107.553 144.47 107.031L143.653 91.3839C143.626 90.8626 144.021 90.4402 144.542 90.4402Z" fill="#5F87E1"/>
<path opacity="0.1" d="M144.542 90.4402H145.054C144.533 90.4402 144.138 90.8626 144.165 91.3839L144.982 107.031C145.009 107.553 145.449 107.975 145.97 107.975H145.458C144.937 107.975 144.497 107.553 144.47 107.031L143.653 91.3839C143.626 90.8626 144.021 90.4402 144.542 90.4402Z" fill="white"/>
<path d="M145.611 107.975H151.915C152.436 107.975 152.831 107.553 152.804 107.031L151.987 91.3839C151.96 90.8626 151.52 90.4402 150.999 90.4402H144.695C144.174 90.4402 143.779 90.8626 143.806 91.3839L144.623 107.031C144.65 107.553 145.09 107.975 145.611 107.975Z" fill="#5F87E1"/>
<path opacity="0.4" d="M145.611 107.975H151.915C152.436 107.975 152.831 107.553 152.804 107.031L151.987 91.3839C151.96 90.8626 151.52 90.4402 150.999 90.4402H144.695C144.174 90.4402 143.779 90.8626 143.806 91.3839L144.623 107.031C144.65 107.553 145.09 107.975 145.611 107.975Z" fill="white"/>
<path d="M152.418 106.708C152.427 106.87 152.373 107.022 152.265 107.139C152.157 107.247 152.005 107.31 151.843 107.31H145.728C145.377 107.31 145.081 107.022 145.063 106.672L144.264 91.4918C144.255 91.33 144.309 91.1773 144.417 91.0694C144.524 90.9526 144.677 90.8896 144.839 90.8896H150.954C151.304 90.8896 151.601 91.1773 151.619 91.5278L151.672 92.6153L152.418 106.708Z" fill="#263238"/>
<g opacity="0.1">
<path d="M151.672 92.6153L149.643 107.31H147.209L149.508 90.8896H150.954C151.304 90.8896 151.6 91.1773 151.618 91.5278L151.672 92.6153Z" fill="white"/>
<path d="M146.329 107.31H145.781L148.08 90.8896H148.628L146.329 107.31Z" fill="white"/>
</g>
<path d="M169.291 158.252C164.72 167.222 162.233 177.252 162.08 187.327C177.364 199.182 191.561 185.296 209.036 187.642C208.426 179.741 205.75 165.128 202.562 157.875C191.014 158.36 180.202 157.209 169.291 158.252Z" fill="#5F87E1"/>
<path d="M170.881 155.043C170.881 155.043 169.65 158.207 170 158.207H202.041C202.32 158.207 202.544 158.072 202.562 157.902L202.84 155.16C202.858 154.972 202.625 154.81 202.32 154.81H171.383C171.159 154.81 170.952 154.9 170.89 155.043H170.881Z" fill="white"/>
<path d="M175.397 158.477H174.571C174.41 158.477 174.284 158.396 174.293 158.288L174.679 154.729C174.688 154.621 174.832 154.54 175.002 154.54H175.829C175.99 154.54 176.116 154.621 176.107 154.729L175.721 158.288C175.712 158.396 175.568 158.477 175.397 158.477Z" fill="#5F87E1"/>
<path d="M195.477 158.477H194.65C194.489 158.477 194.363 158.396 194.372 158.288L194.758 154.729C194.767 154.621 194.911 154.54 195.081 154.54H195.908C196.069 154.54 196.195 154.621 196.186 154.729L195.8 158.288C195.791 158.396 195.647 158.477 195.477 158.477Z" fill="#5F87E1"/>
</g>
<defs>
<clipPath id="clip0_27_9959">
<rect width="449" height="345" fill="white" transform="translate(0 0.995117)"/>
</clipPath>
</defs>
</svg>
