<svg width="23" height="19" viewBox="0 0 23 19" fill="none" xmlns="http://www.w3.org/2000/svg">
<path fill-rule="evenodd" clip-rule="evenodd" d="M16.095 0.106445C15.7651 0.194433 15.9325 0.102618 11.953 2.37823L8.39926 4.41037H5.44252C2.22053 4.41037 2.20673 4.41133 1.71081 4.67347C1.39932 4.8381 0.942874 5.29094 0.792857 5.5842C0.524105 6.10953 0.534271 5.8688 0.534271 11.7009C0.534271 17.5985 0.520838 17.3075 0.819171 17.8619C0.986624 18.1731 1.40838 18.5792 1.73354 18.7425C2.25844 19.0059 1.68786 18.9915 11.5751 18.9915C21.5743 18.9915 20.9055 19.0102 21.4663 18.7142C21.7831 18.5469 22.0954 18.2395 22.3115 17.8823C22.627 17.3606 22.6162 17.5819 22.6133 11.6692C22.6109 6.7901 22.6041 6.32196 22.5316 6.04706C22.3184 5.23813 21.6226 4.60772 20.7716 4.45257L20.4684 4.3973L19.4605 2.66315C18.3783 0.801052 18.1995 0.559462 17.7119 0.299554C17.2361 0.0459338 16.6046 -0.029478 16.095 0.106445ZM16.998 1.5877C17.0905 1.63919 17.2099 1.74682 17.2634 1.82692C17.4689 2.13468 18.7576 4.37406 18.7395 4.39201C18.729 4.4024 17.0702 4.40568 15.0533 4.39926L11.386 4.38759L13.8105 2.99783C15.1439 2.23346 16.2888 1.58337 16.3547 1.55316C16.5379 1.46923 16.8116 1.4839 16.998 1.5877ZM20.8041 5.98522C21.0796 6.18895 21.1196 6.29038 21.1364 6.82856L21.152 7.32659H15.5337C9.9936 7.32659 9.91278 7.32787 9.73378 7.41832C9.25299 7.66128 9.25331 8.44674 9.73423 8.70022C9.88784 8.78115 10.1304 8.7847 15.5199 8.7847H21.1453L21.1331 12.9279C21.121 17.0319 21.12 17.0722 21.026 17.1969C20.9738 17.2661 20.874 17.3649 20.8041 17.4166L20.677 17.5106H11.5751H2.47318L2.34612 17.4166C2.27624 17.3649 2.17641 17.2661 2.12424 17.1969C2.03026 17.0722 2.02925 17.0319 2.01715 12.9279L2.00496 8.7847H3.21397C4.30297 8.7847 4.43891 8.77632 4.58331 8.70022C5.06424 8.44674 5.06456 7.66128 4.58378 7.41832C4.41559 7.33334 4.3141 7.32659 3.20431 7.32659H2.00638V6.89668C2.00638 6.43491 2.047 6.27224 2.20498 6.10192C2.43077 5.85837 1.89354 5.87094 11.6293 5.88147L20.677 5.89127L20.8041 5.98522ZM6.85745 7.3907C6.39332 7.59092 6.2837 8.20205 6.64731 8.56225C6.92931 8.84152 7.34274 8.85642 7.63997 8.59793C8.25918 8.05943 7.61412 7.06422 6.85745 7.3907ZM3.91553 11.7726C3.70239 11.8824 3.57349 12.0218 3.521 12.1994C3.49041 12.3028 3.47817 12.9509 3.48728 13.9873C3.5009 15.5466 3.50536 15.6182 3.59636 15.7388C3.64852 15.808 3.74835 15.9068 3.81823 15.9585C3.94129 16.0496 3.99962 16.0525 5.68666 16.0525C7.3737 16.0525 7.43204 16.0496 7.5551 15.9585C7.62498 15.9068 7.7248 15.808 7.77697 15.7387C7.86884 15.6169 7.87183 15.559 7.87183 13.8926V12.1723L7.7479 12.0114C7.51093 11.7036 7.49294 11.7009 5.67972 11.7012C4.29635 11.7014 4.03293 11.7121 3.91553 11.7726ZM11.2063 11.7853C10.9565 11.9168 10.8391 12.123 10.8391 12.43C10.8391 12.74 10.9624 12.957 11.208 13.0792C11.3517 13.1507 11.5403 13.1589 13.0472 13.1589C14.8958 13.1589 14.927 13.1546 15.1371 12.8709C15.2766 12.6825 15.2725 12.1896 15.1298 11.9913C14.9242 11.7058 14.8889 11.7009 13.0395 11.7009C11.4997 11.7009 11.3539 11.7076 11.2063 11.7853ZM6.42272 13.8881V14.6171H5.68666H4.95061V13.8881V13.159H5.68666H6.42272V13.8881ZM11.2071 14.7009C10.9565 14.8332 10.8391 15.039 10.8391 15.3462C10.8391 15.656 10.9622 15.8729 11.208 15.9958C11.3576 16.0706 11.6259 16.0752 15.2865 16.0642C19.1889 16.0525 19.2055 16.0521 19.3348 15.9566C19.7436 15.6547 19.7436 15.0377 19.3348 14.7358C19.2055 14.6403 19.1887 14.6399 15.2865 14.6279C11.5384 14.6165 11.3611 14.6196 11.2071 14.7009Z" fill="#696C87"/>
</svg>
