<svg width="349" height="85" viewBox="0 0 349 85" fill="none" xmlns="http://www.w3.org/2000/svg">
<path d="M22.874 68.5782C22.0739 68.5782 21.6739 68.1475 21.6739 67.2859C21.6739 66.5474 22.1355 65.255 23.0586 63.4087C23.9202 61.7471 25.3664 59.5931 27.3973 56.9468C29.4282 54.239 31.9822 51.0696 35.0593 47.4386C36.2901 44.7307 37.4286 41.9613 38.4748 39.1304C39.5211 36.2995 40.475 33.3762 41.3365 30.3607C42.5058 26.2374 43.3674 22.9141 43.9213 20.3909C44.5367 17.8061 44.8444 15.6214 44.8444 13.8367C44.8444 10.2672 43.4905 8.48253 40.7827 8.48253C36.167 8.48253 31.3975 10.1442 26.4742 13.4674C23.274 15.6829 20.2584 18.2677 17.4275 21.2217C14.5966 24.1757 12.1041 27.2528 9.95015 30.453C7.85773 33.5916 6.25764 36.6072 5.14988 39.4997C4.53446 40.9151 4.22675 42.1767 4.22675 43.2845C4.22675 45.2538 5.30374 46.2385 7.4577 46.2385C8.56546 46.2385 10.1656 45.8693 12.258 45.1308C14.2889 44.3923 16.4428 43.346 18.7199 41.9921C20.9969 40.6382 23.2432 39.0996 25.4587 37.3765C27.6742 35.6533 29.6436 33.8994 31.3668 32.1146C32.2283 31.253 32.9361 30.8223 33.4899 30.8223C33.7977 30.8223 33.9515 30.9761 33.9515 31.2838C33.9515 31.6531 33.6746 32.1146 33.1207 32.6685C31.1514 34.6379 28.8128 36.6687 26.1049 38.7612C23.3971 40.7921 20.6585 42.6383 17.8891 44.2999C15.1197 45.9616 12.5349 47.254 10.1348 48.1771C8.16544 48.9771 6.31918 49.3772 4.596 49.3772C1.76507 49.3772 0.349609 48.0232 0.349609 45.3154C0.349609 43.5922 0.841945 41.5306 1.82662 39.1304C3.61133 34.7609 6.74997 29.8991 11.2425 24.545C14.3196 20.9755 17.6121 17.7446 21.12 14.8521C24.6894 11.8981 28.2897 9.55951 31.9206 7.83634C35.5516 6.11316 38.9672 5.25158 42.1674 5.25158C46.6599 5.25158 48.9062 7.95942 48.9062 13.3751C48.9062 15.406 48.6293 17.6831 48.0754 20.2063C47.5215 22.7295 46.7522 25.622 45.7676 28.8837C45.6445 29.2529 45.5214 29.653 45.3983 30.0838C45.2752 30.453 45.1521 30.853 45.0291 31.2838C44.7214 32.4531 44.3521 33.7147 43.9213 35.0687C43.4905 36.361 42.9674 37.7765 42.352 39.315C43.7059 37.8996 45.0598 36.5764 46.4138 35.3456C47.8292 34.0532 49.2447 32.8224 50.6602 31.6531C51.6448 30.853 52.7834 29.9607 54.0757 28.976C55.3681 27.9298 56.8451 26.7913 58.5068 25.5604C60.8453 23.7757 62.8455 22.8833 64.5071 22.8833C65.2456 22.8833 65.7995 23.0987 66.1687 23.5295C66.5995 23.8988 66.6611 24.2988 66.3533 24.7296L63.9532 28.6991C62.7839 30.6684 61.83 32.2685 61.0915 33.4993C60.353 34.7302 59.8607 35.5918 59.6145 36.0841C58.6298 37.8073 57.5836 39.7766 56.4759 41.9921C55.3681 44.1461 54.4142 46.2077 53.6142 48.1771C52.8757 50.1464 52.5064 51.7465 52.5064 52.9774C52.5064 54.3313 53.0603 55.0082 54.168 55.0082C55.1527 55.0082 56.5374 54.4236 58.3221 53.2543C60.1068 52.0235 61.83 50.6388 63.4916 49.1002C67.9842 44.9769 71.8614 40.9151 75.1231 36.9149C78.4463 32.8531 81.3388 28.2067 83.8005 22.9757C84.9698 20.5755 85.5544 18.4523 85.5544 16.6061C85.5544 13.7751 83.9543 12.3289 80.7542 12.2674C79.9541 12.2674 79.5541 12.0827 79.5541 11.7135C79.5541 11.4673 79.7079 11.1904 80.0157 10.8827C80.8772 10.0211 81.985 9.59028 83.3389 9.59028C84.8775 9.59028 86.1699 10.1134 87.2161 11.1596C88.2623 12.1443 88.7854 13.5905 88.7854 15.4983C88.7854 17.5292 88.0777 20.114 86.6622 23.2526C85.6775 25.2835 84.6621 27.1913 83.6159 28.976C82.6312 30.7607 81.585 32.4223 80.4772 33.9609C79.0002 35.9918 77.554 37.838 76.1385 39.4997C74.7846 41.0998 73.246 42.7614 71.5229 44.4846C69.7997 46.2077 67.6457 48.3002 65.061 50.7618C63.8917 51.8696 62.5377 52.9466 60.9992 53.9928C59.5222 55.039 58.0452 55.9006 56.5682 56.5776C55.0912 57.193 53.7988 57.5007 52.691 57.5007C50.5986 57.5007 49.5524 56.2699 49.5524 53.8082C49.5524 52.4543 49.9216 50.6695 50.6602 48.454C50.9679 47.4078 51.3987 46.2385 51.9525 44.9461C52.5064 43.6538 53.1218 42.2383 53.7988 40.6997C54.2296 39.8382 54.7527 38.7919 55.3681 37.5611C55.9835 36.2687 56.6913 34.8533 57.4913 33.3147C57.4913 33.3147 57.8913 32.5762 58.6914 31.0992C59.4299 29.6837 59.7991 28.6683 59.7991 28.0529C59.7991 27.7452 59.7068 27.5913 59.5222 27.5913C59.3376 27.5913 58.9683 27.7759 58.4144 28.1452C55.0296 30.5453 52.1679 32.6993 49.8293 34.6071C47.4907 36.5149 45.2752 38.5765 43.1828 40.7921C42.3212 41.7767 41.4289 42.8537 40.5057 44.023C39.5826 45.1923 38.6287 46.4539 37.644 47.8078C35.6131 52.485 33.613 56.5468 31.6437 59.9931C29.6743 63.501 27.9819 65.8089 26.5665 66.9166C25.0895 68.0244 23.8586 68.5782 22.874 68.5782Z" fill="#3C3F59"/>
<path d="M87.6055 37.0995C86.8055 37.0995 86.4054 36.9149 86.4054 36.5457C86.4054 36.2379 86.6208 35.8072 87.0516 35.2533C87.544 34.6379 88.0978 34.1147 88.7133 33.684C90.0672 32.8224 91.1134 32.0839 91.8519 31.4684C92.6519 30.853 93.6059 29.8068 94.7136 28.3298C94.7751 28.4529 94.8059 28.6991 94.8059 29.0683C94.8059 29.8684 94.4674 30.853 93.7905 32.0223C93.175 33.1301 92.4673 34.1455 91.6673 35.0687C90.8672 35.9918 90.1595 36.5764 89.5441 36.8226C88.9902 37.0072 88.344 37.0995 87.6055 37.0995ZM79.3897 59.7162C78.8973 59.7162 78.4358 59.5316 78.005 59.1623C77.5742 58.7931 77.3588 58.3007 77.3588 57.6853C77.3588 56.3929 78.2511 54.0236 80.0359 50.5772L81.0513 48.5463C81.1744 48.4233 81.3282 48.1155 81.5129 47.6232C81.759 47.1309 82.0975 46.4847 82.5283 45.6846C82.9591 44.8231 83.2976 44.0538 83.5437 43.3768C83.7899 42.6999 83.9745 42.0537 84.0976 41.4382C84.0976 41.3767 84.2207 41.2536 84.4669 41.069C84.713 40.8844 84.9592 40.7305 85.2054 40.6074L85.7592 40.5151C86.2516 40.5151 86.6516 40.6074 86.9593 40.7921C87.3286 40.9767 87.4517 41.2228 87.3286 41.5306C86.8978 42.4537 86.5285 43.2537 86.2208 43.9307C85.9131 44.6077 85.6669 45.1923 85.4823 45.6846H85.39C84.713 47.2232 84.1284 48.7002 83.636 50.1157C83.2053 51.4696 83.0206 52.762 83.0822 53.9928L83.1745 56.4853C83.1129 57.1007 82.8975 57.6238 82.5283 58.0546C82.2821 58.2392 81.9436 58.4546 81.5129 58.7008C81.0821 59.0085 80.5282 59.3162 79.8512 59.6239C79.7897 59.6854 79.6358 59.7162 79.3897 59.7162Z" fill="#3C3F59"/>
<path d="M88.4709 63.4087C87.794 63.4087 87.2093 63.1933 86.717 62.7625C86.2862 62.3317 86.1016 61.8086 86.1631 61.1932C86.2862 58.67 86.7478 56.2391 87.5478 53.9005C88.4094 51.5619 89.6402 48.7617 91.2403 45.5C91.4249 45.0692 91.5788 44.7 91.7019 44.3923C91.8865 44.023 92.0404 43.7153 92.1635 43.4691C93.5174 40.5767 94.9021 37.8073 96.3175 35.161C97.733 32.5147 99.1485 29.9299 100.564 27.4067L101.856 25.0989C103.333 22.4526 104.626 20.3294 105.733 18.7293C106.841 17.0676 107.949 15.8676 109.057 15.1291C110.472 14.2675 111.334 13.8367 111.641 13.8367C112.134 13.8367 112.626 14.2675 113.118 15.1291C113.426 15.7445 112.811 17.2523 111.272 19.6524C110.472 20.8832 109.457 22.4218 108.226 24.268C107.057 26.1143 105.641 28.2067 103.98 30.5453C103.672 30.9761 103.149 31.7454 102.41 32.8531C101.733 33.8994 100.81 35.284 99.6408 37.0072C98.4715 38.7304 97.4561 40.2997 96.5945 41.7152C95.7329 43.0691 95.0252 44.2692 94.4713 45.3154C93.3635 47.3463 92.3173 49.531 91.3326 51.8696C90.348 54.1467 89.8556 55.9314 89.8556 57.2238C89.8556 58.3931 90.3172 58.9777 91.2403 58.9777C92.7173 58.9777 95.0867 57.7161 98.3484 55.1929C98.7177 55.2544 98.9023 55.439 98.9023 55.7467C98.9023 55.9929 98.5946 56.4237 97.9792 57.0391C97.4253 57.593 96.7176 58.1777 95.856 58.7931C95.0559 59.47 94.102 60.2393 92.9943 61.1009L91.5173 62.2087C90.5326 63.0087 89.5172 63.4087 88.4709 63.4087Z" fill="#3C3F59"/>
<path d="M102.715 63.4087C102.038 63.4087 101.453 63.1933 100.961 62.7625C100.53 62.3317 100.345 61.8086 100.407 61.1932C100.53 58.67 100.991 56.2391 101.791 53.9005C102.653 51.5619 103.884 48.7617 105.484 45.5C105.669 45.0692 105.822 44.7 105.945 44.3923C106.13 44.023 106.284 43.7153 106.407 43.4691C107.761 40.5767 109.146 37.8073 110.561 35.161C111.977 32.5147 113.392 29.9299 114.808 27.4067L116.1 25.0989C117.577 22.4526 118.869 20.3294 119.977 18.7293C121.085 17.0676 122.193 15.8676 123.3 15.1291C124.716 14.2675 125.577 13.8367 125.885 13.8367C126.377 13.8367 126.87 14.2675 127.362 15.1291C127.67 15.7445 127.054 17.2523 125.516 19.6524C124.716 20.8832 123.7 22.4218 122.469 24.268C121.3 26.1143 119.885 28.2067 118.223 30.5453C117.915 30.9761 117.392 31.7454 116.654 32.8531C115.977 33.8994 115.054 35.284 113.884 37.0072C112.715 38.7304 111.7 40.2997 110.838 41.7152C109.976 43.0691 109.269 44.2692 108.715 45.3154C107.607 47.3463 106.561 49.531 105.576 51.8696C104.592 54.1467 104.099 55.9314 104.099 57.2238C104.099 58.3931 104.561 58.9777 105.484 58.9777C106.961 58.9777 109.33 57.7161 112.592 55.1929C112.961 55.2544 113.146 55.439 113.146 55.7467C113.146 55.9929 112.838 56.4237 112.223 57.0391C111.669 57.593 110.961 58.1777 110.1 58.7931C109.3 59.47 108.346 60.2393 107.238 61.1009L105.761 62.2087C104.776 63.0087 103.761 63.4087 102.715 63.4087Z" fill="#3C3F59"/>
<path d="M119.728 58.8854C117.327 58.8854 116.127 57.8084 116.127 55.6544C116.127 55.5314 116.127 55.316 116.127 55.0082C116.189 54.7005 116.25 54.3313 116.312 53.9005C116.927 51.3773 118.158 48.9464 120.004 46.6078C121.912 44.2076 124.097 42.1152 126.559 40.3305C127.482 39.592 128.959 39.2227 130.99 39.2227C132.159 39.2227 133.174 39.4074 134.036 39.7766C134.959 40.0843 135.605 40.5767 135.975 41.2536C136.344 41.869 136.528 42.5768 136.528 43.3768C136.528 43.4999 136.498 43.6845 136.436 43.9307C136.436 44.1769 136.405 44.4538 136.344 44.7615C136.467 44.7 136.652 44.6692 136.898 44.6692C137.205 44.6692 137.575 44.6384 138.005 44.5769C138.436 44.5153 138.836 44.4538 139.206 44.3923C139.636 44.3307 140.067 44.2999 140.498 44.2999H140.867C141.544 44.2999 141.606 44.5769 141.052 45.1308C140.559 45.6231 139.883 45.9308 139.021 46.0539L135.882 46.4231C135.267 48.1463 134.19 49.8695 132.651 51.5927C131.174 53.3158 129.513 54.8236 127.666 56.116C125.882 57.3468 124.189 58.1469 122.589 58.5161C121.666 58.7623 120.712 58.8854 119.728 58.8854ZM131.544 45.1308C131.913 45.1308 132.344 45.1308 132.836 45.1308C133.39 45.0692 134.005 45.0077 134.682 44.9461C134.744 44.8231 134.775 44.5461 134.775 44.1153C134.775 43.0076 134.313 42.2383 133.39 41.8075C132.897 41.4998 132.282 41.3459 131.544 41.3459C130.62 41.3459 129.667 41.6536 128.682 42.2691C127.759 42.8229 126.774 43.5614 125.728 44.4846C127.02 44.9154 128.959 45.1308 131.544 45.1308ZM122.497 55.6544C123.112 55.6544 123.974 55.3775 125.082 54.8236C126.251 54.2082 127.451 53.4082 128.682 52.4235C129.913 51.4388 131.02 50.3926 132.005 49.2848C132.313 48.9771 132.621 48.6079 132.928 48.1771C133.236 47.6847 133.574 47.1924 133.944 46.7001L131.728 46.977C128.282 47.4694 125.205 47.7463 122.497 47.8078C121.143 50.0233 120.312 51.8696 120.004 53.3466C119.943 54.1467 120.158 54.7313 120.651 55.1006C121.143 55.4698 121.758 55.6544 122.497 55.6544Z" fill="#3C3F59"/>
<path d="M157.698 59.7162C156.406 59.5316 155.514 59.07 155.021 58.3315C154.591 57.6545 154.375 56.7006 154.375 55.4698C154.375 55.1621 154.406 54.6698 154.467 53.9928C154.591 53.3158 154.714 52.485 154.837 51.5004V50.7618C154.837 49.9003 154.683 49.4079 154.375 49.2848C154.314 49.2233 154.16 49.1925 153.914 49.1925C153.483 49.1925 152.683 49.5926 151.513 50.3926C151.452 50.4541 151.113 50.7618 150.498 51.3157C149.883 51.8081 148.99 52.5466 147.821 53.5312C144.436 56.5468 142.128 57.9007 140.897 57.593C139.605 57.2853 138.959 56.4237 138.959 55.0082C138.959 53.6543 139.451 52.0235 140.436 50.1157C141.236 48.3925 142.221 46.7309 143.39 45.1308C144.559 43.4691 145.482 42.3921 146.159 41.8998C146.652 41.5921 147.052 41.4382 147.359 41.4382C147.667 41.4382 147.944 41.5613 148.19 41.8075C148.313 41.9306 148.375 42.1152 148.375 42.3614C148.375 42.6075 148.221 42.8845 147.913 43.1922C147.298 43.8076 146.713 44.7615 146.159 46.0539C145.605 47.2847 145.328 48.3925 145.328 49.3772C145.328 49.5002 145.328 49.6541 145.328 49.8387C145.39 50.0233 145.452 50.2387 145.513 50.4849C145.821 50.6695 146.159 50.7618 146.529 50.7618C147.267 50.7618 148.283 50.3926 149.575 49.6541C150.067 49.3464 150.744 48.9156 151.606 48.3617C152.467 47.7463 153.514 46.977 154.744 46.0539C155.237 45.6846 155.791 45.5 156.406 45.5C157.083 45.5 157.637 45.7462 158.068 46.2385C158.56 46.6693 158.806 47.2847 158.806 48.0848C158.806 48.2079 158.775 48.3925 158.714 48.6386C158.714 48.8233 158.683 49.0694 158.622 49.3772C158.498 49.8695 158.375 50.3311 158.252 50.7618C158.129 51.1926 158.037 51.6234 157.975 52.0542C157.914 52.3004 157.883 52.6389 157.883 53.0697C157.883 53.4389 157.883 53.8697 157.883 54.3621C157.883 55.716 158.591 56.3929 160.006 56.3929C160.622 56.3929 161.237 56.3006 161.853 56.116C162.529 55.8698 163.022 55.5929 163.329 55.2852C166.284 52.7004 169.176 49.3464 172.007 45.2231L171.915 44.1153C171.853 43.4999 171.976 42.9153 172.284 42.3614C172.592 41.746 172.992 41.1305 173.484 40.5151C173.669 40.2689 173.915 40.1459 174.222 40.1459C174.53 40.1459 174.807 40.2997 175.053 40.6074C175.361 40.8536 175.515 41.1921 175.515 41.6229C175.515 41.9306 175.423 42.2691 175.238 42.6383C174.869 43.3153 174.284 44.2999 173.484 45.5923C172.684 46.8232 171.761 48.1771 170.715 49.6541C169.668 51.1311 168.622 52.5158 167.576 53.8082C166.53 55.1006 165.576 56.116 164.714 56.8545V56.9468C163.668 57.8699 162.468 58.5777 161.114 59.07C159.76 59.6239 158.622 59.8393 157.698 59.7162Z" fill="#3C3F59"/>
<path d="M201.78 31.2838C201.165 31.2838 200.488 31.13 199.749 30.8223C198.026 30.3299 196.272 29.2837 194.487 27.6836C192.579 26.022 190.949 24.0526 189.595 21.7756C188.241 19.437 187.441 17.1599 187.195 14.9444C187.133 14.6983 187.102 14.3906 187.102 14.0213C187.102 13.6521 187.102 13.2213 187.102 12.7289C187.102 4.72847 192.026 0.728241 201.872 0.728241C206.857 0.728241 212.334 1.52829 218.304 3.12838C224.335 4.72847 231.259 6.85167 239.074 9.49797C240.49 9.9903 241.782 10.4519 242.952 10.8827C244.182 11.2519 245.29 11.5904 246.275 11.8981C248.675 12.5751 250.767 12.9135 252.552 12.9135C254.583 12.9135 256.029 12.5135 256.891 11.7135C257.814 10.9134 258.276 10.0211 258.276 9.03641V8.66715C258.276 7.92865 258.491 7.5594 258.922 7.5594C259.414 7.5594 259.937 7.92865 260.491 8.66715C260.614 8.79024 260.676 9.0364 260.676 9.40565C260.676 10.8211 259.845 12.1443 258.183 13.3751C256.522 14.606 254.46 15.2214 251.998 15.2214C251.629 15.2214 251.29 15.2214 250.983 15.2214C250.737 15.2214 250.49 15.1906 250.244 15.1291C247.844 14.8213 245.198 14.2675 242.305 13.4674C239.474 12.6058 235.967 11.4673 231.782 10.0518C225.935 8.0825 221.073 6.57473 217.196 5.52851C213.319 4.4823 209.719 3.9592 206.396 3.9592C202.765 3.9592 199.688 4.75924 197.164 6.35933C194.703 7.95942 192.887 10.575 191.718 14.2059C191.533 14.7598 191.441 15.3752 191.441 16.0522C191.441 17.2215 191.718 18.5446 192.272 20.0216C192.826 21.4371 193.564 22.8218 194.487 24.1757C195.41 25.5296 196.395 26.6989 197.441 27.6836C198.488 28.6067 199.472 29.1606 200.395 29.3453C201.872 29.653 202.611 30.1453 202.611 30.8223C202.611 31.13 202.334 31.2838 201.78 31.2838ZM203.534 63.6857C202.118 63.6857 201.472 62.7625 201.595 60.9163C202.088 57.0391 203.319 52.885 205.288 48.454C206.273 46.177 207.688 43.2537 209.534 39.6843C211.442 36.0533 213.781 31.8069 216.55 26.9451C218.458 23.4988 219.996 20.8217 221.166 18.9139C222.397 17.0061 223.689 15.5906 225.043 14.6675C226.212 13.8674 227.32 13.4674 228.366 13.4674C229.351 13.4674 229.597 13.8674 229.105 14.6675C228.12 16.0214 226.92 17.7446 225.504 19.837C224.15 21.8679 222.581 24.268 220.796 27.0374C218.458 30.7299 216.181 34.484 213.965 38.2996C211.75 42.1152 209.873 45.6231 208.334 48.8233C206.796 51.9619 205.78 54.4851 205.288 56.3929C205.103 57.1314 205.011 57.7469 205.011 58.2392C205.011 59.2854 205.442 59.8085 206.303 59.8085C207.657 59.8085 210.119 58.4238 213.688 55.6544C213.811 55.5314 213.965 55.4698 214.15 55.4698C214.396 55.4698 214.519 55.6237 214.519 55.9314C214.519 56.3006 214.396 56.6083 214.15 56.8545C213.904 57.1007 213.596 57.3468 213.227 57.593C212.858 57.9007 212.427 58.2392 211.934 58.6084C211.442 58.9162 211.011 59.1931 210.642 59.4393C210.273 59.6854 210.027 59.8701 209.904 59.9931C209.104 60.547 208.427 61.0086 207.873 61.3778C207.319 61.8086 206.888 62.1471 206.58 62.3933C205.349 63.2549 204.334 63.6857 203.534 63.6857Z" fill="#3C3F59"/>
<path d="M223.959 59.2546C223.159 59.2546 222.759 58.5469 222.759 57.1314C222.759 55.9621 223.036 54.8236 223.59 53.7159C225.005 51.008 226.297 48.3309 227.467 45.6846C228.267 44.0845 229.005 42.546 229.682 41.069C230.421 39.592 231.098 38.2381 231.713 37.0072C232.082 36.638 232.452 36.4533 232.821 36.4533C233.621 36.4533 233.867 36.8226 233.559 37.5611C233.436 37.9919 233.252 38.515 233.006 39.1304C232.821 39.6843 232.575 40.3613 232.267 41.1613C231.282 43.7461 230.698 45.5616 230.513 46.6078C232.236 45.0692 233.99 43.6538 235.775 42.3614C237.621 41.0075 239.344 39.8997 240.944 39.0381C242.545 38.1765 243.898 37.7457 245.006 37.7457C245.991 37.7457 246.483 38.1458 246.483 38.9458C246.483 39.6228 246.176 40.3613 245.56 41.1613C244.945 41.8998 244.329 42.2691 243.714 42.2691C243.406 42.2691 243.16 42.1767 242.975 41.9921C242.791 41.9306 242.421 41.8998 241.868 41.8998C239.898 41.8998 237.837 42.8537 235.683 44.7615C233.406 46.6693 231.344 48.9771 229.498 51.685C227.651 54.3313 226.297 56.6391 225.436 58.6084C225.005 59.0392 224.513 59.2546 223.959 59.2546Z" fill="#3C3F59"/>
<path d="M247.431 58.3315C246.139 58.3315 245 57.993 244.015 57.3161C242.415 56.0852 241.615 54.239 241.615 51.7773C241.615 49.3156 242.477 46.7001 244.2 43.9307C245.923 41.1613 248.539 38.6073 252.047 36.2687C252.662 35.8379 253.493 35.6225 254.539 35.6225C255.893 35.6225 257.093 35.9918 258.139 36.7303C259.247 37.4688 259.678 38.4227 259.432 39.592C259.001 41.4998 258.047 43.1922 256.57 44.6692C255.154 46.1462 253.462 47.4694 251.493 48.6386C249.585 49.7464 247.616 50.8234 245.585 51.8696C245.523 52.0542 245.462 52.2389 245.4 52.4235C245.4 52.6081 245.4 52.7927 245.4 52.9774C245.4 53.8389 245.677 54.6082 246.231 55.2852C246.846 55.9006 247.677 56.2083 248.723 56.2083C249.523 56.2083 250.2 56.0852 250.754 55.8391C251.739 55.4698 252.539 55.1313 253.154 54.8236C253.831 54.5159 254.601 54.0543 255.462 53.4389C256.324 52.8235 257.493 51.9004 258.97 50.6695C259.647 50.1772 260.047 49.931 260.17 49.931C260.539 49.931 260.662 50.208 260.539 50.7618C259.924 51.7465 258.847 52.8235 257.308 53.9928C255.831 55.1621 254.17 56.1775 252.323 57.0391C250.539 57.9007 248.908 58.3315 247.431 58.3315ZM246.139 49.3772C246.631 49.3772 247.646 48.8848 249.185 47.9001C250.723 46.9155 252.17 45.8385 253.524 44.6692C255.862 42.5152 257.031 40.8536 257.031 39.6843C257.031 39.3766 256.939 39.0996 256.755 38.8535C256.57 38.5458 256.293 38.3919 255.924 38.3919C254.754 38.3919 252.785 39.7766 250.016 42.546C248.108 44.3923 246.815 46.6693 246.139 49.3772Z" fill="#3C3F59"/>
<path d="M265.731 58.3315C264.439 58.3315 263.3 57.993 262.316 57.3161C260.716 56.0852 259.915 54.239 259.915 51.7773C259.915 49.3156 260.777 46.7001 262.5 43.9307C264.223 41.1613 266.839 38.6073 270.347 36.2687C270.962 35.8379 271.793 35.6225 272.839 35.6225C274.193 35.6225 275.393 35.9918 276.44 36.7303C277.547 37.4688 277.978 38.4227 277.732 39.592C277.301 41.4998 276.347 43.1922 274.87 44.6692C273.455 46.1462 271.762 47.4694 269.793 48.6386C267.885 49.7464 265.916 50.8234 263.885 51.8696C263.823 52.0542 263.762 52.2389 263.7 52.4235C263.7 52.6081 263.7 52.7927 263.7 52.9774C263.7 53.8389 263.977 54.6082 264.531 55.2852C265.147 55.9006 265.977 56.2083 267.024 56.2083C267.824 56.2083 268.501 56.0852 269.054 55.8391C270.039 55.4698 270.839 55.1313 271.455 54.8236C272.132 54.5159 272.901 54.0543 273.762 53.4389C274.624 52.8235 275.793 51.9004 277.27 50.6695C277.947 50.1772 278.347 49.931 278.47 49.931C278.84 49.931 278.963 50.208 278.84 50.7618C278.224 51.7465 277.147 52.8235 275.609 53.9928C274.132 55.1621 272.47 56.1775 270.624 57.0391C268.839 57.9007 267.208 58.3315 265.731 58.3315ZM264.439 49.3772C264.931 49.3772 265.947 48.8848 267.485 47.9001C269.024 46.9155 270.47 45.8385 271.824 44.6692C274.162 42.5152 275.332 40.8536 275.332 39.6843C275.332 39.3766 275.239 39.0996 275.055 38.8535C274.87 38.5458 274.593 38.3919 274.224 38.3919C273.055 38.3919 271.085 39.7766 268.316 42.546C266.408 44.3923 265.116 46.6693 264.439 49.3772Z" fill="#3C3F59"/>
<path fill-rule="evenodd" clip-rule="evenodd" d="M278.165 49.1408C278.48 48.2967 278.915 47.3568 279.131 47.0516C279.347 46.7464 279.634 46.0874 279.769 45.587C279.904 45.0866 280.335 43.8755 280.728 42.8957C281.518 40.922 281.935 38.8044 282.095 35.9571C282.185 34.3403 282.282 33.9012 282.818 32.6789C283.159 31.9028 283.472 31.0243 283.513 30.7269C283.641 29.8173 285.593 27.1848 286.937 26.1097C287.614 25.5677 288.333 25.1473 288.533 25.1754C288.873 25.2231 288.872 25.2475 288.529 25.5344C288.327 25.7036 288.018 26.1283 287.843 26.4778C287.668 26.8274 287.17 27.4467 286.736 27.854C286.018 28.528 285.948 28.6732 285.955 29.4707C285.959 29.9526 286.211 31.0756 286.515 31.9662C286.89 33.0669 287.031 33.8412 286.955 34.3838C286.818 35.3699 285.432 37.5792 284.213 38.7556C282.571 40.3403 282.313 40.7002 281.578 42.4366C281.173 43.3926 280.865 44.2056 280.893 44.2435C281.018 44.4094 282.568 42.545 285.344 38.8896C291.774 30.4235 291.875 30.2358 292.034 26.4025C292.092 25.0174 292.197 23.8402 292.268 23.7864C293.04 23.204 293.985 26.9105 293.843 29.9626C293.772 31.4852 293.278 32.5418 292.032 33.8375C291.594 34.2934 291.298 34.6753 291.376 34.6861C291.454 34.6971 292.297 34.3738 293.25 33.9681C294.202 33.5622 295.615 33.0781 296.389 32.8926C297.163 32.7068 297.907 32.4921 298.042 32.4157C298.388 32.2197 299.055 30.1119 299.14 28.9434C299.249 27.4482 299.682 26.2518 300.895 24.0876C301.774 22.5207 302.301 21.8371 303.446 20.7816C305.438 18.9456 306.057 18.2182 306.709 16.9492C307.018 16.3475 307.389 15.8335 307.533 15.8068C307.729 15.7707 307.689 15.9363 307.376 16.4628C307.124 16.8865 306.969 17.4157 306.985 17.7916C307.005 18.2452 306.927 18.4359 306.701 18.4883C306.53 18.5279 306.374 18.6748 306.354 18.8147C306.289 19.2776 304.611 21.6485 303.381 23.0159C302.715 23.7562 302.14 24.4592 302.103 24.5781C302.066 24.6971 301.753 25.1114 301.408 25.4987C300.475 26.5473 299.966 27.6674 299.77 29.1064L299.595 30.3937L300.314 29.2073C300.71 28.5548 301.748 27.2049 302.622 26.2073C304.38 24.1996 305.419 22.704 305.471 22.108L305.505 21.7166L305.354 22.0915C304.985 23.0076 302.517 25.0314 302.232 24.6517C302.179 24.5813 302.408 24.4138 302.741 24.2791C303.614 23.9261 305.072 22.3074 305.175 21.5765C305.221 21.2459 305.538 20.575 305.879 20.0855C306.219 19.596 306.517 19.0614 306.54 18.8975C306.563 18.7338 306.675 18.6128 306.789 18.6288C306.904 18.645 306.921 18.8146 306.827 19.0111C306.734 19.2054 306.509 19.8201 306.326 20.3768C305.311 23.4771 305.191 23.6868 303.024 26.1503C301.519 27.8618 299.801 30.4225 299.495 31.4109C299.292 32.0656 299.304 32.0923 299.77 32.0139C300.039 31.9688 301.204 31.8476 302.361 31.7447C303.518 31.6418 304.584 31.5343 304.73 31.5057C304.922 31.4682 304.853 31.0851 304.48 30.1221C304.196 29.3898 303.997 28.5475 304.039 28.2505C304.123 27.6552 305.711 25.1819 306.206 24.8758C306.415 24.7465 306.575 24.2894 306.689 23.4929C307.121 20.4661 308.622 18.14 311.711 15.7081C313.527 14.2786 313.838 13.9483 314.098 13.1737C314.519 11.9195 315.343 11.0605 316.357 10.8176C317.367 10.5754 317.396 10.6638 316.491 11.2319C315.351 11.9472 314.662 13.225 314.383 15.1399C314.085 17.1813 313.373 19.4025 312.688 20.4271C312.231 21.112 312.211 21.1924 312.519 21.1156C313.276 20.9273 315.926 20.9163 317.253 21.0962C318.491 21.264 318.818 21.2247 320.07 20.7573C320.849 20.4664 321.725 20.1126 322.017 19.971C322.678 19.6502 323.685 19.5886 323.999 19.8496C324.164 19.9865 324.03 20.0612 323.559 20.0949C323.187 20.1215 322.766 20.2134 322.623 20.2991C322.48 20.3845 322.267 20.3752 322.15 20.2782C322.021 20.1705 321.977 20.1909 322.038 20.3306C322.094 20.4567 322.043 20.6021 321.926 20.6537C321.809 20.7052 321.601 20.9006 321.464 21.088C321.231 21.4067 321.258 21.4198 321.879 21.2921C322.681 21.1275 325.647 21.5095 327.807 22.0558C329.539 22.4936 329.882 22.8211 328.403 22.625C327.234 22.47 325.798 22.7874 324.317 23.5276C323.136 24.1181 320.955 24.5804 319.988 24.4446C319.573 24.3862 319.34 24.4963 319.068 24.8798C318.065 26.2958 315.395 27.6251 312.527 28.1367C311.051 28.4001 308.945 29.4017 307.052 30.7403C306.388 31.2103 305.967 31.5529 306.118 31.5015C306.753 31.2844 311.58 31.3868 313.524 31.6588C315.591 31.9478 315.676 31.9421 317.863 31.3596C319.09 31.0328 321.35 30.2346 322.886 29.5856C327.22 27.7548 330.144 27.2238 333.499 27.6585C335.161 27.8737 337.863 28.7639 338.033 29.1523C338.071 29.2393 337.422 29.2633 336.59 29.2056C334.66 29.0718 333.846 29.2409 331.347 30.2947C327.788 31.7951 325.202 32.2399 320.199 32.2124C319.22 32.2071 318.351 32.2474 318.267 32.302C318.029 32.4571 321.4 32.775 322.406 32.6925C322.902 32.6518 324.9 32.347 326.847 32.0153C335.1 30.6094 339.757 30.8957 342.746 32.9928C343.139 33.2685 343.452 33.5581 343.441 33.6359C343.43 33.714 342.439 33.6398 341.238 33.4713C339.575 33.2378 338.766 33.2183 337.837 33.3895L336.619 33.6141L337.874 33.8314C339.981 34.1963 342.617 34.9729 345.45 36.0632C346.935 36.6344 348.178 37.14 348.213 37.1867C348.248 37.2333 347.373 37.2018 346.268 37.1167C345.163 37.0315 343.232 36.9867 341.977 37.0171C338.257 37.1074 335.12 36.9248 332.436 36.462L329.914 36.0271L330.845 36.5704C331.356 36.8691 332.324 37.5619 332.996 38.1098C333.667 38.6579 334.518 39.253 334.887 39.4324C335.917 39.9333 337.39 41.0043 337.12 41.0564C336.989 41.0818 336.441 40.9019 335.904 40.6565C335.297 40.3791 334.176 40.1047 332.938 39.9309C331.159 39.6809 330.639 39.5131 328.021 38.3462C326.411 37.6284 324.389 36.6211 323.526 36.1078C322.664 35.5946 321.4 34.8404 320.717 34.4321C318.804 33.2888 317.421 32.9232 313.335 32.4815C311.351 32.267 309.498 32.148 309.217 32.2169C308.783 32.3234 308.867 32.3665 309.779 32.5054C311.215 32.7236 314.935 33.7345 316.445 34.3165C317.998 34.9145 321.35 36.6741 322.953 37.7327C324.122 38.5044 324.291 38.5597 325.92 38.7098C327.802 38.8829 327.982 39.0433 326.49 39.2176C325.961 39.2793 324.508 39.5774 323.259 39.8801C322.011 40.1829 320.547 40.4637 320.006 40.5042C319.466 40.5447 316.311 40.2383 312.997 39.8232C309.682 39.4082 306.658 39.0745 306.277 39.0819L305.582 39.0953L306.106 39.4708C307.249 40.2921 313.122 43.2977 314.069 43.5461C315.254 43.8575 316.671 43.8157 320.91 43.3451C323.65 43.0408 324.38 43.0365 326.983 43.3082C329.294 43.5497 330.338 43.7476 331.752 44.2131C332.748 44.5408 333.553 44.8758 333.542 44.9575C333.53 45.0391 332.837 45.0602 332.002 45.0041C331.167 44.9481 330.07 44.9927 329.565 45.103C329.06 45.2134 327.832 45.4 326.836 45.518C325.84 45.6358 325.2 45.7566 325.413 45.7864C325.925 45.858 332.364 49.0213 332.347 49.1933C332.34 49.2666 332.109 49.27 331.834 49.2011C331.56 49.1319 330.332 49.1595 329.106 49.2622C325.926 49.5287 323.028 49.101 320.86 48.0456C320.004 47.6285 318.919 46.935 318.45 46.5045C317.482 45.6154 317.435 45.5893 315.639 44.953C314.76 44.6416 314.428 44.5767 314.643 44.7586C316.561 46.3809 317.272 47.1582 318.653 49.1454C319.537 50.4168 320.524 52.043 320.846 52.7591C321.168 53.4752 321.647 54.3904 321.91 54.7928C322.173 55.1952 322.342 55.5596 322.285 55.6025C322.228 55.6454 321.797 55.4862 321.326 55.249C320.856 55.0116 320.353 54.8009 320.209 54.7807C320.065 54.7605 319.274 54.2788 318.45 53.7104C316.801 52.5721 316.181 52.4087 313.986 52.5337L312.734 52.605L313.168 53.5647C313.721 54.7875 313.687 54.9884 313.03 54.3653C312.081 53.4657 310.388 52.6086 309.241 52.4475C306.86 52.113 303.268 50.3605 301.577 48.7086C300.754 47.9035 299.35 45.8829 297.714 43.1485C297.197 42.2835 296.714 41.5255 296.64 41.4642C296.566 41.403 295.436 41.4705 294.13 41.6145C292.823 41.7586 291.283 41.8658 290.706 41.8528C290.13 41.8398 289.69 41.8715 289.729 41.9229C289.768 41.9743 290.206 42.1963 290.703 42.4163C295.674 44.6148 297.336 45.5824 299.615 47.6042C300.401 48.3008 301.604 49.3127 302.29 49.8527C303.039 50.4422 303.858 51.3306 304.341 52.0757C304.782 52.7584 305.066 53.2699 304.972 53.2125C304.877 53.1552 304.315 52.7616 303.721 52.3378C302.149 51.2151 301.183 50.7774 299.094 50.2424C297.02 49.7111 295.736 49.1221 293.648 47.745C292.51 46.9938 291.94 46.4175 290.692 44.7571C288.766 42.1936 288.425 41.9423 286.542 41.7002C284.652 41.457 284.101 41.6117 283.508 42.5514C283.246 42.9665 282.373 44.0541 281.568 44.9686C279.966 46.7884 279.145 48.2481 278.69 50.0866C278.526 50.7447 278.32 51.2726 278.23 51.2601C277.964 51.2227 278.484 49.5322 279.28 47.8422C279.782 46.7785 280.429 45.817 281.265 44.8955C282.643 43.3761 283.574 42.1205 283.448 41.9528C283.403 41.8924 283.186 42.0965 282.967 42.4063C282.747 42.7161 282.029 43.5655 281.37 44.294C280.016 45.7911 279.09 47.4027 278.351 49.5439C278.074 50.3491 277.77 50.9973 277.676 50.9841C277.474 50.9558 277.446 51.0644 278.165 49.1408ZM282.203 38.6463C282.187 39.2977 282.215 39.6343 282.266 39.3942C282.316 39.154 282.678 38.3582 283.071 37.6257C283.727 36.4038 283.826 36.0297 284.273 33.094C284.54 31.3341 284.867 29.6084 284.998 29.2592C285.141 28.8768 285.158 28.6585 285.039 28.7108C284.688 28.8651 284.043 30.1461 283.346 32.0725C282.971 33.1092 282.601 34.1268 282.523 34.3338C282.383 34.7094 282.256 36.4059 282.203 38.6463ZM282.563 39.9691C282.787 39.72 283.345 39.1745 283.803 38.7568C284.26 38.3394 285.101 37.3056 285.672 36.4597C286.914 34.619 286.99 33.9949 286.24 31.8356C285.972 31.0624 285.7 30.0213 285.636 29.5221C285.52 28.6151 285.519 28.6149 285.301 29.1781C285.182 29.488 284.874 31.1548 284.619 32.8818C284.147 36.0733 283.979 36.5853 282.33 39.8526C282.089 40.3295 282.191 40.3806 282.563 39.9691ZM283.85 41.6774C284.028 41.4993 284.473 41.3258 284.837 41.2917L285.5 41.2299L284.865 41.1203C284.293 41.0217 284.256 40.976 284.493 40.6517C284.637 40.4541 284.71 40.2861 284.656 40.2784C284.526 40.2602 283.593 41.5558 283.554 41.8073C283.538 41.9139 283.671 41.8555 283.85 41.6774ZM286.687 27.5554C287.024 27.2567 287.442 26.7081 287.616 26.3364L287.933 25.6603L287.328 26.0964C286.799 26.4783 286.233 27.3216 286.114 27.9057C286.092 28.0116 286.35 27.8539 286.687 27.5554ZM287.624 41.0998C291.209 41.3306 295.171 40.9331 299.232 39.9353C300.867 39.5338 302.48 39.1378 302.818 39.0549C303.423 38.9069 303.407 38.8932 301.849 38.2095C299.661 37.249 296.36 36.1786 294.996 35.9871C294.37 35.8991 293.177 35.871 292.343 35.9247C290.86 36.0204 290.778 36.0557 288.425 37.6025C286.35 38.9661 284.538 40.5578 284.745 40.8337C284.781 40.8805 286.076 41.0003 287.624 41.0998ZM286.185 38.8772C286.83 38.3858 288.377 37.2962 289.624 36.4556C291.608 35.1181 292.256 34.8066 294.813 33.9619C296.42 33.431 298.743 32.7881 299.976 32.5334C302.441 32.0237 302.655 31.883 300.459 32.2155C299.304 32.3903 299.022 32.378 298.917 32.1474C298.818 31.927 298.779 31.9347 298.742 32.1826C298.693 32.5104 298.152 32.7271 296.232 33.1876C295.148 33.4475 293.701 34.0062 291.517 35.008C289.852 35.7718 285.162 39.167 285.028 39.7051C285.02 39.7411 285.54 39.3685 286.185 38.8772ZM286.83 37.5138C287.021 37.3226 287.596 36.6904 288.109 36.1088C288.621 35.5272 289.511 34.5826 290.085 34.0096C291.774 32.3253 292.02 31.9804 292.528 30.5914C292.888 29.6088 293.036 28.8181 293.107 27.5016L293.203 25.7324L292.845 27.1585C292.181 29.8015 290.546 32.6613 287.663 36.2231C286.508 37.6496 286.162 38.1868 286.83 37.5138ZM288.741 42.0931C289.038 42.309 289.994 43.4213 290.867 44.5648C292.128 46.217 292.74 46.8329 293.846 47.5624C295.687 48.7772 297.412 49.5522 299.4 50.0589C300.296 50.2872 301.397 50.6616 301.847 50.8909C302.296 51.1202 302.695 51.2844 302.733 51.2559C302.828 51.1839 300.695 49.8683 298.559 48.6816C297.58 48.1379 296.317 47.3088 295.751 46.8389C293.164 44.6898 290.717 42.88 289.807 42.4423C289.26 42.1793 288.786 41.8462 288.753 41.7019C288.716 41.542 288.377 41.4034 287.885 41.3466C287.129 41.2593 287.114 41.2675 287.641 41.4772C287.95 41.6003 288.445 41.8774 288.741 42.0931ZM289.538 35.523C291.316 34.4885 293.017 32.5642 293.459 31.0876C293.637 30.4936 293.641 27.3757 293.465 27.1411C293.439 27.1068 293.296 27.9243 293.147 28.9575C292.844 31.0572 292.445 32.0318 291.524 32.9242C291.18 33.2572 290.773 33.703 290.619 33.9147C290.466 34.1262 289.88 34.7073 289.318 35.2055C288.756 35.7037 288.291 36.1444 288.286 36.1846C288.28 36.2246 288.844 35.927 289.538 35.523ZM292.304 28.2169C292.449 28.1068 292.821 25.2727 292.761 24.7295C292.632 23.5681 292.446 24.2212 292.34 26.207C292.279 27.3433 292.263 28.2478 292.304 28.2169ZM290.19 43.0366C290.471 43.0761 291.995 44.4646 292.313 44.9711L292.618 45.4575L292.191 44.9863C291.956 44.7269 291.374 44.1772 290.896 43.7645C290.419 43.3516 290.101 43.0241 290.19 43.0366ZM291.972 35.6457C292.329 35.6157 293.417 35.6343 294.389 35.6868L296.156 35.7826L294.11 35.5611C292.231 35.3577 291.367 35.3724 291.334 35.6084C291.327 35.6589 291.614 35.6757 291.972 35.6457ZM299.438 34.9504C301.471 34.2703 304.808 32.5311 304.603 32.2584C304.484 32.1001 301.47 32.4749 299.61 32.8794C298.693 33.0785 296.725 33.6255 295.237 34.0945L292.53 34.9473L297.155 35.7143L299.438 34.9504ZM292.519 41.5184C292.682 41.4782 292.643 41.4257 292.418 41.3846C292.215 41.3475 292.094 41.3773 292.149 41.4508C292.205 41.5243 292.371 41.5549 292.519 41.5184ZM299.158 48.6872C300.401 49.395 301.906 50.3129 302.501 50.7272C303.967 51.7464 303.698 51.277 302.106 50.0378C301.4 49.488 300.188 48.4821 299.413 47.8022C297.45 46.0794 296.491 45.4457 294.251 44.3915C293.181 43.8879 292.181 43.4142 292.028 43.3387C291.876 43.2633 292.909 44.1463 294.324 45.3009C295.892 46.5796 297.782 47.9033 299.158 48.6872ZM293.322 41.4332C293.486 41.3929 293.446 41.3404 293.221 41.2994C293.018 41.2623 292.897 41.292 292.953 41.3656C293.008 41.4391 293.174 41.4696 293.322 41.4332ZM295.302 41.1936C296.325 41.0259 296.646 41.0391 296.849 41.2572C297.042 41.4637 297.079 41.47 297 41.2819C296.941 41.1419 297.059 40.9557 297.269 40.8592C297.513 40.7465 297.538 40.7001 297.341 40.7257C295.016 41.0271 293.701 41.2503 293.84 41.3196C293.935 41.3665 294.593 41.3098 295.302 41.1936ZM297.514 36.3251C297.809 36.358 297.946 36.325 297.82 36.2522C297.694 36.1792 297.651 36.0466 297.725 35.9574C297.921 35.7205 297.571 35.714 297.26 35.9486C296.889 36.2286 296.909 36.2577 297.514 36.3251ZM301.585 37.4245L304.696 38.6706L306.371 38.5617C307.292 38.5018 308.772 38.2293 309.659 37.9563C312.393 37.1148 313.928 37.0185 317.882 37.4397L321.39 37.8133L318.915 37.1216C317.555 36.7411 315.581 36.2172 314.529 35.9571C313.478 35.6973 312.018 35.3157 311.285 35.1094C310.553 34.9029 309.819 34.7122 309.654 34.6856C309.49 34.6589 308.76 34.1539 308.032 33.5631C307.097 32.8049 306.494 32.458 305.981 32.3837C305.554 32.3218 305.241 32.3718 305.222 32.5049C305.204 32.6294 305.144 32.6704 305.088 32.596C305.032 32.5214 304.209 32.9308 303.259 33.5057C302.309 34.0806 300.757 34.8089 299.81 35.1241C298.55 35.5433 298.139 35.7621 298.281 35.938C298.387 36.0703 299.874 36.7393 301.585 37.4245ZM298.197 42.7324C299.247 44.15 300.606 45.2901 302.235 46.1201C302.818 46.4173 303.361 46.6696 303.441 46.6808C303.832 46.7358 303.415 45.6784 302.649 44.6739C302.177 44.0551 301.668 43.295 301.518 42.9847C301.045 42.0041 297.37 40.5192 297.265 41.2659C297.252 41.3628 297.671 42.0227 298.197 42.7324ZM298.755 36.6462C298.896 36.6111 298.793 36.5517 298.526 36.5142C298.259 36.4767 298.144 36.5055 298.27 36.578C298.396 36.6508 298.614 36.6815 298.755 36.6462ZM299.752 27.9004C300.133 26.6006 300.881 25.4812 302.915 23.1677C304.488 21.3779 306.288 18.8243 306.127 18.6106C306.077 18.5437 305.905 18.6688 305.745 18.8885C305.584 19.1084 304.843 19.8364 304.098 20.5063C302.559 21.8892 302.219 22.3321 300.928 24.6407C299.793 26.6703 299.738 26.8064 299.57 28.0134L299.434 28.9847L299.752 27.9004ZM299.865 35.3219C300.647 35.0711 302.123 34.368 303.145 33.7593C304.167 33.1506 304.992 32.7332 304.978 32.8319C304.943 33.0809 302.305 34.6102 300.779 35.2663C299.684 35.7365 298.382 36.058 298.427 35.8467C298.435 35.8088 299.082 35.5726 299.865 35.3219ZM298.027 40.7704C298.187 40.7929 298.33 40.7266 298.345 40.6231C298.359 40.5197 298.233 40.467 298.064 40.5059C297.896 40.5449 297.753 40.6112 297.747 40.6532C297.741 40.6951 297.867 40.7479 298.027 40.7704ZM300.275 41.2726C303.28 42.3108 304.217 42.6977 305.897 43.5943C308.121 44.7813 309.497 45.9528 310.48 47.4968C311.155 48.5581 311.348 48.7229 312.328 49.0737C312.98 49.3071 313.814 49.8126 314.39 50.3248L315.357 51.184L314.001 49.4305C312.894 47.9992 312.495 47.2649 311.829 45.4368C311.38 44.2047 310.829 43.0053 310.605 42.7714C310.381 42.5375 308.842 41.6518 307.186 40.8031L304.174 39.2599L301.915 39.8491C300.673 40.1733 299.498 40.4635 299.305 40.4939C298.714 40.587 299.033 40.8435 300.275 41.2726ZM300.251 46.5926C302.039 49.0454 303.377 50.0535 305.113 50.2576L306.194 50.3848L305.344 49.3203C304.735 48.5583 304.075 48.0232 303.025 47.4383C302.218 46.9889 301.146 46.2498 300.642 45.7959C300.139 45.3421 299.598 44.9525 299.439 44.9301C299.28 44.9078 299.082 44.724 299 44.5218C298.917 44.3197 298.834 44.2484 298.814 44.3637C298.795 44.479 299.441 45.4819 300.251 46.5926ZM304.728 44.3956C306.684 46.0318 308.728 48.2186 310.074 50.1168C310.663 50.9467 311.558 52.1293 312.063 52.7449C312.797 53.6408 312.912 53.7279 312.636 53.1815C312.446 52.806 312.045 51.7692 311.744 50.8775C310.573 47.4003 308.906 45.4745 305.566 43.7372C303.981 42.9127 301.271 41.7926 300.793 41.764C300.719 41.7596 301.233 42.0648 301.936 42.4424C302.639 42.8202 303.895 43.6991 304.728 44.3956ZM302.75 32.0617C302.913 32.0214 302.874 31.969 302.649 31.9279C302.446 31.8908 302.325 31.9206 302.38 31.9941C302.435 32.0676 302.602 32.0981 302.75 32.0617ZM303.747 32.0037C303.91 31.9635 303.871 31.911 303.646 31.8699C303.443 31.8328 303.322 31.8626 303.377 31.9361C303.433 32.0097 303.599 32.0402 303.747 32.0037ZM302.984 44.6814C303.488 45.2354 303.772 45.7536 303.805 46.1797C303.877 47.1244 305.791 49.6813 307.128 50.6184C308.25 51.4046 311.453 53.01 311.632 52.8755C311.784 52.7606 308.934 48.9682 307.654 47.5817C305.892 45.6737 302.491 42.784 301.912 42.7026C301.614 42.6608 302.305 43.9356 302.984 44.6814ZM303.158 47.2377C303.893 47.6539 304.08 47.7083 303.928 47.4617C303.817 47.2824 303.296 46.9318 302.768 46.6828C302.241 46.4337 301.685 46.1692 301.532 46.0946C300.947 45.8089 302.235 46.7144 303.158 47.2377ZM304.543 28.1426C304.939 27.3842 304.937 27.3868 305.894 26.856C306.234 26.6673 306.392 26.4979 306.243 26.4794C305.569 26.3957 304.319 27.6217 304.216 28.4681C304.189 28.6934 304.327 28.5561 304.543 28.1426ZM303.943 38.7948C304.12 38.8233 304.092 38.7557 303.868 38.6199C303.668 38.4981 303.329 38.3766 303.115 38.3497C302.802 38.3105 302.817 38.3447 303.189 38.5245C303.444 38.6475 303.783 38.7692 303.943 38.7948ZM305.471 21.6128C305.624 21.6343 306.119 20.6739 306.022 20.5445C305.975 20.483 305.824 20.6299 305.686 20.8715C305.391 21.388 305.331 21.5932 305.471 21.6128ZM304.754 29.4096C304.865 29.7275 305.067 30.1099 305.203 30.2595C305.405 30.4809 305.485 30.4523 305.633 30.1073C305.946 29.3737 306.441 27.097 306.291 27.0759C306.212 27.0648 305.875 27.1976 305.542 27.3708C305.018 27.6438 304.859 27.8641 304.599 28.6804C304.573 28.7636 304.642 29.0918 304.754 29.4096ZM304.55 31.9185C304.714 31.8783 304.674 31.8258 304.449 31.7847C304.246 31.7476 304.125 31.7774 304.18 31.8509C304.236 31.9244 304.402 31.955 304.55 31.9185ZM305.906 26.2295C306.135 26.1451 306.337 25.9783 306.353 25.8587C306.37 25.739 306.187 25.7749 305.947 25.9382C305.706 26.1015 305.505 26.2685 305.499 26.3091C305.493 26.3497 305.676 26.314 305.906 26.2295ZM305.43 31.5106C305.467 31.5158 305.691 31.3468 305.928 31.1349L306.359 30.7498L305.87 31.0585C305.411 31.3486 305.275 31.4888 305.43 31.5106ZM307.728 31.9415C308.737 31.9052 310.535 31.9335 311.722 32.0041L313.88 32.1326L311.641 31.8751C309.557 31.6357 305.179 31.6523 305.673 31.8977C305.794 31.9579 306.718 31.9775 307.728 31.9415ZM306.804 25.4645C306.92 25.4134 307.062 25.0386 307.119 24.6317C307.326 23.1578 308.303 20.5594 309.13 19.28C309.909 18.077 312.527 15.358 312.694 15.5795C312.735 15.6338 312.183 16.2319 311.469 16.909C310.223 18.0894 308.752 20.1263 308.288 21.3148C307.988 22.0809 308.162 21.8998 308.874 20.7043C309.508 19.639 310.275 18.6717 311.278 17.6748C311.614 17.3407 312.273 16.6171 312.742 16.0668C313.858 14.7579 313.424 14.7547 311.67 16.0588C309.443 17.7151 308.029 19.5738 307.346 21.7457C306.899 23.1659 306.548 25.5774 306.804 25.4645ZM306.355 30.0284C306.6 29.8056 306.793 29.6982 306.784 29.7895C306.775 29.8809 307.975 29.0837 309.452 28.0184C310.929 26.9528 312.904 25.6392 313.841 25.0992C316.241 23.7165 320.69 20.9713 320.705 20.8635C320.732 20.6693 319.401 21.2504 318.638 21.7662C318.194 22.0658 316.98 22.6636 315.941 23.0947C312.93 24.3433 312.091 24.884 310.281 26.7451C308.607 28.4652 306.763 29.9875 306.816 29.6039C306.832 29.4953 307.152 29.1879 307.528 28.9209C307.904 28.6538 308.837 27.8099 309.601 27.0458C310.365 26.2816 311.401 25.3285 311.904 24.9277L312.818 24.1989L311.582 24.5458C310.903 24.7367 309.863 25.0828 309.271 25.315C308.679 25.5472 308.147 25.6908 308.089 25.634C308.03 25.5772 308.018 25.5962 308.062 25.6761C308.107 25.756 307.938 25.9863 307.687 26.1884C307.314 26.4878 306.393 28.6563 305.953 30.2692C305.929 30.3594 306.109 30.2511 306.355 30.0284ZM305.701 39.6527C305.807 39.6737 305.775 39.5876 305.629 39.4616C305.484 39.3355 305.233 39.2187 305.072 39.2023C304.763 39.1704 305.337 39.5809 305.701 39.6527ZM304.777 46.6408C305.079 46.9277 305.375 47.2716 305.433 47.405C305.492 47.5386 305.292 47.4132 304.99 47.1263C304.687 46.8393 304.392 46.4954 304.334 46.362C304.275 46.2284 304.475 46.3539 304.777 46.6408ZM307.596 25.0286C307.672 24.8473 307.806 24.7592 307.895 24.8333C307.984 24.9072 308.024 24.8241 307.983 24.6484C307.906 24.3129 308.637 23.3276 308.801 23.546C308.854 23.6156 309.042 23.5382 309.22 23.3743C309.415 23.1943 309.469 23.1835 309.356 23.347C309.253 23.4959 309.634 23.2375 310.203 22.7728C312.036 21.2762 313.359 19.0777 313.78 16.8291C313.995 15.6825 313.751 15.1709 313.294 15.8076C313.126 16.0407 312.386 16.8599 311.649 17.6279C309.883 19.4672 308.542 21.4461 307.85 23.2345C307.661 23.7208 307.415 25.4637 307.596 25.0286ZM308.455 24.3215C308.641 24.1361 308.803 23.8915 308.815 23.778C308.828 23.6643 308.686 23.7232 308.5 23.9084C308.315 24.0939 308.152 24.3385 308.14 24.452C308.127 24.5657 308.269 24.5068 308.455 24.3215ZM310.406 24.5876C311.532 24.257 312.598 24.0056 312.777 24.0289C313.056 24.0653 316.274 22.77 316.793 22.4123C316.893 22.3437 316.767 22.2886 316.514 22.2897C314.146 22.3001 313.076 22.3931 311.741 22.7041C310.349 23.0284 310.084 23.1708 309.22 24.0575C308.689 24.6025 308.279 25.08 308.308 25.1185C308.337 25.157 309.281 24.9179 310.406 24.5876ZM308.619 33.67C309.164 34.0497 310.082 34.485 310.659 34.6374C311.236 34.79 312.567 35.1403 313.616 35.4161C317.133 36.3402 321.618 37.5751 321.996 37.7238C322.336 37.8573 322.342 37.8467 322.061 37.6101C321.503 37.1397 314.396 34.5589 311.38 33.7311C309.756 33.2857 308.175 32.8395 307.866 32.7398C307.126 32.5014 307.365 32.7969 308.619 33.67ZM307.662 51.7481L308.716 51.9908L307.887 51.4907C307.062 50.9936 306.37 50.7767 305.432 50.7226C304.686 50.6794 306.355 51.4468 307.662 51.7481ZM308.711 29.2331C308.991 29.0354 309.281 28.8825 309.357 28.8931C309.432 28.9037 309.85 28.7425 310.284 28.535C310.719 28.3273 311.835 27.9976 312.764 27.8023C316.463 27.0246 317.923 26.1295 319.546 23.6463C320.119 22.7698 320.696 21.8121 320.829 21.5176C321.064 20.9965 321.059 20.9899 320.646 21.2707C320.412 21.4293 320.263 21.6562 320.315 21.7746C320.367 21.8932 320.324 21.9186 320.219 21.8311C320.114 21.7437 319.582 21.9609 319.036 22.3139C318.491 22.6669 317.196 23.4391 316.159 24.03C312.674 26.0154 308.288 28.9843 308.23 29.3971C308.215 29.5045 308.432 29.4307 308.711 29.2331ZM315.969 34.8611C317.264 35.327 318.612 35.8333 318.965 35.9863C319.318 36.1395 319.644 36.2371 319.688 36.2035C319.799 36.1199 316.919 34.7909 315.656 34.3429C314.327 33.8713 309.845 32.7225 308.963 32.6272C308.588 32.5868 309.481 32.8822 310.948 33.284C312.415 33.6856 314.674 34.3953 315.969 34.8611ZM311.009 22.6395C311.602 22.2917 313.914 21.9984 315.737 22.0398C317.149 22.0719 317.783 21.9984 318.105 21.7656C318.542 21.4505 318.536 21.4472 317.562 21.4121C317.02 21.3927 315.959 21.3413 315.204 21.2979C313.138 21.1793 312.331 21.3372 311.502 22.0219C310.748 22.6443 310.525 22.9235 311.009 22.6395ZM317.507 40.1506C319.752 40.2507 321.452 40.1289 322.633 39.7833L323.317 39.5831L322.626 39.5788C322.245 39.5765 320.139 39.3621 317.945 39.1025C314.229 38.6624 309.643 38.5393 308.682 38.8537C308.175 39.0197 315.156 40.0454 317.507 40.1506ZM310.852 38.2937C311.782 38.2157 313.972 38.3656 317.5 38.7488C322.196 39.2589 324.951 39.3517 325.398 39.0145C325.594 38.8664 319.106 37.7335 317.076 37.5615C315.999 37.4702 314.469 37.4434 313.676 37.5017C312.345 37.5999 309.308 38.2026 309.417 38.3473C309.443 38.3818 310.088 38.3576 310.852 38.2937ZM313.06 16.6024C313.565 15.6611 313.745 15.6894 313.267 16.635C313.028 17.1093 312.797 17.4921 312.753 17.486C312.635 17.4695 312.711 17.2505 313.06 16.6024ZM314.543 13.2459C314.745 12.8193 315.158 12.1643 315.461 11.7903L316.012 11.1103L315.422 11.5117C314.816 11.9241 314.376 12.6824 314.248 13.5365C314.197 13.8812 314.282 13.7971 314.543 13.2459ZM312.255 44.4009C312.239 44.5155 312.061 44.4163 311.86 44.1805C311.59 43.8643 311.658 44.2158 312.117 45.5213C312.588 46.8604 313.083 47.749 314.152 49.1744C314.929 50.2105 315.532 51.127 315.493 51.2112C315.453 51.2956 315.52 51.3208 315.642 51.2673C315.763 51.2139 316.356 51.6395 316.96 52.2131C317.849 53.0582 320.047 54.5598 320.485 54.6213C320.613 54.6393 320.042 53.9407 319.565 53.4948C318.54 52.5369 316.626 50.0364 315.544 48.2406C314.875 47.1295 313.901 45.717 313.38 45.1015C312.859 44.4862 312.522 43.9951 312.63 44.0104C313.02 44.0651 314.256 45.6693 315.682 47.9718C317.605 51.0749 320.309 54.2686 320.91 54.1463C321.401 54.0462 320.084 51.5981 318.093 48.9064C316.314 46.5031 315.857 46.0167 314.4 44.9826C313.486 44.3332 312.645 43.8431 312.531 43.8931C312.418 43.9431 312.102 43.8059 311.831 43.5883L311.337 43.1926L311.81 43.6928C312.071 43.9678 312.271 44.2865 312.255 44.4009ZM312.588 49.861C313.817 50.2954 314.16 50.2945 313.37 49.8594C312.415 49.3334 311.384 49.0072 311.428 49.2445C311.45 49.3661 311.972 49.6436 312.588 49.861ZM313.364 50.9713L314.753 51.1909L313.932 50.7332C313.481 50.4814 312.796 50.1802 312.41 50.0634C311.744 49.8621 311.715 49.8741 311.842 50.3017C311.959 50.6993 312.137 50.7773 313.364 50.9713ZM313.803 43.9434C314.115 43.9825 314.101 43.9484 313.728 43.7685C313.095 43.4627 312.585 43.391 313.05 43.6731C313.25 43.795 313.589 43.9165 313.803 43.9434ZM313.37 52.3254C313.822 52.3128 314.517 52.2379 314.914 52.1592L315.636 52.0159L314.639 51.6496C314.091 51.448 313.295 51.2344 312.871 51.1748L312.1 51.0664L312.324 51.7075C312.536 52.3118 312.596 52.3472 313.37 52.3254ZM315.772 32.3065C315.935 32.2663 315.895 32.2138 315.671 32.1727C315.467 32.1356 315.347 32.1654 315.402 32.2389C315.457 32.3125 315.624 32.343 315.772 32.3065ZM316.921 32.6619C317.062 32.6268 316.959 32.5674 316.692 32.5299C316.425 32.4924 316.31 32.5212 316.436 32.5938C316.562 32.6665 316.78 32.6972 316.921 32.6619ZM319.425 45.2413L320.739 45.264L319.399 44.9441C318.662 44.7681 317.536 44.55 316.896 44.4593L315.732 44.2944L316.921 44.7566C317.79 45.094 318.466 45.2248 319.425 45.2413ZM320.287 24.1914C322.005 24.0923 323.097 23.8262 324.447 23.1774L325.919 22.4702L324.835 22.445C324.238 22.4313 323.051 22.4176 322.197 22.4148L320.643 22.4095L320.168 23.1588C319.529 24.1661 319.537 24.2348 320.287 24.1914ZM321.949 45.102C324.329 45.4678 326.094 45.4229 328.997 44.9225L330.922 44.5908L328.507 44.3617C326.269 44.1495 322.772 44.0706 318.919 44.1451L317.332 44.1758L318.575 44.4754C319.259 44.6402 320.777 44.9222 321.949 45.102ZM323.744 22.1127C326.462 22.1008 326.523 22.0909 325.415 21.8397C324.301 21.5873 322.135 21.4469 321.367 21.5773C321.16 21.6124 320.976 21.7499 320.957 21.883C320.931 22.0687 321.579 22.1221 323.744 22.1127ZM320.3 46.2746C322.731 47.0426 324.04 47.3394 328.065 48.0353C329.748 48.3264 330.23 48.3619 329.827 48.1654C329.521 48.0165 328.611 47.5255 327.804 47.0742C326.451 46.3177 326.148 46.2264 323.913 45.9029C321.679 45.5795 317.315 45.2552 317.746 45.4448C317.849 45.4898 318.998 45.8632 320.3 46.2746ZM321.927 30.6924C322.984 30.4073 324.718 29.9204 325.782 29.6107C328.519 28.8135 331.39 28.4543 334.155 28.5629C336.779 28.666 336.607 28.4279 333.736 27.9839C330.243 27.4439 326.898 28.0514 322.516 30.0213C321.489 30.4829 320.468 30.8913 320.247 30.9288C320.026 30.9663 319.881 31.0452 319.926 31.1039C319.97 31.1628 320.87 30.9775 321.927 30.6924ZM321.85 31.9327C324.86 31.8547 326.863 31.59 328.673 31.0305C330.695 30.4057 333.42 29.211 333.272 29.0145C332.806 28.3952 328.181 29.084 323.914 30.4082C323.061 30.673 321.9 31.0127 321.335 31.1631C320.59 31.3614 320.471 31.434 320.902 31.4275C321.229 31.4227 321.673 31.3775 321.889 31.3272C322.151 31.2658 322.227 31.3 322.118 31.4311C322.029 31.5386 321.461 31.6667 320.857 31.7157C319.111 31.857 319.71 31.9881 321.85 31.9327ZM320.043 32.9939C320.26 32.8287 320.241 32.8034 319.949 32.8699C319.748 32.916 319.625 33.0095 319.676 33.0777C319.727 33.1459 319.892 33.1083 320.043 32.9939ZM321.874 33.3387C322.157 33.1251 321.745 32.9732 321.033 33.0284L320.274 33.0875L321.011 33.2604C321.417 33.3555 321.805 33.3908 321.874 33.3387ZM321.153 47.8629C322.451 48.437 323.299 48.6783 324.718 48.8777C326.462 49.1227 329.551 49.1173 330.191 48.8683C330.347 48.8073 328.793 48.4676 326.738 48.1133C324.233 47.6813 322.32 47.2393 320.934 46.772C318.382 45.9114 318.34 45.9071 318.953 46.5705C319.226 46.8673 320.216 47.4487 321.153 47.8629ZM324.682 35.3112C327.901 36.4777 329.448 37.1332 331.98 38.404C334.278 39.5569 334.647 39.711 334.045 39.2653C333.847 39.1195 333.166 38.5847 332.53 38.0768C330.643 36.5698 329.107 35.8429 325.959 34.9681C324.38 34.5295 322.614 34.0621 322.035 33.9297L320.98 33.6889L321.689 34.0862C322.079 34.3045 323.425 34.856 324.682 35.3112ZM321.376 34.5431C321.481 34.5579 322.172 34.9646 322.912 35.447C325.122 36.8885 330.165 39.1325 332.146 39.5557C333.085 39.7564 333.861 39.8674 333.87 39.8025C333.906 39.5449 328.054 36.8661 325.395 35.9229C323.843 35.3723 322.221 34.7385 321.789 34.5142C321.358 34.2902 321.045 34.1989 321.094 34.3115C321.144 34.4242 321.27 34.5283 321.376 34.5431ZM320.479 43.8618C320.642 43.8215 320.602 43.769 320.378 43.7279C320.174 43.6909 320.053 43.7206 320.109 43.7942C320.164 43.8677 320.331 43.8982 320.479 43.8618ZM324.114 43.8398C325.84 43.865 328.129 43.9986 329.2 44.1367C330.764 44.3382 331 44.3345 330.395 44.118C329.348 43.7428 327.25 43.4556 325.173 43.4029C323.456 43.3594 320.795 43.5534 320.915 43.7134C320.949 43.7577 322.388 43.8145 324.114 43.8398ZM328.976 35.209C331.457 36.3291 335.606 36.8689 340.635 36.7261C341.672 36.6966 343.095 36.6975 343.798 36.7279C345.391 36.7968 329.29 34.3341 325.303 33.8989L322.38 33.58L324.981 34.0794C326.759 34.4211 328.023 34.7783 328.976 35.209ZM326.859 33.6776C327.536 33.734 327.042 33.6325 325.761 33.4522C324.481 33.272 323.928 33.2259 324.532 33.35C325.136 33.4741 326.183 33.6214 326.859 33.6776ZM326.944 34.8912L327.527 34.9642L326.966 34.7343C326.657 34.6077 326.012 34.4497 325.532 34.3828L324.659 34.2615L325.51 34.5398C325.978 34.6927 326.623 34.8509 326.944 34.8912ZM328.405 33.2912C332.098 33.6697 334.797 33.6454 337.321 33.2108C338.354 33.033 339.377 32.9126 339.596 32.9432C339.814 32.9739 339.958 32.9203 339.916 32.8243C339.788 32.5334 335.979 32.2135 333.443 32.2808C329.104 32.396 326.859 32.5925 327.246 32.8232C327.533 32.9936 327.489 33.015 327.021 32.935C325.969 32.7553 325.369 32.7255 325.351 32.8519C325.341 32.9205 326.716 33.1181 328.405 33.2912ZM328.538 32.2052C328.964 32.1548 330.656 32.0581 332.297 31.9904C334.772 31.8886 335.856 31.9461 338.645 32.3273C341.817 32.7609 341.962 32.7647 341.207 32.3947C340.041 31.8242 335.98 31.2816 333.862 31.4136C331.703 31.5479 327.593 32.0715 327.69 32.1998C327.73 32.2534 328.112 32.2559 328.538 32.2052ZM328.023 35.2162C328.187 35.1759 328.147 35.1234 327.923 35.0824C327.719 35.0453 327.598 35.0751 327.654 35.1486C327.709 35.2221 327.876 35.2526 328.023 35.2162ZM345.391 36.4008C345.571 36.3434 342.471 35.2649 340.709 34.7722C337.785 33.9541 336.185 33.7792 332.526 33.8776L329.25 33.9657L337.287 35.1939C341.708 35.8694 345.354 36.4125 345.391 36.4008ZM334.256 28.957C334.397 28.922 334.294 28.8626 334.028 28.8251C333.761 28.7876 333.646 28.8164 333.771 28.8889C333.897 28.9617 334.115 28.9923 334.256 28.957ZM341.272 36.4018C341.752 36.4692 341.943 36.5347 341.696 36.5474C341.45 36.5599 341.057 36.5047 340.823 36.4247C340.59 36.3446 340.792 36.3343 341.272 36.4018Z" fill="#3C3F59"/>
<path d="M94.6714 79.565V79.8188C94.6714 80.3828 94.7574 80.9186 94.9293 81.4261C95.1012 81.9337 95.3513 82.3772 95.6795 82.7566C95.9973 83.1411 96.3906 83.4461 96.8594 83.6717C97.3283 83.8922 97.8597 84.0024 98.4536 84.0024C99.0423 84.0024 99.5684 83.8896 100.032 83.664C100.496 83.4384 100.889 83.136 101.212 82.7566C101.535 82.372 101.78 81.9286 101.947 81.4261C102.118 80.9186 102.207 80.3828 102.212 79.8188V79.565C102.207 79.0011 102.118 78.4653 101.947 77.9577C101.775 77.4502 101.53 77.0041 101.212 76.6196C100.884 76.2402 100.485 75.9377 100.016 75.7121C99.5528 75.4865 99.0266 75.3738 98.4379 75.3738C97.844 75.3738 97.3153 75.4865 96.8516 75.7121C96.388 75.9377 95.9947 76.2428 95.6717 76.6273C95.3487 77.0067 95.1012 77.4502 94.9293 77.9577C94.7574 78.4653 94.6714 79.0011 94.6714 79.565ZM95.6013 79.8188V79.565C95.6013 79.1292 95.6638 78.7063 95.7889 78.2961C95.9139 77.886 96.0962 77.5245 96.3359 77.2118C96.5755 76.8939 96.8699 76.6401 97.2189 76.4504C97.5679 76.2607 97.9743 76.1659 98.4379 76.1659C98.8964 76.1659 99.3001 76.2607 99.6492 76.4504C100.003 76.6401 100.303 76.8939 100.548 77.2118C100.782 77.5245 100.962 77.886 101.087 78.2961C101.212 78.7063 101.277 79.1292 101.282 79.565V79.8188C101.277 80.2597 101.212 80.6853 101.087 81.0954C100.967 81.5005 100.79 81.8619 100.556 82.1798C100.311 82.4977 100.014 82.7514 99.6648 82.9411C99.3158 83.1257 98.912 83.218 98.4536 83.218C97.9899 83.218 97.581 83.1257 97.2267 82.9411C96.8725 82.7514 96.5755 82.4977 96.3359 82.1798C96.0962 81.867 95.9139 81.5056 95.7889 81.0954C95.6638 80.6853 95.6013 80.2597 95.6013 79.8188Z" fill="#3D405B"/>
<path d="M104.76 83.8486H105.697V78.1654C105.786 77.8988 105.911 77.6476 106.073 77.4117C106.234 77.1708 106.424 76.9631 106.643 76.7888C106.877 76.6042 107.138 76.4581 107.424 76.3504C107.711 76.2377 108.016 76.1813 108.339 76.1813C108.709 76.1761 109.026 76.2248 109.292 76.3274C109.563 76.4299 109.79 76.5812 109.972 76.7811C110.149 76.9811 110.279 77.2272 110.363 77.5194C110.451 77.8116 110.498 78.1474 110.503 78.5268V83.8486H111.433V78.5115C111.433 78.0141 111.371 77.5707 111.246 77.181C111.121 76.7914 110.936 76.4607 110.691 76.1889C110.451 75.9223 110.152 75.7198 109.792 75.5814C109.438 75.443 109.029 75.3738 108.565 75.3738C108.216 75.3738 107.885 75.425 107.573 75.5275C107.266 75.6301 106.984 75.7685 106.729 75.9429C106.51 76.0915 106.312 76.2684 106.135 76.4735C105.958 76.6786 105.804 76.9016 105.674 77.1425L105.619 75.5275H104.76V83.8486Z" fill="#3D405B"/>
<path d="M114.59 72.0361V72.859H117.599V83.0257H114.59V83.8486H121.389V83.0257H118.529V72.0361H114.59Z" fill="#3D405B"/>
<path d="M124.202 75.5275V76.3504H127.195V83.0257H124.202V83.8486H131V83.0257H128.125V75.5275H124.202ZM126.921 73.2512C126.921 73.4358 126.976 73.5947 127.085 73.728C127.195 73.8613 127.375 73.928 127.625 73.928C127.869 73.928 128.049 73.8613 128.164 73.728C128.278 73.5947 128.336 73.4358 128.336 73.2512C128.336 73.1487 128.32 73.0538 128.289 72.9666C128.258 72.8795 128.211 72.8052 128.148 72.7436C128.096 72.6821 128.026 72.636 127.937 72.6052C127.849 72.5693 127.744 72.5514 127.625 72.5514C127.505 72.5514 127.401 72.5693 127.312 72.6052C127.223 72.636 127.15 72.6821 127.093 72.7436C127.031 72.8103 126.986 72.8872 126.96 72.9743C126.934 73.0615 126.921 73.1538 126.921 73.2512Z" fill="#3D405B"/>
<path d="M133.595 83.8486H134.532V78.1654C134.621 77.8988 134.746 77.6476 134.908 77.4117C135.069 77.1708 135.259 76.9631 135.478 76.7888C135.712 76.6042 135.973 76.4581 136.259 76.3504C136.546 76.2377 136.851 76.1813 137.174 76.1813C137.544 76.1761 137.861 76.2248 138.127 76.3274C138.398 76.4299 138.625 76.5812 138.807 76.7811C138.984 76.9811 139.114 77.2272 139.198 77.5194C139.286 77.8116 139.333 78.1474 139.338 78.5268V83.8486H140.268V78.5115C140.268 78.0141 140.206 77.5707 140.081 77.181C139.956 76.7914 139.771 76.4607 139.526 76.1889C139.286 75.9223 138.987 75.7198 138.627 75.5814C138.273 75.443 137.864 75.3738 137.4 75.3738C137.051 75.3738 136.72 75.425 136.408 75.5275C136.101 75.6301 135.819 75.7685 135.564 75.9429C135.345 76.0915 135.147 76.2684 134.97 76.4735C134.793 76.6786 134.639 76.9016 134.509 77.1425L134.454 75.5275H133.595V83.8486Z" fill="#3D405B"/>
<path d="M146.817 84.0024C147.52 84.0024 148.137 83.8666 148.669 83.5948C149.2 83.3231 149.625 82.9668 149.942 82.5258L149.356 82.0875C149.054 82.4566 148.692 82.7386 148.27 82.9335C147.848 83.1283 147.377 83.2231 146.856 83.218C146.402 83.218 145.988 83.1308 145.613 82.9565C145.243 82.7771 144.928 82.5387 144.668 82.2413C144.402 81.9491 144.196 81.6132 144.05 81.2338C143.904 80.8545 143.821 80.4443 143.8 80.0034V79.7496H150.13V79.1882C150.125 78.6601 150.047 78.1654 149.895 77.7039C149.744 77.2374 149.52 76.8298 149.223 76.4812C148.926 76.1377 148.562 75.8685 148.129 75.6737C147.697 75.4737 147.202 75.3738 146.645 75.3738C146.113 75.3738 145.618 75.484 145.16 75.7044C144.702 75.9198 144.306 76.2146 143.972 76.5888C143.628 76.9682 143.357 77.4169 143.16 77.9347C142.967 78.4474 142.87 78.9985 142.87 79.5881V79.9188C142.87 80.4776 142.967 81.0057 143.16 81.503C143.352 81.9952 143.623 82.4284 143.972 82.8027C144.316 83.1718 144.73 83.4641 145.215 83.6794C145.699 83.8947 146.233 84.0024 146.817 84.0024ZM146.645 76.1659C147.046 76.1659 147.403 76.2428 147.715 76.3966C148.028 76.5453 148.294 76.7452 148.512 76.9964C148.726 77.2477 148.893 77.5399 149.012 77.8731C149.137 78.2064 149.2 78.5422 149.2 78.8806V78.9652H143.839C143.897 78.5653 144.003 78.1936 144.16 77.8501C144.316 77.5066 144.514 77.2092 144.754 76.958C144.993 76.7119 145.272 76.5196 145.59 76.3812C145.908 76.2376 146.259 76.1659 146.645 76.1659Z" fill="#3D405B"/>
<path d="M168.025 75.3738C167.259 75.3686 166.592 75.5276 166.024 75.8506C165.456 76.1684 165.008 76.6119 164.68 77.181V76.8119L164.626 75.5275H163.735V83.8486H164.696L164.688 78.5268C164.792 78.1423 164.941 77.8116 165.133 77.5348C165.331 77.2528 165.563 77.0195 165.829 76.8349C166.105 76.6452 166.415 76.5068 166.759 76.4196C167.108 76.3274 167.48 76.2812 167.876 76.2812C168.106 76.2812 168.33 76.294 168.548 76.3197C168.767 76.3453 168.983 76.3812 169.197 76.4273L169.322 75.5352C169.16 75.484 168.96 75.4455 168.72 75.4199C168.486 75.3891 168.254 75.3738 168.025 75.3738Z" fill="#3D405B"/>
<path d="M175.652 84.0024C176.355 84.0024 176.972 83.8666 177.504 83.5948C178.035 83.3231 178.46 82.9668 178.777 82.5258L178.191 82.0875C177.889 82.4566 177.527 82.7386 177.105 82.9335C176.683 83.1283 176.212 83.2231 175.691 83.218C175.237 83.218 174.823 83.1308 174.448 82.9565C174.078 82.7771 173.763 82.5387 173.503 82.2413C173.237 81.9491 173.031 81.6132 172.885 81.2338C172.739 80.8545 172.656 80.4443 172.635 80.0034V79.7496H178.965V79.1882C178.96 78.6601 178.882 78.1654 178.73 77.7039C178.579 77.2374 178.355 76.8298 178.058 76.4812C177.761 76.1377 177.397 75.8685 176.964 75.6737C176.532 75.4737 176.037 75.3738 175.48 75.3738C174.948 75.3738 174.453 75.484 173.995 75.7044C173.537 75.9198 173.141 76.2146 172.807 76.5888C172.463 76.9682 172.192 77.4169 171.994 77.9347C171.802 78.4474 171.705 78.9985 171.705 79.5881V79.9188C171.705 80.4776 171.802 81.0057 171.994 81.503C172.187 81.9952 172.458 82.4284 172.807 82.8027C173.151 83.1718 173.565 83.4641 174.05 83.6794C174.534 83.8947 175.068 84.0024 175.652 84.0024ZM175.48 76.1659C175.881 76.1659 176.238 76.2428 176.55 76.3966C176.863 76.5453 177.129 76.7452 177.347 76.9964C177.561 77.2477 177.728 77.5399 177.847 77.8731C177.972 78.2064 178.035 78.5422 178.035 78.8806V78.9652H172.674C172.732 78.5653 172.838 78.1936 172.995 77.8501C173.151 77.5066 173.349 77.2092 173.589 76.958C173.828 76.7119 174.107 76.5196 174.425 76.3812C174.743 76.2376 175.094 76.1659 175.48 76.1659Z" fill="#3D405B"/>
<path d="M187.553 81.726C187.553 81.926 187.509 82.1054 187.42 82.2644C187.337 82.4182 187.217 82.5566 187.061 82.6797C186.821 82.8591 186.537 82.995 186.209 83.0872C185.881 83.1744 185.532 83.218 185.162 83.218C184.875 83.218 184.583 83.1924 184.286 83.1411C183.995 83.0847 183.729 82.9898 183.489 82.8565C183.239 82.7284 183.028 82.5541 182.856 82.3336C182.69 82.1131 182.591 81.8388 182.559 81.5107H181.63C181.645 81.8952 181.744 82.2413 181.927 82.5489C182.114 82.8565 182.369 83.1155 182.692 83.3257C183.005 83.541 183.375 83.7076 183.802 83.8255C184.229 83.9435 184.682 84.0024 185.162 84.0024C185.599 84.0024 186.032 83.9486 186.459 83.8409C186.886 83.7332 187.261 83.5666 187.584 83.341C187.85 83.1565 188.066 82.9232 188.233 82.6412C188.399 82.3592 188.483 82.0388 188.483 81.6799C188.483 81.3005 188.397 80.9775 188.225 80.7109C188.053 80.4392 187.819 80.2085 187.522 80.0188C187.225 79.8342 186.881 79.6804 186.49 79.5573C186.105 79.4292 185.698 79.3215 185.271 79.2343C184.938 79.1677 184.617 79.0934 184.31 79.0113C184.003 78.9242 183.739 78.8165 183.521 78.6883C183.302 78.5653 183.135 78.4166 183.021 78.2423C182.911 78.0628 182.856 77.8526 182.856 77.6117C182.856 77.3707 182.919 77.1605 183.044 76.981C183.174 76.7965 183.346 76.6452 183.56 76.5273C183.768 76.4043 184.005 76.3145 184.271 76.2581C184.542 76.1966 184.82 76.1659 185.107 76.1659C185.409 76.1659 185.701 76.2043 185.982 76.2812C186.269 76.3581 186.524 76.4684 186.748 76.6119C186.967 76.7555 187.144 76.9323 187.279 77.1425C187.42 77.3528 187.493 77.5912 187.498 77.8578H188.436C188.42 77.463 188.324 77.1118 188.147 76.8042C187.97 76.4966 187.733 76.2351 187.436 76.0198C187.133 75.8095 186.782 75.6506 186.381 75.5429C185.985 75.4302 185.56 75.3738 185.107 75.3738C184.701 75.3738 184.305 75.425 183.919 75.5275C183.539 75.6301 183.205 75.7737 182.919 75.9582C182.617 76.1582 182.375 76.3991 182.192 76.6811C182.015 76.9631 181.927 77.2836 181.927 77.6424C181.927 78.0218 182.015 78.3448 182.192 78.6114C182.375 78.8729 182.612 79.0882 182.903 79.2574C183.216 79.4369 183.552 79.583 183.911 79.6958C184.271 79.8086 184.667 79.9085 185.099 79.9957C185.438 80.0675 185.766 80.1546 186.084 80.2572C186.407 80.3597 186.68 80.4828 186.904 80.6263C187.107 80.7545 187.266 80.9109 187.381 81.0954C187.496 81.2749 187.553 81.4851 187.553 81.726Z" fill="#3D405B"/>
<path d="M194.383 73.3973H193.437V75.5275H191.085V76.2889H193.437V81.503C193.442 81.9593 193.51 82.3464 193.64 82.6643C193.776 82.9821 193.961 83.2385 194.195 83.4333C194.43 83.6333 194.706 83.7768 195.023 83.864C195.346 83.9563 195.695 84.0024 196.071 84.0024C196.253 84.0024 196.435 83.9973 196.618 83.987C196.805 83.9768 196.985 83.9563 197.157 83.9255C197.292 83.905 197.42 83.8794 197.54 83.8486C197.665 83.8178 197.774 83.7794 197.868 83.7333L197.727 83.0334C197.649 83.0488 197.555 83.0667 197.446 83.0872C197.342 83.1026 197.235 83.118 197.125 83.1334C196.98 83.1488 196.831 83.1642 196.68 83.1795C196.529 83.1898 196.378 83.1949 196.227 83.1949C195.972 83.1949 195.732 83.1667 195.508 83.1103C195.284 83.0539 195.089 82.9591 194.922 82.8258C194.755 82.6976 194.625 82.5259 194.531 82.3105C194.437 82.0952 194.388 81.826 194.383 81.503V76.2889H197.516V75.5275H194.383V73.3973Z" fill="#3D405B"/>
<path d="M206.69 83.8486H207.69L207.683 83.7563C207.61 83.5 207.547 83.2308 207.495 82.9488C207.448 82.6668 207.425 82.3849 207.425 82.1029V78.0808C207.42 77.6296 207.331 77.2348 207.159 76.8965C206.992 76.5581 206.766 76.2735 206.479 76.0428C206.188 75.8224 205.846 75.6557 205.456 75.5429C205.065 75.4302 204.645 75.3738 204.197 75.3738C203.749 75.3738 203.327 75.4353 202.932 75.5583C202.541 75.6814 202.197 75.8506 201.9 76.0659C201.603 76.2864 201.366 76.5453 201.189 76.8426C201.012 77.14 200.915 77.4655 200.9 77.8193L201.838 77.827C201.843 77.5655 201.91 77.3322 202.041 77.1272C202.176 76.917 202.348 76.7401 202.556 76.5965C202.77 76.453 203.015 76.3427 203.291 76.2658C203.567 76.1889 203.856 76.1505 204.158 76.1505C204.487 76.1505 204.791 76.1941 205.073 76.2812C205.359 76.3633 205.607 76.4837 205.815 76.6427C206.023 76.8016 206.188 77.0015 206.307 77.2425C206.427 77.4784 206.49 77.7527 206.495 78.0654V79.0036H204.658C204.132 79.0088 203.63 79.06 203.15 79.1574C202.671 79.2497 202.252 79.3984 201.892 79.6035C201.528 79.8188 201.236 80.0931 201.017 80.4264C200.803 80.7596 200.697 81.1647 200.697 81.6415C200.697 82.0004 200.77 82.3259 200.915 82.6181C201.061 82.9053 201.259 83.1514 201.509 83.3564C201.759 83.5615 202.056 83.7204 202.4 83.8332C202.744 83.946 203.111 84.0024 203.502 84.0024C203.815 84.0024 204.114 83.9691 204.401 83.9024C204.692 83.8409 204.968 83.7486 205.229 83.6256C205.484 83.5077 205.719 83.3641 205.932 83.1949C206.151 83.0206 206.341 82.8283 206.503 82.6181C206.513 82.8335 206.531 83.0462 206.557 83.2564C206.589 83.4666 206.633 83.664 206.69 83.8486ZM203.604 83.1795C203.333 83.1795 203.075 83.1437 202.83 83.0719C202.59 82.995 202.382 82.8847 202.205 82.7412C202.028 82.6028 201.887 82.4336 201.783 82.2336C201.679 82.0337 201.627 81.8081 201.627 81.5569C201.627 81.2492 201.694 80.9878 201.83 80.7724C201.97 80.552 202.161 80.3674 202.4 80.2187C202.697 80.0342 203.054 79.906 203.471 79.8342C203.887 79.7624 204.328 79.724 204.791 79.7188H206.495V81.5492C206.375 81.7953 206.219 82.0183 206.026 82.2183C205.833 82.4182 205.612 82.5899 205.362 82.7335C205.112 82.8771 204.838 82.9899 204.541 83.0719C204.244 83.1488 203.932 83.1847 203.604 83.1795Z" fill="#3D405B"/>
<path d="M216.216 83.8486H217.083V75.5275H216.146V81.3877C216.073 81.6594 215.963 81.9055 215.817 82.1259C215.677 82.3413 215.502 82.5258 215.294 82.6797C215.07 82.8437 214.809 82.9719 214.512 83.0642C214.215 83.1514 213.885 83.1949 213.52 83.1949C213.171 83.1949 212.866 83.1411 212.606 83.0334C212.35 82.9258 212.139 82.7643 211.973 82.5489C211.801 82.3387 211.673 82.0773 211.59 81.7645C211.506 81.4466 211.462 81.0775 211.457 80.6571V75.5275H210.527V80.6417C210.532 81.18 210.597 81.6568 210.722 82.0721C210.847 82.4874 211.032 82.836 211.277 83.118C211.522 83.4051 211.822 83.6256 212.176 83.7794C212.535 83.9281 212.95 84.0024 213.418 84.0024C214.054 84.0024 214.604 83.8743 215.067 83.6179C215.531 83.3564 215.901 82.995 216.177 82.5335L216.216 83.8486Z" fill="#3D405B"/>
<path d="M225.695 75.3738C224.929 75.3686 224.262 75.5276 223.694 75.8506C223.126 76.1684 222.678 76.6119 222.35 77.181V76.8119L222.296 75.5275H221.405V83.8486H222.366L222.358 78.5268C222.462 78.1423 222.611 77.8116 222.803 77.5348C223.001 77.2528 223.233 77.0195 223.499 76.8349C223.775 76.6452 224.085 76.5068 224.429 76.4196C224.778 76.3274 225.15 76.2812 225.546 76.2812C225.775 76.2812 226 76.294 226.218 76.3197C226.437 76.3453 226.653 76.3812 226.867 76.4273L226.992 75.5352C226.83 75.484 226.63 75.4455 226.39 75.4199C226.156 75.3891 225.924 75.3738 225.695 75.3738Z" fill="#3D405B"/>
<path d="M235.525 83.8486H236.525L236.518 83.7563C236.445 83.5 236.382 83.2308 236.33 82.9488C236.283 82.6668 236.26 82.3849 236.26 82.1029V78.0808C236.255 77.6296 236.166 77.2348 235.994 76.8965C235.827 76.5581 235.601 76.2735 235.314 76.0428C235.022 75.8224 234.681 75.6557 234.291 75.5429C233.9 75.4302 233.48 75.3738 233.032 75.3738C232.584 75.3738 232.162 75.4353 231.766 75.5583C231.376 75.6814 231.032 75.8506 230.735 76.0659C230.438 76.2864 230.201 76.5453 230.024 76.8426C229.847 77.14 229.75 77.4655 229.735 77.8193L230.672 77.827C230.678 77.5655 230.745 77.3322 230.876 77.1272C231.011 76.917 231.183 76.7401 231.391 76.5965C231.605 76.453 231.85 76.3427 232.126 76.2658C232.402 76.1889 232.691 76.1505 232.993 76.1505C233.322 76.1505 233.626 76.1941 233.908 76.2812C234.194 76.3633 234.442 76.4837 234.65 76.6427C234.858 76.8016 235.022 77.0015 235.142 77.2425C235.262 77.4784 235.325 77.7527 235.33 78.0654V79.0036H233.493C232.967 79.0088 232.465 79.06 231.985 79.1574C231.506 79.2497 231.087 79.3984 230.727 79.6035C230.363 79.8188 230.071 80.0931 229.852 80.4264C229.638 80.7596 229.532 81.1647 229.532 81.6415C229.532 82.0004 229.605 82.3259 229.75 82.6181C229.896 82.9053 230.094 83.1514 230.344 83.3564C230.594 83.5615 230.891 83.7204 231.235 83.8332C231.579 83.946 231.946 84.0024 232.337 84.0024C232.65 84.0024 232.949 83.9691 233.236 83.9024C233.527 83.8409 233.803 83.7486 234.064 83.6256C234.319 83.5077 234.554 83.3641 234.767 83.1949C234.986 83.0206 235.176 82.8283 235.338 82.6181C235.348 82.8335 235.366 83.0462 235.392 83.2564C235.424 83.4666 235.468 83.664 235.525 83.8486ZM232.439 83.1795C232.168 83.1795 231.91 83.1437 231.665 83.0719C231.425 82.995 231.217 82.8847 231.04 82.7412C230.863 82.6028 230.722 82.4336 230.618 82.2336C230.514 82.0337 230.462 81.8081 230.462 81.5569C230.462 81.2492 230.529 80.9878 230.665 80.7724C230.805 80.552 230.995 80.3674 231.235 80.2187C231.532 80.0342 231.889 79.906 232.306 79.8342C232.722 79.7624 233.163 79.724 233.626 79.7188H235.33V81.5492C235.21 81.7953 235.054 82.0183 234.861 82.2183C234.668 82.4182 234.447 82.5899 234.197 82.7335C233.947 82.8771 233.673 82.9899 233.376 83.0719C233.079 83.1488 232.767 83.1847 232.439 83.1795Z" fill="#3D405B"/>
<path d="M239.323 83.8486H240.261V78.1654C240.349 77.8988 240.474 77.6476 240.636 77.4117C240.797 77.1708 240.987 76.9631 241.206 76.7888C241.441 76.6042 241.701 76.4581 241.988 76.3504C242.274 76.2377 242.579 76.1813 242.902 76.1813C243.272 76.1761 243.59 76.2248 243.855 76.3274C244.126 76.4299 244.353 76.5812 244.535 76.7811C244.712 76.9811 244.843 77.2272 244.926 77.5194C245.014 77.8116 245.061 78.1474 245.067 78.5268V83.8486H245.996V78.5115C245.996 78.0141 245.934 77.5707 245.809 77.181C245.684 76.7914 245.499 76.4607 245.254 76.1889C245.014 75.9223 244.715 75.7198 244.355 75.5814C244.001 75.443 243.592 75.3738 243.129 75.3738C242.78 75.3738 242.449 75.425 242.136 75.5275C241.829 75.6301 241.547 75.7685 241.292 75.9429C241.073 76.0915 240.875 76.2684 240.698 76.4735C240.521 76.6786 240.368 76.9016 240.237 77.1425L240.183 75.5275H239.323V83.8486Z" fill="#3D405B"/>
<path d="M252.053 73.3973H251.107V75.5275H248.755V76.2889H251.107V81.503C251.112 81.9593 251.18 82.3464 251.31 82.6643C251.446 82.9821 251.631 83.2385 251.865 83.4333C252.099 83.6333 252.376 83.7768 252.693 83.864C253.016 83.9563 253.365 84.0024 253.74 84.0024C253.923 84.0024 254.105 83.9973 254.287 83.987C254.475 83.9768 254.655 83.9563 254.827 83.9255C254.962 83.905 255.09 83.8794 255.21 83.8486C255.335 83.8178 255.444 83.7794 255.538 83.7333L255.397 83.0334C255.319 83.0488 255.225 83.0667 255.116 83.0872C255.012 83.1026 254.905 83.118 254.795 83.1334C254.65 83.1488 254.501 83.1642 254.35 83.1795C254.199 83.1898 254.048 83.1949 253.897 83.1949C253.641 83.1949 253.402 83.1667 253.178 83.1103C252.954 83.0539 252.758 82.9591 252.592 82.8258C252.425 82.6976 252.295 82.5259 252.201 82.3105C252.107 82.0952 252.058 81.826 252.053 81.503V76.2889H255.186V75.5275H252.053V73.3973Z" fill="#3D405B"/>
</svg>
