<svg width="21" height="19" viewBox="0 0 21 19" fill="none" xmlns="http://www.w3.org/2000/svg">
<path d="M19.2037 11.027C19.5961 10.6383 19.5991 10.0052 19.2105 9.61278C18.8219 9.22038 18.1887 9.21732 17.7963 9.60596L19.2037 11.027ZM11 17.7445L10.2963 18.455C10.686 18.841 11.314 18.841 11.7037 18.455L11 17.7445ZM4.20369 9.60596C3.81128 9.21732 3.17813 9.22038 2.78949 9.61278C2.40085 10.0052 2.40391 10.6383 2.79631 11.027L4.20369 9.60596ZM2.80255 11.0332C3.19837 11.4184 3.83147 11.4097 4.21664 11.0139C4.6018 10.6181 4.59317 9.985 4.19735 9.59984L2.80255 11.0332ZM11 3.75052L10.1974 4.34704C10.3854 4.6001 10.6819 4.74964 10.9972 4.75051C11.3125 4.75139 11.6097 4.60351 11.7992 4.35149L11 3.75052ZM17.7992 9.60909C17.4052 9.9961 17.3995 10.6292 17.7865 11.0233C18.1735 11.4173 18.8067 11.4229 19.2007 11.0359L17.7992 9.60909ZM17.7963 9.60596L10.2963 17.034L11.7037 18.455L19.2037 11.027L17.7963 9.60596ZM11.7037 17.034L4.20369 9.60596L2.79631 11.027L10.2963 18.455L11.7037 17.034ZM4.19735 9.59984C3.11839 8.5499 2.72034 6.98307 3.16734 5.54546L1.25753 4.95164C0.587029 7.10805 1.18411 9.4583 2.80255 11.0332L4.19735 9.59984ZM3.16734 5.54546C3.61434 4.10786 4.83068 3.04299 6.31476 2.79L5.97867 0.818438C3.75254 1.19793 1.92803 2.79523 1.25753 4.95164L3.16734 5.54546ZM6.31476 2.79C7.79885 2.537 9.2993 3.13872 10.1974 4.34704L11.8026 3.154C10.4555 1.34153 8.2048 0.438943 5.97867 0.818438L6.31476 2.79ZM11.7992 4.35149C12.701 3.15212 14.1983 2.55838 15.677 2.81375L16.0173 0.842919C13.7993 0.459876 11.5534 1.35048 10.2007 3.14954L11.7992 4.35149ZM15.677 2.81375C17.1557 3.06911 18.3671 4.13061 18.8144 5.56297L20.7235 4.96676C20.0525 2.81822 18.2354 1.22596 16.0173 0.842919L15.677 2.81375ZM18.8144 5.56297C19.2618 6.99534 18.8698 8.55758 17.7992 9.60909L19.2007 11.0359C20.8065 9.45867 21.3945 7.1153 20.7235 4.96676L18.8144 5.56297Z" fill="#343844"/>
</svg>
