<svg width="14" height="13" viewBox="0 0 14 13" fill="none" xmlns="http://www.w3.org/2000/svg">
<path d="M0.837891 6.57043C0.837891 6.06848 1.2448 5.66157 1.74674 5.66157H5.01175C5.56403 5.66157 6.01175 5.21386 6.01175 4.66157V1.40517C6.01175 0.862654 6.45154 0.422859 6.99406 0.422859C7.53657 0.422859 7.97636 0.862654 7.97636 1.40517V4.66157C7.97636 5.21386 8.42408 5.66157 8.97637 5.66157H12.2414C12.7433 5.66157 13.1502 6.06848 13.1502 6.57043C13.1502 7.07237 12.7433 7.47928 12.2414 7.47928H8.97636C8.42408 7.47928 7.97636 7.92699 7.97636 8.47928V11.7587C7.97636 12.3012 7.53657 12.741 6.99406 12.741C6.45154 12.741 6.01175 12.3012 6.01175 11.7587V8.47928C6.01175 7.92699 5.56403 7.47928 5.01175 7.47928H1.74674C1.2448 7.47928 0.837891 7.07237 0.837891 6.57043Z" fill="white"/>
</svg>
