<svg width="255" height="258" viewBox="0 0 255 258" fill="none" xmlns="http://www.w3.org/2000/svg">
<path opacity="0.1" fill-rule="evenodd" clip-rule="evenodd" d="M199.115 301.318C201.151 297.223 203.129 292.352 203.511 290.492C203.893 288.633 205.342 285.284 206.73 283.05C208.118 280.816 211.114 275.019 213.387 270.167C217.966 260.396 224.372 251.508 234.376 241.048C240.057 235.107 241.35 233.226 244.023 227C245.72 223.048 247.894 218.843 248.851 217.657C251.781 214.03 254.777 197.668 254.105 188.958C253.767 184.568 252.835 180.447 252.036 179.801C250.682 178.707 250.592 178.793 250.719 181.06C250.793 182.397 250.289 185.015 249.599 186.875C248.909 188.736 248.34 192.73 248.334 195.75C248.324 200.749 248.028 201.512 245.046 204.25C243.244 205.904 238.207 208.863 233.853 210.824C228.471 213.249 225.111 215.409 223.361 217.571C220.182 221.499 216.793 234.295 216.656 242.893C216.472 254.474 216.031 256.677 212.142 265.423C210.001 270.239 208.055 274.2 207.816 274.226C206.768 274.338 208.308 262.128 212.238 239.163C221.343 185.976 221.689 184.952 235.35 171.073C240.287 166.058 244.286 161.587 244.238 161.136C243.723 156.256 226.704 165.6 215.88 176.707C210.48 182.247 208.275 187.742 207.789 196.853C207.619 200.059 207.226 202.477 206.916 202.227C206.606 201.976 204.882 197.729 203.084 192.791C201.287 187.851 198.184 180.935 196.189 177.421C194.195 173.907 192.413 170.405 192.228 169.639C191.755 167.677 197.261 157.9 201.297 153.532C206.463 147.945 209.4 142.194 213.22 130.194C215.984 121.505 216.691 117.18 216.636 109.276C216.539 95.5263 217.09 90.7084 219.535 83.892C220.694 80.6597 221.314 77.5034 220.914 76.8768C220.37 76.0265 219.893 76.7469 219.026 79.7322C218.327 82.1348 216.905 84.5462 215.454 85.7881C213.703 87.2865 213.265 88.2355 213.854 89.2557C214.302 90.028 214.299 91.1172 213.848 91.6749C212.357 93.5204 209.382 107.96 208.576 117.261C208.139 122.296 207.527 126.866 207.214 127.416C206.901 127.966 206.448 130.56 206.207 133.181C205.555 140.277 203.165 146.046 198.51 151.762L194.344 156.875L196.25 150.095C197.298 146.366 198.703 137.836 199.375 131.139C200.725 117.661 202.668 108.623 204.699 106.365L206.032 104.883L205.164 106.741C203.045 111.283 204.096 127.449 206.494 127.193C206.939 127.145 206.766 125.715 206.112 124.014C204.392 119.551 205.341 108.535 207.695 105.621C208.76 104.303 210.15 100.802 210.784 97.8421C211.417 94.8818 212.368 91.9252 212.896 91.2715C213.423 90.6186 213.484 89.7843 213.03 89.4175C212.569 89.0458 211.883 89.5713 211.48 90.6014C211.083 91.6204 209.584 94.5861 208.153 97.1924C200.177 111.705 199.815 112.877 198.191 129.449C197.063 140.963 193.522 156.209 190.918 160.77C189.193 163.791 189.052 163.838 187.727 161.838C186.965 160.688 183.373 155.945 179.744 151.298C176.116 146.652 172.82 142.327 172.419 141.686C171.893 140.845 173.555 139.775 178.419 137.82C182.118 136.334 185.928 134.149 186.885 132.965C188.802 130.591 192.468 116.129 191.886 113.232C191.641 112.008 192.783 109.832 195.341 106.649C205.065 94.5536 208.488 80.9263 206.797 61.042C205.804 49.3545 205.95 47.0563 207.921 43.4068C211.111 37.4971 211.442 31.4665 208.829 26.8659C206.224 22.2786 205.796 22.4785 206.827 27.8038C208.125 34.5092 205.777 41.4943 199.644 49.1677C193.107 57.3472 187.339 67.6861 185.913 73.7772C184.96 77.8478 184.73 78.2 183.947 76.7915C182.021 73.3309 172.876 63.4669 167.609 59.1699C162.695 55.1606 161.708 53.8129 159.1 47.5496C157.479 43.6531 155.753 39.1775 155.267 37.6043C154.167 34.0433 150.904 30.0959 148.848 29.8367C147.77 29.7002 147.957 30.455 149.462 32.3162C150.653 33.7873 151.772 35.6685 151.951 36.4964C152.131 37.324 152.903 38.0807 153.668 38.1772C154.516 38.2839 154.59 38.5158 153.86 38.7729C153.201 39.0047 152.838 39.6967 153.052 40.3105C153.268 40.9236 153.264 42.3717 153.043 43.5281C152.667 45.495 152.526 45.4415 150.846 42.6954C148.677 39.1511 136.981 29.4792 127.466 23.3617C119.84 18.458 117.437 18.3222 123.291 23.1261C127.918 26.924 131.72 33.3503 134.107 41.4048C136.01 47.8304 141.859 57.5219 145.712 60.6349C147.369 61.9733 147.769 63.219 147.288 65.5552C145.515 74.1826 149.84 88.69 157.884 101.097C162.025 107.485 165.613 118.767 167.208 130.423C167.769 134.516 167.956 137.263 167.626 136.528C166.227 133.417 149.118 115.877 141.369 109.61C133.132 102.947 132.861 102.614 127.439 92.4852C124.399 86.8038 119.523 75.6554 116.605 67.7102C108.372 45.2955 100.204 32.6113 86.9627 21.6782C80.4045 16.2627 67.7376 9.32967 65.7069 10.0442C65.2527 10.2046 67.4148 12.6961 70.5128 15.5814C77.6975 22.2722 79.8923 25.8767 84.6477 38.7963C91.4209 57.1932 98.7351 68.3235 116.181 86.7805C119.592 90.3901 122.455 93.7526 122.544 94.2526C122.794 95.6735 109.93 84.2756 106.749 80.2593C105.183 78.2815 99.3851 69.8149 93.8645 61.444C70.4733 25.9727 53.2674 9.69551 35.1318 5.88321C32.7462 5.38054 30.5889 5.22489 30.338 5.53545C30.0865 5.8468 33.7968 9.26381 38.5826 13.1311C45.2147 18.4899 48.0904 21.4209 50.6748 25.4578L54.0658 30.7543L48.9085 26.8531C40.2542 20.3075 28.2349 13.2231 14.3731 6.49846C7.10921 2.97401 0.925442 0.117337 0.630223 0.148911C0.336392 0.180321 3.48632 3.31617 7.63125 7.11758C11.7768 10.9182 18.6367 17.9239 22.876 22.6846C35.4349 36.7898 46.9856 47.7883 58.0035 56.1345L68.3592 63.9792L63.1197 62.4126C60.2375 61.5498 54.3136 60.3621 49.954 59.7712C45.5945 59.1817 40.4376 58.0888 38.4939 57.3429C33.0685 55.2627 23.9922 53.5135 24.7315 54.6917C25.0946 55.2692 27.6584 56.6748 30.4299 57.8154C33.5638 59.1056 38.4671 62.3114 43.4012 66.2973C50.495 72.0278 52.9212 73.3759 66.3211 79.0362C74.5639 82.5183 85.3101 86.5264 90.2021 87.9441C95.0942 89.3632 102.273 91.4364 106.154 92.5538C117.023 95.6815 123.174 99.545 138.976 113.165C146.647 119.776 153.51 126.233 154.228 127.513C155.339 129.493 154.888 129.331 151.211 126.43C145.427 121.865 128.783 111.575 121.389 107.991C113.79 104.307 95.6465 97.9775 86.1628 95.7008C79.2495 94.0415 78.4602 93.6087 72.2575 88.0886C65.0902 81.7087 63.8714 81.5971 68.3992 87.7364C70.002 89.9091 73.9359 96.3327 77.1409 102.011C80.3458 107.69 84.3785 114.091 86.1022 116.236C87.8258 118.381 99.8954 129.014 112.924 139.865C125.952 150.717 137.672 160.773 138.968 162.214L141.324 164.834L138.118 164.196C131.108 162.802 99.6063 151.444 95.405 148.797C90.1404 145.479 85.383 140.08 72.437 122.734C64.0676 111.519 61.5505 108.794 51.5216 100.086C42.6145 92.3534 38.2639 89.1704 31.6355 85.5398C26.9691 82.9836 22.9354 81.1585 22.672 81.4846C22.4092 81.8099 24.733 84.4525 27.8364 87.3549C30.9391 90.258 34.5759 94.4796 35.9179 96.7347C37.2592 98.9906 40.8239 104.191 43.8382 108.292C46.8531 112.393 48.6239 115.185 47.7737 114.497C45.7337 112.846 11.6866 99.9381 11.1067 100.596C10.8589 100.876 11.646 101.743 12.8548 102.524C14.0642 103.304 18.2179 107.952 22.0865 112.853C32.1214 125.569 43.751 134.83 55.1797 139.21C59.6951 140.941 66.0252 142.558 69.2469 142.804C75.9015 143.314 76.1608 143.398 84.7438 147.849C88.9459 150.029 90.3385 151.037 88.9179 150.869C76.2539 149.381 70.9089 149.44 58.7523 151.206C50.9734 152.336 41.5233 154.313 37.7513 155.601C33.9786 156.888 28.9256 158.286 26.5221 158.706C24.1186 159.125 22.1832 159.763 22.2212 160.123C22.2584 160.482 24.3444 161.529 26.8543 162.451C29.3648 163.372 31.8886 164.506 32.4625 164.97C33.0365 165.433 37.5665 166.699 42.5285 167.782C52.4664 169.952 55.2204 171.684 62.3677 180.258L66.443 185.147L61.3791 186.863C54.9267 189.05 54.3014 189.875 58.8888 190.15C65.5125 190.549 74.5605 193.858 79.1342 197.552C88.6273 205.221 107.576 212.465 119.561 213.007C125.402 213.271 137.761 211.473 153.568 208.058C158.569 206.978 163.055 206.143 163.539 206.205C164.021 206.266 167.686 210.688 171.681 216.032C175.677 221.377 180.619 227.46 182.665 229.553C184.711 231.644 186.118 233.385 185.793 233.419C185.468 233.454 183.125 232.598 180.585 231.516C155.203 220.706 145.853 217.896 130.457 216.454C125.152 215.957 117.227 215.001 112.848 214.33C108.067 213.598 101.934 213.639 97.4983 214.434C93.4358 215.162 90.5539 215.881 91.0941 216.032C91.6344 216.184 95.0443 216.906 98.6723 217.637C108.284 219.575 113.258 221.642 122.481 227.531C131.642 233.381 138.277 236.101 150.619 239.068C157.35 240.684 161.463 240.801 171.944 239.671C188.126 237.928 190.241 238.321 197.664 244.462C205.119 250.63 206.456 253.21 205.027 258.665C204.395 261.074 203.387 268.08 202.787 274.236C201.593 286.484 199.026 294.588 193.788 302.65C191.913 305.536 190.672 308.132 191.028 308.42C192.089 309.277 196.558 301.492 200.063 292.681C202.269 287.134 203.589 281.4 204.109 275.107C204.967 264.731 206.393 256.924 207.452 256.811C207.834 256.77 207.829 258.281 207.44 260.168C207.052 262.057 206.394 267.665 205.975 272.632C205.116 282.84 202.353 291.863 196.973 302.023C194.95 305.844 193.6 309.217 193.974 309.519C194.778 310.169 194.475 310.652 199.115 301.318ZM224.031 249.969C221.67 252.285 220.323 253.346 221.039 252.327C221.755 251.309 223.449 247.205 224.803 243.209C227.062 236.543 228.106 234.879 237.443 223.047C243.04 215.954 248.308 208.762 249.149 207.066C250.069 205.209 250.821 204.391 251.038 205.011C251.683 206.848 249.169 213.68 244.442 222.942C241.897 227.925 239.408 232.825 238.909 233.83C238.005 235.654 232.151 242.003 224.031 249.969ZM217.878 253.219C218.024 251.523 218.112 247.563 218.074 244.419C218.037 241.275 218.954 234.573 220.112 229.525C222.634 218.541 224.682 216.093 235.288 211.389C239.086 209.705 243.89 207.105 245.962 205.611C249.728 202.898 249.729 202.898 248.396 205.658C247.663 207.177 242.548 214.094 237.03 221.028C226.832 233.841 225.517 236.239 219.117 253.678C218.182 256.223 217.639 256.022 217.878 253.219ZM207.083 254.369C207.123 253.088 206.226 250.84 205.09 249.37L203.022 246.698L205.627 248.671C207.978 250.453 208.274 250.429 208.656 248.427C208.888 247.207 209.257 246.353 209.475 246.529C209.991 246.946 208.423 254.899 207.624 255.913C207.286 256.344 207.042 255.649 207.083 254.369ZM249.61 194.896C249.55 192.612 250.136 189.161 250.91 187.226L252.32 183.709L252.797 187.461C253.216 190.748 252.051 195.77 250.297 198.235C249.98 198.682 249.671 197.18 249.61 194.896ZM196.141 238.372C182.858 225.878 170.597 209.808 160.22 191.291C156.045 183.841 151.92 176.485 151.056 174.944C149.509 172.19 149.614 172.2 157.55 175.608C168.697 180.392 184.105 188.919 189.543 193.312C192.039 195.328 196.282 199.658 198.971 202.934C203.757 208.764 203.912 209.193 206.334 223.28C208.469 235.699 208.849 247.935 207.105 248.122C206.81 248.153 201.876 243.766 196.141 238.372ZM209.37 236.002C208.958 231.909 207.633 222.393 206.428 214.856C204.51 202.863 203.419 199.381 197.688 186.973C194.087 179.174 188.418 168.331 185.09 162.878C178.434 151.97 178.213 150.689 184.592 159.983C187.949 164.874 188.973 165.877 190.189 165.465C191.352 165.07 191.457 165.239 190.667 166.236C189.622 167.555 190.694 170.313 195.64 179.027C198.433 183.946 201.378 191.249 205.233 202.819C208.173 211.64 211.841 240.8 210.309 243.16C210.206 243.318 209.784 240.097 209.37 236.002ZM212.188 228.883C212.238 227.516 212.589 223.192 212.967 219.274C213.346 215.356 213.765 208.784 213.899 204.668C214.292 192.569 214.716 190.46 218.105 183.761C220.503 179.022 222.922 175.733 227.556 170.905L233.783 164.417L229.737 170.688C222.238 182.31 217.301 198.285 214.088 221.322C212.801 230.548 212.01 233.695 212.188 228.883ZM188.584 237.671C186.757 237.321 179.318 237.63 172.051 238.356C161.553 239.407 157.148 239.272 150.61 237.701C139.724 235.085 130.873 231.378 122.104 225.763C118.149 223.231 112.944 220.445 110.536 219.574C108.128 218.702 106.137 217.793 106.111 217.553C106.048 216.95 118.319 220.299 130.125 224.107C135.533 225.85 142.986 227.661 146.689 228.129C163.625 230.273 178.818 233.072 183.596 234.93C186.466 236.045 189.347 236.651 189.997 236.274C190.717 235.856 192.404 236.63 194.319 238.257C197.266 240.76 197.288 240.844 194.682 239.616C193.155 238.896 190.41 238.021 188.584 237.671ZM210.186 211.944C207.858 201.765 209.096 188.787 213.04 182.03C214.626 179.312 226.17 168.486 227.652 168.328C227.868 168.304 225.334 171.669 222.02 175.804C215.285 184.207 213.054 189.063 212.938 195.572C212.894 198.001 212.652 201.054 212.4 202.359C212.148 203.662 212.024 207.848 212.124 211.658C212.226 215.47 212.202 218.719 212.073 218.88C211.944 219.039 211.094 215.919 210.186 211.944ZM227.689 176.363C227.591 175.441 236.813 164.241 239.035 162.58C243.788 159.031 242.01 161.985 235.016 169.262C231.013 173.426 227.715 176.622 227.689 176.363ZM180.066 235.571C178.944 234.664 168.512 233.826 165.533 234.404L162.672 234.958L165.899 234.908C167.674 234.88 171.733 235.135 174.918 235.475C178.104 235.814 180.421 235.858 180.066 235.571ZM201.294 203.345C200.165 201.914 196.325 197.944 192.761 194.523L186.282 188.303L194.195 195.122C201.463 201.385 204.403 204.639 203.643 205.58C203.48 205.781 202.423 204.775 201.294 203.345ZM177.99 173.249C173.465 163.352 168.348 144.952 170.07 144.768C171.07 144.661 180.126 157.134 185.074 165.433C187.514 169.523 192.308 178.716 195.728 185.862L201.947 198.852L183.073 184.363L177.99 173.249ZM177.621 221.671C177.204 220.926 177.535 220.891 178.467 221.582C179.309 222.207 179.618 222.758 179.153 222.808C178.689 222.858 177.998 222.346 177.621 221.671ZM128.027 221.904C121.093 219.748 112.475 217.351 108.874 216.579C100.014 214.677 102.687 214.047 112.8 215.655C117.287 216.367 125.217 217.374 130.424 217.89C143.617 219.199 149.292 220.559 160.964 225.208C166.54 227.429 171.764 229.496 172.572 229.8C173.381 230.105 166.525 229.335 157.338 228.089C147.164 226.709 135.705 224.291 128.027 221.904ZM175.152 218.397C174.736 217.652 175.067 217.617 175.998 218.308C176.84 218.933 177.149 219.484 176.685 219.534C176.22 219.584 175.53 219.072 175.152 218.397ZM169.177 210.225C166.255 205.852 165.094 204.708 163.58 204.71C162.146 204.712 161.993 204.594 162.965 204.237C163.69 203.971 163.97 202.887 163.602 201.775C163.172 200.478 163.257 200.224 163.846 201.044C170.788 210.711 174.518 216.36 173.778 216.083C173.276 215.895 171.206 213.259 169.177 210.225ZM179.563 185.149C178.42 184.17 178.065 183.545 178.773 183.762C179.482 183.978 180.122 183.677 180.197 183.093C180.394 181.544 181.631 182.818 181.838 184.784C182.086 187.131 181.91 187.159 179.563 185.149ZM161.375 173.865L145.973 166.651L140.57 160.061C137.598 156.437 133.479 150.006 131.416 145.77C125.059 132.716 120.097 126.692 104.83 113.491L91.2832 101.777L102.425 108.555C108.554 112.282 117.339 117.785 121.948 120.783C126.556 123.781 133.031 127.871 136.335 129.872C139.64 131.873 142.892 133.934 143.561 134.451C144.229 134.968 148.633 135.925 153.347 136.577C159.398 137.414 162.775 138.447 164.829 140.093C166.537 141.46 167.439 142.796 167.01 143.327C166.609 143.823 166.665 144.188 167.136 144.139C167.607 144.088 168.942 148.559 170.103 154.074C171.264 159.589 173.944 167.869 176.058 172.473C178.87 178.597 179.483 180.878 178.34 180.964C177.481 181.027 169.846 177.833 161.375 173.865ZM153.44 204.828C144.54 205.845 135.603 204.759 126.879 201.596C123.756 200.464 120.94 199.327 120.621 199.07C119.06 197.808 124.426 195.689 130.807 195.048C134.737 194.653 139.32 193.905 140.989 193.385C146.268 191.743 164.511 200.221 162.106 203.198C161.794 203.585 157.894 204.318 153.44 204.828ZM174.071 181.661C173.712 181.016 174.29 181.192 175.354 182.052C176.417 182.911 176.71 183.438 176.005 183.223C175.299 183.008 174.429 182.305 174.071 181.661ZM203.043 147.648C206.543 141.73 208.101 135.077 209.629 119.516C210.812 107.478 214.04 91.9515 215.39 91.8071C215.812 91.7613 215.946 92.8345 215.687 94.1903C215.428 95.5476 215.297 100.819 215.397 105.905C215.603 116.404 215.138 119.198 211.054 131.989C207.464 143.234 207.149 143.908 203.257 148.716L200.124 152.584L203.043 147.648ZM175.135 172.956C173.353 169.186 170.842 161.274 169.557 155.374C168.272 149.476 166.96 144.971 166.643 145.364C165.84 146.357 169.315 161.44 172.173 169.374C174.222 175.061 177.544 181.004 178.172 180.105C178.285 179.944 176.918 176.727 175.135 172.956ZM161.302 198.655C160.664 198.14 160.414 197.38 160.748 196.968C161.081 196.556 161.713 196.84 162.154 197.6C162.594 198.361 162.843 199.121 162.708 199.288C162.573 199.455 161.94 199.171 161.302 198.655ZM151.647 192.06C137.382 184.518 132.7 182.385 123.551 179.262C111.44 175.13 102.328 174.09 93.1955 175.797C86.9191 176.972 85.6389 176.827 80.9412 174.409C77.8154 172.8 73.0536 171.464 69.1561 171.101L62.6171 170.493L73.82 169.444C82.9633 168.586 87.0709 167.522 96.1579 163.655C102.282 161.048 108.638 158.932 110.283 158.953C111.927 158.973 120.545 161.609 129.434 164.809L145.596 170.627L151.241 181.045C154.345 186.776 157.341 192.137 157.899 192.96C159.602 195.473 157.543 195.177 151.647 192.06ZM132.005 210.591C116.711 212.462 108.338 210.998 101.562 205.267L97.3425 201.699L104.238 201.163C109.174 200.779 113.444 201.369 119.253 203.236C123.718 204.672 130.175 206.086 133.602 206.378C137.029 206.67 140.351 207.328 140.985 207.841C141.619 208.352 142.985 208.448 144.021 208.053C145.057 207.659 145.61 207.72 145.25 208.193C144.89 208.664 138.93 209.744 132.005 210.591ZM124.633 186.376C111.786 184.794 96.5929 184.796 84.8863 186.382C79.7681 187.075 72.2815 187.857 68.249 188.119C62.3813 188.501 61.6616 188.379 64.6451 187.509C66.6943 186.911 71.9291 184.804 76.277 182.827C93.2313 175.118 106.148 174.621 124.168 180.985C132.721 184.006 146.266 190.17 148.032 191.845C148.304 192.104 145.389 191.254 141.553 189.958C137.716 188.661 130.103 187.049 124.633 186.376ZM177.223 150.957C176.806 150.212 177.138 150.177 178.069 150.868C178.911 151.493 179.22 152.044 178.755 152.094C178.291 152.144 177.601 151.632 177.223 150.957ZM173.981 147.059C173.564 146.314 173.896 146.278 174.827 146.969C175.669 147.594 175.978 148.146 175.513 148.195C175.049 148.245 174.359 147.734 173.981 147.059ZM129.62 193.834C125.817 193.884 122.911 194.627 121.218 195.983C117.465 198.99 101.347 200.754 93.239 199.045C86.4366 197.613 69.3788 191.298 69.2588 190.17C69.1579 189.208 93.0979 186.629 102.677 186.571C115.859 186.49 138.363 189.084 140.673 190.95C141.859 191.908 134.739 193.767 129.62 193.834ZM119.536 202.048C115.446 200.766 114.595 200.26 116.037 199.97C117.085 199.758 120.194 200.477 122.944 201.569C125.695 202.66 128.604 203.806 129.41 204.114C132.5 205.295 124.678 203.658 119.536 202.048ZM185.539 130.724C186.977 126.625 186.977 126.644 185.627 121.254C185.146 119.338 185.229 118.167 185.811 118.653C188.46 120.864 188.246 129.748 185.464 133.063C184.723 133.945 184.755 132.959 185.539 130.724ZM148.122 169.873C147.4 169.313 147.751 169.185 149.028 169.543C150.175 169.864 151.801 170.699 152.641 171.399C153.87 172.422 153.693 172.487 151.735 171.729C150.397 171.211 148.77 170.376 148.122 169.873ZM206.533 104.647C205.923 104.155 207.769 98.9903 208.586 98.9029C208.975 98.8613 208.953 99.9306 208.536 101.281C207.646 104.167 207.091 105.098 206.533 104.647ZM180.111 134.334C178.546 135.023 176.426 135.598 175.4 135.612C173.882 135.634 173.71 135.237 174.477 133.493C176.109 129.787 182.836 120.061 183.435 120.545C183.75 120.799 184.426 122.508 184.938 124.344C185.743 127.234 185.476 128.587 183.35 132.379C183.133 132.766 181.675 133.646 180.111 134.334ZM171.513 143.785C171.096 143.04 171.428 143.004 172.359 143.695C173.201 144.32 173.51 144.872 173.045 144.921C172.581 144.971 171.89 144.46 171.513 143.785ZM187.908 119.039C187.426 117.895 187.346 116.57 187.731 116.093C188.117 115.616 188.618 116.419 188.847 117.877C189.075 119.335 189.154 120.661 189.024 120.823C188.893 120.985 188.391 120.182 187.908 119.039ZM169.976 139.109C169.829 138.991 169.679 137.575 169.643 135.961L169.577 133.028L170.126 135.909C170.641 138.616 170.595 139.609 169.976 139.109ZM160.413 132.081C157.048 128.213 150.713 121.647 146.337 117.491L138.381 109.935L147.096 117.343C155.205 124.239 170.32 140.53 167.699 139.551C167.057 139.311 163.779 135.95 160.413 132.081ZM187.63 113.054C187.417 112.448 188.316 110.623 189.626 109C194.374 103.124 200.623 90.4959 202.498 82.9927C204.262 75.9365 205.268 56.8038 203.868 56.9528C203.526 56.9901 203.219 61.1077 203.185 66.1039C203.127 74.8153 200.672 87.3293 197.875 93.1715C196.073 96.9374 196.142 95.6643 198.108 88.8822C199.86 82.8389 200.786 76.6393 201.008 69.4671C201.082 67.0633 201.481 62.1115 201.894 58.4637C202.879 49.7877 204.397 51.3879 205.641 62.4117C207.219 76.4112 205.226 88.094 199.542 98.1564C195.825 104.737 188.101 114.397 187.63 113.054ZM172.266 130.543C172.243 128.861 171.972 127.773 171.665 128.123C171.358 128.474 170.152 121.259 168.983 112.09C167.815 102.921 165.84 91.0445 164.594 85.6977C161.401 72.0053 156.159 45.994 156.506 45.5642C157.132 44.7897 159.591 51.7396 160.325 56.3593C160.752 59.0421 162.742 65.6148 164.748 70.9645C170.555 86.4562 171.457 91.4407 170.832 104.605C170.254 116.771 171.004 128.888 172.24 127.359C172.589 126.926 172.62 124.673 172.307 122.353C171.993 120.033 171.889 113.65 172.074 108.167C172.259 102.685 172.2 95.5388 171.944 92.2852L171.478 86.3696L174.474 92.154C176.122 95.3358 178.444 100.392 179.634 103.391C180.824 106.39 182.136 108.86 182.55 108.88C182.964 108.901 182.934 109.011 182.485 109.124C182.036 109.237 181.767 110.662 181.888 112.293C182.068 114.711 177.219 125.642 172.764 132.865C172.516 133.269 172.291 132.224 172.266 130.543ZM138.845 166.325C138.4 166.006 138.831 165.827 139.803 165.93C140.775 166.033 142.077 166.557 142.695 167.097C143.884 168.131 140.375 167.428 138.845 166.325ZM116.138 193.976C114.026 193.849 111.727 193.946 111.029 194.192C110.331 194.437 111.488 194.742 113.599 194.869C115.712 194.996 118.011 194.899 118.709 194.654C119.407 194.408 118.25 194.103 116.138 193.976ZM186.502 108.608C186.912 107.7 186.773 106.896 186.19 106.823C185.608 106.75 185.778 106.314 186.57 105.855C188.082 104.979 189.201 98.8526 187.822 99.0008C187.383 99.0478 187.016 98.0808 187.008 96.8534C186.999 95.5057 186.852 95.2681 186.638 96.2547C186.443 97.1536 186.079 94.8435 185.829 91.1222C185.025 79.1378 188.59 66.6105 195.468 57.2554C198.975 52.4849 201.717 51.615 200.943 55.5194C200.66 56.9492 200.189 62.5342 199.896 67.9289C199.195 80.8503 196.505 92.6813 192.275 101.448C191.124 103.833 185.517 110.788 186.502 108.608ZM186.146 102.973C186.19 101.641 186.534 100.191 186.912 99.7519C187.29 99.3109 187.563 100.041 187.521 101.372C187.477 102.704 187.133 104.153 186.755 104.593C186.377 105.034 186.104 104.304 186.146 102.973ZM178.396 96.6592C175.721 91.3413 172.956 86.5143 172.251 85.9331C171.149 85.025 164.796 68.6025 164.323 65.4373C164.232 64.8307 164.873 65.106 165.746 66.0485C173.915 74.8643 177.278 79.1526 180.752 85.1803C184.377 91.4679 184.767 92.9445 184.473 99.2202C184.292 103.077 183.946 106.255 183.702 106.281C183.459 106.307 181.072 101.977 178.396 96.6592ZM150.914 134.769C147.617 134.064 142.821 132.169 140.256 130.558C137.69 128.947 131.779 125.228 127.119 122.293C111.501 112.455 91.3778 100.108 89.5146 99.2198C87.8413 98.4224 87.859 98.3624 89.7091 98.5834C93.3883 99.0228 127.592 116.428 141.118 124.743C148.398 129.221 155.534 133.538 156.975 134.338C160.422 136.254 158.497 136.391 150.914 134.769ZM87.2003 200.982L82.647 197.916L87.3751 199.256C92.0757 200.59 95.2815 202.406 98.732 205.696C101.478 208.311 92.8479 204.784 87.2003 200.982ZM167.047 119.048C166.811 117.327 166.371 115.719 166.07 115.476C165.769 115.233 164.92 113.126 164.182 110.795C163.445 108.463 160.799 103.182 158.303 99.06C148.365 82.6494 146.622 74.1314 150.204 59.5058C151.469 54.3446 153.019 48.8841 153.651 47.371C154.769 44.6943 154.811 44.6898 155.202 47.1959C155.424 48.6114 155.098 49.9489 154.478 50.1665C153.858 50.385 153.915 50.6343 154.603 50.7206C155.292 50.8076 156.332 53.5337 156.912 56.7788C157.494 60.0245 159.118 67.5017 160.523 73.3962C165.24 93.1988 169.435 119.754 168.106 121.399C167.76 121.828 167.283 120.769 167.047 119.048ZM121.021 111.645C114.806 108.459 108.255 105.215 106.464 104.436C104.671 103.658 103.182 102.79 103.152 102.508C103.078 101.807 117.989 107.88 124.026 111.008C130.383 114.303 150.179 126.94 153.587 129.878C155.038 131.129 150.846 128.841 144.272 124.795C137.699 120.748 127.235 114.831 121.021 111.645ZM183.529 87.6705C182.765 84.2681 175.837 74.6772 169.364 68.061C164.352 62.9385 162.426 60.3319 162.172 58.3298C161.828 55.6205 161.859 55.6285 165.368 59.1208C167.316 61.0607 171.185 64.8166 173.964 67.4678C181.564 74.7156 183.776 78.256 184.112 83.7044C184.417 88.6566 184.154 90.4495 183.529 87.6705ZM96.076 124.276C87.9227 116.299 82.4835 109.576 79.6697 103.997L78.04 100.765L80.4538 103.316C81.7814 104.718 89.8774 111.786 98.4453 119.02C112.958 131.274 129.31 147.851 131.475 152.504C132.618 154.96 104.617 132.631 96.076 124.276ZM126.032 142.518C123.096 138.798 114.949 131.198 101.299 119.444C83.1305 103.801 73.2359 93.9063 72.9374 91.0811C72.8062 89.8399 99.4968 109.97 107.169 116.899C111.241 120.576 116.644 126.156 119.177 129.3C123.429 134.577 131.719 147.926 130.807 148.024C130.588 148.047 128.44 145.569 126.032 142.518ZM198.807 59.1427C200.545 54.0046 199.817 53.4364 197.966 58.4847C197.037 61.016 196.42 63.2012 196.592 63.3405C197.063 63.7204 197.611 62.6803 198.807 59.1427ZM206.113 42.0089C206.993 39.7806 207.99 35.9784 208.326 33.558L208.938 29.158L209.494 32.7368C210.066 36.4138 208.779 40.6723 206.056 44.1079C204.956 45.4942 204.973 44.8867 206.113 42.0089ZM98.5221 158.484C98.153 158.941 99.1371 159.256 100.708 159.184C102.815 159.088 101.278 160.057 94.8465 162.88C88.249 165.776 83.2386 167.021 74.2473 167.997C67.7125 168.708 62.2227 169.647 62.0468 170.085C61.8703 170.524 61.5449 170.363 61.3221 169.727C61.1001 169.092 57.4657 168.368 53.2468 168.119C47.0303 167.751 33.8446 164.806 32.0981 163.395C31.5891 162.984 36.1567 162.678 39.4645 162.902C46.5702 163.383 62.4742 161.81 72.8828 159.597C79.3224 158.227 87.9361 156.943 92.0244 156.741C96.1122 156.54 99.1024 156.089 98.6692 155.739C97.1153 154.484 86.8824 155.461 73.4009 158.153C55.2309 161.781 34.0159 162.825 32.3857 160.172C31.056 158.006 44.6972 154.402 61.5813 152.456C76.6557 150.719 80.0464 150.731 88.9288 152.546C94.5059 153.685 99.2389 155.105 99.4475 155.7C99.6561 156.294 101.257 156.988 103.006 157.241L106.185 157.701L102.689 157.678C100.766 157.666 98.8906 158.028 98.5221 158.484ZM77.1222 176.176C71.251 173.124 70.0649 171.848 74.4183 173.271C79.6788 174.989 84.4605 177.68 83.4295 178.34C82.9007 178.678 80.062 177.705 77.1222 176.176ZM70.3149 177.147L64.685 172.756L69.2283 174.215C71.7276 175.017 75.2193 176.513 76.9895 177.538C80.0441 179.309 80.0993 179.458 78.0755 180.471C76.1927 181.412 75.2879 181.024 70.3149 177.147ZM94.853 151.159C93.6243 150.135 93.8014 150.071 95.7591 150.828C99.0887 152.117 101.122 153.759 98.4663 153.015C97.3195 152.694 95.6939 151.858 94.853 151.159ZM65.2725 181.817C63.7538 180.099 61.624 177.264 60.5382 175.518L58.5663 172.343L63.3795 174.77C66.0278 176.104 69.578 178.314 71.2696 179.68L74.345 182.165L71.1893 183.554C68.2141 184.863 67.8761 184.764 65.2725 181.817ZM131.177 103.522C130.76 102.777 131.092 102.741 132.023 103.432C132.865 104.057 133.174 104.609 132.709 104.658C132.245 104.708 131.555 104.197 131.177 103.522ZM125.876 100.492C125.517 99.8477 126.094 100.024 127.158 100.883C128.222 101.742 128.514 102.269 127.809 102.054C127.103 101.84 126.233 101.137 125.876 100.492ZM70.5523 134.811L65.9135 130.018L71.744 133.877C74.951 135.999 79.6648 139.421 82.2199 141.48L86.8653 145.223L81.0276 142.414C76.7662 140.363 73.9372 138.31 70.5523 134.811ZM145.616 58.6499C140.029 51.9368 137.23 46.9648 134.955 39.7093L132.474 31.7987L136.327 35.7326C138.445 37.8969 142.611 42.2515 145.583 45.4099L150.988 51.1525L149.857 55.5118C148.338 61.3737 148.056 61.5822 145.616 58.6499ZM62.321 124.971C52.712 117.411 46.7626 110.713 38.5562 98.2158L33.1105 89.9246L42.3341 98.0885C50.8771 105.65 63.2917 118.344 76.3726 132.89L81.7575 138.878L76.3373 135.307C73.3565 133.343 67.0489 128.692 62.321 124.971ZM141.34 38.6253C131.961 28.5047 131.788 28.2458 136.562 31.4854C141.358 34.7402 149.385 42.2827 151.564 45.5832C152.151 46.4715 152.28 47.6316 151.851 48.1621C151.253 48.9025 148.808 46.6846 141.34 38.6253ZM63.6872 135.148C52.4123 128.795 46.7743 124.97 30.2446 112.461C23.3309 107.229 21.5269 105.563 23.6541 106.378C25.2651 106.994 30.2407 108.668 34.7114 110.096C42.2068 112.49 43.5952 113.297 52.5414 120.463C61.4844 127.625 77.8143 142.683 75.6172 141.741C75.0948 141.518 69.7263 138.55 63.6872 135.148ZM115.826 75.1033C113.22 70.1969 109.013 62.0782 106.475 57.0613C99.9436 44.1491 91.3237 32.2583 81.3355 22.3812C71.8567 13.0079 73.3368 12.8213 84.9346 21.9277C99.0442 33.007 108.389 47.5182 116.273 70.5929C118.12 76 120.145 81.202 120.772 82.1516C121.4 83.1013 121.609 83.9111 121.238 83.9507C120.866 83.9905 118.431 80.0091 115.826 75.1033ZM111.495 79.6895C101.349 68.257 95.3886 59.9133 91.1874 51.2605C86.4968 41.5993 81.4794 27.3521 82.7205 27.2193C86.6332 26.8016 100.111 46.3388 109.992 66.7504C111.967 70.8319 114.731 76.3122 116.132 78.9289C117.98 82.3802 118.123 83.0725 116.652 81.4503C115.535 80.221 114.165 78.419 113.605 77.4458C112.922 76.2594 112.534 76.0978 112.425 76.9557C112.336 77.6594 113.827 80.2064 115.739 82.6163C121.267 89.5805 118.707 87.8151 111.495 79.6895ZM113.823 90.0674C113.683 88.6899 113.844 88.6734 114.607 89.9836C115.134 90.8909 115.214 91.6706 114.783 91.7167C114.353 91.7634 113.92 91.0214 113.823 90.0674ZM106.198 84.4737C106.009 82.684 108 83.6839 110.263 86.5155L112.676 89.5363L109.479 87.4017C107.721 86.227 106.245 84.9103 106.198 84.4737ZM54.8425 137.492C48.2145 134.669 44.381 132.362 38.7221 127.791C31.7699 122.175 21.0816 110.702 19.7867 107.466C19.4702 106.674 26.1153 111.257 34.5539 117.65C44.8405 125.443 53.1098 131.003 59.6458 134.522C71.684 141.002 71.843 141.141 67.261 141.17C65.2122 141.184 59.6244 139.528 54.8425 137.492ZM89.1498 80.8982C73.6669 73.0061 65.8738 69.5418 52.3841 64.5576C40.1444 60.0341 38.2931 59.1991 42.0349 59.8886C43.2587 60.1143 47.6043 60.7873 51.6916 61.3847C63.8188 63.1565 71.8414 66.3352 85.9952 74.9736C93.0941 79.3068 100.949 84.2349 103.449 85.926L107.996 89.0002L104.067 87.7498C101.907 87.0617 95.1931 83.9794 89.1498 80.8982ZM103.459 90.4952C103.039 90.1559 99.1339 89.0019 94.7817 87.932C81.7757 84.7336 55.9748 73.8128 47.5405 67.9363C43.5403 65.149 40.4385 62.6561 40.6474 62.3974C41.477 61.3704 71.6946 73.7832 84.4095 80.3736C91.8305 84.2194 99.8054 88.0393 102.133 88.8624C104.459 89.6856 105.881 90.5283 105.292 90.7349C104.704 90.9429 103.879 90.8344 103.459 90.4952ZM72.0155 126.123C71.5986 125.378 71.9302 125.342 72.8614 126.033C73.7035 126.658 74.0123 127.21 73.5478 127.259C73.0833 127.309 72.3932 126.798 72.0155 126.123ZM59.4956 112.567C53.42 106.255 44.9909 98.2317 40.7637 94.7363C34.5954 89.6357 33.7912 88.748 36.6904 90.2401C41.7134 92.8247 50.0504 99.6081 57.4456 107.127C63.5569 113.341 72.0616 123.881 71.0514 123.989C70.7716 124.018 65.5719 118.879 59.4956 112.567ZM74.6428 64.6204C61.8899 59.3035 45.5091 45.7931 28.6045 26.6492C25.1214 22.7042 20.1856 17.4307 17.6362 14.9297C11.8578 9.26094 76.7986 60.4233 92.2342 73.7L103.547 83.4313L92.6813 75.5202C85.2516 70.1122 79.5465 66.6645 74.6428 64.6204ZM87.6593 67.1618C85.1058 64.8494 87.195 66.3298 92.3014 70.4522C97.4077 74.5746 99.4966 76.4668 96.9432 74.6576C94.3897 72.8483 90.2122 69.4749 87.6593 67.1618ZM82.8666 71.0551L80.5742 69.1457L83.3721 70.4293C84.9111 71.135 87.7344 72.9805 89.6469 74.5294L93.1233 77.3465L89.1414 75.1551C86.9517 73.9494 84.1278 72.1046 82.8666 71.0551ZM83.7342 60.0912C69.5317 47.7121 60.264 37.6171 53.128 26.7535C50.2075 22.3082 47.1058 18.0952 46.2348 17.3917C45.3639 16.6881 45.0627 15.9674 45.5655 15.7912C47.0867 15.2564 61.4775 28.2727 70.0174 37.9078C84.63 54.3951 91.686 63.4035 89.4863 62.7656C87.8624 62.2947 87.9324 62.5292 89.8532 63.9886C94.1649 67.2656 96.3566 69.3881 95.9493 69.8922C95.7285 70.1656 90.2323 65.7552 83.7342 60.0912ZM87.3015 55.8351C86.0117 54.0803 80.5061 47.4724 75.067 41.1511C66.8657 31.622 62.8949 27.8013 51.8152 18.7831C39.2121 8.52405 38.6938 7.99788 42.6838 9.51628C48.8388 11.8595 64.9283 25.0373 71.782 33.3499C78.7654 41.8184 91.0715 58.8742 90.2614 58.9609C89.9229 58.9971 88.5906 57.5907 87.3015 55.8351ZM77.9195 68.1786C77.5026 67.4336 77.8342 67.3981 78.7653 68.0889C79.6075 68.7142 79.9162 69.2656 79.4517 69.3153C78.9872 69.3649 78.2971 68.8536 77.9195 68.1786ZM13.3273 7.88959C12.9151 7.02164 27.6592 14.7776 35.5924 19.6018C48.7635 27.6102 54.9586 32.9372 67.2742 46.8419L78.3045 59.2964L45.8915 33.7526C28.0644 19.7035 13.4103 8.0654 13.3273 7.88959ZM79.5229 23.3718C79.164 22.7273 79.7415 22.9033 80.8051 23.7625C81.8687 24.6217 82.1613 25.1486 81.4567 24.9339C80.7506 24.7193 79.8804 24.0163 79.5229 23.3718ZM27.601 23.165C25.6866 21.6185 24.781 21.1365 25.5891 22.0952C26.3978 23.053 27.9634 24.3177 29.0699 24.907C30.177 25.4954 29.5154 24.7114 27.601 23.165Z" fill="black"/>
</svg>
