<svg width="18" height="19" viewBox="0 0 18 19" fill="none" xmlns="http://www.w3.org/2000/svg">
<circle cx="5.25" cy="13.4946" r="1.5" stroke="#494C69" stroke-width="1.5" stroke-linecap="round" stroke-linejoin="round"/>
<circle cx="12.75" cy="13.4946" r="1.5" stroke="#494C69" stroke-width="1.5" stroke-linecap="round" stroke-linejoin="round"/>
<path d="M3.75 14.2446C4.16421 14.2446 4.5 13.9088 4.5 13.4946C4.5 13.0804 4.16421 12.7446 3.75 12.7446V14.2446ZM2.25 13.4946H1.5C1.5 13.9088 1.83579 14.2446 2.25 14.2446V13.4946ZM2.25 8.99457L1.55364 8.71602C1.51821 8.80462 1.5 8.89915 1.5 8.99457H2.25ZM3.75 5.24457V4.49457C3.44332 4.49457 3.16754 4.68128 3.05364 4.96602L3.75 5.24457ZM10.5 5.24457L11.0857 4.77605C10.9433 4.59814 10.7278 4.49457 10.5 4.49457V5.24457ZM13.5 8.99457L12.9143 9.46309C13.0567 9.641 13.2722 9.74457 13.5 9.74457V8.99457ZM15.75 13.4946V14.2446C16.1642 14.2446 16.5 13.9088 16.5 13.4946H15.75ZM14.25 12.7446C13.8358 12.7446 13.5 13.0804 13.5 13.4946C13.5 13.9088 13.8358 14.2446 14.25 14.2446V12.7446ZM11.25 14.2446C11.6642 14.2446 12 13.9088 12 13.4946C12 13.0804 11.6642 12.7446 11.25 12.7446V14.2446ZM6.75 12.7446C6.33579 12.7446 6 13.0804 6 13.4946C6 13.9088 6.33579 14.2446 6.75 14.2446V12.7446ZM2.25 8.24457C1.83579 8.24457 1.5 8.58035 1.5 8.99457C1.5 9.40878 1.83579 9.74457 2.25 9.74457V8.24457ZM13.5 9.74457C13.9142 9.74457 14.25 9.40878 14.25 8.99457C14.25 8.58035 13.9142 8.24457 13.5 8.24457V9.74457ZM8.25 8.99457C8.25 9.40878 8.58579 9.74457 9 9.74457C9.41421 9.74457 9.75 9.40878 9.75 8.99457H8.25ZM9.75 5.24457C9.75 4.83035 9.41421 4.49457 9 4.49457C8.58579 4.49457 8.25 4.83035 8.25 5.24457H9.75ZM3.75 12.7446H2.25V14.2446H3.75V12.7446ZM3 13.4946V8.99457H1.5V13.4946H3ZM2.94636 9.27311L4.44636 5.52311L3.05364 4.96602L1.55364 8.71602L2.94636 9.27311ZM3.75 5.99457H10.5V4.49457H3.75V5.99457ZM9.91435 5.71309L12.9143 9.46309L14.0857 8.52605L11.0857 4.77605L9.91435 5.71309ZM13.5 9.74457H14.25V8.24457H13.5V9.74457ZM14.25 9.74457C14.6642 9.74457 15 10.0804 15 10.4946H16.5C16.5 9.25193 15.4926 8.24457 14.25 8.24457V9.74457ZM15 10.4946V13.4946H16.5V10.4946H15ZM15.75 12.7446H14.25V14.2446H15.75V12.7446ZM11.25 12.7446H6.75V14.2446H11.25V12.7446ZM2.25 9.74457H13.5V8.24457H2.25V9.74457ZM9.75 8.99457V5.24457H8.25V8.99457H9.75Z" fill="#494C69"/>
</svg>
