<svg width="56" height="31" viewBox="0 0 56 31" fill="none" xmlns="http://www.w3.org/2000/svg">
<g clip-path="url(#clip0_215_62354)">
<path d="M41.9965 8.62391C41.9962 7.77291 41.2769 7.08031 40.393 7.07995L19.0833 7.07792H19.0826C18.6546 7.07792 18.2522 7.23839 17.9496 7.52977C17.6469 7.82131 17.4803 8.20897 17.4804 8.62137L17.4807 9.50501L16.6029 9.50491H16.6022C16.1742 9.50491 15.7718 9.66538 15.4692 9.95676C15.1665 10.2484 14.9998 10.6361 15 11.0485L15.0035 23.3701C15.0038 24.2211 15.723 24.9137 16.607 24.9141L37.9167 24.9161H37.9174C38.3454 24.9161 38.7478 24.7556 39.0504 24.4642C39.3531 24.1727 39.5197 23.785 39.5196 23.3726L39.5193 22.489L40.3971 22.489H40.3978C40.8258 22.489 41.2282 22.3285 41.5308 22.0372C41.8335 21.7456 42.0002 21.358 42 20.9456L41.9965 8.62391ZM38.3045 23.7461C38.2011 23.8456 38.0636 23.9004 37.9174 23.9004C37.9172 23.9004 37.917 23.9004 37.9169 23.9004L16.6072 23.8984C16.3046 23.8983 16.0583 23.6611 16.0582 23.3698L16.0547 11.0481C16.0546 10.9071 16.1116 10.7746 16.215 10.675C16.3184 10.5754 16.4559 10.5206 16.6024 10.5206H16.6027L37.9123 10.5226C38.2149 10.5227 38.4613 10.7599 38.4614 11.0512L38.4648 23.3729C38.4649 23.5139 38.408 23.6464 38.3045 23.7461V23.7461ZM40.785 21.319C40.6816 21.4186 40.5441 21.4734 40.3976 21.4734H40.3974L39.519 21.4733L39.5161 11.0509C39.5157 10.2 38.7964 9.5073 37.9126 9.50699L18.5354 9.50516L18.5351 8.62106C18.535 8.48009 18.592 8.34755 18.6954 8.24792C18.7988 8.14834 18.9363 8.09355 19.0828 8.09355H19.083L40.3927 8.09553C40.6954 8.09568 40.9417 8.33283 40.9418 8.62421L40.9453 20.9459C40.9454 21.0868 40.8884 21.2194 40.785 21.319V21.319Z" fill="#696C87"/>
<path d="M36.629 13.0466C36.1943 13.0465 35.8406 12.7058 35.8404 12.2872C35.8403 12.0068 35.6042 11.7796 35.313 11.7796H19.2044C19.0645 11.7796 18.9304 11.8331 18.8315 11.9284C18.7326 12.0237 18.677 12.1529 18.6771 12.2876C18.6772 12.4902 18.5953 12.6806 18.4466 12.8238C18.298 12.9669 18.1004 13.0457 17.8901 13.0457C17.89 13.0456 17.8899 13.0456 17.8896 13.0457C17.7498 13.0457 17.6157 13.0992 17.5168 13.1944C17.4179 13.2897 17.3623 13.4189 17.3623 13.5536L17.3637 20.8667C17.3638 21.147 17.5998 21.3743 17.8909 21.3744C18.3256 21.3745 18.6793 21.7152 18.6796 22.1338C18.6797 22.4142 18.9158 22.6414 19.2069 22.6414H35.3156C35.4555 22.6414 35.5896 22.5879 35.6885 22.4926C35.7874 22.3973 35.843 22.2681 35.8429 22.1334C35.8429 21.9308 35.9246 21.7404 36.0733 21.5972C36.2219 21.4541 36.4195 21.3753 36.6298 21.3753C36.63 21.3753 36.63 21.3753 36.6303 21.3753C36.7701 21.3753 36.9042 21.3218 37.0031 21.2266C37.102 21.1314 37.1576 21.0021 37.1576 20.8674L37.1562 13.5544C37.1562 13.274 36.9202 13.0467 36.629 13.0466V13.0466ZM35.3275 20.8791C35.1076 21.0908 34.9503 21.3466 34.8642 21.6258H19.6572C19.4797 21.055 19.0112 20.6038 18.4184 20.4329L18.4171 13.9881C18.707 13.9052 18.9727 13.7536 19.1925 13.542C19.4123 13.3303 19.5697 13.0745 19.6558 12.7953H34.8628C35.0403 13.3661 35.5088 13.8172 36.1016 13.9882L36.1029 20.433C35.813 20.5158 35.5473 20.6674 35.3275 20.8791V20.8791Z" fill="#696C87"/>
<path d="M27.9346 16.796C27.8578 16.7698 27.7846 16.7447 27.7148 16.7205V15.2327C27.8856 15.2892 28.0044 15.3757 28.0646 15.4584C28.232 15.688 28.5608 15.7436 28.7992 15.5824C29.0376 15.4213 29.0953 15.1046 28.9279 14.875C28.6922 14.5515 28.2679 14.2806 27.7148 14.1881V14.1096C27.7148 13.8291 27.4788 13.6018 27.1875 13.6018C26.8963 13.6018 26.6602 13.8291 26.6602 14.1096V14.2258C26.5909 14.2412 26.5206 14.259 26.4494 14.2797C25.8123 14.4646 25.3314 15.0601 25.28 15.728C25.2292 16.3885 25.5939 16.9621 26.2556 17.2627C26.3453 17.3033 26.484 17.359 26.6602 17.4255V19.2188C26.4229 19.1455 26.2073 19.0278 26.065 18.8577C25.8823 18.6394 25.5503 18.6049 25.3235 18.7808C25.0967 18.9568 25.0609 19.2764 25.2436 19.4949C25.6065 19.9287 26.1391 20.1635 26.6601 20.266V20.3115C26.6601 20.5919 26.8962 20.8193 27.1875 20.8193C27.4787 20.8193 27.7148 20.5919 27.7148 20.3115V20.3043C28.8159 20.1607 29.2977 19.4644 29.3798 18.8422C29.4953 17.9663 28.9009 17.1249 27.9346 16.796V16.796ZM26.3318 15.8032C26.3482 15.5895 26.4831 15.3854 26.6601 15.2906V16.3221C26.425 16.2016 26.3145 16.0272 26.3318 15.8032ZM28.3335 18.7142C28.2967 18.9938 28.075 19.1907 27.7148 19.2725V17.8053C28.1928 18.0195 28.3729 18.4151 28.3335 18.7142V18.7142Z" fill="#696C87"/>
<path d="M33.7595 16.7343H32.0361C31.7449 16.7343 31.5088 16.9617 31.5088 17.2421C31.5088 17.5226 31.7449 17.75 32.0361 17.75H33.7595C34.0508 17.75 34.2869 17.5226 34.2869 17.2421C34.2869 16.9617 34.0508 16.7343 33.7595 16.7343Z" fill="#696C87"/>
<path d="M22.5574 16.7343H20.834C20.5427 16.7343 20.3066 16.9617 20.3066 17.2421C20.3066 17.5226 20.5427 17.75 20.834 17.75H22.5574C22.8486 17.75 23.0847 17.5226 23.0847 17.2421C23.0847 16.9617 22.8486 16.7343 22.5574 16.7343Z" fill="#696C87"/>
</g>
<path d="M41.1064 1.95957C42.9457 1.95957 44.733 2.32707 46.416 3.04707C48.0468 3.74457 49.5064 4.74207 50.7723 6.00957C52.0308 7.27707 53.0213 8.75457 53.7138 10.3971C54.4287 12.0921 54.7936 13.8921 54.7936 15.7446C54.7936 17.5971 54.4287 19.3971 53.7138 21.0921C53.0213 22.7346 52.0308 24.2046 50.7723 25.4796C49.5138 26.7471 48.0468 27.7446 46.416 28.4421C44.733 29.1621 42.9457 29.5296 41.1064 29.5296H14.8936C13.0543 29.5296 11.267 29.1621 9.58404 28.4421C7.95319 27.7446 6.49362 26.7471 5.22766 25.4796C3.96915 24.2121 2.97872 22.7346 2.28617 21.0921C1.57128 19.3971 1.20638 17.5971 1.20638 15.7446C1.20638 13.8921 1.57128 12.0921 2.28617 10.3971C2.97872 8.75457 3.96915 7.28457 5.22766 6.00957C6.48617 4.74207 7.95319 3.74457 9.58404 3.04707C11.267 2.32707 13.0543 1.95957 14.8936 1.95957H41.1064ZM41.1064 0.744568H14.8936C6.70213 0.744568 0 7.49457 0 15.7446C0 23.9946 6.70213 30.7446 14.8936 30.7446H41.1064C49.2979 30.7446 56 23.9946 56 15.7446C56 7.49457 49.2979 0.744568 41.1064 0.744568Z" fill="#3D405B"/>
<defs>
<clipPath id="clip0_215_62354">
<rect width="27" height="26" fill="white" transform="translate(15 2.74457)"/>
</clipPath>
</defs>
</svg>
