<svg width="57" height="31" viewBox="0 0 57 31" fill="none" xmlns="http://www.w3.org/2000/svg">
<path d="M41.8404 0.744568H15.1596C6.82181 0.744568 0 7.37615 0 15.4814C0 23.5867 6.82181 30.2183 15.1596 30.2183H41.8404C50.1782 30.2183 57 23.5867 57 15.4814C57 7.37615 50.1782 0.744568 41.8404 0.744568Z" fill="white"/>
<path d="M41.8404 1.95957C43.7126 1.95957 45.5318 2.32707 47.2448 3.04707C48.9048 3.74457 50.3904 4.74207 51.679 6.00957C52.96 7.27707 53.9681 8.75457 54.673 10.3971C55.4007 12.0921 55.7721 13.8921 55.7721 15.7446C55.7721 17.5971 55.4007 19.3971 54.673 21.0921C53.9681 22.7346 52.96 24.2046 51.679 25.4796C50.398 26.7471 48.9048 27.7446 47.2448 28.4421C45.5318 29.1621 43.7126 29.5296 41.8404 29.5296H15.1596C13.2874 29.5296 11.4682 29.1621 9.75519 28.4421C8.09521 27.7446 6.60957 26.7471 5.32101 25.4796C4.04003 24.2121 3.03191 22.7346 2.32699 21.0921C1.59934 19.3971 1.22793 17.5971 1.22793 15.7446C1.22793 13.8921 1.59934 12.0921 2.32699 10.3971C3.03191 8.75457 4.04003 7.28457 5.32101 6.00957C6.60199 4.74207 8.09521 3.74457 9.75519 3.04707C11.4682 2.32707 13.2874 1.95957 15.1596 1.95957H41.8404ZM41.8404 0.744568H15.1596C6.82181 0.744568 0 7.49457 0 15.7446C0 23.9946 6.82181 30.7446 15.1596 30.7446H41.8404C50.1782 30.7446 57 23.9946 57 15.7446C57 7.49457 50.1782 0.744568 41.8404 0.744568Z" fill="#3D405B"/>
<path d="M27.1809 16.8096V21.3471H25.7256V10.1421H29.5837C30.5615 10.1421 31.3953 10.4646 32.0774 11.1096C32.7748 11.7546 33.1235 12.5421 33.1235 13.4721C33.1235 14.4246 32.7748 15.2121 32.0774 15.8496C31.4028 16.4871 30.5691 16.8021 29.5837 16.8021H27.1809V16.8096ZM27.1809 11.5221V15.4296H29.614C30.1901 15.4296 30.6752 15.2346 31.0542 14.8521C31.4407 14.4696 31.6378 14.0046 31.6378 13.4796C31.6378 12.9621 31.4407 12.5046 31.0542 12.1221C30.6752 11.7246 30.1977 11.5296 29.614 11.5296H27.1809V11.5221Z" fill="#3D405B"/>
<path d="M36.9284 13.4271C38.0048 13.4271 38.8537 13.7121 39.4752 14.2821C40.0968 14.8521 40.4075 15.6321 40.4075 16.6221V21.3471H39.0204V20.2821H38.9598C38.361 21.1596 37.5576 21.5946 36.557 21.5946C35.7005 21.5946 34.988 21.3471 34.4119 20.8446C33.8359 20.3421 33.5479 19.7196 33.5479 18.9696C33.5479 18.1746 33.851 17.5446 34.4574 17.0796C35.0638 16.6071 35.8748 16.3746 36.883 16.3746C37.747 16.3746 38.4595 16.5321 39.0129 16.8471V16.5171C39.0129 16.0146 38.8158 15.5946 38.4141 15.2421C38.0123 14.8896 37.5424 14.7171 37.0042 14.7171C36.1932 14.7171 35.5489 15.0546 35.079 15.7371L33.798 14.9421C34.5029 13.9296 35.5489 13.4271 36.9284 13.4271ZM35.0486 18.9921C35.0486 19.3671 35.2078 19.6821 35.5338 19.9296C35.8521 20.1771 36.2311 20.3046 36.6631 20.3046C37.2771 20.3046 37.8228 20.0796 38.3004 19.6296C38.7779 19.1796 39.0204 18.6546 39.0204 18.0471C38.5657 17.6946 37.9365 17.5146 37.1255 17.5146C36.5343 17.5146 36.0416 17.6571 35.6474 17.9346C35.2457 18.2271 35.0486 18.5796 35.0486 18.9921Z" fill="#3D405B"/>
<path d="M48.3208 13.6746L43.4697 24.7146H41.9689L43.7729 20.8521L40.5742 13.6746H42.1584L44.4626 19.1796H44.493L46.7366 13.6746H48.3208Z" fill="#3D405B"/>
<path d="M21.3924 15.8946C21.3924 15.4251 21.3499 14.9758 21.2711 14.5438H15.1709V17.0188L18.6841 17.0196C18.5416 17.8431 18.0831 18.5451 17.3804 19.0131V20.6188H19.4717C20.6928 19.5006 21.3924 17.8476 21.3924 15.8946Z" fill="#4285F4"/>
<path d="M17.381 19.0131C16.7988 19.4016 16.0492 19.6288 15.1722 19.6288C13.4781 19.6288 12.041 18.4993 11.5263 16.9768H9.36914V18.6328C10.4379 20.7313 12.6345 22.1713 15.1722 22.1713C16.9262 22.1713 18.3997 21.6006 19.4722 20.6181L17.381 19.0131Z" fill="#34A853"/>
<path d="M11.3233 15.7483C11.3233 15.3208 11.3953 14.9076 11.5264 14.5191V12.8631H9.36923C8.92733 13.7308 8.67871 14.7103 8.67871 15.7483C8.67871 16.7863 8.92809 17.7658 9.36923 18.6336L11.5264 16.9776C11.3953 16.5891 11.3233 16.1758 11.3233 15.7483Z" fill="#FABB05"/>
<path d="M15.1722 11.8671C16.1296 11.8671 16.9868 12.1933 17.6637 12.8308L19.517 10.9986C18.3914 9.96132 16.9239 9.32457 15.1722 9.32457C12.6353 9.32457 10.4379 10.7646 9.36914 12.8631L11.5263 14.5191C12.041 12.9966 13.4781 11.8671 15.1722 11.8671Z" fill="#E94235"/>
</svg>
