<svg width="27" height="27" viewBox="0 0 27 27" fill="none" xmlns="http://www.w3.org/2000/svg">
<g clip-path="url(#clip0_113_55212)">
<path d="M26.9965 6.62391C26.9962 5.77291 26.2769 5.08031 25.393 5.07995L4.08333 5.07792H4.08259C3.6546 5.07792 3.25223 5.23839 2.94964 5.52977C2.6469 5.82131 2.48026 6.20897 2.48041 6.62137L2.48068 7.50501L1.60291 7.50491H1.60218C1.17418 7.50491 0.771768 7.66538 0.469231 7.95676C0.166483 8.2484 -0.000158091 8.63606 1.12541e-07 9.04846L0.00348058 21.3701C0.00379699 22.2211 0.723041 22.9137 1.60697 22.9141L22.9167 22.9161H22.9174C23.3454 22.9161 23.7478 22.7556 24.0504 22.4642C24.3531 22.1727 24.5197 21.785 24.5196 21.3726L24.5193 20.489L25.3971 20.489H25.3978C25.8258 20.489 26.2282 20.3285 26.5308 20.0372C26.8335 19.7456 27.0002 19.358 27 18.9456L26.9965 6.62391ZM23.3045 21.7461C23.2011 21.8456 23.0636 21.9004 22.9174 21.9004C22.9172 21.9004 22.917 21.9004 22.9169 21.9004L1.60724 21.8984C1.3046 21.8983 1.05827 21.6611 1.05817 21.3698L1.05469 9.0481C1.05463 8.90713 1.11159 8.77459 1.215 8.67496C1.31841 8.57538 1.45589 8.52058 1.60239 8.52058H1.60265L22.9123 8.52256C23.2149 8.52272 23.4613 8.75992 23.4614 9.05125L23.4648 21.3729C23.4649 21.5139 23.408 21.6464 23.3045 21.7461V21.7461ZM25.785 19.319C25.6816 19.4186 25.5441 19.4734 25.3976 19.4734H25.3974L24.519 19.4733L24.5161 9.05094C24.5157 8.19995 23.7964 7.5073 22.9126 7.50699L3.53537 7.50516L3.5351 6.62106C3.53505 6.48009 3.592 6.34755 3.69541 6.24792C3.79883 6.14834 3.9363 6.09355 4.0828 6.09355H4.08301L25.3927 6.09553C25.6954 6.09568 25.9417 6.33283 25.9418 6.62421L25.9453 18.9459C25.9454 19.0868 25.8884 19.2194 25.785 19.319V19.319Z" fill="#696C87"/>
<path d="M21.629 11.0466C21.1943 11.0465 20.8406 10.7058 20.8404 10.2872C20.8403 10.0068 20.6042 9.7796 20.313 9.7796H4.20442C4.06452 9.7796 3.93036 9.83312 3.83148 9.92844C3.73261 10.0237 3.67703 10.1529 3.67708 10.2876C3.67718 10.4902 3.59534 10.6806 3.44663 10.8238C3.29802 10.9669 3.10043 11.0457 2.89012 11.0457C2.88996 11.0456 2.88986 11.0456 2.88965 11.0457C2.7498 11.0457 2.61569 11.0992 2.51682 11.1944C2.41789 11.2897 2.3623 11.4189 2.3623 11.5536L2.36373 18.8667C2.36378 19.147 2.59977 19.3743 2.89091 19.3744C3.3256 19.3745 3.67935 19.7152 3.67956 20.1338C3.67966 20.4142 3.91575 20.6414 4.2069 20.6414H20.3156C20.4555 20.6414 20.5896 20.5879 20.6885 20.4926C20.7874 20.3973 20.843 20.2681 20.8429 20.1334C20.8429 19.9308 20.9246 19.7404 21.0733 19.5972C21.2219 19.4541 21.4195 19.3753 21.6298 19.3753C21.63 19.3753 21.63 19.3753 21.6303 19.3753C21.7701 19.3753 21.9042 19.3218 22.0031 19.2266C22.102 19.1314 22.1576 19.0021 22.1576 18.8674L22.1562 11.5544C22.1562 11.274 21.9202 11.0467 21.629 11.0466V11.0466ZM20.3275 18.8791C20.1076 19.0908 19.9503 19.3466 19.8642 19.6258H4.6572C4.4797 19.055 4.01115 18.6038 3.41836 18.4329L3.4171 11.9881C3.70698 11.9052 3.97265 11.7536 4.19245 11.542C4.4123 11.3303 4.56971 11.0745 4.65578 10.7953H19.8628C20.0403 11.3661 20.5088 11.8172 21.1016 11.9882L21.1029 18.433C20.813 18.5158 20.5473 18.6674 20.3275 18.8791V18.8791Z" fill="#696C87"/>
<path d="M12.9346 14.796C12.8578 14.7698 12.7846 14.7447 12.7148 14.7205V13.2327C12.8856 13.2892 13.0044 13.3757 13.0646 13.4584C13.232 13.688 13.5608 13.7436 13.7992 13.5824C14.0376 13.4213 14.0953 13.1046 13.9279 12.875C13.6922 12.5515 13.2679 12.2806 12.7148 12.1881V12.1096C12.7148 11.8291 12.4788 11.6018 12.1875 11.6018C11.8963 11.6018 11.6602 11.8291 11.6602 12.1096V12.2258C11.5909 12.2412 11.5206 12.259 11.4494 12.2797C10.8123 12.4646 10.3314 13.0601 10.28 13.728C10.2292 14.3885 10.5939 14.9621 11.2556 15.2627C11.3453 15.3033 11.484 15.359 11.6602 15.4255V17.2188C11.4229 17.1455 11.2073 17.0278 11.065 16.8577C10.8823 16.6394 10.5503 16.6049 10.3235 16.7808C10.0967 16.9568 10.0609 17.2764 10.2436 17.4949C10.6065 17.9287 11.1391 18.1635 11.6601 18.266V18.3115C11.6601 18.5919 11.8962 18.8193 12.1875 18.8193C12.4787 18.8193 12.7148 18.5919 12.7148 18.3115V18.3043C13.8159 18.1607 14.2977 17.4644 14.3798 16.8422C14.4953 15.9663 13.9009 15.1249 12.9346 14.796V14.796ZM11.3318 13.8032C11.3482 13.5895 11.4831 13.3854 11.6601 13.2906V14.3221C11.425 14.2016 11.3145 14.0272 11.3318 13.8032ZM13.3335 16.7142C13.2967 16.9938 13.075 17.1907 12.7148 17.2725V15.8053C13.1928 16.0195 13.3729 16.4151 13.3335 16.7142V16.7142Z" fill="#696C87"/>
<path d="M18.7595 14.7343H17.0361C16.7449 14.7343 16.5088 14.9617 16.5088 15.2421C16.5088 15.5226 16.7449 15.75 17.0361 15.75H18.7595C19.0508 15.75 19.2869 15.5226 19.2869 15.2421C19.2869 14.9617 19.0508 14.7343 18.7595 14.7343Z" fill="#696C87"/>
<path d="M7.55739 14.7343H5.83398C5.54273 14.7343 5.30664 14.9617 5.30664 15.2421C5.30664 15.5226 5.54273 15.75 5.83398 15.75H7.55739C7.84864 15.75 8.08473 15.5226 8.08473 15.2421C8.08473 14.9617 7.84864 14.7343 7.55739 14.7343Z" fill="#696C87"/>
</g>
<defs>
<clipPath id="clip0_113_55212">
<rect width="27" height="26" fill="white" transform="translate(0 0.744568)"/>
</clipPath>
</defs>
</svg>
