<svg width="314" height="145" viewBox="0 0 314 145" fill="none" xmlns="http://www.w3.org/2000/svg">
<path d="M0 34.0093C0 15.652 14.8658 0.770508 33.2037 0.770508H110.645C128.982 0.770508 143.848 15.652 143.848 34.0093V111.532C143.848 129.889 128.982 144.771 110.645 144.771H33.2037C14.8658 144.771 0 129.889 0 111.532V34.0093Z" fill="#0F0F10"/>
<path d="M82.7447 57.1965V43.7732C82.7447 41.7504 81.106 40.0977 79.073 40.0977H74.6868V49.4715C74.6868 52.7646 74.6868 67.5577 74.6868 70.9125C76.3255 68.2854 78.5309 62.3398 80.6748 60.946C81.9561 60.1197 82.7447 58.7136 82.7447 57.1965Z" fill="#FD6721"/>
<path d="M114.385 68.9591C113.399 63.2978 110.479 58.8453 105.686 55.7125C102.384 53.554 98.7496 52.4563 94.8808 52.4563C93.4762 52.4563 92.0347 52.6043 90.5685 52.888C90.5808 52.9003 74.8223 56.3415 74.6991 71.3273C74.6991 71.5616 74.6991 71.8083 74.6991 72.0426C74.6991 73.535 74.81 74.8424 75.0194 76.0388C76.0174 81.6755 78.9129 86.1157 83.6318 89.2362C86.9461 91.4316 90.6055 92.5417 94.4866 92.5417C95.7187 92.5417 96.9877 92.4307 98.2568 92.2087C103.875 91.2219 108.311 88.3111 111.428 83.5625C114.311 79.1717 115.309 74.2627 114.385 68.9591ZM94.7207 84.6109H94.659C87.9564 84.5739 82.72 79.258 82.7324 72.499C82.7447 65.7153 87.9934 60.3994 94.6837 60.3994H94.7083C97.9611 60.3994 100.992 61.6574 103.234 63.9145C105.489 66.184 106.721 69.2552 106.721 72.5607C106.697 79.3197 101.423 84.6233 94.7207 84.6233V84.6109Z" fill="#FD6721"/>
<path d="M29.4777 68.478C30.9808 58.6971 39.2852 51.5928 49.2159 51.5928C50.14 51.5928 51.0887 51.6544 52.0128 51.7778C53.2079 51.9381 54.3661 52.1971 55.475 52.5425C57.2861 53.1099 58.5305 54.7873 58.5305 56.6867V63.4827C56.3004 61.0899 53.134 59.6098 49.5486 59.6098C46.2096 59.6098 43.0923 60.8802 40.7883 63.1867C38.472 65.5055 37.203 68.6506 37.203 72.0178C37.203 78.9618 42.6365 84.4134 49.5486 84.4258C52.8629 84.4258 55.9555 83.1431 58.2472 80.8243C60.5389 78.5055 61.8079 75.385 61.8079 72.0301V52.3575H65.5658C67.9561 52.3575 69.8904 54.2939 69.8904 56.6867V105.443H66.1202C63.7299 105.443 61.7955 103.506 61.7955 101.114V88.1136C58.2594 90.9258 53.8362 92.4799 49.1789 92.4799C45.1992 92.4799 41.392 91.3205 38.1639 89.1127C31.1164 84.3024 28.0978 77.1611 29.4408 68.478H29.4777Z" fill="#FD6721"/>
<path d="M185.456 86.5293C184.556 87.2657 183.453 87.8179 182.145 88.1861C180.879 88.5543 179.53 88.7384 178.1 88.7384C174.503 88.7384 171.725 87.7975 169.763 85.9156C167.801 84.0338 166.821 81.2929 166.821 77.6929V61.9224H161.426V55.786H166.821V48.2996H174.483V55.786H183.249V61.9224H174.483V77.5088C174.483 79.1043 174.871 80.3315 175.648 81.1906C176.424 82.0088 177.548 82.4179 179.019 82.4179C180.736 82.4179 182.166 81.9679 183.31 81.0679L185.456 86.5293Z" fill="black"/>
<path d="M205.393 88.7384C202.083 88.7384 199.1 88.0225 196.443 86.5907C193.787 85.1588 191.703 83.1747 190.191 80.6384C188.72 78.0611 187.984 75.1565 187.984 71.9247C187.984 68.6929 188.72 65.8088 190.191 63.2724C191.703 60.736 193.787 58.7519 196.443 57.3201C199.1 55.8883 202.083 55.1724 205.393 55.1724C208.744 55.1724 211.748 55.8883 214.404 57.3201C217.06 58.7519 219.124 60.736 220.595 63.2724C222.107 65.8088 222.863 68.6929 222.863 71.9247C222.863 75.1565 222.107 78.0611 220.595 80.6384C219.124 83.1747 217.06 85.1588 214.404 86.5907C211.748 88.0225 208.744 88.7384 205.393 88.7384ZM205.393 82.1725C208.213 82.1725 210.542 81.2315 212.381 79.3497C214.22 77.4679 215.14 74.9929 215.14 71.9247C215.14 68.8565 214.22 66.3815 212.381 64.4997C210.542 62.6178 208.213 61.6769 205.393 61.6769C202.573 61.6769 200.244 62.6178 198.405 64.4997C196.607 66.3815 195.708 68.8565 195.708 71.9247C195.708 74.9929 196.607 77.4679 198.405 79.3497C200.244 81.2315 202.573 82.1725 205.393 82.1725Z" fill="black"/>
<path d="M244.902 88.7384C241.592 88.7384 238.609 88.0225 235.953 86.5907C233.296 85.1588 231.212 83.1747 229.7 80.6384C228.229 78.0611 227.493 75.1565 227.493 71.9247C227.493 68.6929 228.229 65.8088 229.7 63.2724C231.212 60.736 233.296 58.7519 235.953 57.3201C238.609 55.8883 241.592 55.1724 244.902 55.1724C248.253 55.1724 251.257 55.8883 253.913 57.3201C256.57 58.7519 258.633 60.736 260.105 63.2724C261.617 65.8088 262.373 68.6929 262.373 71.9247C262.373 75.1565 261.617 78.0611 260.105 80.6384C258.633 83.1747 256.57 85.1588 253.913 86.5907C251.257 88.0225 248.253 88.7384 244.902 88.7384ZM244.902 82.1725C247.722 82.1725 250.051 81.2315 251.89 79.3497C253.729 77.4679 254.649 74.9929 254.649 71.9247C254.649 68.8565 253.729 66.3815 251.89 64.4997C250.051 62.6178 247.722 61.6769 244.902 61.6769C242.083 61.6769 239.753 62.6178 237.914 64.4997C236.116 66.3815 235.217 68.8565 235.217 71.9247C235.217 74.9929 236.116 77.4679 237.914 79.3497C239.753 81.2315 242.083 82.1725 244.902 82.1725Z" fill="black"/>
<path d="M269.7 42.7769H277.362V88.3088H269.7V42.7769Z" fill="black"/>
<path d="M297.533 88.7384C294.877 88.7384 292.282 88.3907 289.748 87.6952C287.215 86.9997 285.192 86.1202 283.68 85.0566L286.622 79.227C288.093 80.2088 289.851 81.0065 291.894 81.6202C293.978 82.1929 296.021 82.4793 298.024 82.4793C302.601 82.4793 304.889 81.2724 304.889 78.8588C304.889 77.7133 304.297 76.9156 303.112 76.4656C301.967 76.0156 300.108 75.5861 297.533 75.177C294.836 74.7679 292.63 74.2974 290.913 73.7656C289.238 73.2338 287.766 72.3133 286.5 71.0042C285.274 69.6542 284.661 67.7929 284.661 65.4201C284.661 62.311 285.948 59.836 288.522 57.9951C291.138 56.1133 294.652 55.1724 299.066 55.1724C301.314 55.1724 303.561 55.4383 305.809 55.9701C308.056 56.461 309.895 57.136 311.326 57.9951L308.383 63.8247C305.605 62.1883 302.478 61.3701 299.005 61.3701C296.757 61.3701 295.041 61.7178 293.855 62.4133C292.711 63.0678 292.139 63.9474 292.139 65.0519C292.139 66.2792 292.752 67.1588 293.978 67.6906C295.245 68.1815 297.186 68.652 299.802 69.102C302.417 69.511 304.562 69.9815 306.238 70.5133C307.913 71.0451 309.344 71.9451 310.529 73.2133C311.755 74.4815 312.368 76.2815 312.368 78.6133C312.368 81.6815 311.04 84.1361 308.383 85.977C305.727 87.8179 302.11 88.7384 297.533 88.7384Z" fill="black"/>
</svg>
