<svg width="229" height="55" viewBox="0 0 229 55" fill="none" xmlns="http://www.w3.org/2000/svg">
<path d="M14.8075 44.6047C14.2816 44.6047 14.0186 44.3215 14.0186 43.7551C14.0186 43.2696 14.3221 42.42 14.9289 41.2062C15.4953 40.1139 16.4461 38.6979 17.7812 36.9582C19.1163 35.178 20.7953 33.0945 22.8182 30.7075C23.6273 28.9273 24.3758 27.1067 25.0636 25.2457C25.7514 23.3846 26.3785 21.4629 26.9449 19.4804C27.7136 16.7697 28.28 14.585 28.6441 12.9263C29.0487 11.227 29.251 9.79078 29.251 8.61751C29.251 6.27096 28.3609 5.09768 26.5808 5.09768C23.5464 5.09768 20.4109 6.19004 17.1743 8.37476C15.0705 9.83124 13.0881 11.5305 11.227 13.4724C9.36598 15.4144 7.72744 17.4373 6.31141 19.5411C4.93585 21.6045 3.88395 23.5869 3.15571 25.4884C2.75113 26.4189 2.54884 27.2483 2.54884 27.9766C2.54884 29.2712 3.25685 29.9185 4.67287 29.9185C5.40111 29.9185 6.45302 29.6758 7.82858 29.1903C9.16369 28.7048 10.5797 28.017 12.0766 27.1269C13.5736 26.2369 15.0503 25.2254 16.5068 24.0926C17.9633 22.9598 19.2579 21.8067 20.3907 20.6335C20.9571 20.0671 21.4224 19.7839 21.7865 19.7839C21.9888 19.7839 22.0899 19.885 22.0899 20.0873C22.0899 20.33 21.9079 20.6335 21.5438 20.9976C20.2491 22.2922 18.7117 23.6273 16.9316 25.0029C15.1514 26.338 13.3511 27.5517 11.5305 28.6441C9.70987 29.7365 8.01064 30.5861 6.43279 31.1929C5.13814 31.7189 3.9244 31.9819 2.79159 31.9819C0.930529 31.9819 0 31.0918 0 29.3117C0 28.1788 0.323662 26.8235 0.970987 25.2457C2.14426 22.3731 4.20761 19.177 7.16103 15.6572C9.18392 13.3106 11.3484 11.1866 13.6545 9.28506C16.0011 7.34309 18.3678 5.80569 20.7548 4.67287C23.1418 3.54006 25.3873 2.97365 27.4911 2.97365C30.4445 2.97365 31.9212 4.75379 31.9212 8.31407C31.9212 9.64918 31.7391 11.1461 31.375 12.8049C31.0109 14.4637 30.5052 16.3652 29.8578 18.5094C29.7769 18.7522 29.696 19.0152 29.6151 19.2984C29.5342 19.5411 29.4533 19.8041 29.3723 20.0873C29.1701 20.856 28.9273 21.6854 28.6441 22.5754C28.3609 23.4251 28.017 24.3556 27.6124 25.367C28.5025 24.4365 29.3926 23.5667 30.2826 22.7575C31.2132 21.9079 32.1437 21.0987 33.0742 20.33C33.7216 19.8041 34.47 19.2174 35.3196 18.5701C36.1693 17.8823 37.1402 17.1339 38.2326 16.3247C39.77 15.1514 41.0849 14.5648 42.1772 14.5648C42.6627 14.5648 43.0268 14.7064 43.2696 14.9896C43.5528 15.2324 43.5933 15.4953 43.391 15.7785L41.8131 18.3881C41.0444 19.6827 40.4173 20.7346 39.9318 21.5438C39.4463 22.3529 39.1227 22.9193 38.9608 23.243C38.3135 24.3758 37.6257 25.6705 36.8975 27.1269C36.1693 28.543 35.5422 29.8983 35.0162 31.1929C34.5307 32.4876 34.288 33.5395 34.288 34.3487C34.288 35.2387 34.6521 35.6838 35.3803 35.6838C36.0276 35.6838 36.938 35.2994 38.1112 34.5307C39.2845 33.7216 40.4173 32.8113 41.5097 31.7998C44.4631 29.0891 47.0119 26.4189 49.1562 23.7892C51.3409 21.119 53.2424 18.0644 54.8607 14.6255C55.6294 13.0476 56.0138 11.6518 56.0138 10.4381C56.0138 8.57705 54.9619 7.62629 52.8581 7.58583C52.3321 7.58583 52.0692 7.46446 52.0692 7.22171C52.0692 7.05988 52.1703 6.87782 52.3726 6.67553C52.939 6.10912 53.6672 5.82592 54.5573 5.82592C55.5688 5.82592 56.4184 6.16981 57.1062 6.85759C57.7939 7.50492 58.1378 8.45568 58.1378 9.70987C58.1378 11.045 57.6726 12.7442 56.742 14.8075C56.0947 16.1427 55.4272 17.3968 54.7394 18.5701C54.092 19.7434 53.4043 20.8358 52.676 21.8472C51.705 23.1823 50.7543 24.396 49.8237 25.4884C48.9337 26.5403 47.9222 27.6327 46.7894 28.7655C45.6566 29.8983 44.2406 31.2739 42.5414 32.8922C41.7727 33.6204 40.8826 34.3284 39.8711 35.0162C38.9002 35.704 37.9292 36.2704 36.9582 36.7154C35.9872 37.12 35.1376 37.3223 34.4093 37.3223C33.0338 37.3223 32.346 36.5131 32.346 34.8948C32.346 34.0048 32.5887 32.8315 33.0742 31.375C33.2765 30.6872 33.5597 29.9185 33.9238 29.0689C34.288 28.2193 34.6925 27.2888 35.1376 26.2773C35.4208 25.7109 35.7647 25.0231 36.1693 24.214C36.5738 23.3644 37.0391 22.4338 37.565 21.4224C37.565 21.4224 37.828 20.9369 38.354 19.9659C38.8395 19.0354 39.0822 18.3678 39.0822 17.9633C39.0822 17.761 39.0215 17.6598 38.9002 17.6598C38.7788 17.6598 38.536 17.7812 38.1719 18.0239C35.9467 19.6018 34.0654 21.0178 32.528 22.272C30.9907 23.5262 29.5342 24.8815 28.1586 26.338C27.5922 26.9853 27.0056 27.6933 26.3987 28.462C25.7918 29.2307 25.1647 30.0601 24.5174 30.9502C23.1823 34.025 21.8674 36.6952 20.5728 38.9608C19.2781 41.2669 18.1655 42.7841 17.235 43.5123C16.264 44.2406 15.4549 44.6047 14.8075 44.6047Z" fill="#3C3F59"/>
<path d="M57.3622 23.9105C56.8362 23.9105 56.5732 23.7892 56.5732 23.5464C56.5732 23.3441 56.7148 23.0609 56.9981 22.6968C57.3217 22.2922 57.6858 21.9483 58.0904 21.6651C58.9805 21.0987 59.6683 20.6132 60.1538 20.2087C60.6797 19.8041 61.3068 19.1163 62.035 18.1453C62.0755 18.2262 62.0957 18.3881 62.0957 18.6308C62.0957 19.1568 61.8732 19.8041 61.4282 20.5728C61.0236 21.301 60.5583 21.9686 60.0324 22.5754C59.5064 23.1823 59.0412 23.5667 58.6366 23.7285C58.2725 23.8499 57.8477 23.9105 57.3622 23.9105ZM51.9611 38.7788C51.6374 38.7788 51.334 38.6574 51.0508 38.4147C50.7676 38.1719 50.6259 37.8482 50.6259 37.4437C50.6259 36.5941 51.2126 35.0364 52.3859 32.7708L53.0534 31.4357C53.1343 31.3548 53.2355 31.1525 53.3569 30.8288C53.5187 30.5052 53.7412 30.0804 54.0244 29.5544C54.3076 28.988 54.5301 28.4823 54.692 28.0372C54.8538 27.5922 54.9752 27.1674 55.0561 26.7628C55.0561 26.7224 55.137 26.6414 55.2988 26.5201C55.4607 26.3987 55.6225 26.2976 55.7843 26.2166L56.1484 26.156C56.4721 26.156 56.7351 26.2166 56.9374 26.338C57.1801 26.4594 57.261 26.6212 57.1801 26.8235C56.8969 27.4304 56.6542 27.9563 56.4519 28.4014C56.2496 28.8464 56.0877 29.2307 55.9664 29.5544H55.9057C55.4607 30.5658 55.0763 31.5368 54.7526 32.4674C54.4694 33.3574 54.3481 34.2071 54.3885 35.0162L54.4492 36.6547C54.4088 37.0593 54.2672 37.4032 54.0244 37.6864C53.8626 37.8078 53.6401 37.9494 53.3569 38.1112C53.0737 38.3135 52.7095 38.5158 52.2645 38.7181C52.224 38.7586 52.1229 38.7788 51.9611 38.7788Z" fill="#3C3F59"/>
<path d="M57.9311 41.2062C57.4861 41.2062 57.1017 41.0646 56.7781 40.7814C56.4949 40.4982 56.3735 40.1543 56.4139 39.7498C56.4949 38.091 56.7983 36.4929 57.3242 34.9555C57.8907 33.4181 58.6998 31.5773 59.7517 29.433C59.8731 29.1498 59.9742 28.9071 60.0551 28.7048C60.1765 28.462 60.2777 28.2598 60.3586 28.0979C61.2486 26.1964 62.1589 24.3758 63.0895 22.6361C64.02 20.8964 64.9505 19.1972 65.8811 17.5384L66.7307 16.0213C67.7017 14.2816 68.5513 12.8858 69.2795 11.8339C70.0078 10.7415 70.736 9.95261 71.4642 9.46712C72.3948 8.90071 72.9612 8.61751 73.1635 8.61751C73.4871 8.61751 73.8108 8.90071 74.1344 9.46712C74.3367 9.8717 73.9322 10.8629 72.9207 12.4408C72.3948 13.2499 71.7272 14.2614 70.9181 15.4751C70.1494 16.6888 69.2188 18.0644 68.1265 19.6018C67.9242 19.885 67.5803 20.3907 67.0948 21.119C66.6498 21.8067 66.0429 22.717 65.2742 23.8499C64.5055 24.9827 63.8379 26.0144 63.2715 26.9449C62.7051 27.835 62.2399 28.6239 61.8757 29.3117C61.1475 30.6468 60.4597 32.083 59.8124 33.6204C59.1651 35.1174 58.8414 36.2906 58.8414 37.1402C58.8414 37.9089 59.1448 38.2933 59.7517 38.2933C60.7227 38.2933 62.2803 37.4639 64.4246 35.8051C64.6673 35.8456 64.7887 35.967 64.7887 36.1693C64.7887 36.3311 64.5864 36.6143 64.1818 37.0189C63.8177 37.383 63.3525 37.7673 62.786 38.1719C62.2601 38.6169 61.633 39.1227 60.9048 39.6891L59.9338 40.4173C59.2864 40.9433 58.6189 41.2062 57.9311 41.2062Z" fill="#3C3F59"/>
<path d="M67.2949 41.2062C66.8498 41.2062 66.4655 41.0646 66.1418 40.7814C65.8586 40.4982 65.7372 40.1543 65.7777 39.7498C65.8586 38.091 66.1621 36.4929 66.688 34.9555C67.2544 33.4181 68.0636 31.5773 69.1155 29.433C69.2368 29.1498 69.338 28.9071 69.4189 28.7048C69.5403 28.462 69.6414 28.2598 69.7223 28.0979C70.6124 26.1964 71.5227 24.3758 72.4532 22.6361C73.3838 20.8964 74.3143 19.1972 75.2448 17.5384L76.0944 16.0213C77.0654 14.2816 77.915 12.8858 78.6433 11.8339C79.3715 10.7415 80.0998 9.95261 80.828 9.46712C81.7585 8.90071 82.3249 8.61751 82.5272 8.61751C82.8509 8.61751 83.1745 8.90071 83.4982 9.46712C83.7005 9.8717 83.2959 10.8629 82.2845 12.4408C81.7585 13.2499 81.091 14.2614 80.2818 15.4751C79.5131 16.6888 78.5826 18.0644 77.4902 19.6018C77.2879 19.885 76.9441 20.3907 76.4586 21.119C76.0135 21.8067 75.4067 22.717 74.638 23.8499C73.8693 24.9827 73.2017 26.0144 72.6353 26.9449C72.0689 27.835 71.6036 28.6239 71.2395 29.3117C70.5113 30.6468 69.8235 32.083 69.1762 33.6204C68.5288 35.1174 68.2052 36.2906 68.2052 37.1402C68.2052 37.9089 68.5086 38.2933 69.1155 38.2933C70.0865 38.2933 71.6441 37.4639 73.7883 35.8051C74.0311 35.8456 74.1525 35.967 74.1525 36.1693C74.1525 36.3311 73.9502 36.6143 73.5456 37.0189C73.1815 37.383 72.7162 37.7673 72.1498 38.1719C71.6239 38.6169 70.9968 39.1227 70.2685 39.6891L69.2975 40.4173C68.6502 40.9433 67.9827 41.2062 67.2949 41.2062Z" fill="#3C3F59"/>
<path d="M78.4792 38.2326C76.9014 38.2326 76.1124 37.5246 76.1124 36.1086C76.1124 36.0277 76.1124 35.886 76.1124 35.6838C76.1529 35.4815 76.1934 35.2387 76.2338 34.9555C76.6384 33.2967 77.4476 31.6987 78.6613 30.1613C79.9155 28.5834 81.3517 27.2079 82.97 26.0346C83.5769 25.5491 84.5479 25.3063 85.883 25.3063C86.6517 25.3063 87.3193 25.4277 87.8857 25.6705C88.4925 25.8727 88.9173 26.1964 89.1601 26.6414C89.4028 27.046 89.5242 27.5113 89.5242 28.0372C89.5242 28.1182 89.504 28.2395 89.4635 28.4014C89.4635 28.5632 89.4433 28.7453 89.4028 28.9475C89.4837 28.9071 89.6051 28.8869 89.767 28.8869C89.9692 28.8869 90.212 28.8666 90.4952 28.8262C90.7784 28.7857 91.0414 28.7453 91.2841 28.7048C91.5673 28.6643 91.8505 28.6441 92.1337 28.6441H92.3765C92.8215 28.6441 92.862 28.8262 92.4978 29.1903C92.1742 29.5139 91.7292 29.7162 91.1628 29.7972L89.0994 30.0399C88.6948 31.1727 87.9868 32.3055 86.9754 33.4384C86.0044 34.5712 84.912 35.5624 83.6983 36.412C82.525 37.2212 81.4124 37.7471 80.3605 37.9898C79.7537 38.1517 79.1266 38.2326 78.4792 38.2326ZM86.2471 29.1903C86.4899 29.1903 86.7731 29.1903 87.0967 29.1903C87.4609 29.1498 87.8654 29.1094 88.3105 29.0689C88.3509 28.988 88.3712 28.8059 88.3712 28.5227C88.3712 27.7945 88.0677 27.2888 87.4609 27.0056C87.1372 26.8033 86.7326 26.7021 86.2471 26.7021C85.6403 26.7021 85.0132 26.9044 84.3658 27.309C83.759 27.6731 83.1116 28.1586 82.4239 28.7655C83.2735 29.0487 84.5479 29.1903 86.2471 29.1903ZM80.2998 36.1086C80.7044 36.1086 81.2708 35.9265 81.9991 35.5624C82.7678 35.1578 83.5567 34.6319 84.3658 33.9845C85.175 33.3372 85.9032 32.6494 86.5506 31.9212C86.7528 31.7189 86.9551 31.4762 87.1574 31.1929C87.3597 30.8693 87.5822 30.5456 87.825 30.222L86.3685 30.404C84.1029 30.7277 82.08 30.9097 80.2998 30.9502C79.4098 32.4067 78.8636 33.6204 78.6613 34.5914C78.6208 35.1174 78.7624 35.5017 79.0861 35.7444C79.4098 35.9872 79.8143 36.1086 80.2998 36.1086Z" fill="#3C3F59"/>
<path d="M103.441 38.7788C102.592 38.6574 102.005 38.354 101.681 37.8685C101.398 37.4234 101.257 36.7963 101.257 35.9872C101.257 35.7849 101.277 35.4612 101.317 35.0162C101.398 34.5712 101.479 34.025 101.56 33.3777V32.8922C101.56 32.3258 101.459 32.0021 101.257 31.9212C101.216 31.8807 101.115 31.8605 100.953 31.8605C100.67 31.8605 100.144 32.1235 99.3754 32.6494C99.3349 32.6899 99.1124 32.8922 98.7078 33.2563C98.3032 33.58 97.7166 34.0654 96.9479 34.7128C94.7227 36.6952 93.2055 37.5853 92.3964 37.383C91.5468 37.1807 91.122 36.6143 91.122 35.6838C91.122 34.7937 91.4456 33.7216 92.093 32.4674C92.6189 31.3345 93.2662 30.2422 94.0349 29.1903C94.8036 28.0979 95.4105 27.3899 95.8555 27.0663C96.1792 26.864 96.4422 26.7628 96.6445 26.7628C96.8467 26.7628 97.0288 26.8437 97.1906 27.0056C97.2716 27.0865 97.312 27.2079 97.312 27.3697C97.312 27.5315 97.2109 27.7136 97.0086 27.9159C96.604 28.3204 96.2197 28.9475 95.8555 29.7972C95.4914 30.6063 95.3094 31.3345 95.3094 31.9819C95.3094 32.0628 95.3094 32.1639 95.3094 32.2853C95.3498 32.4067 95.3903 32.5483 95.4307 32.7101C95.633 32.8315 95.8555 32.8922 96.0983 32.8922C96.5838 32.8922 97.2513 32.6494 98.1009 32.1639C98.4246 31.9616 98.8696 31.6784 99.436 31.3143C100.002 30.9097 100.69 30.404 101.499 29.7972C101.823 29.5544 102.187 29.433 102.592 29.433C103.037 29.433 103.401 29.5949 103.684 29.9185C104.008 30.2017 104.17 30.6063 104.17 31.1323C104.17 31.2132 104.149 31.3345 104.109 31.4964C104.109 31.6178 104.089 31.7796 104.048 31.9819C103.967 32.3055 103.886 32.609 103.805 32.8922C103.725 33.1754 103.664 33.4586 103.623 33.7418C103.583 33.9036 103.563 34.1261 103.563 34.4093C103.563 34.6521 103.563 34.9353 103.563 35.259C103.563 36.149 104.028 36.5941 104.959 36.5941C105.363 36.5941 105.768 36.5334 106.172 36.412C106.617 36.2502 106.941 36.0681 107.143 35.8658C109.085 34.1666 110.987 31.9616 112.848 29.251L112.787 28.5227C112.747 28.1182 112.828 27.7338 113.03 27.3697C113.232 26.9651 113.495 26.5605 113.819 26.156C113.94 25.9941 114.102 25.9132 114.304 25.9132C114.507 25.9132 114.689 26.0144 114.85 26.2166C115.053 26.3785 115.154 26.601 115.154 26.8842C115.154 27.0865 115.093 27.309 114.972 27.5517C114.729 27.9968 114.345 28.6441 113.819 29.4937C113.293 30.3029 112.686 31.1929 111.998 32.1639C111.31 33.1349 110.623 34.0452 109.935 34.8948C109.247 35.7444 108.62 36.412 108.054 36.8975V36.9582C107.366 37.565 106.577 38.0303 105.687 38.354C104.797 38.7181 104.048 38.8597 103.441 38.7788Z" fill="#3C3F59"/>
<path d="M132.421 20.0873C132.016 20.0873 131.571 19.9861 131.086 19.7839C129.953 19.4602 128.8 18.7724 127.626 17.7205C126.372 16.6281 125.3 15.3335 124.41 13.8366C123.52 12.2992 122.994 10.8022 122.832 9.34575C122.792 9.18392 122.771 8.98163 122.771 8.73888C122.771 8.49613 122.771 8.21293 122.771 7.88927C122.771 2.62976 126.008 0 132.481 0C135.758 0 139.359 0.525952 143.284 1.57785C147.248 2.62976 151.8 4.02555 156.938 5.76523C157.869 6.08889 158.718 6.39233 159.487 6.67553C160.296 6.91828 161.024 7.1408 161.672 7.34309C163.249 7.78812 164.625 8.01064 165.798 8.01064C167.133 8.01064 168.084 7.74766 168.651 7.22171C169.257 6.69576 169.561 6.10912 169.561 5.4618V5.21905C169.561 4.73356 169.702 4.49081 169.986 4.49081C170.309 4.49081 170.653 4.73356 171.017 5.21905C171.098 5.29997 171.139 5.4618 171.139 5.70455C171.139 6.63508 170.593 7.50492 169.5 8.31407C168.408 9.12323 167.053 9.52781 165.434 9.52781C165.191 9.52781 164.969 9.52781 164.767 9.52781C164.605 9.52781 164.443 9.50758 164.281 9.46712C162.703 9.26483 160.964 8.90071 159.062 8.37476C157.201 7.80835 154.895 7.05988 152.144 6.12935C148.3 4.8347 145.104 3.84349 142.555 3.15571C140.007 2.46793 137.64 2.12403 135.455 2.12403C133.068 2.12403 131.045 2.64999 129.386 3.70189C127.768 4.75379 126.575 6.47325 125.806 8.86025C125.684 9.22437 125.624 9.62895 125.624 10.074C125.624 10.8427 125.806 11.7125 126.17 12.6835C126.534 13.614 127.02 14.5243 127.626 15.4144C128.233 16.3045 128.881 17.0732 129.568 17.7205C130.256 18.3274 130.903 18.6915 131.51 18.8129C132.481 19.0152 132.967 19.3388 132.967 19.7839C132.967 19.9861 132.785 20.0873 132.421 20.0873ZM133.574 41.3883C132.643 41.3883 132.218 40.7814 132.299 39.5677C132.623 37.0189 133.432 34.288 134.727 31.375C135.374 29.8781 136.305 27.9563 137.518 25.6098C138.773 23.2228 140.31 20.4312 142.131 17.235C143.385 14.9694 144.396 13.2095 145.165 11.9553C145.974 10.7011 146.824 9.77055 147.714 9.16369C148.482 8.63774 149.211 8.37476 149.898 8.37476C150.546 8.37476 150.708 8.63774 150.384 9.16369C149.737 10.0538 148.948 11.1866 148.017 12.5621C147.127 13.8972 146.095 15.4751 144.922 17.2957C143.385 19.7232 141.888 22.1911 140.431 24.6995C138.975 27.2079 137.741 29.5139 136.729 31.6178C135.718 33.6811 135.05 35.3399 134.727 36.5941C134.605 37.0796 134.545 37.4841 134.545 37.8078C134.545 38.4956 134.828 38.8395 135.394 38.8395C136.284 38.8395 137.903 37.9292 140.249 36.1086C140.33 36.0277 140.431 35.9872 140.553 35.9872C140.715 35.9872 140.795 36.0883 140.795 36.2906C140.795 36.5334 140.715 36.7357 140.553 36.8975C140.391 37.0593 140.189 37.2212 139.946 37.383C139.703 37.5853 139.42 37.8078 139.096 38.0505C138.773 38.2528 138.489 38.4349 138.247 38.5967C138.004 38.7585 137.842 38.8799 137.761 38.9608C137.235 39.325 136.79 39.6284 136.426 39.8711C136.062 40.1543 135.779 40.3769 135.576 40.5387C134.767 41.1051 134.1 41.3883 133.574 41.3883Z" fill="#3C3F59"/>
<path d="M147.001 38.4753C146.475 38.4753 146.212 38.0101 146.212 37.0796C146.212 36.3109 146.394 35.5624 146.758 34.8341C147.689 33.054 148.538 31.2941 149.307 29.5544C149.833 28.5025 150.319 27.4911 150.764 26.5201C151.249 25.5491 151.694 24.659 152.099 23.8499C152.342 23.6071 152.584 23.4857 152.827 23.4857C153.353 23.4857 153.515 23.7285 153.313 24.214C153.232 24.4972 153.11 24.8411 152.948 25.2457C152.827 25.6098 152.665 26.0548 152.463 26.5808C151.816 28.28 151.431 29.4735 151.31 30.1613C152.443 29.1498 153.596 28.2193 154.769 27.3697C155.983 26.4796 157.116 25.7514 158.167 25.185C159.219 24.6186 160.109 24.3354 160.838 24.3354C161.485 24.3354 161.809 24.5983 161.809 25.1243C161.809 25.5693 161.606 26.0548 161.202 26.5808C160.797 27.0663 160.393 27.309 159.988 27.309C159.786 27.309 159.624 27.2483 159.503 27.1269C159.381 27.0865 159.138 27.0663 158.774 27.0663C157.48 27.0663 156.124 27.6933 154.708 28.9475C153.211 30.2017 151.856 31.7189 150.642 33.499C149.429 35.2387 148.539 36.7559 147.972 38.0505C147.689 38.3337 147.365 38.4753 147.001 38.4753Z" fill="#3C3F59"/>
<path d="M162.432 37.8685C161.582 37.8685 160.834 37.646 160.186 37.2009C159.134 36.3918 158.608 35.178 158.608 33.5597C158.608 31.9414 159.175 30.222 160.308 28.4014C161.44 26.5808 163.16 24.9018 165.466 23.3644C165.871 23.0812 166.417 22.9396 167.105 22.9396C167.995 22.9396 168.784 23.1823 169.471 23.6678C170.2 24.1533 170.483 24.7804 170.321 25.5491C170.038 26.8033 169.411 27.9159 168.44 28.8869C167.509 29.8578 166.396 30.7277 165.102 31.4964C163.848 32.2246 162.553 32.9326 161.218 33.6204C161.177 33.7418 161.137 33.8632 161.097 33.9845C161.097 34.1059 161.097 34.2273 161.097 34.3487C161.097 34.9151 161.279 35.4208 161.643 35.8658C162.047 36.2704 162.593 36.4727 163.281 36.4727C163.807 36.4727 164.252 36.3918 164.616 36.2299C165.264 35.9872 165.79 35.7647 166.194 35.5624C166.639 35.3601 167.145 35.0567 167.711 34.6521C168.278 34.2475 169.046 33.6406 170.017 32.8315C170.463 32.5078 170.725 32.346 170.806 32.346C171.049 32.346 171.13 32.5281 171.049 32.8922C170.645 33.5395 169.937 34.2475 168.925 35.0162C167.954 35.7849 166.862 36.4525 165.648 37.0189C164.475 37.5853 163.403 37.8685 162.432 37.8685ZM161.582 31.9819C161.906 31.9819 162.573 31.6582 163.585 31.0109C164.596 30.3636 165.547 29.6555 166.437 28.8869C167.974 27.4708 168.743 26.3785 168.743 25.6098C168.743 25.4075 168.682 25.2254 168.561 25.0636C168.44 24.8613 168.258 24.7602 168.015 24.7602C167.246 24.7602 165.951 25.6705 164.131 27.4911C162.877 28.7048 162.027 30.2017 161.582 31.9819Z" fill="#3C3F59"/>
<path d="M174.462 37.8685C173.613 37.8685 172.864 37.646 172.217 37.2009C171.165 36.3918 170.639 35.178 170.639 33.5597C170.639 31.9414 171.205 30.222 172.338 28.4014C173.471 26.5808 175.191 24.9018 177.497 23.3644C177.901 23.0812 178.447 22.9396 179.135 22.9396C180.025 22.9396 180.814 23.1823 181.502 23.6678C182.23 24.1533 182.513 24.7804 182.352 25.5491C182.068 26.8033 181.441 27.9159 180.47 28.8869C179.54 29.8578 178.427 30.7277 177.133 31.4964C175.878 32.2246 174.584 32.9326 173.249 33.6204C173.208 33.7418 173.168 33.8632 173.127 33.9845C173.127 34.1059 173.127 34.2273 173.127 34.3487C173.127 34.9151 173.309 35.4208 173.673 35.8658C174.078 36.2704 174.624 36.4727 175.312 36.4727C175.838 36.4727 176.283 36.3918 176.647 36.2299C177.294 35.9872 177.82 35.7647 178.225 35.5624C178.67 35.3601 179.176 35.0567 179.742 34.6521C180.308 34.2475 181.077 33.6406 182.048 32.8315C182.493 32.5078 182.756 32.346 182.837 32.346C183.08 32.346 183.161 32.5281 183.08 32.8922C182.675 33.5395 181.967 34.2475 180.956 35.0162C179.985 35.7849 178.892 36.4525 177.679 37.0189C176.505 37.5853 175.433 37.8685 174.462 37.8685ZM173.613 31.9819C173.936 31.9819 174.604 31.6582 175.615 31.0109C176.627 30.3636 177.578 29.6555 178.468 28.8869C180.005 27.4708 180.774 26.3785 180.774 25.6098C180.774 25.4075 180.713 25.2254 180.592 25.0636C180.47 24.8613 180.288 24.7602 180.045 24.7602C179.277 24.7602 177.982 25.6705 176.162 27.4911C174.907 28.7048 174.058 30.2017 173.613 31.9819Z" fill="#3C3F59"/>
<path fill-rule="evenodd" clip-rule="evenodd" d="M182.636 31.8265C182.843 31.2716 183.129 30.6537 183.271 30.453C183.414 30.2524 183.602 29.8192 183.691 29.4902C183.779 29.1612 184.063 28.3651 184.321 27.721C184.84 26.4235 185.115 25.0313 185.22 23.1595C185.279 22.0966 185.343 21.8079 185.695 21.0044C185.919 20.4942 186.125 19.9167 186.152 19.7212C186.236 19.1232 187.519 17.3926 188.403 16.6858C188.848 16.3295 189.32 16.0531 189.452 16.0716C189.676 16.103 189.675 16.119 189.45 16.3076C189.317 16.4188 189.114 16.698 188.999 16.9278C188.884 17.1576 188.556 17.5648 188.271 17.8325C187.799 18.2756 187.753 18.3711 187.757 18.8953C187.76 19.2122 187.926 19.9504 188.125 20.5359C188.372 21.2595 188.465 21.7685 188.415 22.1252C188.325 22.7735 187.414 24.2259 186.612 24.9993C185.533 26.041 185.363 26.2777 184.88 27.4191C184.614 28.0476 184.411 28.5821 184.43 28.607C184.512 28.716 185.531 27.4904 187.356 25.0873C191.583 19.5217 191.649 19.3983 191.754 16.8783C191.792 15.9677 191.861 15.1938 191.908 15.1585C192.415 14.7756 193.036 17.2123 192.943 19.2187C192.896 20.2197 192.572 20.9143 191.753 21.7661C191.464 22.0658 191.27 22.3168 191.321 22.324C191.372 22.3312 191.927 22.1187 192.553 21.8519C193.179 21.5851 194.108 21.2669 194.617 21.1449C195.126 21.0227 195.615 20.8816 195.704 20.8314C195.931 20.7025 196.369 19.3169 196.425 18.5487C196.497 17.5658 196.781 16.7792 197.579 15.3565C198.157 14.3264 198.503 13.877 199.256 13.1831C200.565 11.9761 200.972 11.4979 201.401 10.6637C201.604 10.2682 201.848 9.93024 201.943 9.91268C202.071 9.88895 202.045 9.99781 201.84 10.3439C201.674 10.6225 201.572 10.9704 201.583 11.2175C201.596 11.5157 201.545 11.6411 201.396 11.6755C201.283 11.7015 201.181 11.7981 201.168 11.8901C201.125 12.1944 200.022 13.753 199.213 14.6519C198.776 15.1386 198.397 15.6007 198.373 15.679C198.349 15.7572 198.143 16.0295 197.917 16.2841C197.303 16.9735 196.968 17.7099 196.839 18.6558L196.724 19.5021L197.197 18.7222C197.457 18.2932 198.14 17.4058 198.714 16.75C199.87 15.4301 200.553 14.4469 200.587 14.0551L200.609 13.7978L200.51 14.0443C200.268 14.6465 198.646 15.9769 198.458 15.7273C198.423 15.681 198.573 15.5709 198.792 15.4824C199.367 15.2503 200.325 14.1862 200.392 13.7057C200.423 13.4884 200.631 13.0473 200.855 12.7255C201.079 12.4037 201.275 12.0523 201.29 11.9445C201.305 11.8369 201.379 11.7573 201.454 11.7679C201.53 11.7785 201.541 11.89 201.479 12.0192C201.417 12.1469 201.269 12.551 201.149 12.917C200.482 14.9551 200.403 15.093 198.979 16.7125C197.989 17.8376 196.86 19.5211 196.659 20.1708C196.525 20.6012 196.533 20.6188 196.84 20.5673C197.016 20.5376 197.783 20.4579 198.543 20.3903C199.304 20.3226 200.004 20.2519 200.1 20.2331C200.226 20.2085 200.181 19.9566 199.936 19.3236C199.749 18.8422 199.619 18.2884 199.646 18.0932C199.701 17.7018 200.745 16.0759 201.071 15.8746C201.208 15.7896 201.313 15.4891 201.388 14.9655C201.672 12.9757 202.659 11.4465 204.69 9.84777C205.883 8.908 206.088 8.69089 206.259 8.18169C206.536 7.35716 207.077 6.79243 207.743 6.63279C208.408 6.47352 208.427 6.53164 207.832 6.90509C207.083 7.37538 206.629 8.21539 206.446 9.47428C206.25 10.8162 205.782 12.2765 205.332 12.9501C205.031 13.4003 205.018 13.4532 205.221 13.4027C205.718 13.2789 207.46 13.2717 208.333 13.3899C209.147 13.5002 209.362 13.4744 210.185 13.1671C210.697 12.9759 211.273 12.7433 211.465 12.6502C211.899 12.4393 212.561 12.3988 212.767 12.5704C212.876 12.6604 212.788 12.7095 212.479 12.7317C212.234 12.7491 211.957 12.8096 211.863 12.8659C211.769 12.9221 211.629 12.9159 211.552 12.8522C211.467 12.7814 211.438 12.7948 211.479 12.8867C211.515 12.9695 211.482 13.0651 211.405 13.099C211.328 13.1329 211.191 13.2613 211.101 13.3845C210.948 13.5941 210.966 13.6026 211.374 13.5187C211.901 13.4105 213.851 13.6616 215.271 14.0208C216.41 14.3086 216.635 14.5238 215.663 14.3949C214.894 14.2931 213.95 14.5017 212.977 14.9883C212.201 15.3766 210.766 15.6804 210.131 15.5912C209.858 15.5528 209.705 15.6251 209.526 15.8773C208.867 16.8081 207.112 17.682 205.226 18.0184C204.256 18.1915 202.871 18.85 201.627 19.73C201.19 20.0389 200.914 20.2642 201.012 20.2304C201.43 20.0877 204.603 20.155 205.881 20.3338C207.24 20.5238 207.296 20.52 208.734 20.1371C209.54 19.9223 211.026 19.3975 212.036 18.9709C214.885 17.7673 216.807 17.4182 219.013 17.704C220.105 17.8455 221.882 18.4307 221.994 18.686C222.019 18.7432 221.592 18.759 221.045 18.7211C219.776 18.6331 219.241 18.7443 217.598 19.437C215.259 20.4234 213.559 20.7158 210.269 20.6978C209.626 20.6942 209.055 20.7207 209 20.7566C208.843 20.8586 211.059 21.0676 211.721 21.0134C212.046 20.9866 213.36 20.7862 214.64 20.5682C220.065 19.6439 223.127 19.8321 225.092 21.2108C225.35 21.392 225.556 21.5824 225.549 21.6336C225.541 21.6849 224.89 21.6361 224.101 21.5254C223.007 21.3719 222.476 21.359 221.865 21.4716L221.064 21.6192L221.889 21.7621C223.274 22.0019 225.007 22.5125 226.87 23.2292C227.846 23.6048 228.663 23.9371 228.686 23.9679C228.709 23.9985 228.134 23.9778 227.407 23.9219C226.681 23.8658 225.411 23.8364 224.586 23.8564C222.141 23.9157 220.079 23.7957 218.314 23.4915L216.656 23.2055L217.268 23.5627C217.604 23.759 218.241 24.2145 218.682 24.5747C219.124 24.935 219.683 25.3263 219.926 25.4442C220.602 25.7735 221.571 26.4775 221.394 26.5118C221.307 26.5285 220.947 26.4102 220.594 26.2489C220.195 26.0665 219.458 25.8862 218.644 25.7719C217.475 25.6076 217.133 25.4973 215.412 24.7301C214.353 24.2582 213.024 23.596 212.457 23.2586C211.89 22.9212 211.059 22.4254 210.61 22.157C209.353 21.4053 208.443 21.165 205.757 20.8746C204.453 20.7337 203.235 20.6554 203.05 20.7007C202.765 20.7707 202.82 20.799 203.42 20.8903C204.363 21.0338 206.809 21.6984 207.802 22.081C208.822 22.4741 211.026 23.6309 212.08 24.3268C212.849 24.8341 212.96 24.8705 214.03 24.9691C215.268 25.0829 215.386 25.1884 214.405 25.303C214.058 25.3435 213.102 25.5395 212.281 25.7385C211.46 25.9375 210.498 26.1222 210.143 26.1488C209.787 26.1754 207.714 25.974 205.535 25.7011C203.356 25.4283 201.368 25.2089 201.117 25.2137L200.661 25.2225L201.004 25.4694C201.756 26.0093 205.617 27.9852 206.239 28.1485C207.019 28.3532 207.95 28.3258 210.737 28.0164C212.538 27.8163 213.018 27.8135 214.729 27.9921C216.249 28.1509 216.935 28.281 217.864 28.587C218.519 28.8024 219.049 29.0226 219.041 29.0764C219.033 29.13 218.578 29.1439 218.029 29.107C217.48 29.0702 216.759 29.0995 216.427 29.172C216.094 29.2446 215.287 29.3673 214.633 29.4449C213.978 29.5223 213.557 29.6017 213.697 29.6213C214.034 29.6684 218.267 31.7479 218.256 31.861C218.251 31.9092 218.099 31.9114 217.919 31.8661C217.738 31.8207 216.931 31.8388 216.125 31.9063C214.034 32.0815 212.129 31.8003 210.704 31.1065C210.141 30.8323 209.428 30.3764 209.12 30.0934C208.483 29.5089 208.452 29.4918 207.272 29.0735C206.694 28.8687 206.476 28.826 206.617 28.9456C207.878 30.0121 208.345 30.5231 209.253 31.8295C209.834 32.6653 210.483 33.7344 210.695 34.2052C210.907 34.676 211.221 35.2776 211.394 35.5421C211.567 35.8067 211.678 36.0462 211.641 36.0744C211.603 36.1026 211.32 35.998 211.011 35.842C210.701 35.6859 210.371 35.5474 210.276 35.5342C210.182 35.5209 209.661 35.2042 209.12 34.8305C208.036 34.0822 207.628 33.9748 206.185 34.057L205.362 34.1039L205.647 34.7347C206.011 35.5386 205.988 35.6707 205.557 35.2611C204.933 34.6697 203.82 34.1062 203.066 34.0003C201.5 33.7804 199.139 32.6283 198.028 31.5423C197.486 31.0131 196.563 29.6847 195.488 27.8871C195.148 27.3185 194.83 26.8202 194.782 26.7799C194.733 26.7396 193.991 26.784 193.132 26.8787C192.273 26.9734 191.26 27.0439 190.881 27.0353C190.502 27.0268 190.213 27.0476 190.238 27.0814C190.264 27.1152 190.552 27.2612 190.879 27.4058C194.147 28.8511 195.24 29.4872 196.738 30.8163C197.254 31.2743 198.045 31.9395 198.496 32.2945C198.988 32.682 199.527 33.266 199.844 33.7559C200.135 34.2047 200.321 34.541 200.259 34.5032C200.197 34.4656 199.827 34.2068 199.437 33.9282C198.404 33.1902 197.768 32.9024 196.395 32.5507C195.032 32.2014 194.187 31.8142 192.815 30.9089C192.067 30.4151 191.692 30.0362 190.872 28.9447C189.605 27.2594 189.381 27.0942 188.144 26.935C186.901 26.7751 186.538 26.8768 186.149 27.4946C185.977 27.7675 185.403 28.4825 184.874 29.0837C183.82 30.28 183.281 31.2396 182.981 32.4483C182.874 32.8809 182.738 33.228 182.679 33.2197C182.504 33.1951 182.846 32.0838 183.369 30.9728C183.699 30.2735 184.125 29.6414 184.674 29.0356C185.58 28.0368 186.192 27.2113 186.11 27.1011C186.08 27.0614 185.937 27.1955 185.793 27.3992C185.649 27.6029 185.176 28.1613 184.743 28.6402C183.853 29.6244 183.244 30.6839 182.759 32.0915C182.576 32.6208 182.376 33.0469 182.315 33.0383C182.182 33.0197 182.163 33.0911 182.636 31.8265ZM185.291 24.9274C185.28 25.3556 185.299 25.5769 185.332 25.419C185.365 25.2612 185.603 24.738 185.862 24.2564C186.293 23.4531 186.358 23.2072 186.651 21.2773C186.827 20.1203 187.042 18.9858 187.128 18.7563C187.222 18.5049 187.233 18.3614 187.155 18.3958C186.925 18.4972 186.501 19.3394 186.042 20.6058C185.796 21.2873 185.552 21.9563 185.501 22.0923C185.409 22.3392 185.326 23.4546 185.291 24.9274ZM185.527 25.797C185.675 25.6332 186.042 25.2746 186.342 25C186.643 24.7256 187.196 24.046 187.571 23.4899C188.388 22.2798 188.438 21.8696 187.945 20.45C187.768 19.9417 187.589 19.2573 187.548 18.9291C187.471 18.3328 187.471 18.3327 187.328 18.7029C187.249 18.9067 187.047 20.0025 186.879 21.1378C186.569 23.2359 186.458 23.5725 185.374 25.7204C185.216 26.0339 185.283 26.0675 185.527 25.797ZM186.373 26.9201C186.491 26.803 186.783 26.6889 187.023 26.6665L187.458 26.6258L187.041 26.5538C186.665 26.489 186.641 26.4589 186.796 26.2457C186.891 26.1158 186.939 26.0054 186.903 26.0004C186.818 25.9884 186.205 26.8401 186.179 27.0054C186.168 27.0755 186.256 27.0372 186.373 26.9201ZM188.239 17.6362C188.46 17.4398 188.735 17.0792 188.849 16.8349L189.057 16.3904L188.66 16.677C188.312 16.9282 187.94 17.4825 187.862 17.8665C187.848 17.9361 188.017 17.8325 188.239 17.6362ZM188.855 26.5404C191.211 26.692 193.816 26.4308 196.486 25.7748C197.56 25.5108 198.621 25.2505 198.843 25.196C199.241 25.0987 199.23 25.0897 198.206 24.6402C196.767 24.0088 194.598 23.3052 193.701 23.1792C193.29 23.1214 192.505 23.1029 191.957 23.1382C190.982 23.2011 190.928 23.2244 189.381 24.2412C188.017 25.1376 186.826 26.184 186.962 26.3654C186.985 26.3961 187.837 26.4749 188.855 26.5404ZM187.909 25.0792C188.332 24.7561 189.35 24.0398 190.17 23.4872C191.474 22.6079 191.9 22.4032 193.581 21.8479C194.637 21.4989 196.164 21.0762 196.975 20.9088C198.595 20.5737 198.736 20.4812 197.293 20.6998C196.533 20.8147 196.347 20.8066 196.279 20.655C196.213 20.5101 196.188 20.5152 196.164 20.6781C196.131 20.8937 195.775 21.0361 194.514 21.3388C193.801 21.5097 192.85 21.877 191.414 22.5356C190.32 23.0377 187.236 25.2697 187.148 25.6234C187.143 25.6471 187.485 25.4022 187.909 25.0792ZM188.333 24.1829C188.458 24.0572 188.836 23.6416 189.173 23.2592C189.51 22.8769 190.095 22.2559 190.473 21.8792C191.583 20.772 191.745 20.5452 192.079 19.6321C192.315 18.9861 192.412 18.4663 192.459 17.6009L192.522 16.4378L192.287 17.3753C191.85 19.1128 190.776 20.9929 188.88 23.3344C188.121 24.2722 187.893 24.6253 188.333 24.1829ZM189.589 27.1933C189.784 27.3353 190.413 28.0665 190.987 28.8182C191.816 29.9044 192.218 30.3093 192.945 30.7889C194.155 31.5874 195.289 32.097 196.596 32.43C197.185 32.5802 197.909 32.8263 198.205 32.977C198.5 33.1278 198.762 33.2357 198.787 33.217C198.85 33.1696 197.448 32.3048 196.043 31.5246C195.4 31.1672 194.569 30.6221 194.198 30.3132C192.497 28.9004 190.888 27.7106 190.29 27.4229C189.93 27.25 189.618 27.031 189.597 26.9361C189.572 26.831 189.35 26.7399 189.027 26.7026C188.529 26.6452 188.519 26.6506 188.866 26.7884C189.069 26.8693 189.395 27.0515 189.589 27.1933ZM190.113 22.8741C191.282 22.1941 192.4 20.929 192.691 19.9583C192.807 19.5678 192.811 17.5181 192.695 17.3639C192.678 17.3413 192.583 17.8787 192.485 18.558C192.286 19.9383 192.024 20.579 191.418 21.1657C191.192 21.3846 190.925 21.6777 190.824 21.8168C190.723 21.9559 190.338 22.3379 189.968 22.6654C189.599 22.993 189.293 23.2826 189.29 23.309C189.286 23.3354 189.656 23.1397 190.113 22.8741ZM191.931 18.0711C192.027 17.9987 192.271 16.1356 192.231 15.7784C192.147 15.015 192.025 15.4443 191.955 16.7498C191.915 17.4968 191.904 18.0914 191.931 18.0711ZM190.541 27.8136C190.726 27.8396 191.728 28.7523 191.937 29.0854L192.138 29.4051L191.857 29.0953C191.703 28.9248 191.32 28.5634 191.006 28.2921C190.692 28.0207 190.483 27.8053 190.541 27.8136ZM191.713 22.9548C191.948 22.9351 192.663 22.9473 193.302 22.9818L194.464 23.0448L193.119 22.8992C191.883 22.7654 191.315 22.7751 191.294 22.9303C191.289 22.9635 191.478 22.9745 191.713 22.9548ZM196.621 22.4977C197.958 22.0506 200.151 20.9072 200.017 20.728C199.938 20.6239 197.957 20.8703 196.734 21.1362C196.132 21.2671 194.838 21.6267 193.859 21.9351L192.08 22.4957L195.12 22.9999L196.621 22.4977ZM192.073 26.8155C192.18 26.7891 192.154 26.7545 192.006 26.7275C191.873 26.7032 191.793 26.7227 191.83 26.7711C191.866 26.8194 191.975 26.8395 192.073 26.8155ZM196.437 31.5283C197.254 31.9936 198.243 32.597 198.635 32.8694C199.599 33.5394 199.422 33.2308 198.375 32.4162C197.911 32.0547 197.114 31.3935 196.605 30.9465C195.314 29.814 194.684 29.3974 193.211 28.7043C192.508 28.3732 191.85 28.0618 191.75 28.0122C191.65 27.9626 192.329 28.5431 193.26 29.3021C194.29 30.1427 195.532 31.013 196.437 31.5283ZM192.601 26.7595C192.708 26.733 192.682 26.6985 192.534 26.6715C192.401 26.6471 192.321 26.6667 192.358 26.715C192.394 26.7634 192.504 26.7835 192.601 26.7595ZM193.902 26.602C194.575 26.4917 194.786 26.5004 194.919 26.6438C195.046 26.7796 195.071 26.7837 195.018 26.6601C194.979 26.568 195.057 26.4456 195.195 26.3821C195.356 26.3081 195.372 26.2776 195.243 26.2944C193.714 26.4926 192.85 26.6392 192.941 26.6848C193.003 26.7157 193.436 26.6784 193.902 26.602ZM195.356 23.4014C195.55 23.423 195.641 23.4014 195.557 23.3535C195.474 23.3055 195.446 23.2183 195.495 23.1597C195.624 23.004 195.394 22.9997 195.19 23.1539C194.946 23.338 194.959 23.3571 195.356 23.4014ZM198.033 24.1242L200.078 24.9434L201.179 24.8718C201.785 24.8324 202.757 24.6533 203.341 24.4738C205.138 23.9206 206.147 23.8573 208.746 24.1342L211.053 24.3798L209.426 23.9251C208.531 23.6749 207.233 23.3305 206.542 23.1595C205.851 22.9887 204.891 22.7379 204.41 22.6022C203.928 22.4665 203.445 22.3411 203.337 22.3236C203.229 22.3061 202.749 21.974 202.271 21.5857C201.656 21.0873 201.26 20.8592 200.922 20.8103C200.642 20.7697 200.436 20.8025 200.424 20.89C200.412 20.9719 200.373 20.9989 200.336 20.9499C200.299 20.9009 199.758 21.17 199.133 21.548C198.509 21.9259 197.488 22.4047 196.866 22.6119C196.038 22.8875 195.768 23.0313 195.861 23.147C195.93 23.2339 196.908 23.6737 198.033 24.1242ZM195.805 27.6136C196.496 28.5456 197.389 29.295 198.46 29.8407C198.843 30.036 199.2 30.2019 199.253 30.2093C199.51 30.2455 199.236 29.5503 198.732 28.8899C198.422 28.4832 198.087 27.9834 197.989 27.7795C197.677 27.1348 195.262 26.1587 195.193 26.6495C195.184 26.7132 195.459 27.147 195.805 27.6136ZM196.172 23.6125C196.265 23.5895 196.197 23.5504 196.022 23.5258C195.846 23.5011 195.771 23.52 195.853 23.5677C195.936 23.6155 196.08 23.6357 196.172 23.6125ZM196.828 17.863C197.078 17.0086 197.57 16.2727 198.907 14.7517C199.941 13.5751 201.125 11.8964 201.019 11.7559C200.986 11.7119 200.872 11.7942 200.767 11.9386C200.662 12.0832 200.174 12.5617 199.684 13.0022C198.673 13.9113 198.45 14.2024 197.601 15.7201C196.854 17.0543 196.818 17.1438 196.708 17.9373L196.619 18.5759L196.828 17.863ZM196.902 22.7419C197.416 22.5771 198.387 22.1148 199.058 21.7147C199.73 21.3145 200.272 21.0401 200.263 21.105C200.24 21.2687 198.506 22.2741 197.503 22.7054C196.783 23.0145 195.927 23.2259 195.957 23.0869C195.962 23.062 196.387 22.9068 196.902 22.7419ZM195.694 26.3238C195.799 26.3386 195.893 26.295 195.902 26.2269C195.912 26.159 195.829 26.1243 195.718 26.1499C195.607 26.1756 195.513 26.2191 195.509 26.2467C195.506 26.2743 195.588 26.309 195.694 26.3238ZM197.172 26.6539C199.147 27.3364 199.763 27.5908 200.868 28.1802C202.33 28.9605 203.234 29.7307 203.88 30.7457C204.324 31.4434 204.451 31.5518 205.095 31.7824C205.524 31.9358 206.072 32.2681 206.451 32.6048L207.087 33.1697L206.195 32.0169C205.467 31.076 205.205 30.5933 204.767 29.3915C204.472 28.5815 204.11 27.793 203.962 27.6392C203.815 27.4854 202.804 26.9032 201.715 26.3453L199.735 25.3308L198.25 25.7181C197.433 25.9313 196.661 26.122 196.533 26.142C196.145 26.2032 196.355 26.3718 197.172 26.6539ZM197.156 30.1513C198.331 31.7638 199.21 32.4265 200.352 32.5607L201.063 32.6443L200.504 31.9445C200.103 31.4436 199.67 31.0918 198.979 30.7073C198.449 30.4119 197.744 29.926 197.413 29.6275C197.082 29.3292 196.726 29.0731 196.622 29.0584C196.517 29.0437 196.387 28.9229 196.333 28.79C196.279 28.6571 196.224 28.6102 196.211 28.686C196.198 28.7618 196.623 29.4212 197.156 30.1513ZM200.099 28.707C201.385 29.7826 202.728 31.2203 203.614 32.4681C204.001 33.0137 204.589 33.7911 204.921 34.1958C205.404 34.7848 205.479 34.8421 205.297 34.4828C205.173 34.236 204.909 33.5544 204.711 32.9682C203.941 30.6823 202.846 29.4163 200.65 28.2741C199.608 27.7321 197.826 26.9958 197.512 26.977C197.463 26.9741 197.801 27.1747 198.263 27.423C198.725 27.6713 199.551 28.2491 200.099 28.707ZM198.798 20.5987C198.906 20.5722 198.88 20.5377 198.732 20.5107C198.598 20.4863 198.519 20.5059 198.555 20.5542C198.592 20.6026 198.701 20.6226 198.798 20.5987ZM199.454 20.5605C199.561 20.5341 199.535 20.4996 199.388 20.4726C199.254 20.4482 199.174 20.4678 199.211 20.5161C199.247 20.5645 199.357 20.5845 199.454 20.5605ZM198.952 28.8949C199.284 29.2591 199.47 29.5998 199.492 29.8799C199.539 30.5009 200.798 32.1818 201.677 32.7979C202.414 33.3147 204.52 34.3701 204.637 34.2817C204.737 34.2061 202.864 31.713 202.022 30.8015C200.864 29.5472 198.628 27.6475 198.247 27.594C198.052 27.5665 198.506 28.4046 198.952 28.8949ZM199.067 30.5754C199.55 30.849 199.673 30.8848 199.573 30.7227C199.5 30.6048 199.157 30.3743 198.811 30.2106C198.464 30.0468 198.098 29.8729 197.998 29.8239C197.613 29.6361 198.46 30.2314 199.067 30.5754ZM199.977 18.0222C200.238 17.5237 200.236 17.5254 200.865 17.1764C201.089 17.0524 201.193 16.941 201.095 16.9289C200.652 16.8739 199.83 17.6798 199.762 18.2362C199.745 18.3844 199.835 18.2941 199.977 18.0222ZM199.583 25.025C199.699 25.0438 199.68 24.9993 199.534 24.9101C199.402 24.83 199.179 24.7501 199.038 24.7324C198.833 24.7067 198.843 24.7291 199.087 24.8473C199.255 24.9282 199.478 25.0082 199.583 25.025ZM200.587 13.7296C200.688 13.7437 201.013 13.1123 200.949 13.0273C200.919 12.9868 200.82 13.0834 200.729 13.2422C200.534 13.5818 200.495 13.7166 200.587 13.7296ZM200.116 18.8551C200.189 19.0641 200.322 19.3155 200.411 19.4139C200.544 19.5594 200.596 19.5407 200.693 19.3138C200.9 18.8316 201.225 17.3349 201.126 17.321C201.074 17.3137 200.853 17.401 200.634 17.5149C200.289 17.6943 200.185 17.8392 200.014 18.3758C199.997 18.4305 200.042 18.6463 200.116 18.8551ZM199.982 20.5045C200.089 20.4781 200.063 20.4436 199.916 20.4166C199.782 20.3922 199.703 20.4117 199.739 20.4601C199.775 20.5084 199.885 20.5285 199.982 20.5045ZM200.873 16.7646C201.024 16.7091 201.156 16.5994 201.167 16.5208C201.178 16.4421 201.058 16.4657 200.9 16.5731C200.742 16.6804 200.609 16.7902 200.606 16.8169C200.602 16.8436 200.722 16.8201 200.873 16.7646ZM200.56 20.2364C200.584 20.2398 200.732 20.1287 200.888 19.9894L201.171 19.7362L200.85 19.9392C200.548 20.1299 200.458 20.2221 200.56 20.2364ZM202.071 20.5196C202.735 20.4958 203.916 20.5144 204.696 20.5608L206.115 20.6453L204.643 20.476C203.274 20.3186 200.395 20.3295 200.72 20.4909C200.799 20.5304 201.407 20.5433 202.071 20.5196ZM201.464 16.2616C201.54 16.2281 201.633 15.9817 201.671 15.7141C201.807 14.7452 202.449 13.037 202.993 12.196C203.505 11.4051 205.226 9.61763 205.336 9.76326C205.362 9.79891 205 10.1922 204.53 10.6373C203.711 11.4132 202.744 12.7523 202.439 13.5337C202.242 14.0373 202.356 13.9182 202.824 13.1323C203.241 12.432 203.746 11.7961 204.405 11.1407C204.625 10.9211 205.059 10.4453 205.367 10.0836C206.101 9.22311 205.815 9.221 204.662 10.0783C203.198 11.1672 202.269 12.3891 201.82 13.8169C201.526 14.7505 201.295 16.3359 201.464 16.2616ZM201.168 19.262C201.329 19.1155 201.456 19.0449 201.45 19.1049C201.444 19.165 202.234 18.6409 203.204 17.9406C204.175 17.2401 205.474 16.3765 206.09 16.0215C207.668 15.1125 210.592 13.3078 210.602 13.237C210.62 13.1093 209.745 13.4913 209.243 13.8304C208.951 14.0274 208.154 14.4204 207.47 14.7038C205.491 15.5246 204.939 15.8801 203.749 17.1035C202.649 18.2343 201.436 19.2351 201.472 18.9829C201.482 18.9115 201.692 18.7094 201.939 18.5339C202.187 18.3583 202.8 17.8035 203.302 17.3012C203.805 16.7988 204.486 16.1722 204.816 15.9088L205.417 15.4296L204.605 15.6577C204.158 15.7832 203.474 16.0107 203.085 16.1634C202.696 16.316 202.347 16.4104 202.308 16.3731C202.27 16.3358 202.262 16.3482 202.291 16.4007C202.32 16.4533 202.209 16.6047 202.044 16.7375C201.799 16.9344 201.194 18.36 200.904 19.4203C200.888 19.4796 201.007 19.4084 201.168 19.262ZM200.739 25.589C200.808 25.6028 200.787 25.5462 200.691 25.4633C200.596 25.3805 200.431 25.3037 200.325 25.2929C200.122 25.2719 200.499 25.5418 200.739 25.589ZM200.131 30.183C200.33 30.3716 200.524 30.5977 200.563 30.6854C200.601 30.7732 200.47 30.6907 200.271 30.5021C200.072 30.3135 199.878 30.0874 199.84 29.9997C199.801 29.9119 199.932 29.9944 200.131 30.183ZM201.984 15.9751C202.034 15.8559 202.122 15.798 202.181 15.8467C202.239 15.8953 202.265 15.8406 202.239 15.7252C202.188 15.5046 202.669 14.8569 202.777 15.0004C202.811 15.0462 202.935 14.9953 203.052 14.8875C203.18 14.7692 203.216 14.7621 203.141 14.8696C203.073 14.9675 203.324 14.7977 203.698 14.4921C204.903 13.5083 205.773 12.063 206.05 10.5847C206.191 9.83096 206.031 9.49465 205.73 9.91319C205.62 10.0665 205.133 10.605 204.648 11.1099C203.488 12.319 202.607 13.62 202.151 14.7956C202.027 15.1154 201.865 16.2611 201.984 15.9751ZM202.549 15.5103C202.671 15.3884 202.778 15.2276 202.786 15.1529C202.794 15.0782 202.701 15.1169 202.579 15.2387C202.457 15.3606 202.35 15.5214 202.342 15.596C202.334 15.6708 202.427 15.632 202.549 15.5103ZM203.832 15.6852C204.572 15.4678 205.273 15.3025 205.39 15.3179C205.574 15.3418 207.689 14.4903 208.031 14.2552C208.096 14.21 208.013 14.1738 207.847 14.1745C206.29 14.1814 205.587 14.2425 204.709 14.447C203.794 14.6602 203.62 14.7538 203.052 15.3367C202.703 15.6949 202.433 16.0089 202.452 16.0342C202.471 16.0595 203.092 15.9023 203.832 15.6852ZM202.657 21.656C203.015 21.9056 203.619 22.1918 203.998 22.2919C204.377 22.3922 205.252 22.6226 205.942 22.8038C208.254 23.4114 211.202 24.2232 211.451 24.3209C211.674 24.4087 211.678 24.4017 211.494 24.2462C211.127 23.937 206.455 22.2403 204.472 21.6961C203.404 21.4033 202.365 21.11 202.162 21.0445C201.675 20.8878 201.833 21.082 202.657 21.656ZM202.028 33.5405L202.72 33.7001L202.175 33.3713C201.634 33.0445 201.178 32.9019 200.562 32.8664C200.071 32.838 201.168 33.3425 202.028 33.5405ZM202.717 18.7391C202.901 18.6092 203.092 18.5087 203.142 18.5157C203.191 18.5226 203.466 18.4166 203.752 18.2802C204.037 18.1437 204.771 17.9269 205.382 17.7986C207.813 17.2873 208.774 16.6988 209.841 15.0664C210.217 14.4902 210.596 13.8605 210.684 13.6669C210.838 13.3244 210.835 13.32 210.563 13.5047C210.41 13.6089 210.312 13.758 210.346 13.8359C210.38 13.9139 210.352 13.9306 210.283 13.8731C210.213 13.8156 209.864 13.9584 209.505 14.1904C209.147 14.4225 208.296 14.9302 207.614 15.3186C205.323 16.6238 202.439 18.5756 202.401 18.8469C202.391 18.9175 202.534 18.869 202.717 18.7391ZM207.489 22.439C208.34 22.7453 209.226 23.0781 209.458 23.1787C209.69 23.2794 209.904 23.3436 209.934 23.3215C210.006 23.2665 208.113 22.3928 207.283 22.0983C206.409 21.7883 203.463 21.0331 202.883 20.9704C202.637 20.9439 203.224 21.1381 204.188 21.4022C205.152 21.6662 206.638 22.1328 207.489 22.439ZM204.228 14.4045C204.618 14.1759 206.138 13.983 207.336 14.0102C208.264 14.0314 208.681 13.983 208.893 13.83C209.18 13.6229 209.176 13.6207 208.536 13.5976C208.18 13.5848 207.482 13.551 206.986 13.5225C205.628 13.4445 205.097 13.5484 204.552 13.9985C204.056 14.4077 203.91 14.5912 204.228 14.4045ZM208.5 25.9163C209.976 25.9821 211.093 25.9021 211.87 25.6748L212.32 25.5432L211.865 25.5404C211.615 25.5389 210.23 25.398 208.788 25.2273C206.345 24.938 203.33 24.857 202.698 25.0637C202.365 25.1729 206.954 25.8472 208.5 25.9163ZM204.124 24.6956C204.736 24.6443 206.176 24.7429 208.495 24.9948C211.582 25.3301 213.393 25.3911 213.687 25.1695C213.816 25.0721 209.551 24.3273 208.217 24.2142C207.509 24.1542 206.503 24.1366 205.981 24.1749C205.106 24.2395 203.11 24.6357 203.181 24.7308C203.198 24.7535 203.623 24.7376 204.124 24.6956ZM205.576 10.4357C205.908 9.81691 206.027 9.83546 205.713 10.4571C205.555 10.7689 205.403 11.0206 205.375 11.0166C205.297 11.0057 205.347 10.8618 205.576 10.4357ZM206.551 8.22912C206.684 7.94869 206.955 7.51808 207.155 7.27224L207.517 6.82519L207.129 7.08908C206.731 7.36019 206.442 7.85867 206.357 8.42017C206.323 8.64679 206.38 8.59151 206.551 8.22912ZM205.047 28.7105C205.036 28.7858 204.92 28.7206 204.788 28.5656C204.61 28.3577 204.654 28.5888 204.956 29.447C205.266 30.3274 205.591 30.9115 206.294 31.8486C206.805 32.5297 207.201 33.1322 207.176 33.1876C207.15 33.243 207.194 33.2596 207.274 33.2245C207.353 33.1893 207.743 33.4691 208.14 33.8462C208.725 34.4018 210.169 35.3889 210.457 35.4294C210.541 35.4412 210.166 34.982 209.853 34.6888C209.179 34.0591 207.921 32.4152 207.21 31.2347C206.77 30.5042 206.129 29.5757 205.787 29.1711C205.444 28.7665 205.222 28.4437 205.294 28.4537C205.55 28.4897 206.363 29.5443 207.3 31.058C208.564 33.098 210.342 35.1975 210.737 35.1171C211.06 35.0513 210.194 33.4419 208.885 31.6724C207.716 30.0925 207.415 29.7727 206.457 29.0929C205.856 28.666 205.303 28.3438 205.229 28.3766C205.154 28.4095 204.947 28.3193 204.768 28.1762L204.443 27.9162L204.755 28.245C204.926 28.4258 205.058 28.6353 205.047 28.7105ZM205.266 32.3C206.074 32.5855 206.3 32.5849 205.78 32.2989C205.152 31.9531 204.475 31.7387 204.503 31.8947C204.518 31.9746 204.861 32.1571 205.266 32.3ZM205.776 33.0299L206.69 33.1742L206.15 32.8734C205.853 32.7078 205.402 32.5098 205.149 32.433C204.711 32.3007 204.692 32.3086 204.775 32.5897C204.853 32.8511 204.97 32.9024 205.776 33.0299ZM206.065 28.4097C206.27 28.4354 206.261 28.413 206.016 28.2948C205.599 28.0937 205.264 28.0466 205.569 28.232C205.701 28.3122 205.924 28.392 206.065 28.4097ZM205.78 33.9201C206.077 33.9118 206.534 33.8625 206.795 33.8108L207.27 33.7166L206.615 33.4758C206.254 33.3433 205.731 33.2028 205.452 33.1637L204.945 33.0924L205.093 33.5138C205.232 33.9111 205.271 33.9344 205.78 33.9201ZM207.359 20.7596C207.466 20.7332 207.44 20.6986 207.293 20.6716C207.159 20.6473 207.079 20.6668 207.116 20.7152C207.152 20.7635 207.262 20.7836 207.359 20.7596ZM208.114 20.9932C208.207 20.9702 208.139 20.9311 207.964 20.9065C207.789 20.8818 207.713 20.9008 207.796 20.9484C207.878 20.9963 208.022 21.0164 208.114 20.9932ZM209.761 29.2629L210.624 29.2779L209.744 29.0676C209.259 28.9519 208.519 28.8085 208.098 28.7488L207.333 28.6405L208.115 28.9443C208.686 29.1661 209.13 29.2521 209.761 29.2629ZM210.327 15.4247C211.457 15.3595 212.175 15.1846 213.062 14.7581L214.03 14.2932L213.317 14.2766C212.925 14.2676 212.145 14.2586 211.583 14.2568L210.561 14.2533L210.249 14.7459C209.829 15.4081 209.834 15.4532 210.327 15.4247ZM211.42 29.1714C212.985 29.4119 214.145 29.3823 216.053 29.0534L217.319 28.8353L215.731 28.6847C214.26 28.5452 211.961 28.4934 209.428 28.5423L208.385 28.5625L209.202 28.7595C209.652 28.8678 210.65 29.0532 211.42 29.1714ZM212.6 14.0582C214.387 14.0503 214.427 14.0438 213.698 13.8787C212.966 13.7128 211.542 13.6205 211.037 13.7062C210.902 13.7293 210.78 13.8197 210.768 13.9072C210.751 14.0292 211.177 14.0644 212.6 14.0582ZM210.336 29.9422C211.934 30.4471 212.795 30.6422 215.44 31.0997C216.547 31.2911 216.864 31.3144 216.599 31.1852C216.398 31.0874 215.8 30.7646 215.269 30.4679C214.38 29.9706 214.18 29.9106 212.711 29.6979C211.243 29.4853 208.374 29.2721 208.657 29.3967C208.724 29.4263 209.48 29.6718 210.336 29.9422ZM211.405 19.6985C212.1 19.511 213.24 19.191 213.939 18.9874C215.739 18.4633 217.626 18.2271 219.444 18.2986C221.169 18.3663 221.056 18.2098 219.169 17.9179C216.873 17.5629 214.673 17.9623 211.793 19.2573C211.118 19.5608 210.446 19.8293 210.301 19.8539C210.156 19.8785 210.061 19.9304 210.09 19.969C210.119 20.0077 210.711 19.8859 211.405 19.6985ZM211.355 20.5139C213.334 20.4626 214.65 20.2886 215.841 19.9207C217.169 19.51 218.961 18.7246 218.864 18.5954C218.557 18.1883 215.517 18.6411 212.712 19.5117C212.151 19.6857 211.388 19.909 211.016 20.0079C210.526 20.1383 210.448 20.186 210.732 20.1817C210.947 20.1786 211.239 20.1489 211.38 20.1158C211.553 20.0755 211.603 20.0979 211.531 20.1841C211.472 20.2548 211.099 20.339 210.702 20.3712C209.554 20.4641 209.948 20.5503 211.355 20.5139ZM210.167 21.2115C210.31 21.1029 210.297 21.0863 210.105 21.13C209.973 21.1603 209.892 21.2217 209.926 21.2666C209.96 21.3114 210.068 21.2867 210.167 21.2115ZM211.37 21.4381C211.557 21.2977 211.286 21.1979 210.818 21.2342L210.319 21.273L210.803 21.3867C211.07 21.4492 211.325 21.4724 211.37 21.4381ZM210.897 30.9864C211.75 31.3638 212.307 31.5224 213.24 31.6535C214.387 31.8146 216.417 31.8111 216.838 31.6474C216.941 31.6073 215.92 31.3839 214.568 31.151C212.921 30.867 211.664 30.5764 210.753 30.2693C209.075 29.7035 209.048 29.7007 209.45 30.1368C209.63 30.3319 210.281 30.7141 210.897 30.9864ZM213.217 22.7349C215.333 23.5018 216.35 23.9327 218.014 24.7681C219.525 25.5261 219.768 25.6273 219.372 25.3343C219.242 25.2385 218.794 24.8869 218.376 24.553C217.136 23.5623 216.125 23.0844 214.056 22.5094C213.018 22.221 211.857 21.9137 211.476 21.8267L210.783 21.6684L211.249 21.9296C211.505 22.0731 212.391 22.4357 213.217 22.7349ZM211.043 22.2299C211.112 22.2397 211.567 22.5071 212.053 22.8242C213.506 23.7718 216.821 25.247 218.123 25.5252C218.741 25.6572 219.251 25.7301 219.257 25.6875C219.281 25.5182 215.434 23.7571 213.686 23.137C212.665 22.775 211.599 22.3584 211.315 22.211C211.031 22.0637 210.826 22.0037 210.858 22.0777C210.891 22.1518 210.974 22.2202 211.043 22.2299ZM210.453 28.356C210.561 28.3296 210.535 28.2951 210.387 28.2681C210.253 28.2437 210.174 28.2633 210.21 28.3116C210.247 28.3599 210.356 28.38 210.453 28.356ZM212.843 28.3416C213.978 28.3582 215.482 28.446 216.187 28.5368C217.215 28.6692 217.37 28.6668 216.973 28.5245C216.284 28.2779 214.905 28.089 213.539 28.0544C212.411 28.0258 210.661 28.1534 210.741 28.2585C210.762 28.2876 211.709 28.325 212.843 28.3416ZM216.04 22.6677C217.671 23.404 220.398 23.7589 223.704 23.6651C224.386 23.6457 225.321 23.6462 225.783 23.6662C226.831 23.7115 216.246 22.0925 213.625 21.8064L211.704 21.5968L213.413 21.9251C214.582 22.1497 215.413 22.3846 216.04 22.6677ZM214.648 21.661C215.093 21.698 214.768 21.6313 213.926 21.5128C213.085 21.3943 212.721 21.364 213.118 21.4456C213.515 21.5272 214.203 21.624 214.648 21.661ZM214.704 22.4588L215.087 22.5068L214.718 22.3556C214.515 22.2724 214.091 22.1685 213.775 22.1246L213.201 22.0448L213.761 22.2277C214.068 22.3283 214.493 22.4323 214.704 22.4588ZM215.664 21.407C218.092 21.6558 219.866 21.6398 221.525 21.3541C222.204 21.2372 222.877 21.158 223.021 21.1782C223.164 21.1984 223.259 21.1631 223.231 21.1C223.148 20.9087 220.643 20.6985 218.976 20.7427C216.124 20.8184 214.648 20.9476 214.902 21.0993C215.091 21.2113 215.062 21.2254 214.754 21.1728C214.063 21.0547 213.668 21.035 213.657 21.1181C213.65 21.1632 214.554 21.2931 215.664 21.407ZM215.751 20.693C216.031 20.6598 217.144 20.5963 218.223 20.5518C219.85 20.4849 220.562 20.5227 222.396 20.7733C224.481 21.0583 224.577 21.0608 224.08 20.8176C223.314 20.4425 220.644 20.0858 219.251 20.1726C217.833 20.2609 215.13 20.6051 215.194 20.6894C215.22 20.7247 215.471 20.7263 215.751 20.693ZM215.413 22.6724C215.521 22.646 215.495 22.6115 215.347 22.5845C215.213 22.5601 215.134 22.5796 215.17 22.628C215.207 22.6763 215.316 22.6964 215.413 22.6724ZM226.83 23.4512C226.949 23.4134 224.911 22.7045 223.753 22.3806C221.83 21.8428 220.778 21.7278 218.374 21.7924L216.22 21.8504L221.503 22.6578C224.409 23.1018 226.807 23.4589 226.83 23.4512ZM219.511 18.5577C219.604 18.5346 219.536 18.4955 219.36 18.4709C219.185 18.4463 219.109 18.4652 219.192 18.5129C219.275 18.5607 219.418 18.5809 219.511 18.5577ZM224.123 23.4518C224.438 23.4962 224.564 23.5392 224.402 23.5476C224.24 23.5558 223.982 23.5195 223.828 23.4669C223.674 23.4142 223.807 23.4075 224.123 23.4518Z" fill="#3C3F59"/>
<path d="M62.0073 51.8275V51.9943C62.0073 52.365 62.0638 52.7173 62.1768 53.0509C62.2899 53.3846 62.4543 53.6762 62.67 53.9256C62.8789 54.1784 63.1375 54.3789 63.4457 54.5272C63.754 54.6721 64.1033 54.7446 64.4937 54.7446C64.8807 54.7446 65.2266 54.6704 65.5314 54.5221C65.8362 54.3738 66.0948 54.175 66.3071 53.9256C66.5195 53.6728 66.6804 53.3812 66.79 53.0509C66.903 52.7173 66.9613 52.365 66.9647 51.9943V51.8275C66.9613 51.4567 66.903 51.1045 66.79 50.7708C66.677 50.4371 66.516 50.1439 66.3071 49.8911C66.0914 49.6417 65.8294 49.4429 65.5211 49.2946C65.2163 49.1463 64.8704 49.0721 64.4834 49.0721C64.093 49.0721 63.7454 49.1463 63.4406 49.2946C63.1358 49.4429 62.8772 49.6434 62.6649 49.8962C62.4525 50.1456 62.2899 50.4371 62.1768 50.7708C62.0638 51.1045 62.0073 51.4567 62.0073 51.8275ZM62.6186 51.9943V51.8275C62.6186 51.541 62.6597 51.2629 62.7419 50.9933C62.8241 50.7236 62.944 50.486 63.1015 50.2804C63.2591 50.0715 63.4526 49.9046 63.682 49.7799C63.9115 49.6552 64.1786 49.5928 64.4834 49.5928C64.7848 49.5928 65.0502 49.6552 65.2797 49.7799C65.5126 49.9046 65.7095 50.0715 65.8705 50.2804C66.0246 50.486 66.1427 50.7236 66.2249 50.9933C66.3071 51.2629 66.3499 51.541 66.3534 51.8275V51.9943C66.3499 52.2841 66.3071 52.5639 66.2249 52.8335C66.1462 53.0998 66.0297 53.3374 65.8756 53.5464C65.7146 53.7554 65.5194 53.9222 65.29 54.0469C65.0605 54.1682 64.7951 54.2289 64.4937 54.2289C64.1889 54.2289 63.9201 54.1682 63.6872 54.0469C63.4543 53.9222 63.2591 53.7554 63.1015 53.5464C62.944 53.3408 62.8241 53.1032 62.7419 52.8335C62.6597 52.5639 62.6186 52.2841 62.6186 51.9943Z" fill="#3D405B"/>
<path d="M68.6394 54.6435H69.2559V50.9073C69.3141 50.7321 69.3963 50.5669 69.5025 50.4119C69.6086 50.2534 69.7336 50.117 69.8775 50.0024C70.0316 49.881 70.2028 49.785 70.3912 49.7142C70.5796 49.64 70.7799 49.603 70.9922 49.603C71.2354 49.5996 71.4443 49.6316 71.619 49.699C71.7971 49.7664 71.946 49.8659 72.0659 49.9973C72.1823 50.1287 72.268 50.2905 72.3228 50.4826C72.381 50.6748 72.4118 50.8955 72.4152 51.1449V54.6435H73.0266V51.1348C73.0266 50.8079 72.9855 50.5163 72.9033 50.2602C72.8211 50.004 72.6995 49.7866 72.5385 49.608C72.381 49.4327 72.1841 49.2996 71.9477 49.2086C71.7149 49.1176 71.446 49.0721 71.1412 49.0721C70.9118 49.0721 70.6943 49.1058 70.4888 49.1732C70.2867 49.2406 70.1018 49.3316 69.934 49.4462C69.7901 49.544 69.66 49.6603 69.5436 49.7951C69.4271 49.9299 69.3261 50.0765 69.2405 50.2349L69.2045 49.1732H68.6394V54.6435Z" fill="#3D405B"/>
<path d="M75.102 46.8779V47.4189H77.0798V54.1025H75.102V54.6435H79.5713V54.1025H77.6911V46.8779H75.102Z" fill="#3D405B"/>
<path d="M81.4207 49.1732V49.7142H83.3882V54.1025H81.4207V54.6435H85.89V54.1025H83.9996V49.1732H81.4207ZM83.2084 47.6767C83.2084 47.7981 83.2444 47.9025 83.3163 47.9902C83.3882 48.0778 83.5064 48.1216 83.6708 48.1216C83.8317 48.1216 83.9499 48.0778 84.0252 47.9902C84.1006 47.9025 84.1383 47.7981 84.1383 47.6767C84.1383 47.6093 84.128 47.547 84.1074 47.4897C84.0869 47.4324 84.0561 47.3835 84.015 47.3431C83.9807 47.3026 83.9345 47.2723 83.8763 47.2521C83.818 47.2285 83.7495 47.2167 83.6708 47.2167C83.592 47.2167 83.5235 47.2285 83.4653 47.2521C83.4071 47.2723 83.3591 47.3026 83.3214 47.3431C83.2803 47.3869 83.2512 47.4374 83.2341 47.4947C83.217 47.552 83.2084 47.6127 83.2084 47.6767Z" fill="#3D405B"/>
<path d="M87.5956 54.6435H88.212V50.9073C88.2703 50.7321 88.3524 50.5669 88.4586 50.4119C88.5648 50.2534 88.6898 50.117 88.8336 50.0024C88.9877 49.881 89.159 49.785 89.3473 49.7142C89.5357 49.64 89.7361 49.603 89.9484 49.603C90.1916 49.5996 90.4005 49.6316 90.5751 49.699C90.7532 49.7664 90.9022 49.8659 91.0221 49.9973C91.1385 50.1287 91.2241 50.2905 91.2789 50.4826C91.3371 50.6748 91.368 50.8955 91.3714 51.1449V54.6435H91.9827V51.1348C91.9827 50.8079 91.9416 50.5163 91.8594 50.2602C91.7772 50.004 91.6557 49.7866 91.4947 49.608C91.3371 49.4327 91.1402 49.2996 90.9039 49.2086C90.671 49.1176 90.4022 49.0721 90.0974 49.0721C89.8679 49.0721 89.6504 49.1058 89.445 49.1732C89.2429 49.2406 89.058 49.3316 88.8901 49.4462C88.7463 49.544 88.6162 49.6603 88.4997 49.7951C88.3833 49.9299 88.2822 50.0765 88.1966 50.2349L88.1607 49.1732H87.5956V54.6435Z" fill="#3D405B"/>
<path d="M96.2877 54.7446C96.75 54.7446 97.1558 54.6553 97.5052 54.4766C97.8545 54.298 98.1336 54.0638 98.3425 53.7739L97.9572 53.4857C97.7586 53.7284 97.5206 53.9138 97.2432 54.0419C96.9658 54.1699 96.6558 54.2323 96.3134 54.2289C96.0154 54.2289 95.7431 54.1716 95.4965 54.057C95.2534 53.939 95.0462 53.7823 94.8749 53.5868C94.7003 53.3947 94.565 53.174 94.4691 52.9245C94.3732 52.6751 94.3184 52.4055 94.3047 52.1156V51.9488H98.4658V51.5797C98.4624 51.2326 98.411 50.9073 98.3117 50.604C98.2124 50.2973 98.0651 50.0293 97.8699 49.8001C97.6747 49.5743 97.435 49.3973 97.1507 49.2693C96.8665 49.1378 96.5411 49.0721 96.1747 49.0721C95.8253 49.0721 95.5 49.1446 95.1986 49.2895C94.8972 49.4311 94.6369 49.6249 94.4177 49.8709C94.1917 50.1203 94.0136 50.4152 93.8835 50.7557C93.7568 51.0927 93.6934 51.455 93.6934 51.8426V52.06C93.6934 52.4274 93.7568 52.7746 93.8835 53.1015C94.0102 53.4251 94.1883 53.7099 94.4177 53.9559C94.6438 54.1986 94.916 54.3907 95.2346 54.5323C95.5531 54.6738 95.9041 54.7446 96.2877 54.7446ZM96.1747 49.5928C96.4384 49.5928 96.673 49.6434 96.8784 49.7445C97.0839 49.8422 97.2586 49.9737 97.4024 50.1389C97.5429 50.304 97.6524 50.4961 97.7312 50.7152C97.8134 50.9343 97.8545 51.1551 97.8545 51.3775V51.4331H94.3304C94.3681 51.1702 94.4383 50.9259 94.541 50.7C94.6438 50.4742 94.7739 50.2787 94.9315 50.1136C95.089 49.9518 95.2722 49.8254 95.4811 49.7344C95.69 49.64 95.9212 49.5928 96.1747 49.5928Z" fill="#3D405B"/>
<path d="M110.23 49.0721C109.727 49.0687 109.288 49.1732 108.915 49.3856C108.542 49.5945 108.247 49.8861 108.031 50.2602V50.0175L107.995 49.1732H107.41V54.6435H108.042L108.036 51.1449C108.105 50.8921 108.202 50.6748 108.329 50.4927C108.459 50.3074 108.612 50.154 108.786 50.0327C108.968 49.908 109.172 49.817 109.398 49.7597C109.627 49.699 109.872 49.6687 110.132 49.6687C110.283 49.6687 110.43 49.6771 110.574 49.694C110.718 49.7108 110.86 49.7344 111.001 49.7647L111.083 49.1783C110.977 49.1446 110.845 49.1193 110.687 49.1024C110.533 49.0822 110.381 49.0721 110.23 49.0721Z" fill="#3D405B"/>
<path d="M115.244 54.7446C115.706 54.7446 116.112 54.6553 116.461 54.4766C116.811 54.298 117.09 54.0638 117.299 53.7739L116.913 53.4857C116.715 53.7284 116.477 53.9138 116.199 54.0419C115.922 54.1699 115.612 54.2323 115.27 54.2289C114.972 54.2289 114.699 54.1716 114.453 54.057C114.21 53.939 114.002 53.7823 113.831 53.5868C113.656 53.3947 113.521 53.174 113.425 52.9245C113.329 52.6751 113.275 52.4055 113.261 52.1156V51.9488H117.422V51.5797C117.419 51.2326 117.367 50.9073 117.268 50.604C117.169 50.2973 117.021 50.0293 116.826 49.8001C116.631 49.5743 116.391 49.3973 116.107 49.2693C115.823 49.1378 115.497 49.0721 115.131 49.0721C114.781 49.0721 114.456 49.1446 114.155 49.2895C113.853 49.4311 113.593 49.6249 113.374 49.8709C113.148 50.1203 112.97 50.4152 112.84 50.7557C112.713 51.0927 112.65 51.455 112.65 51.8426V52.06C112.65 52.4274 112.713 52.7746 112.84 53.1015C112.966 53.4251 113.144 53.7099 113.374 53.9559C113.6 54.1986 113.872 54.3907 114.191 54.5323C114.509 54.6738 114.86 54.7446 115.244 54.7446ZM115.131 49.5928C115.395 49.5928 115.629 49.6434 115.835 49.7445C116.04 49.8422 116.215 49.9737 116.359 50.1389C116.499 50.304 116.609 50.4961 116.687 50.7152C116.77 50.9343 116.811 51.1551 116.811 51.3775V51.4331H113.287C113.324 51.1702 113.394 50.9259 113.497 50.7C113.6 50.4742 113.73 50.2787 113.888 50.1136C114.045 49.9518 114.228 49.8254 114.437 49.7344C114.646 49.64 114.877 49.5928 115.131 49.5928Z" fill="#3D405B"/>
<path d="M123.068 53.2481C123.068 53.3796 123.039 53.4975 122.98 53.602C122.926 53.7031 122.847 53.7941 122.744 53.875C122.587 53.993 122.4 54.0823 122.184 54.143C121.968 54.2003 121.739 54.2289 121.496 54.2289C121.307 54.2289 121.116 54.2121 120.92 54.1784C120.729 54.1413 120.554 54.0789 120.396 53.9913C120.232 53.907 120.093 53.7924 119.98 53.6475C119.871 53.5026 119.806 53.3223 119.785 53.1065H119.174C119.184 53.3593 119.249 53.5868 119.369 53.7891C119.492 53.9913 119.66 54.1615 119.872 54.2997C120.078 54.4413 120.321 54.5508 120.602 54.6283C120.883 54.7058 121.181 54.7446 121.496 54.7446C121.783 54.7446 122.068 54.7092 122.349 54.6384C122.629 54.5676 122.876 54.4581 123.088 54.3098C123.263 54.1885 123.405 54.0351 123.515 53.8497C123.624 53.6644 123.679 53.4537 123.679 53.2178C123.679 52.9684 123.623 52.756 123.51 52.5808C123.397 52.4021 123.242 52.2505 123.047 52.1257C122.852 52.0044 122.626 51.9033 122.369 51.8224C122.116 51.7381 121.849 51.6674 121.568 51.6101C121.348 51.5662 121.138 51.5174 120.936 51.4634C120.734 51.4061 120.561 51.3354 120.417 51.2511C120.273 51.1702 120.164 51.0725 120.088 50.9579C120.016 50.8399 119.98 50.7017 119.98 50.5433C119.98 50.3849 120.021 50.2467 120.104 50.1287C120.189 50.0074 120.302 49.908 120.443 49.8305C120.58 49.7496 120.735 49.6906 120.91 49.6535C121.088 49.6131 121.271 49.5928 121.46 49.5928C121.658 49.5928 121.85 49.6181 122.035 49.6687C122.224 49.7192 122.391 49.7917 122.539 49.8861C122.682 49.9804 122.799 50.0967 122.888 50.2349C122.98 50.3731 123.028 50.5298 123.032 50.7051H123.648C123.638 50.4456 123.575 50.2147 123.458 50.0125C123.342 49.8102 123.186 49.6383 122.991 49.4968C122.792 49.3586 122.561 49.2541 122.297 49.1833C122.037 49.1092 121.758 49.0721 121.46 49.0721C121.193 49.0721 120.932 49.1058 120.679 49.1732C120.429 49.2406 120.21 49.335 120.021 49.4563C119.823 49.5878 119.664 49.7462 119.544 49.9316C119.427 50.1169 119.369 50.3276 119.369 50.5635C119.369 50.813 119.427 51.0253 119.544 51.2006C119.664 51.3724 119.819 51.514 120.011 51.6252C120.217 51.7432 120.438 51.8393 120.674 51.9134C120.91 51.9876 121.17 52.0533 121.455 52.1106C121.677 52.1578 121.893 52.2151 122.102 52.2825C122.314 52.3499 122.494 52.4308 122.641 52.5251C122.775 52.6094 122.879 52.7122 122.955 52.8335C123.03 52.9515 123.068 53.0897 123.068 53.2481Z" fill="#3D405B"/>
<path d="M127.558 47.7728H126.936V49.1732H125.39V49.6737H126.936V53.1015C126.939 53.4015 126.984 53.6559 127.07 53.8649C127.159 54.0739 127.28 54.2424 127.434 54.3705C127.588 54.5019 127.77 54.5963 127.979 54.6536C128.191 54.7143 128.421 54.7446 128.667 54.7446C128.787 54.7446 128.907 54.7412 129.027 54.7345C129.15 54.7277 129.268 54.7143 129.381 54.694C129.47 54.6806 129.554 54.6637 129.633 54.6435C129.715 54.6233 129.787 54.598 129.849 54.5676L129.756 54.1076C129.705 54.1177 129.643 54.1295 129.571 54.143C129.503 54.1531 129.433 54.1632 129.361 54.1733C129.265 54.1834 129.167 54.1935 129.068 54.2036C128.969 54.2104 128.869 54.2138 128.77 54.2138C128.602 54.2138 128.445 54.1952 128.297 54.1581C128.15 54.1211 128.022 54.0587 127.912 53.9711C127.803 53.8868 127.717 53.7739 127.655 53.6323C127.594 53.4908 127.561 53.3138 127.558 53.1015V49.6737H129.618V49.1732H127.558V47.7728Z" fill="#3D405B"/>
<path d="M135.649 54.6435H136.306L136.301 54.5828C136.253 54.4143 136.212 54.2373 136.178 54.052C136.147 53.8666 136.132 53.6812 136.132 53.4958V50.8517C136.128 50.5551 136.07 50.2956 135.957 50.0731C135.847 49.8507 135.698 49.6636 135.51 49.512C135.318 49.367 135.094 49.2575 134.837 49.1833C134.58 49.1092 134.304 49.0721 134.01 49.0721C133.715 49.0721 133.438 49.1125 133.178 49.1934C132.921 49.2743 132.695 49.3856 132.5 49.5271C132.304 49.672 132.149 49.8423 132.032 50.0377C131.916 50.2332 131.852 50.4472 131.842 50.6798L132.458 50.6849C132.462 50.513 132.506 50.3596 132.592 50.2248C132.681 50.0866 132.794 49.9703 132.931 49.876C133.072 49.7816 133.232 49.7091 133.414 49.6586C133.596 49.608 133.786 49.5827 133.984 49.5827C134.2 49.5827 134.4 49.6114 134.585 49.6687C134.774 49.7226 134.936 49.8018 135.073 49.9063C135.21 50.0108 135.318 50.1422 135.397 50.3006C135.476 50.4557 135.517 50.636 135.52 50.8416V51.4584H134.313C133.967 51.4618 133.637 51.4955 133.322 51.5595C133.006 51.6202 132.731 51.7179 132.494 51.8527C132.255 51.9943 132.063 52.1746 131.919 52.3937C131.779 52.6128 131.708 52.879 131.708 53.1925C131.708 53.4284 131.756 53.6425 131.852 53.8346C131.948 54.0233 132.078 54.1851 132.243 54.3199C132.407 54.4547 132.602 54.5592 132.828 54.6334C133.054 54.7075 133.296 54.7446 133.553 54.7446C133.758 54.7446 133.955 54.7227 134.143 54.6789C134.335 54.6384 134.517 54.5778 134.688 54.4969C134.856 54.4194 135.01 54.325 135.15 54.2138C135.294 54.0992 135.419 53.9728 135.525 53.8346C135.532 53.9761 135.544 54.116 135.561 54.2542C135.582 54.3924 135.611 54.5221 135.649 54.6435ZM133.619 54.2036C133.441 54.2036 133.272 54.18 133.111 54.1329C132.953 54.0823 132.816 54.0098 132.7 53.9155C132.583 53.8245 132.491 53.7132 132.423 53.5818C132.354 53.4503 132.32 53.302 132.32 53.1369C132.32 52.9347 132.364 52.7628 132.453 52.6212C132.546 52.4763 132.671 52.3549 132.828 52.2572C133.024 52.1359 133.258 52.0516 133.532 52.0044C133.806 51.9572 134.096 51.9319 134.4 51.9286H135.52V53.1318C135.441 53.2936 135.339 53.4402 135.212 53.5717C135.085 53.7031 134.94 53.816 134.775 53.9104C134.611 54.0048 134.431 54.0789 134.236 54.1329C134.041 54.1834 133.835 54.207 133.619 54.2036Z" fill="#3D405B"/>
<path d="M141.911 54.6435H142.481V49.1732H141.865V53.0257C141.817 53.2043 141.745 53.3661 141.649 53.511C141.556 53.6526 141.442 53.7739 141.305 53.875C141.157 53.9829 140.986 54.0671 140.791 54.1278C140.596 54.1851 140.378 54.2138 140.139 54.2138C139.909 54.2138 139.709 54.1784 139.538 54.1076C139.37 54.0368 139.231 53.9306 139.121 53.7891C139.008 53.6509 138.924 53.479 138.87 53.2734C138.815 53.0644 138.786 52.8217 138.782 52.5454V49.1732H138.171V52.5353C138.174 52.8892 138.217 53.2026 138.299 53.4756C138.382 53.7486 138.503 53.9778 138.664 54.1632C138.825 54.3519 139.022 54.4969 139.255 54.598C139.491 54.6957 139.764 54.7446 140.072 54.7446C140.49 54.7446 140.851 54.6603 141.156 54.4918C141.461 54.3199 141.704 54.0823 141.885 53.779L141.911 54.6435Z" fill="#3D405B"/>
<path d="M148.142 49.0721C147.639 49.0687 147.2 49.1732 146.827 49.3856C146.454 49.5945 146.159 49.8861 145.944 50.2602V50.0175L145.908 49.1732H145.322V54.6435H145.954L145.949 51.1449C146.017 50.8921 146.115 50.6748 146.242 50.4927C146.372 50.3074 146.524 50.154 146.699 50.0327C146.88 49.908 147.084 49.817 147.31 49.7597C147.54 49.699 147.784 49.6687 148.045 49.6687C148.195 49.6687 148.343 49.6771 148.486 49.694C148.63 49.7108 148.772 49.7344 148.913 49.7647L148.995 49.1783C148.889 49.1446 148.757 49.1193 148.599 49.1024C148.445 49.0822 148.293 49.0721 148.142 49.0721Z" fill="#3D405B"/>
<path d="M154.605 54.6435H155.262L155.257 54.5828C155.209 54.4143 155.168 54.2373 155.134 54.052C155.103 53.8666 155.088 53.6812 155.088 53.4958V50.8517C155.084 50.5551 155.026 50.2956 154.913 50.0731C154.803 49.8507 154.654 49.6636 154.466 49.512C154.274 49.367 154.05 49.2575 153.793 49.1833C153.536 49.1092 153.261 49.0721 152.966 49.0721C152.672 49.0721 152.394 49.1125 152.134 49.1934C151.877 49.2743 151.651 49.3856 151.456 49.5271C151.261 49.672 151.105 49.8423 150.988 50.0377C150.872 50.2332 150.808 50.4472 150.798 50.6798L151.415 50.6849C151.418 50.513 151.463 50.3596 151.548 50.2248C151.637 50.0866 151.75 49.9703 151.887 49.876C152.028 49.7816 152.189 49.7091 152.37 49.6586C152.552 49.608 152.742 49.5827 152.94 49.5827C153.156 49.5827 153.357 49.6114 153.541 49.6687C153.73 49.7226 153.892 49.8018 154.029 49.9063C154.166 50.0108 154.274 50.1422 154.353 50.3006C154.432 50.4557 154.473 50.636 154.476 50.8416V51.4584H153.269C152.923 51.4618 152.593 51.4955 152.278 51.5595C151.963 51.6202 151.687 51.7179 151.451 51.8527C151.211 51.9943 151.019 52.1746 150.875 52.3937C150.735 52.6128 150.665 52.879 150.665 53.1925C150.665 53.4284 150.713 53.6425 150.808 53.8346C150.904 54.0233 151.035 54.1851 151.199 54.3199C151.363 54.4547 151.558 54.5592 151.785 54.6334C152.011 54.7075 152.252 54.7446 152.509 54.7446C152.714 54.7446 152.911 54.7227 153.1 54.6789C153.291 54.6384 153.473 54.5778 153.644 54.4969C153.812 54.4194 153.966 54.325 154.107 54.2138C154.25 54.0992 154.375 53.9728 154.482 53.8346C154.488 53.9761 154.5 54.116 154.518 54.2542C154.538 54.3924 154.567 54.5221 154.605 54.6435ZM152.576 54.2036C152.398 54.2036 152.228 54.18 152.067 54.1329C151.91 54.0823 151.773 54.0098 151.656 53.9155C151.54 53.8245 151.447 53.7132 151.379 53.5818C151.31 53.4503 151.276 53.302 151.276 53.1369C151.276 52.9347 151.32 52.7628 151.41 52.6212C151.502 52.4763 151.627 52.3549 151.785 52.2572C151.98 52.1359 152.214 52.0516 152.488 52.0044C152.762 51.9572 153.052 51.9319 153.357 51.9286H154.476V53.1318C154.398 53.2936 154.295 53.4402 154.168 53.5717C154.041 53.7031 153.896 53.816 153.732 53.9104C153.567 54.0048 153.387 54.0789 153.192 54.1329C152.997 54.1834 152.791 54.207 152.576 54.2036Z" fill="#3D405B"/>
<path d="M157.102 54.6435H157.718V50.9073C157.776 50.7321 157.858 50.5669 157.965 50.4119C158.071 50.2534 158.196 50.117 158.34 50.0024C158.494 49.881 158.665 49.785 158.853 49.7142C159.042 49.64 159.242 49.603 159.454 49.603C159.697 49.5996 159.906 49.6316 160.081 49.699C160.259 49.7664 160.408 49.8659 160.528 49.9973C160.644 50.1287 160.73 50.2905 160.785 50.4826C160.843 50.6748 160.874 50.8955 160.877 51.1449V54.6435H161.489V51.1348C161.489 50.8079 161.448 50.5163 161.365 50.2602C161.283 50.004 161.162 49.7866 161.001 49.608C160.843 49.4327 160.646 49.2996 160.41 49.2086C160.177 49.1176 159.908 49.0721 159.603 49.0721C159.374 49.0721 159.156 49.1058 158.951 49.1732C158.749 49.2406 158.564 49.3316 158.396 49.4462C158.252 49.544 158.122 49.6603 158.006 49.7951C157.889 49.9299 157.788 50.0765 157.703 50.2349L157.667 49.1732H157.102V54.6435Z" fill="#3D405B"/>
<path d="M165.47 47.7728H164.848V49.1732H163.302V49.6737H164.848V53.1015C164.852 53.4015 164.896 53.6559 164.982 53.8649C165.071 54.0739 165.193 54.2424 165.347 54.3705C165.501 54.5019 165.682 54.5963 165.891 54.6536C166.104 54.7143 166.333 54.7446 166.58 54.7446C166.699 54.7446 166.819 54.7412 166.939 54.7345C167.062 54.7277 167.181 54.7143 167.294 54.694C167.383 54.6806 167.467 54.6637 167.545 54.6435C167.628 54.6233 167.699 54.598 167.761 54.5676L167.669 54.1076C167.617 54.1177 167.556 54.1295 167.484 54.143C167.415 54.1531 167.345 54.1632 167.273 54.1733C167.177 54.1834 167.08 54.1935 166.98 54.2036C166.881 54.2104 166.782 54.2138 166.682 54.2138C166.515 54.2138 166.357 54.1952 166.21 54.1581C166.062 54.1211 165.934 54.0587 165.824 53.9711C165.715 53.8868 165.629 53.7739 165.568 53.6323C165.506 53.4908 165.473 53.3138 165.47 53.1015V49.6737H167.53V49.1732H165.47V47.7728Z" fill="#3D405B"/>
</svg>
