<svg width="119" height="28" viewBox="0 0 119 28" fill="none" xmlns="http://www.w3.org/2000/svg">
<path d="M8.37687 23.024C8.10673 23.024 7.97167 22.8785 7.97167 22.5876C7.97167 22.3383 8.12751 21.9019 8.43921 21.2785C8.73013 20.7174 9.21845 19.9901 9.90418 19.0966C10.5899 18.1823 11.4523 17.1122 12.4913 15.8861C12.9069 14.9718 13.2913 14.0367 13.6445 13.0809C13.9978 12.125 14.3199 11.138 14.6108 10.1198C15.0056 8.72752 15.2965 7.60542 15.4835 6.75345C15.6913 5.8807 15.7952 5.14302 15.7952 4.54041C15.7952 3.33518 15.3381 2.73257 14.4238 2.73257C12.8653 2.73257 11.2549 3.29362 9.59249 4.41573C8.51194 5.1638 7.49373 6.03655 6.53786 7.03397C5.582 8.0314 4.74042 9.07039 4.01312 10.1509C3.30661 11.2107 2.76634 12.2289 2.3923 13.2056C2.18451 13.6835 2.08061 14.1095 2.08061 14.4835C2.08061 15.1485 2.44425 15.4809 3.17155 15.4809C3.54558 15.4809 4.08585 15.3563 4.79237 15.1069C5.4781 14.8575 6.20539 14.5043 6.97424 14.0471C7.74309 13.59 8.50155 13.0705 9.24962 12.4887C9.99769 11.9068 10.6626 11.3146 11.2445 10.712C11.5354 10.4211 11.7744 10.2756 11.9614 10.2756C12.0653 10.2756 12.1172 10.3276 12.1172 10.4315C12.1172 10.5561 12.0237 10.712 11.8367 10.899C11.1717 11.564 10.3821 12.2497 9.46781 12.9562C8.5535 13.6419 7.6288 14.2653 6.69371 14.8264C5.75862 15.3874 4.88587 15.8238 4.07546 16.1355C3.41051 16.4056 2.78712 16.5407 2.20529 16.5407C1.24942 16.5407 0.771484 16.0836 0.771484 15.1692C0.771484 14.5874 0.937722 13.8913 1.2702 13.0809C1.87281 11.6055 2.93258 9.96392 4.4495 8.15608C5.48849 6.95086 6.6002 5.85992 7.78465 4.88327C8.98987 3.88584 10.2055 3.09621 11.4315 2.51438C12.6575 1.93255 13.8108 1.64163 14.8913 1.64163C16.4082 1.64163 17.1667 2.55594 17.1667 4.38456C17.1667 5.07029 17.0732 5.83914 16.8862 6.69111C16.6992 7.54308 16.4394 8.51973 16.1069 9.62105C16.0654 9.74573 16.0238 9.8808 15.9823 10.0263C15.9407 10.1509 15.8991 10.286 15.8576 10.4315C15.7537 10.8263 15.629 11.2523 15.4835 11.7094C15.3381 12.1458 15.1615 12.6237 14.9537 13.1432C15.4108 12.6653 15.868 12.2185 16.3251 11.8029C16.8031 11.3666 17.281 10.951 17.7589 10.5561C18.0914 10.286 18.4758 9.9847 18.9122 9.65222C19.3486 9.29897 19.8473 8.91454 20.4083 8.49895C21.198 7.89633 21.8733 7.59503 22.4344 7.59503C22.6837 7.59503 22.8707 7.66776 22.9954 7.81321C23.1409 7.93789 23.1617 8.07296 23.0578 8.21842L22.2474 9.55871C21.8525 10.2237 21.5304 10.7639 21.2811 11.1795C21.0317 11.5951 20.8655 11.886 20.7824 12.0523C20.4499 12.6341 20.0966 13.2991 19.7226 14.0471C19.3486 14.7744 19.0265 15.4706 18.7564 16.1355C18.507 16.8005 18.3823 17.3407 18.3823 17.7563C18.3823 18.2135 18.5693 18.4421 18.9434 18.4421C19.2758 18.4421 19.7434 18.2446 20.346 17.8498C20.9486 17.4342 21.5304 16.9667 22.0915 16.4472C23.6084 15.055 24.9175 13.6835 26.0189 12.3328C27.141 10.9613 28.1176 9.39248 28.9488 7.6262C29.3436 6.81579 29.541 6.09889 29.541 5.47549C29.541 4.51963 29.0008 4.0313 27.9202 4.01052C27.6501 4.01052 27.515 3.94818 27.515 3.8235C27.515 3.74039 27.567 3.64688 27.6709 3.54298C27.9618 3.25206 28.3358 3.1066 28.793 3.1066C29.3125 3.1066 29.7488 3.28323 30.1021 3.63649C30.4554 3.96896 30.632 4.45729 30.632 5.10146C30.632 5.78719 30.393 6.65994 29.9151 7.71971C29.5826 8.40544 29.2397 9.04961 28.8865 9.65222C28.554 10.2548 28.2007 10.8159 27.8267 11.3354C27.328 12.0211 26.8397 12.6445 26.3617 13.2056C25.9046 13.7458 25.3851 14.3069 24.8033 14.8887C24.2214 15.4706 23.4941 16.1771 22.6214 17.0083C22.2266 17.3823 21.7694 17.7459 21.2499 18.0992C20.7512 18.4524 20.2525 18.7434 19.7538 18.9719C19.2551 19.1797 18.8187 19.2836 18.4447 19.2836C17.7381 19.2836 17.3849 18.868 17.3849 18.0368C17.3849 17.5797 17.5096 16.9771 17.7589 16.229C17.8628 15.8758 18.0083 15.4809 18.1953 15.0446C18.3823 14.6082 18.5901 14.1303 18.8187 13.6108C18.9642 13.3198 19.1408 12.9666 19.3486 12.551C19.5564 12.1146 19.7953 11.6367 20.0655 11.1172C20.0655 11.1172 20.2005 10.8678 20.4707 10.3691C20.72 9.89119 20.8447 9.54832 20.8447 9.34053C20.8447 9.23663 20.8135 9.18468 20.7512 9.18468C20.6889 9.18468 20.5642 9.24702 20.3772 9.3717C19.2343 10.1821 18.268 10.9094 17.4784 11.5536C16.6888 12.1977 15.9407 12.8939 15.2342 13.6419C14.9433 13.9744 14.642 14.3381 14.3303 14.7329C14.0186 15.1277 13.6965 15.5537 13.364 16.0108C12.6783 17.5901 12.0029 18.9615 11.338 20.1252C10.673 21.3097 10.1016 22.0889 9.62366 22.4629C9.12494 22.837 8.70935 23.024 8.37687 23.024Z" fill="#3C3F59"/>
<path d="M30.2336 12.3951C29.9635 12.3951 29.8284 12.3328 29.8284 12.2081C29.8284 12.1042 29.9011 11.9588 30.0466 11.7718C30.2128 11.564 30.3998 11.3873 30.6076 11.2419C31.0648 10.951 31.418 10.7016 31.6674 10.4938C31.9375 10.286 32.2596 9.93275 32.6337 9.43404C32.6544 9.4756 32.6648 9.55871 32.6648 9.68339C32.6648 9.95353 32.5505 10.286 32.322 10.6808C32.1142 11.0549 31.8752 11.3977 31.6051 11.7094C31.3349 12.0211 31.096 12.2185 30.8882 12.3016C30.7011 12.364 30.4829 12.3951 30.2336 12.3951ZM27.4595 20.0317C27.2933 20.0317 27.1374 19.9694 26.992 19.8447C26.8465 19.72 26.7738 19.5538 26.7738 19.346C26.7738 18.9096 27.0751 18.1096 27.6777 16.9459L28.0205 16.2602C28.0621 16.2186 28.1141 16.1147 28.1764 15.9485C28.2595 15.7822 28.3738 15.5641 28.5193 15.2939C28.6647 15.003 28.779 14.7433 28.8621 14.5147C28.9452 14.2861 29.0076 14.0679 29.0491 13.8601C29.0491 13.8393 29.0907 13.7978 29.1738 13.7354C29.2569 13.6731 29.3401 13.6212 29.4232 13.5796L29.6102 13.5484C29.7764 13.5484 29.9115 13.5796 30.0154 13.6419C30.1401 13.7043 30.1816 13.7874 30.1401 13.8913C29.9946 14.203 29.8699 14.4731 29.766 14.7017C29.6621 14.9303 29.579 15.1277 29.5167 15.2939H29.4855C29.2569 15.8134 29.0595 16.3121 28.8933 16.7901C28.7478 17.2472 28.6855 17.6836 28.7063 18.0992L28.7374 18.9408C28.7167 19.1486 28.6439 19.3252 28.5193 19.4707C28.4361 19.533 28.3219 19.6057 28.1764 19.6888C28.0309 19.7927 27.8439 19.8966 27.6153 20.0005C27.5946 20.0213 27.5426 20.0317 27.4595 20.0317Z" fill="#3C3F59"/>
<path d="M30.5258 21.2785C30.2972 21.2785 30.0998 21.2058 29.9336 21.0603C29.7881 20.9148 29.7258 20.7382 29.7466 20.5304C29.7881 19.6785 29.944 18.8577 30.2141 18.068C30.505 17.2784 30.9206 16.3329 31.4609 15.2316C31.5232 15.0861 31.5752 14.9614 31.6167 14.8575C31.6791 14.7329 31.731 14.629 31.7726 14.5459C32.2297 13.5692 32.6973 12.6341 33.1752 11.7406C33.6532 10.8471 34.1311 9.97431 34.609 9.12234L35.0454 8.3431C35.5441 7.44957 35.9805 6.73267 36.3545 6.1924C36.7286 5.63134 37.1026 5.22614 37.4766 4.97678C37.9546 4.68586 38.2455 4.54041 38.3494 4.54041C38.5156 4.54041 38.6819 4.68586 38.8481 4.97678C38.952 5.18458 38.7442 5.69368 38.2247 6.50409C37.9546 6.91969 37.6117 7.43918 37.1961 8.06257C36.8013 8.68596 36.3234 9.39248 35.7623 10.1821C35.6584 10.3276 35.4818 10.5873 35.2324 10.9613C35.0038 11.3146 34.6921 11.7821 34.2973 12.364C33.9025 12.9458 33.5597 13.4757 33.2687 13.9536C32.9778 14.4108 32.7388 14.816 32.5518 15.1692C32.1778 15.855 31.8245 16.5927 31.4921 17.3823C31.1596 18.1511 30.9933 18.7538 30.9933 19.1901C30.9933 19.5849 31.1492 19.7824 31.4609 19.7824C31.9596 19.7824 32.7596 19.3564 33.861 18.5044C33.9856 18.5252 34.048 18.5875 34.048 18.6914C34.048 18.7745 33.9441 18.92 33.7363 19.1278C33.5493 19.3148 33.3103 19.5122 33.0194 19.72C32.7492 19.9486 32.4272 20.2083 32.0531 20.4993L31.5544 20.8733C31.2219 21.1434 30.8791 21.2785 30.5258 21.2785Z" fill="#3C3F59"/>
<path d="M35.3352 21.2785C35.1066 21.2785 34.9092 21.2058 34.743 21.0603C34.5975 20.9148 34.5352 20.7382 34.5559 20.5304C34.5975 19.6785 34.7533 18.8577 35.0235 18.068C35.3144 17.2784 35.73 16.3329 36.2703 15.2316C36.3326 15.0861 36.3846 14.9614 36.4261 14.8575C36.4885 14.7329 36.5404 14.629 36.582 14.5459C37.0391 13.5692 37.5067 12.6341 37.9846 11.7406C38.4625 10.8471 38.9405 9.97431 39.4184 9.12234L39.8548 8.3431C40.3535 7.44957 40.7899 6.73267 41.1639 6.1924C41.5379 5.63134 41.912 5.22614 42.286 4.97678C42.7639 4.68586 43.0549 4.54041 43.1588 4.54041C43.325 4.54041 43.4912 4.68586 43.6575 4.97678C43.7614 5.18458 43.5536 5.69368 43.0341 6.50409C42.7639 6.91969 42.4211 7.43918 42.0055 8.06257C41.6107 8.68596 41.1327 9.39248 40.5717 10.1821C40.4678 10.3276 40.2911 10.5873 40.0418 10.9613C39.8132 11.3146 39.5015 11.7821 39.1067 12.364C38.7119 12.9458 38.369 13.4757 38.0781 13.9536C37.7872 14.4108 37.5482 14.816 37.3612 15.1692C36.9872 15.855 36.6339 16.5927 36.3014 17.3823C35.969 18.1511 35.8027 18.7538 35.8027 19.1901C35.8027 19.5849 35.9586 19.7824 36.2703 19.7824C36.769 19.7824 37.569 19.3564 38.6703 18.5044C38.795 18.5252 38.8573 18.5875 38.8573 18.6914C38.8573 18.7745 38.7534 18.92 38.5457 19.1278C38.3586 19.3148 38.1197 19.5122 37.8288 19.72C37.5586 19.9486 37.2365 20.2083 36.8625 20.4993L36.3638 20.8733C36.0313 21.1434 35.6884 21.2785 35.3352 21.2785Z" fill="#3C3F59"/>
<path d="M41.0796 19.7512C40.2692 19.7512 39.864 19.3875 39.864 18.6602C39.864 18.6187 39.864 18.546 39.864 18.4421C39.8848 18.3382 39.9056 18.2135 39.9264 18.068C40.1342 17.2161 40.5498 16.3953 41.1731 15.6056C41.8173 14.7952 42.555 14.0887 43.3862 13.4861C43.6979 13.2367 44.1966 13.1121 44.8823 13.1121C45.2771 13.1121 45.62 13.1744 45.9109 13.2991C46.2226 13.403 46.4408 13.5692 46.5655 13.7978C46.6902 14.0056 46.7525 14.2445 46.7525 14.5147C46.7525 14.5562 46.7421 14.6186 46.7213 14.7017C46.7213 14.7848 46.711 14.8783 46.6902 14.9822C46.7317 14.9614 46.7941 14.9511 46.8772 14.9511C46.9811 14.9511 47.1058 14.9407 47.2512 14.9199C47.3967 14.8991 47.5318 14.8783 47.6564 14.8575C47.8019 14.8368 47.9473 14.8264 48.0928 14.8264H48.2175C48.4461 14.8264 48.4668 14.9199 48.2798 15.1069C48.1136 15.2731 47.885 15.377 47.5941 15.4186L46.5343 15.5433C46.3265 16.1251 45.9629 16.7069 45.4434 17.2888C44.9447 17.8706 44.3836 18.3797 43.7602 18.8161C43.1576 19.2317 42.5862 19.5018 42.0459 19.6265C41.7342 19.7096 41.4121 19.7512 41.0796 19.7512ZM45.0694 15.1069C45.194 15.1069 45.3395 15.1069 45.5057 15.1069C45.6927 15.0861 45.9005 15.0653 46.1291 15.0446C46.1499 15.003 46.1603 14.9095 46.1603 14.764C46.1603 14.39 46.0044 14.1303 45.6927 13.9848C45.5265 13.8809 45.3187 13.829 45.0694 13.829C44.7577 13.829 44.4356 13.9329 44.1031 14.1406C43.7914 14.3277 43.4589 14.577 43.1057 14.8887C43.542 15.0342 44.1966 15.1069 45.0694 15.1069ZM42.0147 18.6602C42.2225 18.6602 42.5134 18.5667 42.8875 18.3797C43.2823 18.1719 43.6875 17.9018 44.1031 17.5693C44.5187 17.2368 44.8927 16.8836 45.2252 16.5095C45.3291 16.4056 45.433 16.281 45.5369 16.1355C45.6408 15.9693 45.7551 15.803 45.8798 15.6368L45.1317 15.7303C43.968 15.8965 42.929 15.99 42.0147 16.0108C41.5576 16.7589 41.2771 17.3823 41.1731 17.881C41.1524 18.1511 41.2251 18.3485 41.3913 18.4732C41.5576 18.5979 41.7654 18.6602 42.0147 18.6602Z" fill="#3C3F59"/>
<path d="M53.9006 20.0317C53.4642 19.9694 53.1629 19.8135 52.9967 19.5642C52.8512 19.3356 52.7785 19.0135 52.7785 18.5979C52.7785 18.494 52.7889 18.3278 52.8096 18.0992C52.8512 17.8706 52.8928 17.5901 52.9343 17.2576V17.0083C52.9343 16.7173 52.8824 16.5511 52.7785 16.5095C52.7577 16.4888 52.7057 16.4784 52.6226 16.4784C52.4772 16.4784 52.207 16.6134 51.8122 16.8836C51.7914 16.9044 51.6772 17.0083 51.4694 17.1953C51.2616 17.3615 50.9602 17.6109 50.5654 17.9433C49.4225 18.9615 48.6433 19.4187 48.2277 19.3148C47.7913 19.2109 47.5732 18.92 47.5732 18.4421C47.5732 17.9849 47.7394 17.4342 48.0719 16.7901C48.342 16.2082 48.6745 15.6472 49.0693 15.1069C49.4641 14.5459 49.7758 14.1822 50.0044 14.016C50.1706 13.9121 50.3057 13.8601 50.4096 13.8601C50.5135 13.8601 50.607 13.9017 50.6901 13.9848C50.7317 14.0264 50.7525 14.0887 50.7525 14.1718C50.7525 14.2549 50.7005 14.3484 50.5966 14.4523C50.3888 14.6601 50.1914 14.9822 50.0044 15.4186C49.8174 15.8342 49.7239 16.2082 49.7239 16.5407C49.7239 16.5823 49.7239 16.6342 49.7239 16.6966C49.7446 16.7589 49.7654 16.8316 49.7862 16.9147C49.8901 16.9771 50.0044 17.0083 50.1291 17.0083C50.3784 17.0083 50.7213 16.8836 51.1577 16.6342C51.3239 16.5303 51.5525 16.3849 51.8434 16.1978C52.1343 15.99 52.4876 15.7303 52.9032 15.4186C53.0694 15.2939 53.2564 15.2316 53.4642 15.2316C53.6928 15.2316 53.8798 15.3147 54.0253 15.4809C54.1915 15.6264 54.2746 15.8342 54.2746 16.1043C54.2746 16.1459 54.2642 16.2082 54.2435 16.2914C54.2435 16.3537 54.2331 16.4368 54.2123 16.5407C54.1707 16.7069 54.1292 16.8628 54.0876 17.0083C54.046 17.1537 54.0149 17.2992 53.9941 17.4446C53.9733 17.5277 53.9629 17.642 53.9629 17.7875C53.9629 17.9122 53.9629 18.0576 53.9629 18.2239C53.9629 18.681 54.2019 18.9096 54.6798 18.9096C54.8876 18.9096 55.0954 18.8784 55.3032 18.8161C55.5318 18.733 55.698 18.6395 55.8019 18.5356C56.7994 17.6628 57.776 16.5303 58.7319 15.1381L58.7007 14.764C58.6799 14.5562 58.7215 14.3588 58.8254 14.1718C58.9293 13.964 59.0644 13.7562 59.2306 13.5484C59.2929 13.4653 59.376 13.4237 59.4799 13.4237C59.5838 13.4237 59.6774 13.4757 59.7605 13.5796C59.8644 13.6627 59.9163 13.777 59.9163 13.9225C59.9163 14.0264 59.8852 14.1406 59.8228 14.2653C59.6981 14.4939 59.5007 14.8264 59.2306 15.2628C58.9605 15.6783 58.6488 16.1355 58.2955 16.6342C57.9422 17.1329 57.589 17.6005 57.2357 18.0368C56.8825 18.4732 56.5604 18.8161 56.2695 19.0654V19.0966C55.9162 19.4083 55.511 19.6473 55.0539 19.8135C54.5967 20.0005 54.2123 20.0733 53.9006 20.0317Z" fill="#3C3F59"/>
<path d="M68.7848 10.4315C68.577 10.4315 68.3484 10.3795 68.0991 10.2756C67.5172 10.1094 66.925 9.75612 66.3224 9.21585C65.6782 8.6548 65.1276 7.98984 64.6704 7.22099C64.2133 6.43136 63.9431 5.66251 63.86 4.91444C63.8392 4.83132 63.8288 4.72742 63.8288 4.60274C63.8288 4.47807 63.8288 4.33261 63.8288 4.16637C63.8288 1.465 65.4912 0.114319 68.816 0.114319C70.4991 0.114319 72.3485 0.384456 74.3642 0.92473C76.4006 1.465 78.7383 2.1819 81.3773 3.07543C81.8553 3.24167 82.2916 3.39752 82.6865 3.54298C83.1021 3.66766 83.4761 3.78194 83.8086 3.88584C84.619 4.11442 85.3255 4.22871 85.9281 4.22871C86.6138 4.22871 87.1021 4.09364 87.3931 3.8235C87.7048 3.55337 87.8606 3.25206 87.8606 2.91959V2.79491C87.8606 2.54555 87.9333 2.42087 88.0788 2.42087C88.245 2.42087 88.4217 2.54555 88.6087 2.79491C88.6502 2.83647 88.671 2.91958 88.671 3.04426C88.671 3.5222 88.3905 3.96896 87.8294 4.38456C87.2684 4.80015 86.5723 5.00795 85.7411 5.00795C85.6164 5.00795 85.5021 5.00795 85.3982 5.00795C85.3151 5.00795 85.232 4.99756 85.1488 4.97678C84.3384 4.87288 83.4449 4.68586 82.4683 4.41573C81.5124 4.12481 80.328 3.74038 78.9149 3.26245C76.9409 2.5975 75.2993 2.08839 73.9901 1.73514C72.681 1.38188 71.4654 1.20526 70.3433 1.20526C69.1173 1.20526 68.0783 1.47539 67.2263 2.01567C66.3951 2.55594 65.7821 3.43908 65.3873 4.66508C65.325 4.8521 65.2938 5.0599 65.2938 5.28848C65.2938 5.68329 65.3873 6.13006 65.5743 6.62877C65.7614 7.1067 66.0107 7.57425 66.3224 8.0314C66.6341 8.48856 66.9666 8.88337 67.3198 9.21585C67.6731 9.52754 68.0056 9.71456 68.3173 9.7769C68.816 9.8808 69.0653 10.047 69.0653 10.2756C69.0653 10.3795 68.9718 10.4315 68.7848 10.4315ZM69.377 21.372C68.8991 21.372 68.6809 21.0603 68.7225 20.4369C68.8887 19.1278 69.3043 17.7252 69.9692 16.229C70.3017 15.4602 70.7797 14.4731 71.4031 13.2679C72.0472 12.0419 72.8369 10.6081 73.7719 8.96649C74.4161 7.80282 74.9356 6.89891 75.3304 6.25473C75.746 5.61056 76.1824 5.13263 76.6395 4.82093C77.0344 4.5508 77.4084 4.41573 77.7617 4.41573C78.0941 4.41573 78.1773 4.5508 78.011 4.82093C77.6785 5.27809 77.2733 5.85992 76.7954 6.56643C76.3382 7.25216 75.8084 8.06257 75.2057 8.99766C74.4161 10.2444 73.6473 11.512 72.8992 12.8004C72.1511 14.0887 71.5173 15.2731 70.9978 16.3537C70.4784 17.4135 70.1355 18.2654 69.9692 18.9096C69.9069 19.159 69.8757 19.3668 69.8757 19.533C69.8757 19.8862 70.0212 20.0629 70.3121 20.0629C70.7693 20.0629 71.6005 19.5953 72.8057 18.6602C72.8472 18.6187 72.8992 18.5979 72.9615 18.5979C73.0446 18.5979 73.0862 18.6499 73.0862 18.7538C73.0862 18.8784 73.0446 18.9823 72.9615 19.0654C72.8784 19.1486 72.7745 19.2317 72.6498 19.3148C72.5252 19.4187 72.3797 19.533 72.2135 19.6577C72.0472 19.7616 71.9018 19.8551 71.7771 19.9382C71.6524 20.0213 71.5693 20.0837 71.5277 20.1252C71.2576 20.3122 71.029 20.4681 70.842 20.5928C70.655 20.7382 70.5095 20.8525 70.4056 20.9356C69.99 21.2265 69.6472 21.372 69.377 21.372Z" fill="#3C3F59"/>
<path d="M76.2736 19.8759C76.0034 19.8759 75.8683 19.6369 75.8683 19.159C75.8683 18.7641 75.9619 18.3797 76.1489 18.0057C76.6268 17.0914 77.0632 16.1875 77.458 15.2939C77.7281 14.7537 77.9775 14.2342 78.2061 13.7354C78.4554 13.2367 78.684 12.7796 78.8918 12.364C79.0165 12.2393 79.1412 12.177 79.2658 12.177C79.536 12.177 79.6191 12.3016 79.5152 12.551C79.4736 12.6965 79.4113 12.8731 79.3282 13.0809C79.2658 13.2679 79.1827 13.4965 79.0788 13.7666C78.7463 14.6394 78.5489 15.2524 78.4866 15.6056C79.0684 15.0861 79.6607 14.6082 80.2633 14.1718C80.8867 13.7147 81.4685 13.3406 82.0088 13.0497C82.549 12.7588 83.0062 12.6133 83.3802 12.6133C83.7127 12.6133 83.8789 12.7484 83.8789 13.0185C83.8789 13.2471 83.775 13.4965 83.5672 13.7666C83.3594 14.016 83.1516 14.1406 82.9438 14.1406C82.84 14.1406 82.7568 14.1095 82.6945 14.0471C82.6321 14.0264 82.5075 14.016 82.3205 14.016C81.6555 14.016 80.9594 14.3381 80.2321 14.9822C79.4632 15.6264 78.7671 16.4056 78.1437 17.32C77.5203 18.2135 77.0632 18.9927 76.7723 19.6577C76.6268 19.8031 76.4606 19.8759 76.2736 19.8759Z" fill="#3C3F59"/>
<path d="M84.1989 19.5642C83.7625 19.5642 83.3781 19.4499 83.0456 19.2213C82.5054 18.8057 82.2352 18.1823 82.2352 17.3511C82.2352 16.5199 82.5261 15.6368 83.108 14.7017C83.6898 13.7666 84.5729 12.9043 85.7574 12.1146C85.9652 11.9692 86.2457 11.8964 86.599 11.8964C87.0561 11.8964 87.4613 12.0211 87.8146 12.2705C88.1886 12.5198 88.3341 12.8419 88.251 13.2367C88.1055 13.8809 87.7834 14.4523 87.2847 14.9511C86.8068 15.4498 86.2353 15.8965 85.5704 16.2914C84.9262 16.6654 84.2612 17.029 83.5755 17.3823C83.5547 17.4446 83.534 17.507 83.5132 17.5693C83.5132 17.6316 83.5132 17.694 83.5132 17.7563C83.5132 18.0472 83.6067 18.307 83.7937 18.5356C84.0015 18.7434 84.282 18.8473 84.6353 18.8473C84.9054 18.8473 85.134 18.8057 85.321 18.7226C85.6535 18.5979 85.9236 18.4836 86.1314 18.3797C86.36 18.2758 86.6198 18.12 86.9107 17.9122C87.2016 17.7044 87.5964 17.3927 88.0951 16.9771C88.3237 16.8108 88.4588 16.7277 88.5003 16.7277C88.625 16.7277 88.6666 16.8212 88.625 17.0083C88.4172 17.3407 88.0536 17.7044 87.5341 18.0992C87.0353 18.494 86.4743 18.8369 85.8509 19.1278C85.2483 19.4187 84.6976 19.5642 84.1989 19.5642ZM83.7625 16.5407C83.9288 16.5407 84.2716 16.3745 84.7911 16.042C85.3106 15.7095 85.799 15.3459 86.2561 14.9511C87.0457 14.2238 87.4406 13.6627 87.4406 13.2679C87.4406 13.164 87.4094 13.0705 87.347 12.9874C87.2847 12.8835 87.1912 12.8315 87.0665 12.8315C86.6717 12.8315 86.0067 13.2991 85.0717 14.2342C84.4275 14.8575 83.9911 15.6264 83.7625 16.5407Z" fill="#3C3F59"/>
<path d="M90.378 19.5642C89.9417 19.5642 89.5572 19.4499 89.2248 19.2213C88.6845 18.8057 88.4144 18.1823 88.4144 17.3511C88.4144 16.5199 88.7053 15.6368 89.2871 14.7017C89.8689 13.7666 90.7521 12.9043 91.9365 12.1146C92.1443 11.9692 92.4249 11.8964 92.7781 11.8964C93.2353 11.8964 93.6405 12.0211 93.9937 12.2705C94.3678 12.5198 94.5132 12.8419 94.4301 13.2367C94.2846 13.8809 93.9626 14.4523 93.4638 14.9511C92.9859 15.4498 92.4145 15.8965 91.7495 16.2914C91.1053 16.6654 90.4404 17.029 89.7546 17.3823C89.7339 17.4446 89.7131 17.507 89.6923 17.5693C89.6923 17.6316 89.6923 17.694 89.6923 17.7563C89.6923 18.0472 89.7858 18.307 89.9728 18.5356C90.1806 18.7434 90.4612 18.8473 90.8144 18.8473C91.0846 18.8473 91.3131 18.8057 91.5002 18.7226C91.8326 18.5979 92.1028 18.4836 92.3106 18.3797C92.5391 18.2758 92.7989 18.12 93.0898 17.9122C93.3807 17.7044 93.7755 17.3927 94.2742 16.9771C94.5028 16.8108 94.6379 16.7277 94.6794 16.7277C94.8041 16.7277 94.8457 16.8212 94.8041 17.0083C94.5963 17.3407 94.2327 17.7044 93.7132 18.0992C93.2145 18.494 92.6534 18.8369 92.03 19.1278C91.4274 19.4187 90.8768 19.5642 90.378 19.5642ZM89.9417 16.5407C90.1079 16.5407 90.4508 16.3745 90.9703 16.042C91.4898 15.7095 91.9781 15.3459 92.4352 14.9511C93.2249 14.2238 93.6197 13.6627 93.6197 13.2679C93.6197 13.164 93.5885 13.0705 93.5262 12.9874C93.4638 12.8835 93.3703 12.8315 93.2457 12.8315C92.8508 12.8315 92.1859 13.2991 91.2508 14.2342C90.6066 14.8575 90.1702 15.6264 89.9417 16.5407Z" fill="#3C3F59"/>
<path fill-rule="evenodd" clip-rule="evenodd" d="M94.5762 16.4609C94.6827 16.1759 94.8296 15.8585 94.9025 15.7555C94.9755 15.6524 95.0725 15.4299 95.118 15.2609C95.1635 15.092 95.3091 14.6831 95.4416 14.3522C95.7084 13.6858 95.8493 12.9708 95.9031 12.0094C95.9337 11.4635 95.9665 11.3152 96.1475 10.9025C96.2625 10.6405 96.3681 10.3438 96.3822 10.2434C96.4254 9.93629 97.0844 9.04742 97.5382 8.68441C97.7669 8.50139 98.0094 8.35944 98.0771 8.36895C98.1918 8.38506 98.1917 8.39328 98.0758 8.49015C98.0074 8.54729 97.9031 8.69068 97.8441 8.80871C97.785 8.92675 97.6168 9.13586 97.4703 9.27338C97.2278 9.50095 97.2042 9.54999 97.2066 9.81926C97.2081 9.98198 97.2931 10.3612 97.3956 10.6619C97.5223 11.0335 97.5699 11.295 97.5444 11.4782C97.498 11.8111 97.03 12.5571 96.6185 12.9543C96.0641 13.4894 95.9771 13.6109 95.7287 14.1972C95.5919 14.52 95.4879 14.7945 95.4975 14.8073C95.5396 14.8633 96.063 14.2338 97.0004 12.9996C99.1714 10.141 99.2054 10.0776 99.2593 8.78329C99.2787 8.31559 99.3143 7.91811 99.3384 7.89995C99.599 7.70329 99.918 8.95482 99.87 9.98537C99.846 10.4995 99.6792 10.8562 99.2586 11.2937C99.1105 11.4477 99.0109 11.5766 99.0371 11.5803C99.0633 11.584 99.3481 11.4748 99.6697 11.3378C99.9914 11.2008 100.468 11.0373 100.73 10.9747C100.991 10.9119 101.242 10.8395 101.288 10.8136C101.405 10.7474 101.63 10.0358 101.659 9.64122C101.695 9.13637 101.841 8.7324 102.251 8.00164C102.548 7.47257 102.726 7.24177 103.112 6.88538C103.785 6.26545 103.994 6.01982 104.214 5.59136C104.319 5.3882 104.444 5.21465 104.492 5.20563C104.559 5.19344 104.545 5.24935 104.44 5.42712C104.354 5.5702 104.302 5.74887 104.307 5.87579C104.314 6.02895 104.288 6.09335 104.212 6.11105C104.154 6.12439 104.101 6.17402 104.094 6.22124C104.072 6.37753 103.506 7.17808 103.091 7.63978C102.866 7.88976 102.671 8.12711 102.659 8.16728C102.646 8.20745 102.541 8.34733 102.425 8.47811C102.109 8.83216 101.938 9.21038 101.871 9.69625L101.812 10.1309L102.055 9.73034C102.189 9.51001 102.539 9.0542 102.834 8.71737C103.428 8.03947 103.779 7.53448 103.796 7.33322L103.808 7.20107L103.757 7.32768C103.632 7.63697 102.799 8.32031 102.702 8.19212C102.685 8.16834 102.762 8.11179 102.874 8.06632C103.169 7.94712 103.662 7.40058 103.696 7.15378C103.712 7.04215 103.819 6.81561 103.934 6.65033C104.049 6.48505 104.149 6.30455 104.157 6.2492C104.165 6.19391 104.203 6.15308 104.241 6.15848C104.28 6.16395 104.286 6.22119 104.254 6.28756C104.223 6.35316 104.147 6.5607 104.085 6.74867C103.742 7.79552 103.702 7.86633 102.97 8.69814C102.462 9.276 101.882 10.1407 101.778 10.4744C101.71 10.6954 101.714 10.7044 101.871 10.678C101.962 10.6627 102.356 10.6218 102.746 10.5871C103.137 10.5523 103.497 10.516 103.546 10.5064C103.611 10.4937 103.587 10.3644 103.461 10.0392C103.366 9.79195 103.299 9.50754 103.313 9.40726C103.341 9.20624 103.877 8.37115 104.045 8.26777C104.115 8.22412 104.169 8.06977 104.207 7.80083C104.353 6.77883 104.86 5.99343 105.903 5.17229C106.516 4.68961 106.621 4.57809 106.709 4.31656C106.851 3.89307 107.129 3.60301 107.472 3.52102C107.813 3.43922 107.823 3.46907 107.517 3.66088C107.132 3.90243 106.9 4.33387 106.805 4.98046C106.705 5.66971 106.464 6.4197 106.233 6.76569C106.079 6.99692 106.072 7.02407 106.176 6.99815C106.432 6.93456 107.326 6.93085 107.775 6.99159C108.193 7.04825 108.303 7.03499 108.726 6.87717C108.989 6.77895 109.285 6.65947 109.383 6.61166C109.606 6.50334 109.946 6.48256 110.052 6.57068C110.108 6.61689 110.063 6.64211 109.904 6.6535C109.778 6.66248 109.636 6.69352 109.588 6.72244C109.539 6.75129 109.467 6.74815 109.428 6.71539C109.384 6.67902 109.37 6.68592 109.39 6.73311C109.409 6.77566 109.392 6.82475 109.352 6.84219C109.313 6.85957 109.242 6.92555 109.196 6.98882C109.118 7.09644 109.127 7.10085 109.337 7.05775C109.607 7.00216 110.609 7.13113 111.338 7.31562C111.923 7.46344 112.039 7.57399 111.539 7.50779C111.145 7.45547 110.66 7.56262 110.16 7.81256C109.761 8.01196 109.024 8.16803 108.698 8.12218C108.558 8.10247 108.479 8.13964 108.387 8.26915C108.049 8.74724 107.147 9.19609 106.179 9.36883C105.68 9.45777 104.969 9.79597 104.33 10.2479C104.106 10.4066 103.964 10.5223 104.015 10.505C104.229 10.4317 105.859 10.4662 106.515 10.5581C107.213 10.6557 107.242 10.6537 107.98 10.457C108.395 10.3467 109.158 10.0772 109.677 9.85806C111.14 9.23988 112.127 9.06059 113.26 9.20736C113.821 9.28003 114.733 9.58062 114.791 9.71176C114.804 9.74111 114.584 9.74923 114.304 9.72976C113.652 9.68458 113.377 9.74167 112.533 10.0975C111.332 10.6041 110.458 10.7543 108.769 10.745C108.439 10.7432 108.145 10.7568 108.117 10.7752C108.036 10.8276 109.175 10.935 109.514 10.9071C109.682 10.8933 110.356 10.7905 111.014 10.6785C113.8 10.2037 115.373 10.3004 116.382 11.0085C116.515 11.1016 116.62 11.1994 116.617 11.2257C116.613 11.252 116.278 11.227 115.873 11.1701C115.311 11.0912 115.038 11.0846 114.725 11.1424L114.313 11.2183L114.737 11.2917C115.448 11.4149 116.339 11.6771 117.295 12.0452C117.797 12.2381 118.216 12.4088 118.228 12.4246C118.24 12.4403 117.944 12.4297 117.571 12.401C117.198 12.3722 116.546 12.3571 116.122 12.3673C114.866 12.3978 113.807 12.3362 112.901 12.1799L112.05 12.033L112.364 12.2165C112.537 12.3173 112.863 12.5513 113.09 12.7363C113.317 12.9213 113.604 13.1223 113.729 13.1828C114.076 13.352 114.574 13.7136 114.483 13.7312C114.438 13.7398 114.253 13.679 114.072 13.5962C113.867 13.5025 113.489 13.4099 113.071 13.3512C112.47 13.2668 112.294 13.2101 111.41 12.8161C110.867 12.5737 110.184 12.2336 109.893 12.0603C109.601 11.887 109.175 11.6324 108.944 11.4945C108.298 11.1084 107.831 10.985 106.451 10.8359C105.782 10.7634 105.156 10.7232 105.061 10.7465C104.915 10.7825 104.943 10.797 105.251 10.8439C105.736 10.9176 106.992 11.2589 107.502 11.4555C108.026 11.6574 109.158 12.2515 109.699 12.6089C110.094 12.8695 110.151 12.8882 110.701 12.9388C111.336 12.9973 111.397 13.0515 110.893 13.1103C110.715 13.1311 110.224 13.2318 109.802 13.334C109.381 13.4362 108.887 13.5311 108.704 13.5447C108.522 13.5584 107.457 13.455 106.337 13.3148C105.218 13.1747 104.197 13.062 104.068 13.0645L103.834 13.069L104.011 13.1958C104.397 13.4731 106.38 14.488 106.699 14.5719C107.1 14.677 107.578 14.6629 109.009 14.504C109.934 14.4012 110.181 14.3998 111.06 14.4915C111.84 14.5731 112.193 14.6399 112.67 14.7971C113.006 14.9077 113.278 15.0208 113.274 15.0484C113.27 15.076 113.036 15.0831 112.754 15.0641C112.472 15.0452 112.102 15.0603 111.932 15.0975C111.761 15.1348 111.346 15.1978 111.01 15.2377C110.674 15.2774 110.458 15.3182 110.53 15.3283C110.703 15.3524 112.877 16.4206 112.871 16.4786C112.869 16.5034 112.791 16.5045 112.698 16.4813C112.605 16.4579 112.191 16.4672 111.777 16.5019C110.703 16.5919 109.724 16.4475 108.992 16.0911C108.703 15.9503 108.337 15.7161 108.179 15.5708C107.852 15.2705 107.836 15.2617 107.23 15.0469C106.933 14.9417 106.821 14.9198 106.893 14.9813C107.541 15.529 107.781 15.7915 108.247 16.4624C108.546 16.8917 108.879 17.4408 108.988 17.6826C109.096 17.9244 109.258 18.2335 109.347 18.3693C109.436 18.5052 109.493 18.6282 109.473 18.6427C109.454 18.6572 109.309 18.6034 109.15 18.5233C108.991 18.4432 108.821 18.372 108.773 18.3652C108.724 18.3584 108.457 18.1958 108.179 18.0038C107.622 17.6195 107.413 17.5643 106.671 17.6065L106.248 17.6306L106.395 17.9546C106.582 18.3675 106.57 18.4354 106.349 18.225C106.028 17.9212 105.456 17.6318 105.069 17.5774C104.265 17.4645 103.052 16.8727 102.482 16.315C102.203 16.0431 101.729 15.3609 101.177 14.4376C101.003 14.1455 100.839 13.8896 100.814 13.8689C100.789 13.8482 100.408 13.871 99.9669 13.9196C99.5257 13.9683 99.0055 14.0045 98.8109 14.0001C98.6163 13.9957 98.4678 14.0064 98.4809 14.0238C98.494 14.0411 98.642 14.1161 98.8099 14.1904C100.488 14.9327 101.05 15.2594 101.819 15.9421C102.084 16.1773 102.491 16.519 102.722 16.7013C102.975 16.9003 103.252 17.2003 103.415 17.4519C103.564 17.6824 103.66 17.8551 103.628 17.8357C103.596 17.8164 103.406 17.6835 103.206 17.5404C102.675 17.1613 102.348 17.0135 101.643 16.8329C100.943 16.6535 100.509 16.4546 99.8043 15.9896C99.42 15.736 99.2274 15.5414 98.8062 14.9808C98.1558 14.1152 98.0406 14.0303 97.405 13.9486C96.7666 13.8665 96.5805 13.9187 96.3803 14.236C96.292 14.3761 95.9973 14.7434 95.7254 15.0521C95.1845 15.6666 94.9072 16.1595 94.7534 16.7803C94.6984 17.0025 94.6286 17.1807 94.5984 17.1765C94.5086 17.1639 94.6839 16.5931 94.9528 16.0224C95.1222 15.6633 95.3409 15.3386 95.623 15.0275C96.0883 14.5144 96.4028 14.0905 96.3602 14.0339C96.3449 14.0135 96.2717 14.0824 96.1976 14.187C96.1235 14.2916 95.8809 14.5784 95.6585 14.8244C95.2015 15.3299 94.8886 15.874 94.6393 16.597C94.5455 16.8689 94.4429 17.0877 94.4112 17.0833C94.3431 17.0737 94.3334 17.1104 94.5762 16.4609ZM95.9396 12.9174C95.9343 13.1374 95.9439 13.251 95.9609 13.1699C95.9779 13.0889 96.1003 12.8201 96.233 12.5728C96.4543 12.1602 96.4878 12.0339 96.6386 11.0427C96.729 10.4484 96.8391 9.86574 96.8834 9.74784C96.9318 9.61874 96.9374 9.54502 96.8974 9.56267C96.7789 9.61477 96.5611 10.0473 96.3257 10.6978C96.1992 11.0478 96.0741 11.3914 96.0479 11.4613C96.0004 11.5881 95.9578 12.161 95.9396 12.9174ZM96.0612 13.3641C96.137 13.2799 96.3254 13.0957 96.4799 12.9547C96.6344 12.8138 96.9184 12.4647 97.1111 12.1791C97.5303 11.5576 97.5562 11.3469 97.303 10.6178C97.2123 10.3567 97.1204 10.0052 97.0988 9.83662C97.0596 9.53036 97.0596 9.53028 96.986 9.72045C96.9455 9.82511 96.8417 10.3879 96.7555 10.971C96.596 12.0486 96.5393 12.2215 95.9826 13.3247C95.9014 13.4857 95.9358 13.503 96.0612 13.3641ZM96.4957 13.9409C96.5561 13.8807 96.7061 13.8222 96.8292 13.8106L97.0529 13.7898L96.8387 13.7528C96.6453 13.7195 96.6331 13.704 96.713 13.5945C96.7617 13.5278 96.7864 13.4711 96.768 13.4685C96.7243 13.4624 96.409 13.8998 96.3961 13.9847C96.3905 14.0207 96.4354 14.001 96.4957 13.9409ZM97.4538 9.17256C97.5675 9.07169 97.7086 8.88646 97.7675 8.76097L97.8744 8.53268L97.6703 8.67991C97.4916 8.80888 97.3005 9.09363 97.2603 9.29084C97.2531 9.32659 97.3401 9.27335 97.4538 9.17256ZM97.7701 13.7459C98.9807 13.8238 100.319 13.6896 101.69 13.3527C102.242 13.2171 102.786 13.0834 102.9 13.0554C103.105 13.0054 103.099 13.0008 102.573 12.7699C101.834 12.4456 100.72 12.0842 100.26 12.0195C100.048 11.9898 99.645 11.9803 99.3637 11.9985C98.8629 12.0308 98.835 12.0427 98.0405 12.565C97.34 13.0254 96.7281 13.5628 96.7982 13.656C96.8101 13.6718 97.2475 13.7122 97.7701 13.7459ZM97.2843 12.9954C97.502 12.8295 98.0246 12.4615 98.4456 12.1777C99.1154 11.7261 99.3342 11.6209 100.198 11.3357C100.74 11.1565 101.525 10.9394 101.941 10.8534C102.773 10.6813 102.845 10.6338 102.104 10.746C101.714 10.8051 101.619 10.8009 101.583 10.7231C101.55 10.6486 101.537 10.6512 101.524 10.7349C101.508 10.8456 101.325 10.9188 100.677 11.0743C100.311 11.162 99.8221 11.3507 99.0847 11.689C98.5226 11.9468 96.9389 13.0932 96.8938 13.2749C96.8908 13.2871 97.0665 13.1613 97.2843 12.9954ZM97.5023 12.535C97.5664 12.4705 97.7606 12.257 97.9338 12.0606C98.1069 11.8642 98.4073 11.5453 98.6013 11.3518C99.1713 10.7831 99.2545 10.6667 99.4261 10.1977C99.5474 9.86588 99.5974 9.5989 99.6216 9.1544L99.6539 8.55703L99.533 9.03856C99.3089 9.93095 98.7569 10.8966 97.7834 12.0992C97.3935 12.5809 97.2765 12.7623 97.5023 12.535ZM98.1475 14.0812C98.2475 14.1541 98.5704 14.5297 98.8652 14.9158C99.2911 15.4737 99.4978 15.6816 99.8711 15.928C100.493 16.3381 101.075 16.5998 101.746 16.7709C102.049 16.848 102.421 16.9744 102.572 17.0518C102.724 17.1293 102.859 17.1847 102.872 17.1751C102.904 17.1508 102.184 16.7066 101.462 16.3059C101.132 16.1223 100.705 15.8423 100.514 15.6837C99.6408 14.958 98.8147 14.3469 98.5073 14.1991C98.3227 14.1103 98.1624 13.9979 98.1512 13.9491C98.1388 13.8952 98.0246 13.8484 97.8585 13.8292C97.603 13.7997 97.5979 13.8025 97.7759 13.8733C97.8803 13.9148 98.0475 14.0084 98.1475 14.0812ZM98.4163 11.8628C99.0167 11.5135 99.5911 10.8638 99.7403 10.3652C99.8004 10.1647 99.802 9.11187 99.7424 9.03267C99.7337 9.02108 99.6853 9.29712 99.635 9.64598C99.5326 10.355 99.3979 10.684 99.0869 10.9854C98.9709 11.0978 98.8335 11.2483 98.7816 11.3198C98.7297 11.3912 98.5319 11.5874 98.3422 11.7556C98.1523 11.9239 97.9955 12.0726 97.9936 12.0862C97.9917 12.0997 98.182 11.9992 98.4163 11.8628ZM99.3502 9.3959C99.3995 9.35875 99.5248 8.40179 99.5046 8.21837C99.4611 7.82624 99.3984 8.04675 99.3625 8.71726C99.342 9.10094 99.3365 9.40634 99.3502 9.3959ZM98.6365 14.3998C98.7316 14.4132 99.2461 14.882 99.3534 15.053L99.4565 15.2172L99.3123 15.0581C99.233 14.9706 99.0362 14.7849 98.875 14.6456C98.7138 14.5062 98.6064 14.3956 98.6365 14.3998ZM99.2382 11.9043C99.359 11.8941 99.7263 11.9004 100.054 11.9181L100.651 11.9505L99.9602 11.8757C99.3257 11.807 99.0341 11.812 99.0229 11.8917C99.0205 11.9087 99.1174 11.9144 99.2382 11.9043ZM101.759 11.6695C102.446 11.4398 103.572 10.8526 103.503 10.7605C103.463 10.7071 102.445 10.8336 101.817 10.9702C101.508 11.0375 100.843 11.2221 100.341 11.3805L99.4268 11.6685L100.988 11.9274L101.759 11.6695ZM99.423 13.8872C99.4782 13.8736 99.4648 13.8559 99.389 13.842C99.3203 13.8295 99.2795 13.8395 99.2982 13.8644C99.3169 13.8892 99.3731 13.8995 99.423 13.8872ZM101.665 16.3077C102.084 16.5467 102.592 16.8567 102.794 16.9965C103.288 17.3407 103.198 17.1822 102.66 16.7638C102.422 16.5781 102.012 16.2385 101.751 16.0089C101.088 15.4272 100.764 15.2133 100.008 14.8573C99.6466 14.6872 99.3089 14.5273 99.2573 14.5018C99.2058 14.4764 99.5547 14.7745 100.033 15.1643C100.562 15.5961 101.2 16.0431 101.665 16.3077ZM99.6943 13.8584C99.7494 13.8448 99.736 13.8271 99.6602 13.8132C99.5915 13.8007 99.5507 13.8108 99.5694 13.8356C99.5881 13.8604 99.6443 13.8707 99.6943 13.8584ZM100.363 13.7775C100.708 13.7209 100.816 13.7253 100.885 13.799C100.95 13.8687 100.963 13.8708 100.936 13.8073C100.916 13.7601 100.956 13.6972 101.027 13.6646C101.109 13.6266 101.118 13.6109 101.051 13.6195C100.266 13.7213 99.8221 13.7966 99.8692 13.82C99.9011 13.8359 100.123 13.8168 100.363 13.7775ZM101.11 12.1337C101.209 12.1448 101.256 12.1336 101.213 12.109C101.17 12.0844 101.156 12.0396 101.181 12.0095C101.247 11.9295 101.129 11.9273 101.024 12.0065C100.899 12.1011 100.905 12.1109 101.11 12.1337ZM102.484 12.5049L103.534 12.9256L104.1 12.8888C104.411 12.8686 104.911 12.7766 105.21 12.6844C106.133 12.4003 106.652 12.3678 107.987 12.51L109.171 12.6362L108.336 12.4026C107.876 12.2741 107.21 12.0972 106.855 12.0094C106.5 11.9217 106.007 11.7928 105.759 11.7232C105.512 11.6535 105.264 11.5891 105.209 11.5801C105.153 11.5711 104.907 11.4005 104.661 11.2011C104.345 10.9451 104.142 10.8279 103.968 10.8028C103.824 10.7819 103.718 10.7988 103.712 10.8438C103.706 10.8858 103.686 10.8997 103.667 10.8745C103.648 10.8493 103.37 10.9876 103.049 11.1817C102.729 11.3758 102.205 11.6217 101.885 11.7281C101.459 11.8697 101.321 11.9436 101.368 12.003C101.404 12.0476 101.906 12.2735 102.484 12.5049ZM101.34 14.2971C101.695 14.7758 102.154 15.1607 102.704 15.4409C102.901 15.5413 103.084 15.6265 103.111 15.6303C103.243 15.6489 103.102 15.2918 102.843 14.9526C102.684 14.7437 102.512 14.487 102.462 14.3823C102.302 14.0512 101.061 13.5498 101.026 13.8019C101.021 13.8347 101.162 14.0574 101.34 14.2971ZM101.529 12.2421C101.576 12.2302 101.541 12.2102 101.451 12.1975C101.361 12.1849 101.322 12.1946 101.365 12.2191C101.407 12.2436 101.481 12.254 101.529 12.2421ZM101.865 9.28903C101.994 8.85018 102.246 8.47221 102.933 7.69103C103.464 7.0867 104.072 6.22448 104.018 6.15231C104.001 6.12974 103.943 6.17198 103.889 6.24617C103.834 6.32042 103.584 6.56623 103.332 6.79243C102.813 7.25936 102.698 7.40891 102.262 8.1884C101.879 8.87369 101.86 8.91965 101.804 9.3272L101.758 9.65518L101.865 9.28903ZM101.903 11.7949C102.167 11.7103 102.666 11.4728 103.011 11.2673C103.356 11.0618 103.635 10.9209 103.63 10.9542C103.618 11.0383 102.727 11.5546 102.212 11.7762C101.842 11.9349 101.403 12.0435 101.418 11.9721C101.421 11.9593 101.639 11.8796 101.903 11.7949ZM101.283 13.6346C101.337 13.6422 101.385 13.6198 101.39 13.5849C101.395 13.55 101.352 13.5322 101.295 13.5453C101.238 13.5585 101.19 13.5809 101.188 13.595C101.186 13.6092 101.229 13.627 101.283 13.6346ZM102.042 13.8042C103.056 14.1547 103.373 14.2854 103.94 14.5881C104.691 14.9889 105.156 15.3845 105.488 15.9058C105.716 16.2642 105.781 16.3198 106.112 16.4382C106.332 16.5171 106.613 16.6877 106.808 16.8607L107.134 17.1508L106.676 16.5587C106.303 16.0755 106.168 15.8275 105.943 15.2102C105.791 14.7942 105.606 14.3892 105.53 14.3103C105.454 14.2313 104.935 13.9322 104.375 13.6457L103.358 13.1246L102.596 13.3236C102.176 13.433 101.78 13.531 101.714 13.5413C101.515 13.5727 101.623 13.6593 102.042 13.8042ZM102.034 15.6005C102.638 16.4287 103.089 16.7691 103.675 16.838L104.04 16.8809L103.753 16.5215C103.548 16.2642 103.325 16.0835 102.97 15.886C102.698 15.7343 102.336 15.4848 102.166 15.3315C101.996 15.1783 101.813 15.0467 101.759 15.0392C101.706 15.0316 101.639 14.9696 101.611 14.9013C101.583 14.833 101.555 14.809 101.549 14.8479C101.542 14.8868 101.76 15.2255 102.034 15.6005ZM103.545 14.8587C104.206 15.4111 104.896 16.1495 105.351 16.7905C105.549 17.0707 105.852 17.47 106.022 17.6778C106.27 17.9803 106.309 18.0098 106.215 17.8252C106.151 17.6985 106.016 17.3484 105.914 17.0473C105.519 15.8732 104.956 15.223 103.828 14.6364C103.293 14.358 102.378 13.9798 102.217 13.9701C102.192 13.9686 102.365 14.0717 102.603 14.1992C102.84 14.3267 103.264 14.6235 103.545 14.8587ZM102.877 10.6941C102.933 10.6805 102.919 10.6628 102.843 10.6489C102.775 10.6364 102.734 10.6465 102.753 10.6713C102.771 10.6961 102.827 10.7064 102.877 10.6941ZM103.214 10.6745C103.269 10.661 103.256 10.6432 103.18 10.6294C103.111 10.6168 103.071 10.6269 103.089 10.6517C103.108 10.6765 103.164 10.6868 103.214 10.6745ZM102.956 14.9552C103.127 15.1422 103.223 15.3172 103.234 15.4611C103.258 15.7801 103.904 16.6434 104.356 16.9598C104.734 17.2253 105.816 17.7674 105.876 17.7219C105.928 17.6831 104.966 16.4026 104.533 15.9345C103.938 15.2902 102.79 14.3145 102.594 14.287C102.494 14.2729 102.727 14.7033 102.956 14.9552ZM103.015 15.8183C103.263 15.9588 103.327 15.9772 103.275 15.894C103.238 15.8334 103.062 15.715 102.884 15.631C102.706 15.5468 102.518 15.4575 102.466 15.4324C102.269 15.3359 102.703 15.6416 103.015 15.8183ZM103.483 9.37082C103.617 9.11475 103.616 9.11563 103.939 8.93639C104.054 8.87269 104.107 8.81548 104.057 8.80925C103.829 8.78099 103.407 9.19495 103.373 9.48073C103.363 9.55682 103.41 9.51044 103.483 9.37082ZM103.28 12.9675C103.34 12.9772 103.33 12.9543 103.255 12.9085C103.187 12.8674 103.073 12.8263 103.001 12.8173C102.895 12.804 102.9 12.8156 103.026 12.8763C103.112 12.9178 103.226 12.9589 103.28 12.9675ZM103.796 7.16604C103.848 7.17329 104.015 6.849 103.982 6.80532C103.967 6.78453 103.916 6.83415 103.869 6.91574C103.769 7.09012 103.749 7.1594 103.796 7.16604ZM103.554 9.79861C103.592 9.90596 103.66 10.0351 103.706 10.0856C103.774 10.1603 103.801 10.1507 103.851 10.0342C103.957 9.78652 104.124 9.01779 104.073 9.01066C104.046 9.00692 103.933 9.05173 103.82 9.11023C103.643 9.2024 103.59 9.2768 103.502 9.5524C103.493 9.5805 103.516 9.69134 103.554 9.79861ZM103.485 10.6458C103.54 10.6322 103.527 10.6144 103.451 10.6006C103.383 10.5881 103.342 10.5981 103.361 10.6229C103.379 10.6478 103.435 10.6581 103.485 10.6458ZM103.943 8.72488C104.021 8.69637 104.089 8.64005 104.094 8.59965C104.1 8.55925 104.038 8.57137 103.957 8.6265C103.876 8.68164 103.808 8.73802 103.806 8.75173C103.804 8.76544 103.866 8.75338 103.943 8.72488ZM103.782 10.508C103.795 10.5098 103.87 10.4527 103.95 10.3812L104.096 10.2512L103.931 10.3554C103.776 10.4533 103.73 10.5007 103.782 10.508ZM104.558 10.6535C104.899 10.6413 105.506 10.6508 105.907 10.6747L106.635 10.7181L105.879 10.6311C105.176 10.5503 103.698 10.5559 103.864 10.6387C103.905 10.6591 104.217 10.6657 104.558 10.6535ZM104.247 8.46655C104.286 8.44932 104.334 8.32275 104.353 8.18535C104.423 7.68769 104.752 6.81034 105.032 6.37836C105.295 5.97214 106.179 5.05409 106.235 5.12888C106.249 5.1472 106.063 5.34917 105.821 5.57778C105.401 5.97633 104.904 6.66411 104.747 7.06542C104.646 7.32408 104.705 7.26292 104.945 6.85928C105.159 6.49958 105.418 6.17297 105.757 5.83637C105.87 5.72356 106.093 5.47921 106.251 5.29341C106.628 4.85145 106.481 4.85037 105.889 5.2907C105.137 5.84997 104.66 6.47754 104.429 7.2109C104.278 7.69042 104.16 8.50467 104.247 8.46655ZM104.095 10.0076C104.177 9.93234 104.243 9.89609 104.24 9.92689C104.236 9.95775 104.642 9.6886 105.14 9.32888C105.639 8.9691 106.306 8.52555 106.622 8.34321C107.433 7.87635 108.935 6.94943 108.94 6.91303C108.949 6.84744 108.5 7.04366 108.242 7.21784C108.092 7.31899 107.682 7.52084 107.331 7.6664C106.315 8.08798 106.031 8.27057 105.42 8.89896C104.855 9.47975 104.232 9.99376 104.251 9.86423C104.256 9.82757 104.364 9.72378 104.491 9.6336C104.618 9.54343 104.933 9.25849 105.191 9.00047C105.449 8.74245 105.799 8.42063 105.968 8.28531L106.277 8.03921L105.86 8.15636C105.63 8.22082 105.279 8.33768 105.079 8.41609C104.88 8.49449 104.7 8.54296 104.68 8.52379C104.66 8.50462 104.656 8.51102 104.671 8.53799C104.686 8.56497 104.629 8.64276 104.544 8.71097C104.419 8.81209 104.108 9.54428 103.959 10.0889C103.951 10.1193 104.012 10.0828 104.095 10.0076ZM103.874 13.2572C103.91 13.2643 103.899 13.2352 103.85 13.1927C103.801 13.1501 103.716 13.1107 103.662 13.1051C103.557 13.0944 103.751 13.233 103.874 13.2572ZM103.562 15.6168C103.664 15.7136 103.764 15.8298 103.784 15.8748C103.803 15.9199 103.736 15.8776 103.634 15.7807C103.532 15.6838 103.432 15.5677 103.412 15.5226C103.392 15.4775 103.46 15.5199 103.562 15.6168ZM104.514 8.31938C104.539 8.25816 104.585 8.22842 104.615 8.25344C104.645 8.27839 104.658 8.25031 104.645 8.19101C104.618 8.07773 104.865 7.74504 104.921 7.81878C104.938 7.84226 105.002 7.81616 105.062 7.76078C105.128 7.70002 105.146 7.69636 105.108 7.75158C105.073 7.80186 105.202 7.71462 105.394 7.5577C106.013 7.05237 106.46 6.31005 106.602 5.5508C106.674 5.16365 106.592 4.99092 106.438 5.20589C106.381 5.28461 106.131 5.56121 105.882 5.82053C105.286 6.44156 104.833 7.10975 104.599 7.71359C104.536 7.87781 104.453 8.46628 104.514 8.31938ZM104.804 8.08064C104.867 8.01802 104.921 7.93544 104.926 7.8971C104.93 7.85871 104.882 7.8786 104.819 7.94114C104.756 8.00376 104.702 8.08635 104.697 8.12468C104.693 8.16308 104.741 8.14318 104.804 8.08064ZM105.463 8.17046C105.843 8.05884 106.203 7.97395 106.263 7.98181C106.357 7.99411 107.444 7.55676 107.619 7.43599C107.653 7.41282 107.61 7.39421 107.525 7.39458C106.725 7.39809 106.364 7.42948 105.913 7.5345C105.443 7.644 105.354 7.69209 105.062 7.99147C104.883 8.17549 104.744 8.33672 104.754 8.34973C104.764 8.36274 105.083 8.28201 105.463 8.17046ZM104.859 11.2372C105.043 11.3654 105.353 11.5124 105.548 11.5638C105.743 11.6153 106.192 11.7336 106.546 11.8267C107.734 12.1388 109.248 12.5557 109.376 12.6059C109.491 12.651 109.493 12.6474 109.398 12.5676C109.21 12.4087 106.81 11.5373 105.791 11.2578C105.243 11.1074 104.709 10.9567 104.605 10.9231C104.355 10.8426 104.436 10.9424 104.859 11.2372ZM104.536 17.3413L104.892 17.4232L104.612 17.2544C104.334 17.0865 104.1 17.0133 103.783 16.995C103.531 16.9804 104.095 17.2395 104.536 17.3413ZM104.89 9.73902C104.985 9.6723 105.083 9.62067 105.108 9.62425C105.134 9.62783 105.275 9.57339 105.421 9.50333C105.568 9.4332 105.945 9.32188 106.259 9.25594C107.508 8.99333 108.001 8.69109 108.549 7.85264C108.742 7.5567 108.937 7.23331 108.982 7.13387C109.061 6.95794 109.06 6.9557 108.92 7.05052C108.841 7.10405 108.791 7.18067 108.809 7.22065C108.826 7.26071 108.811 7.26928 108.776 7.23975C108.74 7.21021 108.561 7.28355 108.377 7.40275C108.192 7.52194 107.755 7.78269 107.405 7.98221C106.229 8.65257 104.747 9.65503 104.728 9.79439C104.723 9.83066 104.796 9.80576 104.89 9.73902ZM107.341 11.6393C107.778 11.7966 108.233 11.9676 108.353 12.0193C108.472 12.071 108.582 12.1039 108.597 12.0926C108.634 12.0644 107.662 11.6156 107.235 11.4644C106.786 11.3051 105.273 10.9172 104.975 10.8851C104.849 10.8714 105.15 10.9712 105.646 11.1068C106.141 11.2424 106.904 11.4821 107.341 11.6393ZM105.666 7.51268C105.866 7.39526 106.647 7.29622 107.263 7.3102C107.739 7.32104 107.953 7.29622 108.062 7.21761C108.21 7.11123 108.208 7.11011 107.879 7.09825C107.696 7.0917 107.338 7.07434 107.083 7.05971C106.385 7.01964 106.113 7.07298 105.833 7.30417C105.578 7.51433 105.503 7.60857 105.666 7.51268ZM107.86 13.4253C108.618 13.4591 109.192 13.418 109.591 13.3013L109.822 13.2337L109.589 13.2323C109.46 13.2315 108.749 13.1591 108.008 13.0714C106.753 12.9229 105.205 12.8813 104.88 12.9875C104.709 13.0435 107.066 13.3898 107.86 13.4253ZM105.613 12.7984C105.927 12.772 106.667 12.8226 107.858 12.952C109.443 13.1243 110.374 13.1556 110.525 13.0417C110.591 12.9917 108.4 12.6092 107.715 12.5511C107.351 12.5203 106.835 12.5113 106.567 12.5309C106.117 12.5641 105.092 12.7676 105.129 12.8164C105.137 12.8281 105.355 12.82 105.613 12.7984ZM106.359 5.47427C106.529 5.15644 106.59 5.16596 106.429 5.48527C106.348 5.6454 106.27 5.77466 106.255 5.77261C106.215 5.76702 106.241 5.6931 106.359 5.47427ZM106.859 4.34092C106.928 4.19689 107.067 3.97572 107.169 3.84946L107.355 3.61984L107.156 3.75538C106.952 3.89463 106.803 4.15065 106.76 4.43905C106.742 4.55544 106.771 4.52705 106.859 4.34092ZM106.087 14.8605C106.081 14.8992 106.021 14.8657 105.954 14.786C105.862 14.6793 105.885 14.798 106.04 15.2388C106.199 15.6909 106.366 15.991 106.727 16.4722C106.99 16.8221 107.193 17.1315 107.18 17.16C107.167 17.1885 107.189 17.197 107.23 17.1789C107.271 17.1609 107.472 17.3046 107.675 17.4983C107.976 17.7836 108.718 18.2906 108.866 18.3114C108.909 18.3175 108.716 18.0816 108.555 17.931C108.209 17.6076 107.563 16.7633 107.198 16.1569C106.972 15.7818 106.643 15.3049 106.467 15.097C106.291 14.8893 106.177 14.7235 106.214 14.7286C106.345 14.7471 106.763 15.2887 107.244 16.0662C107.893 17.114 108.806 18.1923 109.009 18.151C109.175 18.1172 108.73 17.2906 108.058 16.3818C107.458 15.5703 107.303 15.4061 106.811 15.0569C106.503 14.8376 106.219 14.6721 106.18 14.689C106.142 14.7059 106.035 14.6596 105.944 14.5861L105.777 14.4525L105.937 14.6214C106.025 14.7142 106.092 14.8219 106.087 14.8605ZM106.199 16.7041C106.614 16.8507 106.73 16.8504 106.463 16.7035C106.141 16.5259 105.793 16.4158 105.808 16.4959C105.815 16.537 105.991 16.6307 106.199 16.7041ZM106.461 17.079L106.93 17.1531L106.653 16.9986C106.501 16.9136 106.269 16.8119 106.139 16.7724C105.914 16.7044 105.905 16.7085 105.947 16.8529C105.987 16.9871 106.047 17.0135 106.461 17.079ZM106.61 14.706C106.715 14.7192 106.71 14.7077 106.584 14.6469C106.371 14.5437 106.198 14.5195 106.355 14.6147C106.423 14.6559 106.537 14.6969 106.61 14.706ZM106.463 17.5362C106.616 17.5319 106.85 17.5066 106.985 17.4801L107.229 17.4317L106.892 17.308C106.707 17.2399 106.438 17.1678 106.295 17.1477L106.034 17.1111L106.11 17.3275C106.182 17.5316 106.202 17.5435 106.463 17.5362ZM107.274 10.7768C107.329 10.7632 107.316 10.7455 107.24 10.7316C107.172 10.7191 107.131 10.7291 107.149 10.754C107.168 10.7788 107.224 10.7891 107.274 10.7768ZM107.662 10.8968C107.71 10.8849 107.675 10.8649 107.585 10.8522C107.495 10.8396 107.456 10.8493 107.499 10.8738C107.541 10.8983 107.615 10.9087 107.662 10.8968ZM108.508 15.1442L108.952 15.1519L108.499 15.0439C108.25 14.9844 107.87 14.9108 107.654 14.8802L107.261 14.8245L107.663 14.9806C107.956 15.0945 108.184 15.1387 108.508 15.1442ZM108.799 8.0367C109.379 8.00322 109.748 7.91338 110.204 7.69433L110.701 7.45552L110.335 7.44701C110.133 7.44239 109.732 7.43777 109.444 7.43684L108.919 7.43503L108.759 7.68803C108.543 8.02815 108.546 8.05134 108.799 8.0367ZM109.36 15.0972C110.164 15.2207 110.76 15.2056 111.74 15.0366L112.39 14.9246L111.574 14.8472C110.819 14.7756 109.638 14.749 108.337 14.7741L107.801 14.7845L108.221 14.8856C108.452 14.9413 108.964 15.0365 109.36 15.0972ZM109.966 7.33481C110.884 7.3308 110.905 7.32745 110.53 7.24263C110.154 7.15743 109.423 7.11002 109.164 7.15404C109.094 7.1659 109.032 7.21233 109.025 7.25726C109.016 7.31996 109.235 7.33799 109.966 7.33481ZM108.803 15.4931C109.624 15.7524 110.066 15.8526 111.425 16.0876C111.993 16.1859 112.156 16.1979 112.02 16.1315C111.917 16.0813 111.61 15.9155 111.337 15.7631C110.88 15.5077 110.778 15.4768 110.023 15.3676C109.269 15.2584 107.795 15.1489 107.941 15.2129C107.976 15.2282 108.364 15.3542 108.803 15.4931ZM109.353 10.2318C109.709 10.1355 110.295 9.97111 110.654 9.86653C111.578 9.59737 112.548 9.47607 113.481 9.51274C114.368 9.54754 114.309 9.46714 113.34 9.31725C112.161 9.13491 111.031 9.34003 109.552 10.0052C109.205 10.161 108.86 10.2989 108.785 10.3116C108.711 10.3242 108.662 10.3509 108.677 10.3707C108.692 10.3906 108.996 10.328 109.353 10.2318ZM109.327 10.6506C110.343 10.6242 111.019 10.5348 111.631 10.3459C112.313 10.135 113.233 9.73156 113.183 9.66523C113.026 9.45611 111.464 9.68869 110.024 10.1358C109.735 10.2252 109.344 10.3399 109.153 10.3907C108.901 10.4577 108.861 10.4822 109.007 10.48C109.117 10.4784 109.267 10.4631 109.34 10.4461C109.428 10.4254 109.454 10.4369 109.417 10.4812C109.387 10.5175 109.195 10.5607 108.991 10.5773C108.402 10.625 108.604 10.6693 109.327 10.6506ZM108.716 11.0089C108.79 10.9531 108.783 10.9446 108.685 10.967C108.617 10.9826 108.575 11.0141 108.593 11.0372C108.61 11.0602 108.666 11.0475 108.716 11.0089ZM109.335 11.1253C109.43 11.0532 109.291 11.0019 109.051 11.0205L108.794 11.0405L109.043 11.0989C109.18 11.131 109.311 11.1429 109.335 11.1253ZM109.091 16.0294C109.53 16.2233 109.816 16.3047 110.295 16.3721C110.884 16.4548 111.927 16.453 112.143 16.3689C112.196 16.3483 111.671 16.2336 110.977 16.114C110.131 15.9681 109.485 15.8188 109.017 15.6611C108.156 15.3705 108.142 15.3691 108.348 15.593C108.441 15.6932 108.775 15.8895 109.091 16.0294ZM110.283 11.7913C111.37 12.1852 111.892 12.4065 112.747 12.8356C113.523 13.2249 113.648 13.2769 113.444 13.1264C113.378 13.0772 113.147 12.8966 112.933 12.7251C112.296 12.2163 111.777 11.9708 110.714 11.6755C110.181 11.5274 109.585 11.3696 109.389 11.3249L109.033 11.2436L109.272 11.3777C109.404 11.4514 109.859 11.6376 110.283 11.7913ZM109.166 11.532C109.202 11.537 109.436 11.6743 109.685 11.8372C110.431 12.3239 112.134 13.0816 112.803 13.2245C113.12 13.2922 113.382 13.3297 113.385 13.3078C113.397 13.2208 111.422 12.3163 110.524 11.9978C110 11.8119 109.452 11.5979 109.306 11.5222C109.16 11.4466 109.055 11.4158 109.072 11.4538C109.088 11.4918 109.131 11.527 109.166 11.532ZM108.864 14.6784C108.919 14.6648 108.905 14.6471 108.83 14.6332C108.761 14.6207 108.72 14.6308 108.739 14.6556C108.757 14.6804 108.814 14.6907 108.864 14.6784ZM110.091 14.671C110.674 14.6795 111.447 14.7246 111.809 14.7713C112.337 14.8393 112.416 14.838 112.212 14.7649C111.858 14.6383 111.15 14.5413 110.449 14.5235C109.869 14.5088 108.97 14.5743 109.011 14.6283C109.022 14.6433 109.508 14.6625 110.091 14.671ZM111.733 11.7568C112.571 12.135 113.971 12.3173 115.67 12.2691C116.019 12.2591 116.5 12.2594 116.737 12.2697C117.275 12.2929 111.839 11.4614 110.493 11.3144L109.506 11.2068L110.384 11.3754C110.984 11.4908 111.411 11.6114 111.733 11.7568ZM111.018 11.2397C111.246 11.2588 111.08 11.2245 110.647 11.1636C110.215 11.1028 110.028 11.0872 110.232 11.1291C110.436 11.171 110.79 11.2208 111.018 11.2397ZM111.047 11.6495L111.244 11.6742L111.054 11.5965C110.95 11.5538 110.732 11.5004 110.57 11.4778L110.275 11.4369L110.562 11.5308C110.72 11.5825 110.938 11.6359 111.047 11.6495ZM111.54 11.1093C112.787 11.2371 113.698 11.2288 114.55 11.0821C114.899 11.0221 115.245 10.9814 115.318 10.9918C115.392 11.0021 115.441 10.984 115.427 10.9516C115.384 10.8534 114.097 10.7454 113.241 10.7681C111.776 10.807 111.018 10.8733 111.149 10.9512C111.245 11.0088 111.231 11.016 111.073 10.989C110.718 10.9283 110.515 10.9182 110.509 10.9609C110.506 10.9841 110.97 11.0508 111.54 11.1093ZM111.585 10.7426C111.729 10.7255 112.3 10.6929 112.854 10.67C113.69 10.6357 114.056 10.6551 114.997 10.7838C116.068 10.9302 116.118 10.9315 115.862 10.8066C115.469 10.6139 114.098 10.4307 113.382 10.4753C112.654 10.5206 111.266 10.6974 111.298 10.7407C111.312 10.7588 111.441 10.7597 111.585 10.7426ZM111.411 11.7592C111.466 11.7456 111.453 11.7279 111.377 11.7141C111.308 11.7015 111.268 11.7116 111.286 11.7364C111.305 11.7612 111.361 11.7715 111.411 11.7592ZM117.275 12.1592C117.336 12.1398 116.289 11.7757 115.695 11.6093C114.707 11.3331 114.167 11.274 112.932 11.3072L111.825 11.337L114.539 11.7517C116.032 11.9798 117.263 12.1632 117.275 12.1592ZM113.516 9.64582C113.563 9.63399 113.529 9.61392 113.438 9.60127C113.348 9.58861 113.309 9.59833 113.352 9.62282C113.394 9.64738 113.468 9.65773 113.516 9.64582ZM115.884 12.1595C116.047 12.1823 116.111 12.2044 116.028 12.2087C115.945 12.2129 115.812 12.1943 115.733 12.1673C115.654 12.1402 115.722 12.1368 115.884 12.1595Z" fill="#3C3F59"/>
<path d="M32.3721 26.3834V26.4693C32.3721 26.6602 32.4011 26.8416 32.4591 27.0134C32.5171 27.1853 32.6015 27.3354 32.7123 27.4639C32.8195 27.5941 32.9522 27.6973 33.1105 27.7737C33.2687 27.8484 33.448 27.8857 33.6484 27.8857C33.8471 27.8857 34.0247 27.8475 34.1811 27.7711C34.3376 27.6947 34.4703 27.5923 34.5793 27.4639C34.6883 27.3337 34.771 27.1836 34.8272 27.0134C34.8852 26.8416 34.9151 26.6602 34.9169 26.4693V26.3834C34.9151 26.1924 34.8852 26.011 34.8272 25.8392C34.7692 25.6673 34.6866 25.5163 34.5793 25.3861C34.4686 25.2577 34.3341 25.1553 34.1759 25.0789C34.0194 25.0025 33.8418 24.9644 33.6432 24.9644C33.4427 24.9644 33.2643 25.0025 33.1078 25.0789C32.9514 25.1553 32.8186 25.2586 32.7096 25.3888C32.6006 25.5172 32.5171 25.6673 32.4591 25.8392C32.4011 26.011 32.3721 26.1924 32.3721 26.3834ZM32.6859 26.4693V26.3834C32.6859 26.2358 32.707 26.0926 32.7492 25.9537C32.7914 25.8149 32.8529 25.6925 32.9338 25.5866C33.0146 25.479 33.114 25.3931 33.2318 25.3289C33.3496 25.2646 33.4867 25.2325 33.6432 25.2325C33.7979 25.2325 33.9341 25.2646 34.0519 25.3289C34.1715 25.3931 34.2726 25.479 34.3552 25.5866C34.4343 25.6925 34.495 25.8149 34.5371 25.9537C34.5793 26.0926 34.6013 26.2358 34.6031 26.3834V26.4693C34.6013 26.6186 34.5793 26.7626 34.5371 26.9015C34.4967 27.0386 34.4369 27.161 34.3578 27.2686C34.2752 27.3762 34.175 27.4621 34.0572 27.5264C33.9394 27.5889 33.8031 27.6201 33.6484 27.6201C33.492 27.6201 33.354 27.5889 33.2344 27.5264C33.1149 27.4621 33.0146 27.3762 32.9338 27.2686C32.8529 27.1627 32.7914 27.0403 32.7492 26.9015C32.707 26.7626 32.6859 26.6186 32.6859 26.4693Z" fill="#3D405B"/>
<path d="M35.7766 27.8336H36.0931V25.9095C36.1229 25.8192 36.1651 25.7342 36.2196 25.6543C36.2741 25.5727 36.3383 25.5024 36.4121 25.4434C36.4913 25.3809 36.5792 25.3315 36.6759 25.295C36.7726 25.2568 36.8754 25.2377 36.9844 25.2377C37.1092 25.236 37.2165 25.2525 37.3061 25.2872C37.3975 25.3219 37.474 25.3731 37.5356 25.4408C37.5953 25.5085 37.6393 25.5918 37.6674 25.6908C37.6973 25.7897 37.7131 25.9034 37.7149 26.0319V27.8336H38.0287V26.0267C38.0287 25.8583 38.0076 25.7081 37.9654 25.5762C37.9232 25.4443 37.8608 25.3323 37.7782 25.2403C37.6973 25.1501 37.5962 25.0815 37.4749 25.0346C37.3554 24.9878 37.2173 24.9644 37.0609 24.9644C36.9431 24.9644 36.8314 24.9817 36.726 25.0164C36.6222 25.0511 36.5273 25.098 36.4412 25.157C36.3673 25.2074 36.3005 25.2672 36.2407 25.3367C36.181 25.4061 36.1291 25.4816 36.0851 25.5632L36.0667 25.0164H35.7766V27.8336Z" fill="#3D405B"/>
<path d="M39.0941 23.8344V24.1129H40.1094V27.555H39.0941V27.8336H41.3884V27.555H40.4232V23.8344H39.0941Z" fill="#3D405B"/>
<path d="M42.3378 25.0164V25.295H43.3478V27.555H42.3378V27.8336H44.6321V27.555H43.6616V25.0164H42.3378ZM43.2555 24.2457C43.2555 24.3082 43.2739 24.362 43.3109 24.4072C43.3478 24.4523 43.4084 24.4749 43.4928 24.4749C43.5755 24.4749 43.6361 24.4523 43.6748 24.4072C43.7135 24.362 43.7328 24.3082 43.7328 24.2457C43.7328 24.211 43.7275 24.1789 43.717 24.1494C43.7064 24.1199 43.6906 24.0947 43.6695 24.0739C43.6519 24.0531 43.6282 24.0374 43.5983 24.027C43.5684 24.0149 43.5333 24.0088 43.4928 24.0088C43.4524 24.0088 43.4172 24.0149 43.3873 24.027C43.3575 24.0374 43.3328 24.0531 43.3135 24.0739C43.2924 24.0965 43.2775 24.1225 43.2687 24.152C43.2599 24.1815 43.2555 24.2127 43.2555 24.2457Z" fill="#3D405B"/>
<path d="M45.5076 27.8336H45.824V25.9095C45.8539 25.8192 45.8961 25.7342 45.9506 25.6543C46.0051 25.5727 46.0693 25.5024 46.1431 25.4434C46.2222 25.3809 46.3102 25.3315 46.4068 25.295C46.5035 25.2568 46.6064 25.2377 46.7154 25.2377C46.8402 25.236 46.9475 25.2525 47.0371 25.2872C47.1285 25.3219 47.205 25.3731 47.2665 25.4408C47.3263 25.5085 47.3703 25.5918 47.3984 25.6908C47.4283 25.7897 47.4441 25.9034 47.4459 26.0319V27.8336H47.7597V26.0267C47.7597 25.8583 47.7386 25.7081 47.6964 25.5762C47.6542 25.4443 47.5918 25.3323 47.5092 25.2403C47.4283 25.1501 47.3272 25.0815 47.2059 25.0346C47.0863 24.9878 46.9483 24.9644 46.7919 24.9644C46.6741 24.9644 46.5624 24.9817 46.457 25.0164C46.3532 25.0511 46.2583 25.098 46.1721 25.157C46.0983 25.2074 46.0315 25.2672 45.9717 25.3367C45.9119 25.4061 45.8601 25.4816 45.8161 25.5632L45.7977 25.0164H45.5076V27.8336Z" fill="#3D405B"/>
<path d="M49.9696 27.8857C50.2069 27.8857 50.4153 27.8397 50.5946 27.7477C50.7739 27.6557 50.9172 27.535 51.0244 27.3858L50.8267 27.2374C50.7247 27.3623 50.6025 27.4578 50.4601 27.5238C50.3177 27.5897 50.1586 27.6218 49.9828 27.6201C49.8298 27.6201 49.6901 27.5906 49.5635 27.5316C49.4387 27.4708 49.3323 27.3901 49.2444 27.2894C49.1547 27.1905 49.0853 27.0768 49.0361 26.9484C48.9868 26.8199 48.9587 26.681 48.9517 26.5318V26.4458H51.0877V26.2558C51.086 26.077 51.0596 25.9095 51.0086 25.7533C50.9576 25.5953 50.882 25.4573 50.7818 25.3393C50.6816 25.223 50.5586 25.1318 50.4126 25.0659C50.2667 24.9982 50.0997 24.9644 49.9116 24.9644C49.7323 24.9644 49.5652 25.0017 49.4105 25.0763C49.2558 25.1492 49.1222 25.249 49.0097 25.3757C48.8937 25.5042 48.8022 25.6561 48.7354 25.8314C48.6704 26.005 48.6379 26.1916 48.6379 26.3912V26.5031C48.6379 26.6923 48.6704 26.8711 48.7354 27.0395C48.8005 27.2061 48.8919 27.3528 49.0097 27.4795C49.1257 27.6045 49.2655 27.7034 49.429 27.7763C49.5925 27.8492 49.7727 27.8857 49.9696 27.8857ZM49.9116 25.2325C50.047 25.2325 50.1674 25.2586 50.2729 25.3106C50.3784 25.361 50.468 25.4287 50.5419 25.5137C50.6139 25.5988 50.6702 25.6977 50.7106 25.8105C50.7528 25.9234 50.7739 26.0371 50.7739 26.1516V26.1803H48.9649C48.9842 26.0449 49.0202 25.919 49.073 25.8027C49.1257 25.6864 49.1925 25.5858 49.2734 25.5007C49.3543 25.4174 49.4483 25.3523 49.5556 25.3054C49.6628 25.2568 49.7815 25.2325 49.9116 25.2325Z" fill="#3D405B"/>
<path d="M57.1268 24.9644C56.8683 24.9626 56.6433 25.0164 56.4517 25.1258C56.26 25.2334 56.1088 25.3835 55.9981 25.5762V25.4512L55.9796 25.0164H55.679V27.8336H56.0033L56.0007 26.0319C56.0359 25.9017 56.086 25.7897 56.151 25.696C56.2178 25.6005 56.2961 25.5215 56.3857 25.459C56.4789 25.3948 56.5835 25.348 56.6995 25.3184C56.8173 25.2872 56.943 25.2716 57.0767 25.2716C57.154 25.2716 57.2296 25.2759 57.3034 25.2846C57.3773 25.2933 57.4502 25.3054 57.5223 25.3211L57.5645 25.019C57.51 25.0017 57.4423 24.9886 57.3615 24.98C57.2823 24.9696 57.2041 24.9644 57.1268 24.9644Z" fill="#3D405B"/>
<path d="M59.7006 27.8857C59.9379 27.8857 60.1463 27.8397 60.3256 27.7477C60.5049 27.6557 60.6482 27.535 60.7554 27.3858L60.5577 27.2374C60.4557 27.3623 60.3335 27.4578 60.1911 27.5238C60.0487 27.5897 59.8896 27.6218 59.7138 27.6201C59.5608 27.6201 59.4211 27.5906 59.2945 27.5316C59.1697 27.4708 59.0633 27.3901 58.9754 27.2894C58.8857 27.1905 58.8163 27.0768 58.767 26.9484C58.7178 26.8199 58.6897 26.681 58.6827 26.5318V26.4458H60.8187V26.2558C60.817 26.077 60.7906 25.9095 60.7396 25.7533C60.6886 25.5953 60.613 25.4573 60.5128 25.3393C60.4126 25.223 60.2895 25.1318 60.1436 25.0659C59.9977 24.9982 59.8307 24.9644 59.6426 24.9644C59.4632 24.9644 59.2962 25.0017 59.1415 25.0763C58.9868 25.1492 58.8532 25.249 58.7407 25.3757C58.6246 25.5042 58.5332 25.6561 58.4664 25.8314C58.4014 26.005 58.3688 26.1916 58.3688 26.3912V26.5031C58.3688 26.6923 58.4014 26.8711 58.4664 27.0395C58.5315 27.2061 58.6229 27.3528 58.7407 27.4795C58.8567 27.6045 58.9965 27.7034 59.16 27.7763C59.3235 27.8492 59.5037 27.8857 59.7006 27.8857ZM59.6426 25.2325C59.7779 25.2325 59.8984 25.2586 60.0039 25.3106C60.1093 25.361 60.199 25.4287 60.2728 25.5137C60.3449 25.5988 60.4012 25.6977 60.4416 25.8105C60.4838 25.9234 60.5049 26.0371 60.5049 26.1516V26.1803H58.6958C58.7152 26.0449 58.7512 25.919 58.804 25.8027C58.8567 25.6864 58.9235 25.5858 59.0044 25.5007C59.0853 25.4174 59.1793 25.3523 59.2866 25.3054C59.3938 25.2568 59.5125 25.2325 59.6426 25.2325Z" fill="#3D405B"/>
<path d="M63.7169 27.115C63.7169 27.1827 63.702 27.2434 63.6721 27.2972C63.644 27.3493 63.6035 27.3962 63.5508 27.4378C63.4699 27.4986 63.3741 27.5446 63.2633 27.5758C63.1526 27.6053 63.0348 27.6201 62.91 27.6201C62.8133 27.6201 62.7148 27.6114 62.6146 27.5941C62.5162 27.575 62.4265 27.5429 62.3456 27.4977C62.2612 27.4543 62.19 27.3953 62.132 27.3207C62.0758 27.246 62.0424 27.1532 62.0318 27.0421H61.718C61.7233 27.1723 61.7567 27.2894 61.8182 27.3936C61.8815 27.4977 61.9676 27.5854 62.0766 27.6566C62.1821 27.7295 62.3069 27.7859 62.4511 27.8258C62.5953 27.8657 62.7482 27.8857 62.91 27.8857C63.0577 27.8857 63.2036 27.8675 63.3477 27.831C63.4919 27.7946 63.6185 27.7381 63.7275 27.6618C63.8171 27.5993 63.8901 27.5203 63.9464 27.4248C64.0026 27.3294 64.0307 27.2209 64.0307 27.0994C64.0307 26.9709 64.0017 26.8616 63.9437 26.7713C63.8857 26.6793 63.8066 26.6012 63.7064 26.537C63.6062 26.4745 63.4901 26.4224 63.3583 26.3808C63.2282 26.3374 63.0911 26.3009 62.9469 26.2714C62.8344 26.2488 62.7263 26.2237 62.6225 26.1959C62.5188 26.1664 62.43 26.1299 62.3562 26.0865C62.2823 26.0449 62.2261 25.9945 62.1874 25.9355C62.1505 25.8748 62.132 25.8036 62.132 25.722C62.132 25.6404 62.1531 25.5693 62.1953 25.5085C62.2393 25.446 62.2973 25.3948 62.3694 25.3549C62.4397 25.3132 62.5197 25.2829 62.6093 25.2638C62.7008 25.2429 62.7948 25.2325 62.8915 25.2325C62.9935 25.2325 63.0919 25.2455 63.1869 25.2716C63.2836 25.2976 63.3697 25.3349 63.4453 25.3835C63.5191 25.4321 63.5789 25.492 63.6246 25.5632C63.6721 25.6344 63.6967 25.7151 63.6985 25.8053H64.0149C64.0096 25.6717 63.9771 25.5528 63.9174 25.4486C63.8576 25.3445 63.7776 25.256 63.6774 25.1831C63.5754 25.1119 63.4567 25.0581 63.3214 25.0216C63.1877 24.9834 63.0445 24.9644 62.8915 24.9644C62.7544 24.9644 62.6208 24.9817 62.4907 25.0164C62.3623 25.0511 62.2498 25.0997 62.1531 25.1622C62.0511 25.2299 61.9694 25.3115 61.9079 25.407C61.8481 25.5024 61.8182 25.6109 61.8182 25.7324C61.8182 25.8609 61.8481 25.9702 61.9079 26.0605C61.9694 26.149 62.0494 26.2219 62.1478 26.2792C62.2533 26.34 62.3667 26.3894 62.488 26.4276C62.6093 26.4658 62.743 26.4997 62.8889 26.5292C63.0032 26.5535 63.1139 26.583 63.2212 26.6177C63.3302 26.6524 63.4225 26.6941 63.4981 26.7427C63.5666 26.7861 63.6202 26.839 63.6589 26.9015C63.6976 26.9622 63.7169 27.0334 63.7169 27.115Z" fill="#3D405B"/>
<path d="M66.0218 24.2952H65.7027V25.0164H64.9089V25.2742H65.7027V27.0395C65.7044 27.194 65.7273 27.325 65.7713 27.4326C65.817 27.5403 65.8794 27.627 65.9585 27.693C66.0376 27.7607 66.1308 27.8093 66.238 27.8388C66.347 27.8701 66.4648 27.8857 66.5914 27.8857C66.6529 27.8857 66.7145 27.8839 66.776 27.8805C66.8393 27.877 66.8999 27.8701 66.958 27.8596C67.0037 27.8527 67.0467 27.844 67.0872 27.8336C67.1294 27.8232 67.1663 27.8102 67.1979 27.7946L67.1505 27.5576C67.1241 27.5628 67.0925 27.5689 67.0555 27.5758C67.0204 27.581 66.9843 27.5863 66.9474 27.5915C66.8982 27.5967 66.8481 27.6019 66.7971 27.6071C66.7461 27.6106 66.6951 27.6123 66.6441 27.6123C66.558 27.6123 66.4771 27.6027 66.4015 27.5837C66.3259 27.5646 66.26 27.5324 66.2037 27.4873C66.1475 27.4439 66.1035 27.3858 66.0719 27.3129C66.0402 27.24 66.0235 27.1488 66.0218 27.0395V25.2742H67.0793V25.0164H66.0218V24.2952Z" fill="#3D405B"/>
<path d="M70.1752 27.8336H70.5128L70.5102 27.8024C70.4855 27.7156 70.4645 27.6244 70.4469 27.529C70.431 27.4335 70.4231 27.338 70.4231 27.2426V25.8808C70.4214 25.7281 70.3915 25.5944 70.3335 25.4799C70.2772 25.3653 70.2007 25.269 70.104 25.1909C70.0056 25.1162 69.8904 25.0598 69.7586 25.0216C69.6267 24.9834 69.4852 24.9644 69.334 24.9644C69.1828 24.9644 69.0404 24.9852 68.9068 25.0268C68.7749 25.0685 68.6589 25.1258 68.5587 25.1987C68.4585 25.2733 68.3785 25.361 68.3187 25.4617C68.2589 25.5623 68.2264 25.6725 68.2211 25.7923L68.5376 25.7949C68.5394 25.7064 68.5622 25.6274 68.6062 25.558C68.6519 25.4868 68.7099 25.4269 68.7802 25.3783C68.8523 25.3297 68.9349 25.2924 69.0281 25.2664C69.1213 25.2403 69.2188 25.2273 69.3208 25.2273C69.4316 25.2273 69.5344 25.2421 69.6294 25.2716C69.7261 25.2994 69.8096 25.3402 69.8799 25.394C69.9502 25.4478 70.0056 25.5155 70.046 25.597C70.0865 25.6769 70.1076 25.7698 70.1093 25.8756V26.1933H69.4896C69.312 26.195 69.1424 26.2124 68.9806 26.2454C68.8189 26.2766 68.6774 26.3269 68.5561 26.3964C68.433 26.4693 68.3345 26.5621 68.2607 26.675C68.1886 26.7878 68.1526 26.9249 68.1526 27.0864C68.1526 27.2079 68.1772 27.3181 68.2264 27.417C68.2756 27.5142 68.3424 27.5975 68.4268 27.667C68.5112 27.7364 68.6114 27.7902 68.7275 27.8284C68.8435 27.8666 68.9674 27.8857 69.0993 27.8857C69.2048 27.8857 69.3059 27.8744 69.4026 27.8518C69.501 27.831 69.5942 27.7998 69.6821 27.7581C69.7682 27.7182 69.8474 27.6696 69.9194 27.6123C69.9933 27.5533 70.0575 27.4882 70.112 27.417C70.1155 27.4899 70.1216 27.562 70.1304 27.6331C70.141 27.7043 70.1559 27.7711 70.1752 27.8336ZM69.1336 27.6071C69.0422 27.6071 68.9551 27.5949 68.8725 27.5706C68.7916 27.5446 68.7213 27.5073 68.6615 27.4587C68.6018 27.4118 68.5543 27.3545 68.5191 27.2868C68.484 27.2191 68.4664 27.1428 68.4664 27.0577C68.4664 26.9536 68.4893 26.865 68.535 26.7921C68.5824 26.7175 68.6466 26.655 68.7275 26.6047C68.8277 26.5422 68.9481 26.4988 69.0888 26.4745C69.2294 26.4502 69.378 26.4372 69.5344 26.4354H70.1093V27.0551C70.0689 27.1384 70.0161 27.2139 69.9511 27.2816C69.886 27.3493 69.8113 27.4075 69.7269 27.4561C69.6425 27.5047 69.5502 27.5429 69.45 27.5706C69.3498 27.5967 69.2443 27.6088 69.1336 27.6071Z" fill="#3D405B"/>
<path d="M73.3899 27.8336H73.6826V25.0164H73.3662V27.0004C73.3416 27.0924 73.3046 27.1757 73.2554 27.2504C73.2079 27.3233 73.149 27.3858 73.0787 27.4378C73.0031 27.4934 72.9152 27.5368 72.815 27.568C72.7148 27.5975 72.6032 27.6123 72.4801 27.6123C72.3623 27.6123 72.2595 27.5941 72.1716 27.5576C72.0854 27.5212 72.0142 27.4665 71.9579 27.3936C71.8999 27.3224 71.8569 27.2339 71.8287 27.128C71.8006 27.0204 71.7857 26.8954 71.7839 26.7531V25.0164H71.4701V26.7479C71.4718 26.9301 71.4938 27.0916 71.536 27.2322C71.5782 27.3728 71.6406 27.4908 71.7232 27.5863C71.8059 27.6835 71.907 27.7581 72.0265 27.8102C72.1478 27.8605 72.2876 27.8857 72.4458 27.8857C72.6603 27.8857 72.8458 27.8423 73.0022 27.7555C73.1587 27.667 73.2835 27.5446 73.3767 27.3884L73.3899 27.8336Z" fill="#3D405B"/>
<path d="M76.5887 24.9644C76.3303 24.9626 76.1053 25.0164 75.9136 25.1258C75.722 25.2334 75.5708 25.3835 75.46 25.5762V25.4512L75.4416 25.0164H75.141V27.8336H75.4653L75.4627 26.0319C75.4978 25.9017 75.548 25.7897 75.613 25.696C75.6798 25.6005 75.758 25.5215 75.8477 25.459C75.9409 25.3948 76.0455 25.348 76.1615 25.3184C76.2793 25.2872 76.405 25.2716 76.5386 25.2716C76.616 25.2716 76.6916 25.2759 76.7654 25.2846C76.8393 25.2933 76.9122 25.3054 76.9843 25.3211L77.0265 25.019C76.972 25.0017 76.9043 24.9886 76.8234 24.98C76.7443 24.9696 76.6661 24.9644 76.5887 24.9644Z" fill="#3D405B"/>
<path d="M79.9062 27.8336H80.2438L80.2411 27.8024C80.2165 27.7156 80.1954 27.6244 80.1779 27.529C80.162 27.4335 80.1541 27.338 80.1541 27.2426V25.8808C80.1524 25.7281 80.1225 25.5944 80.0645 25.4799C80.0082 25.3653 79.9317 25.269 79.835 25.1909C79.7366 25.1162 79.6214 25.0598 79.4896 25.0216C79.3577 24.9834 79.2162 24.9644 79.065 24.9644C78.9138 24.9644 78.7714 24.9852 78.6378 25.0268C78.5059 25.0685 78.3899 25.1258 78.2897 25.1987C78.1895 25.2733 78.1095 25.361 78.0497 25.4617C77.9899 25.5623 77.9574 25.6725 77.9521 25.7923L78.2686 25.7949C78.2703 25.7064 78.2932 25.6274 78.3372 25.558C78.3829 25.4868 78.4409 25.4269 78.5112 25.3783C78.5833 25.3297 78.6659 25.2924 78.7591 25.2664C78.8523 25.2403 78.9498 25.2273 79.0518 25.2273C79.1626 25.2273 79.2654 25.2421 79.3604 25.2716C79.4571 25.2994 79.5406 25.3402 79.6109 25.394C79.6812 25.4478 79.7366 25.5155 79.777 25.597C79.8175 25.6769 79.8386 25.7698 79.8403 25.8756V26.1933H79.2206C79.043 26.195 78.8734 26.2124 78.7116 26.2454C78.5499 26.2766 78.4083 26.3269 78.287 26.3964C78.164 26.4693 78.0655 26.5621 77.9917 26.675C77.9196 26.7878 77.8836 26.9249 77.8836 27.0864C77.8836 27.2079 77.9082 27.3181 77.9574 27.417C78.0066 27.5142 78.0734 27.5975 78.1578 27.667C78.2422 27.7364 78.3424 27.7902 78.4585 27.8284C78.5745 27.8666 78.6984 27.8857 78.8303 27.8857C78.9358 27.8857 79.0369 27.8744 79.1336 27.8518C79.232 27.831 79.3252 27.7998 79.4131 27.7581C79.4992 27.7182 79.5784 27.6696 79.6504 27.6123C79.7243 27.5533 79.7884 27.4882 79.8429 27.417C79.8465 27.4899 79.8526 27.562 79.8614 27.6331C79.872 27.7043 79.8869 27.7711 79.9062 27.8336ZM78.8646 27.6071C78.7732 27.6071 78.6861 27.5949 78.6035 27.5706C78.5226 27.5446 78.4523 27.5073 78.3925 27.4587C78.3328 27.4118 78.2853 27.3545 78.2501 27.2868C78.215 27.2191 78.1974 27.1428 78.1974 27.0577C78.1974 26.9536 78.2202 26.865 78.2659 26.7921C78.3134 26.7175 78.3776 26.655 78.4585 26.6047C78.5587 26.5422 78.6791 26.4988 78.8197 26.4745C78.9604 26.4502 79.109 26.4372 79.2654 26.4354H79.8403V27.0551C79.7999 27.1384 79.7471 27.2139 79.6821 27.2816C79.617 27.3493 79.5423 27.4075 79.4579 27.4561C79.3735 27.5047 79.2812 27.5429 79.181 27.5706C79.0808 27.5967 78.9753 27.6088 78.8646 27.6071Z" fill="#3D405B"/>
<path d="M81.1879 27.8336H81.5043V25.9095C81.5342 25.8192 81.5764 25.7342 81.6309 25.6543C81.6854 25.5727 81.7496 25.5024 81.8234 25.4434C81.9025 25.3809 81.9904 25.3315 82.0871 25.295C82.1838 25.2568 82.2867 25.2377 82.3957 25.2377C82.5205 25.236 82.6278 25.2525 82.7174 25.2872C82.8088 25.3219 82.8853 25.3731 82.9468 25.4408C83.0066 25.5085 83.0506 25.5918 83.0787 25.6908C83.1086 25.7897 83.1244 25.9034 83.1262 26.0319V27.8336H83.44V26.0267C83.44 25.8583 83.4189 25.7081 83.3767 25.5762C83.3345 25.4443 83.2721 25.3323 83.1895 25.2403C83.1086 25.1501 83.0075 25.0815 82.8862 25.0346C82.7666 24.9878 82.6286 24.9644 82.4722 24.9644C82.3544 24.9644 82.2427 24.9817 82.1372 25.0164C82.0335 25.0511 81.9386 25.098 81.8524 25.157C81.7786 25.2074 81.7118 25.2672 81.652 25.3367C81.5922 25.4061 81.5404 25.4816 81.4964 25.5632L81.478 25.0164H81.1879V27.8336Z" fill="#3D405B"/>
<path d="M85.4838 24.2952H85.1647V25.0164H84.3709V25.2742H85.1647V27.0395C85.1664 27.194 85.1893 27.325 85.2332 27.4326C85.2789 27.5403 85.3414 27.627 85.4205 27.693C85.4996 27.7607 85.5928 27.8093 85.7 27.8388C85.809 27.8701 85.9268 27.8857 86.0534 27.8857C86.1149 27.8857 86.1764 27.8839 86.238 27.8805C86.3013 27.877 86.3619 27.8701 86.4199 27.8596C86.4656 27.8527 86.5087 27.844 86.5492 27.8336C86.5913 27.8232 86.6283 27.8102 86.6599 27.7946L86.6124 27.5576C86.5861 27.5628 86.5544 27.5689 86.5175 27.5758C86.4823 27.581 86.4463 27.5863 86.4094 27.5915C86.3602 27.5967 86.3101 27.6019 86.2591 27.6071C86.2081 27.6106 86.1571 27.6123 86.1061 27.6123C86.02 27.6123 85.9391 27.6027 85.8635 27.5837C85.7879 27.5646 85.722 27.5324 85.6657 27.4873C85.6095 27.4439 85.5655 27.3858 85.5339 27.3129C85.5022 27.24 85.4855 27.1488 85.4838 27.0395V25.2742H86.5412V25.0164H85.4838V24.2952Z" fill="#3D405B"/>
</svg>
