<svg width="18" height="18" viewBox="0 0 18 18" fill="none" xmlns="http://www.w3.org/2000/svg">
<path d="M3 15H6V12H9V9H12V6H15" stroke="#494C69" stroke-width="1.5" stroke-linecap="round" stroke-linejoin="round"/>
<path d="M2.46967 7.71967C2.17678 8.01256 2.17678 8.48744 2.46967 8.78033C2.76256 9.07322 3.23744 9.07322 3.53033 8.78033L2.46967 7.71967ZM8.25 3H9C9 2.69665 8.81727 2.42318 8.53701 2.30709C8.25676 2.191 7.93417 2.25517 7.71967 2.46967L8.25 3ZM7.5 6C7.5 6.41421 7.83579 6.75 8.25 6.75C8.66421 6.75 9 6.41421 9 6H7.5ZM5.25 2.25C4.83579 2.25 4.5 2.58579 4.5 3C4.5 3.41421 4.83579 3.75 5.25 3.75V2.25ZM8.25 3.75C8.66421 3.75 9 3.41421 9 3C9 2.58579 8.66421 2.25 8.25 2.25V3.75ZM3.53033 8.78033L8.78033 3.53033L7.71967 2.46967L2.46967 7.71967L3.53033 8.78033ZM7.5 3V6H9V3H7.5ZM5.25 3.75H8.25V2.25H5.25V3.75Z" fill="#494C69"/>
</svg>
